<?xml version="1.0" encoding="utf-8"?>
<!-- Generator: Adobe Illustrator 22.0.1, SVG Export Plug-In . SVG Version: 6.00 Build 0)  -->
<svg version="1.1" id="Layer_1" xmlns="http://www.w3.org/2000/svg" xmlns:xlink="http://www.w3.org/1999/xlink" x="0px" y="0px"
	 viewBox="0 0 61.9 48.7" style="enable-background:new 0 0 61.9 48.7;" xml:space="preserve">
<style type="text/css">
	.st0{fill:#FFFFFF;}
</style>
<g>
	<path class="st0" d="M40,37.7c-5.9,0-11.8,0-17.7,0c0,0.5,0,0.9,0,1.3c0,1.7,0,3.5,0,5.2c0,2.5-1.9,4.5-4.5,4.5c-2.9,0-5.8,0-8.8,0
		c-2.5,0-4.5-1.9-4.5-4.5c0-2.5,0-5,0-7.5c0-0.2-0.1-0.3-0.3-0.5c-2.7-1.8-4.1-4.3-4.2-7.6c0-1.4,0-2.8,0-4.2c0-3.4,1.5-5.9,4.4-7.7
		c0.2-0.1,0.4-0.3,0.5-0.5c1.5-3.6,3-7.2,4.6-10.8C11.1,1.9,13.9,0,17.7,0c7.9,0,15.7,0,23.6,0c1,0,2,0,3,0c3.8,0.1,6.5,1.9,8.1,5.3
		c1.6,3.6,3.1,7.3,4.7,10.9c0.1,0.2,0.2,0.4,0.4,0.5c2.8,1.8,4.4,4.3,4.4,7.7c0,1.5,0,2.9,0,4.4c-0.1,3.2-1.5,5.7-4.2,7.4
		c-0.2,0.1-0.2,0.2-0.2,0.4c0,2.5,0,5,0,7.5c0,2.6-1.9,4.5-4.5,4.5c-2.9,0-5.8,0-8.7,0c-2.6,0-4.5-1.9-4.5-4.5c0-2.1,0-4.1,0-6.2
		C40,37.9,40,37.8,40,37.7z M31.2,33.2c5,0,9.9,0,14.9,0c2.4,0,4.8,0,7.3,0s4.4-2,4.4-4.4c0-1.5,0-3,0-4.4c0-0.3,0-0.6-0.1-0.9
		c-0.5-2.1-2.2-3.5-4.4-3.5c-4.8,0-9.7,0-14.5,0c-9.6,0-19.3,0-28.9,0c-0.3,0-0.7,0-1,0c-2.3,0.1-4.2,2-4.2,4.3c0,1.6,0,3.1,0,4.7
		c0,2,1.6,3.9,3.6,4.2c0.8,0.1,1.7,0.1,2.5,0.1C17.6,33.2,24.4,33.2,31.2,33.2z M10.2,15.5c14,0,27.9,0,41.9,0
		C52,15.4,52,15.3,52,15.2c-1.1-2.6-2.2-5.3-3.4-7.9c-0.8-1.8-2.2-2.8-4.2-2.8c-2,0-4.1,0-6.1,0c-6.8,0-13.6,0-20.4,0
		c-1.9,0-3.3,1-4,2.7c-1.1,2.5-2.1,4.9-3.2,7.4C10.5,14.9,10.4,15.2,10.2,15.5z M53.3,37.7c-3,0-5.9,0-8.8,0c0,2.2,0,4.4,0,6.6
		c2.9,0,5.9,0,8.8,0C53.3,42.1,53.3,39.9,53.3,37.7z M17.9,37.7c-3,0-5.9,0-8.8,0c0,2.2,0,4.4,0,6.6c2.9,0,5.9,0,8.8,0
		C17.9,42.1,17.9,39.9,17.9,37.7z"/>
	<path class="st0" d="M31.2,24.4c2.2,0,4.3,0,6.5,0c1.1,0,2,0.6,2.3,1.7c0.4,1.4-0.7,2.8-2.2,2.8c-1.7,0-3.4,0-5,0
		c-2.7,0-5.4,0-8.1,0c-1.4,0-2.3-1-2.3-2.3c0-1.1,0.9-2,2-2.1c0.2,0,0.3,0,0.5,0C26.9,24.4,29.1,24.4,31.2,24.4z"/>
	<path class="st0" d="M13.5,31c-2.5,0-4.4-2-4.4-4.4c0-2.5,2-4.4,4.5-4.4s4.4,2,4.4,4.5C17.9,29.1,15.9,31,13.5,31z"/>
	<path class="st0" d="M48.9,31c-2.4,0-4.4-2-4.4-4.4s2-4.4,4.4-4.4s4.4,2,4.4,4.4C53.3,29.1,51.4,31,48.9,31z"/>
</g>
</svg>
