<?xml version="1.0" encoding="utf-8"?>
<!-- Generator: Adobe Illustrator 22.0.1, SVG Export Plug-In . SVG Version: 6.00 Build 0)  -->
<svg version="1.1" id="Layer_1" xmlns="http://www.w3.org/2000/svg" xmlns:xlink="http://www.w3.org/1999/xlink" x="0px" y="0px"
	 viewBox="0 0 77.8 50.5" style="enable-background:new 0 0 77.8 50.5;" xml:space="preserve">
<style type="text/css">
	.st0{fill:#FFFFFF;stroke:#FFFFFF;stroke-miterlimit:10;}
	.st1{fill:#FFFFFF;stroke:#FFFFFF;stroke-width:2;stroke-linecap:round;stroke-linejoin:round;stroke-miterlimit:10;}
</style>
<g>
	<g id="XMLID_4_">
		<g>
			<path class="st0" d="M65.7,39.3c0,0.2,0.1,0.4,0.1,0.7c0,2.1-1.7,3.8-3.8,3.8c-2.1,0-3.8-1.7-3.8-3.8c0-0.2,0-0.4,0.1-0.7H65.7z"
				/>
			<path class="st0" d="M63.5,34c3.9,1.1,3.7,5.2,3.7,5.2h-1.5h-7.5h-1.7c0-2.1,1.2-3.9,2.5-4.5c-1.2-4.4-0.6-7.4,0.4-8.2
				C62.4,27.6,63.1,31.4,63.5,34z"/>
			<path class="st0" d="M52.5,35.5c0.9,2.9,1,3.6,1,3.6v0.1h-6.9h-7.5h-2.9c0,0,2.5-6.9,5-7.1c2.5-0.3,7.9,0,8.5,0
				C50.3,32.1,51.6,32.6,52.5,35.5z"/>
			<path class="st0" d="M46.7,39.3c0,0.2,0,0.4,0,0.7c0,2.1-1.7,3.8-3.8,3.8s-3.8-1.7-3.8-3.8c0-0.2,0-0.4,0.1-0.7H46.7z"/>
		</g>
		<g>
			<path class="st1" d="M56.5,39.3c0-2.1,1.2-3.9,2.5-4.5c-1.2-4.4-0.6-7.4,0.4-8.2c3,1,3.7,4.8,4.1,7.4c3.9,1.1,3.7,5.2,3.7,5.2
				h-1.5h-7.5L56.5,39.3l-3-0.1h-6.9h-7.5h-2.9c0,0,2.5-6.9,5-7.1c2.5-0.3,7.9,0,8.5,0s2,0.4,2.9,3.4c0.9,2.9,1,3.6,1,3.6"/>
			<path class="st1" d="M46.7,39.3c0,0.2,0,0.4,0,0.7c0,2.1-1.7,3.8-3.8,3.8s-3.8-1.7-3.8-3.8c0-0.2,0-0.4,0.1-0.7"/>
			<path class="st1" d="M65.7,39.3c0,0.2,0.1,0.4,0.1,0.7c0,2.1-1.7,3.8-3.8,3.8c-2.1,0-3.8-1.7-3.8-3.8c0-0.2,0-0.4,0.1-0.7"/>
			<path class="st1" d="M61.9,22.6v4h-1.3c-1.1,0-1.9-0.8-2-1.9v-0.1c0-0.6,0.2-1.1,0.6-1.4c0.4-0.4,0.9-0.6,1.4-0.6H61.9z"/>
			<line class="st1" x1="56.3" y1="24.7" x2="58.6" y2="24.7"/>
		</g>
	</g>
</g>
<path class="st0" d="M68.5,2.5c3.8,0,6.9,3.1,6.9,6.9v31.7c0,3.8-3.1,6.9-6.9,6.9h-59c-3.8,0-6.9-3.1-6.9-6.9V9.4
	c-0.1-3.8,3-6.9,6.8-6.9H68.5 M68.5,0.5h-59c-5,0-9,4-9,8.9v31.7c0,4.9,4,8.9,8.9,8.9h59c4.9,0,8.9-4,8.9-8.9V9.4
	C77.4,4.5,73.4,0.5,68.5,0.5L68.5,0.5z"/>
<line class="st1" x1="10.8" y1="13.2" x2="32.7" y2="13.2"/>
<line class="st1" x1="10.8" y1="19.2" x2="39.1" y2="19.2"/>
<line class="st1" x1="10.8" y1="25.2" x2="32.7" y2="25.2"/>
</svg>
