<?xml version="1.0" encoding="utf-8"?>
<!-- Generator: Adobe Illustrator 22.0.1, SVG Export Plug-In . SVG Version: 6.00 Build 0)  -->
<svg version="1.1" id="Layer_1" xmlns="http://www.w3.org/2000/svg" xmlns:xlink="http://www.w3.org/1999/xlink" x="0px" y="0px"
	 viewBox="0 0 77.8 50.5" style="enable-background:new 0 0 77.8 50.5;" xml:space="preserve">
<style type="text/css">
	.st0{fill:#FFFFFF;stroke:#FFFFFF;stroke-miterlimit:10;}
	.st1{fill:#FFFFFF;stroke:#FFFFFF;stroke-width:2;stroke-miterlimit:10;}
	.st2{fill:#FFFFFF;stroke:#FFFFFF;stroke-width:2;stroke-linecap:round;stroke-linejoin:round;stroke-miterlimit:10;}
</style>
<g>
	<path class="st0" d="M68.5,2.5c3.8,0,6.9,3.1,6.9,6.9v31.7c0,3.8-3.1,6.9-6.9,6.9h-59c-3.8,0-6.9-3.1-6.9-6.9V9.4
		c-0.1-3.8,3-6.9,6.8-6.9H68.5 M68.5,0.5h-59c-5,0-9,4-9,8.9v31.7c0,4.9,4,8.9,8.9,8.9h59c4.9,0,8.9-4,8.9-8.9V9.4
		C77.4,4.5,73.4,0.5,68.5,0.5L68.5,0.5z"/>
</g>
<g>
	<g id="XMLID_3_">
		<g>
			<path class="st0" d="M72.7,33.8c0,0,0,2.8,0,4.3s-0.3,1.7-0.9,2c-1.4,0.7-2.9,0.9-2.9,0.9c0-0.2,0.1-0.4,0.1-0.6
				c0-1.6-1.3-2.9-3-2.9c-1.6,0-3,1.3-3,2.9c0,0.2,0,0.4,0.1,0.6h-0.2H45.8h-0.1c0-0.2,0.1-0.4,0.1-0.6c0-1.6-1.3-2.9-3-2.9
				c-1.6,0-3,1.3-3,2.9c0,0.3,0,0.6,0.1,0.9L39.6,41h-2.3c0,0,0-2.8,0-3.4c0-0.6,0.4-3.6,8.4-3.8c8-0.3,18.3,0,18.3,0l1.9-1.9l0,0
				c1.6,0.7,2.4,1.3,2.4,1.3L72.7,33.8z"/>
			<path class="st0" d="M68.9,40.4c0,0.2,0,0.4-0.1,0.6c-0.3,1.3-1.5,2.4-2.9,2.4s-2.6-1-2.9-2.4c0-0.2-0.1-0.4-0.1-0.6
				c0-1.6,1.3-2.9,3-2.9C67.6,37.5,68.9,38.8,68.9,40.4z"/>
			<path class="st0" d="M45.8,40.4c0,0.2,0,0.4-0.1,0.6c-0.3,1.3-1.5,2.4-2.9,2.4c-1.3,0-2.4-0.9-2.8-2.1c-0.1-0.3-0.1-0.6-0.1-0.9
				c0-1.6,1.3-2.9,3-2.9C44.4,37.5,45.8,38.8,45.8,40.4z"/>
		</g>
		<g>
			<path class="st1" d="M65.9,31.9L64,33.8c0,0-10.2-0.2-18.3,0c-8.1,0.3-8.4,3.2-8.4,3.8s0,3.4,0,3.4h2.3"/>
			<path class="st1" d="M40,41.3c-0.1-0.3-0.1-0.6-0.1-0.9c0-1.6,1.3-2.9,3-2.9c1.6,0,3,1.3,3,2.9c0,0.2,0,0.4-0.1,0.6
				c-0.3,1.3-1.5,2.4-2.9,2.4C41.5,43.4,40.4,42.5,40,41.3z"/>
			<path class="st1" d="M63.1,41c0-0.2-0.1-0.4-0.1-0.6c0-1.6,1.3-2.9,3-2.9c1.6,0,3,1.3,3,2.9c0,0.2,0,0.4-0.1,0.6
				c-0.3,1.3-1.5,2.4-2.9,2.4S63.3,42.4,63.1,41z"/>
			<line class="st1" x1="45.8" y1="41" x2="62.8" y2="41"/>
			<path class="st1" d="M68.8,41c0,0,1.5-0.1,2.9-0.9c0.6-0.4,0.9-0.5,0.9-2s0-4.3,0-4.3l-4.3-0.6c0,0-0.9-0.6-2.4-1.3
				c-2-0.9-5.2-1.9-9.1-1.8c-7,0.1-11,3.7-11,3.7"/>
		</g>
	</g>
</g>
<line class="st2" x1="10.6" y1="13.2" x2="32.6" y2="13.2"/>
<line class="st2" x1="10.6" y1="19.2" x2="40.7" y2="19.2"/>
<line class="st2" x1="10.6" y1="25.2" x2="32.6" y2="25.2"/>
</svg>
