<?xml version="1.0" encoding="utf-8"?>
<!-- Generator: Adobe Illustrator 22.0.1, SVG Export Plug-In . SVG Version: 6.00 Build 0)  -->
<svg version="1.1" id="Layer_1" xmlns="http://www.w3.org/2000/svg" xmlns:xlink="http://www.w3.org/1999/xlink" x="0px" y="0px"
	 viewBox="0 0 76.1 48.7" style="enable-background:new 0 0 76.1 48.7;" xml:space="preserve">
<style type="text/css">
	.st0{display:none;}
	.st1{display:inline;fill:#FFFFFF;}
	.st2{fill:#FFFFFF;}
</style>
<g class="st0">
	<path class="st1" d="M46.7,37.7c-5.9,0-11.8,0-17.7,0c0,0.5,0,0.9,0,1.3c0,1.7,0,3.5,0,5.2c0,2.5-1.9,4.5-4.5,4.5
		c-2.9,0-5.8,0-8.8,0c-2.5,0-4.5-1.9-4.5-4.5c0-2.5,0-5,0-7.5c0-0.2-0.1-0.3-0.3-0.5c-2.7-1.8-4.1-4.3-4.2-7.6c0-1.4,0-2.8,0-4.2
		c0-3.4,1.5-5.9,4.4-7.7c0.2-0.1,0.4-0.3,0.5-0.5c1.5-3.6,3-7.2,4.6-10.8C17.8,1.9,20.6,0,24.4,0C32.3,0,40.1,0,48,0c1,0,2,0,3,0
		c3.8,0.1,6.5,1.9,8.1,5.3c1.6,3.6,3.1,7.3,4.7,10.9c0.1,0.2,0.2,0.4,0.4,0.5c2.8,1.8,4.4,4.3,4.4,7.7c0,1.5,0,2.9,0,4.4
		c-0.1,3.2-1.5,5.7-4.2,7.4c-0.2,0.1-0.2,0.2-0.2,0.4c0,2.5,0,5,0,7.5c0,2.6-1.9,4.5-4.5,4.5c-2.9,0-5.8,0-8.7,0
		c-2.6,0-4.5-1.9-4.5-4.5c0-2.1,0-4.1,0-6.2C46.7,37.9,46.7,37.8,46.7,37.7z M37.9,33.2c5,0,9.9,0,14.9,0c2.4,0,4.8,0,7.3,0
		s4.4-2,4.4-4.4c0-1.5,0-3,0-4.4c0-0.3,0-0.6-0.1-0.9C63.9,21.4,62.2,20,60,20c-4.8,0-9.7,0-14.5,0c-9.6,0-19.3,0-28.9,0
		c-0.3,0-0.7,0-1,0c-2.3,0.1-4.2,2-4.2,4.3c0,1.6,0,3.1,0,4.7c0,2,1.6,3.9,3.6,4.2c0.8,0.1,1.7,0.1,2.5,0.1
		C24.3,33.2,31.1,33.2,37.9,33.2z M16.9,15.5c14,0,27.9,0,41.9,0c-0.1-0.1-0.1-0.2-0.1-0.3c-1.1-2.6-2.2-5.3-3.4-7.9
		c-0.8-1.8-2.2-2.8-4.2-2.8c-2,0-4.1,0-6.1,0c-6.8,0-13.6,0-20.4,0c-1.9,0-3.3,1-4,2.7c-1.1,2.5-2.1,4.9-3.2,7.4
		C17.2,14.9,17.1,15.2,16.9,15.5z M60,37.7c-3,0-5.9,0-8.8,0c0,2.2,0,4.4,0,6.6c2.9,0,5.9,0,8.8,0C60,42.1,60,39.9,60,37.7z
		 M24.6,37.7c-3,0-5.9,0-8.8,0c0,2.2,0,4.4,0,6.6c2.9,0,5.9,0,8.8,0C24.6,42.1,24.6,39.9,24.6,37.7z"/>
	<path class="st1" d="M37.9,24.4c2.2,0,4.3,0,6.5,0c1.1,0,2,0.6,2.3,1.7c0.4,1.4-0.7,2.8-2.2,2.8c-1.7,0-3.4,0-5,0
		c-2.7,0-5.4,0-8.1,0c-1.4,0-2.3-1-2.3-2.3c0-1.1,0.9-2,2-2.1c0.2,0,0.3,0,0.5,0C33.6,24.4,35.8,24.4,37.9,24.4z"/>
	<path class="st1" d="M20.2,31c-2.5,0-4.4-2-4.4-4.4c0-2.5,2-4.4,4.5-4.4s4.4,2,4.4,4.5C24.6,29.1,22.6,31,20.2,31z"/>
	<path class="st1" d="M55.6,31c-2.4,0-4.4-2-4.4-4.4s2-4.4,4.4-4.4s4.4,2,4.4,4.4C60,29.1,58.1,31,55.6,31z"/>
</g>
<g>
	<path class="st2" d="M10.8,46c-1-0.3-2-0.5-3-0.9c-3.3-1.3-5.5-3.7-6.9-6.9c-0.9-2.1-1-4.2-0.8-6.4c0.2-2.3,1.1-4.4,2.5-6.2
		C2.7,25.4,2.9,25.2,3,25c-1.2-0.5-1.4-1.2-1.1-2.5c0.5-1.6,1.6-2.6,3-3.3c2.1-1.1,4.4-1.6,6.8-1.5c0.1-0.5,0.2-1.1,0.4-1.6
		c0.2-0.9,0.9-1.4,1.8-1.5c1-0.1,2.1,0.1,3.1,0.2c1.7,0.2,3.5,0.5,5.2,0.7c1.5,0.2,3.1,0.2,4.6,0.3c0.8,0.1,1.6,0.6,1.9,1.4
		c4.9-5.9,11.1-9.1,18.8-9.2c-1.5-0.2-2.9-0.4-4.4-0.6c-1-0.1-1.9-0.2-2.9-0.5c-0.9-0.3-1.6-0.9-1.5-2.4c0.1-0.7,0.8-1.5,1.7-1.6
		c0.4,0,0.9,0.1,1.3,0.2c2.1,0.7,4.3,1.5,6.4,2.2c0.4,0.1,0.6,0.1,1-0.2c1.1-0.9,2.3-1.5,3.7-1.6c1.7-0.2,3.3-0.3,5-0.2
		c1.4,0.1,1.6,0.6,1.7,2c0.1,1.8,0.1,3.6,0,5.4c0,1.4-0.7,2-2.2,2c-1,0-2,0-3.1,0c1.7,2.9,3.3,5.7,4.9,8.3c1.7-0.2,3.2-0.4,4.8-0.5
		c2.7,0,5.1,1,7.2,2.5c2.5,1.9,4.2,4.4,4.7,7.5c0.7,3.7,0.1,7.3-2.3,10.4c-1.9,2.5-4.4,4.1-7.5,4.8c-0.3,0.1-0.5,0.1-0.8,0.2
		c-1.2,0-2.5,0-3.7,0c-0.1,0-0.1-0.1-0.2-0.1c-3.3-0.5-5.9-2-8-4.6c-2.7-3.6-3.4-7.5-2.1-11.8c0.7-2.2,2-4,3.6-5.6
		c-1.3-2.2-2.6-4.5-4-6.8c-0.1,0.2-0.2,0.3-0.2,0.4c-0.3,1.3-0.5,2.7-0.8,4c-0.6,3.3-1.2,6.5-1.9,9.8c-0.3,1.3-1,2.5-2,3.4
		c-1.5,1.3-3.4,1.9-5.4,1.9c-3.2,0-6.4,0-9.6,0c-1.8,0-3.5-0.1-5.2-0.7c-0.2-0.1-0.5,0.2-0.6,0.4c-0.3,0.6-0.4,1.3-0.6,1.9
		c-1.4,3.5-3.8,5.9-7.4,7.2c-0.8,0.3-1.7,0.5-2.5,0.7C13.2,46,12,46,10.8,46z M57.4,28.3c-2,1.9-3.2,6.5,0,10.2
		c2.2,2.5,6.3,3.7,9.6,1.7c3.8-2.2,4.9-6.2,3.4-9.9c-1.6-3.8-5.9-5.4-8.7-4.5c0.2,0.3,0.4,0.7,0.6,1c1.1,1.9,2.2,3.8,3.2,5.7
		c0.5,1,0,2.5-0.9,3c-1.1,0.6-2.6,0.4-3.2-0.6c-0.5-0.8-1-1.6-1.5-2.5C59,31,58.2,29.6,57.4,28.3z M14.7,26.8
		c-1-0.3-1.8-0.6-2.6-0.9c-0.4-0.1-0.9-0.3-1.3-0.2c-2.1,0.4-3.6,1.6-4.7,3.4c-0.9,1.3-1.2,2.9-1.2,4.5c-0.1,3.5,3,7,6.5,7.4
		c3.4,0.4,6.1-0.8,8-3.7c0.3-0.5,0.5-1,0.8-1.6c-0.4,0-0.7,0-1,0c-2.2,0-4.4,0-6.6,0c-1.3,0-2.3-1-2.3-2.3c-0.1-1.1,0.6-1.8,1.2-2.5
		C12.4,29.6,13.5,28.3,14.7,26.8z M17.9,30.8c0.8,0,1.4,0,2.2,0c-0.4-0.5-0.8-0.9-1.2-1.3C18.5,29.9,18.2,30.3,17.9,30.8z"/>
</g>
</svg>
