<?xml version="1.0" encoding="utf-8"?>
<!-- Generator: Adobe Illustrator 22.0.1, SVG Export Plug-In . SVG Version: 6.00 Build 0)  -->
<svg version="1.1" id="Layer_1" xmlns="http://www.w3.org/2000/svg" xmlns:xlink="http://www.w3.org/1999/xlink" x="0px" y="0px"
	 viewBox="0 0 76.1 58" style="enable-background:new 0 0 76.1 58;" xml:space="preserve">
<style type="text/css">
	.st0{display:none;}
	.st1{display:inline;fill:#FFFFFF;}
	.st2{display:inline;}
	.st3{fill:#FFFFFF;}
</style>
<g class="st0">
	<path class="st1" d="M46.7,42.3c-5.9,0-11.8,0-17.7,0c0,0.5,0,0.9,0,1.3c0,1.7,0,3.5,0,5.2c0,2.5-1.9,4.5-4.5,4.5
		c-2.9,0-5.8,0-8.8,0c-2.5,0-4.5-1.9-4.5-4.5c0-2.5,0-5,0-7.5c0-0.2-0.1-0.3-0.3-0.5c-2.7-1.8-4.1-4.3-4.2-7.6c0-1.4,0-2.8,0-4.2
		c0-3.4,1.5-5.9,4.4-7.7c0.2-0.1,0.4-0.3,0.5-0.5c1.5-3.6,3-7.2,4.6-10.8c1.6-3.5,4.4-5.4,8.2-5.4c7.9,0,15.7,0,23.6,0c1,0,2,0,3,0
		c3.8,0.1,6.5,1.9,8.1,5.3c1.6,3.6,3.1,7.3,4.7,10.9c0.1,0.2,0.2,0.4,0.4,0.5c2.8,1.8,4.4,4.3,4.4,7.7c0,1.5,0,2.9,0,4.4
		c-0.1,3.2-1.5,5.7-4.2,7.4c-0.2,0.1-0.2,0.2-0.2,0.4c0,2.5,0,5,0,7.5c0,2.6-1.9,4.5-4.5,4.5c-2.9,0-5.8,0-8.7,0
		c-2.6,0-4.5-1.9-4.5-4.5c0-2.1,0-4.1,0-6.2C46.7,42.5,46.7,42.4,46.7,42.3z M37.9,37.8c5,0,9.9,0,14.9,0c2.4,0,4.8,0,7.3,0
		s4.4-2,4.4-4.4c0-1.5,0-3,0-4.4c0-0.3,0-0.6-0.1-0.9c-0.5-2.1-2.2-3.5-4.4-3.5c-4.8,0-9.7,0-14.5,0c-9.6,0-19.3,0-28.9,0
		c-0.3,0-0.7,0-1,0c-2.3,0.1-4.2,2-4.2,4.3c0,1.6,0,3.1,0,4.7c0,2,1.6,3.9,3.6,4.2c0.8,0.1,1.7,0.1,2.5,0.1
		C24.3,37.8,31.1,37.8,37.9,37.8z M16.9,20.1c14,0,27.9,0,41.9,0c-0.1-0.1-0.1-0.2-0.1-0.3c-1.1-2.6-2.2-5.3-3.4-7.9
		c-0.8-1.8-2.2-2.8-4.2-2.8c-2,0-4.1,0-6.1,0c-6.8,0-13.6,0-20.4,0c-1.9,0-3.3,1-4,2.7c-1.1,2.5-2.1,4.9-3.2,7.4
		C17.2,19.5,17.1,19.8,16.9,20.1z M60,42.3c-3,0-5.9,0-8.8,0c0,2.2,0,4.4,0,6.6c2.9,0,5.9,0,8.8,0C60,46.7,60,44.5,60,42.3z
		 M24.6,42.3c-3,0-5.9,0-8.8,0c0,2.2,0,4.4,0,6.6c2.9,0,5.9,0,8.8,0C24.6,46.7,24.6,44.5,24.6,42.3z"/>
	<path class="st1" d="M37.9,29c2.2,0,4.3,0,6.5,0c1.1,0,2,0.6,2.3,1.7c0.4,1.4-0.7,2.8-2.2,2.8c-1.7,0-3.4,0-5,0c-2.7,0-5.4,0-8.1,0
		c-1.4,0-2.3-1-2.3-2.3c0-1.1,0.9-2,2-2.1c0.2,0,0.3,0,0.5,0C33.6,29,35.8,29,37.9,29z"/>
	<path class="st1" d="M20.2,35.6c-2.5,0-4.4-2-4.4-4.4c0-2.5,2-4.4,4.5-4.4s4.4,2,4.4,4.5C24.6,33.7,22.6,35.6,20.2,35.6z"/>
	<path class="st1" d="M55.6,35.6c-2.4,0-4.4-2-4.4-4.4s2-4.4,4.4-4.4s4.4,2,4.4,4.4C60,33.7,58.1,35.6,55.6,35.6z"/>
</g>
<g class="st0">
	<path class="st1" d="M10.8,50.6c-1-0.3-2-0.5-3-0.9c-3.3-1.3-5.5-3.7-6.9-6.9c-0.9-2.1-1-4.2-0.8-6.4c0.2-2.3,1.1-4.4,2.5-6.2
		C2.7,30,2.9,29.8,3,29.6c-1.2-0.5-1.4-1.2-1.1-2.5c0.5-1.6,1.6-2.6,3-3.3c2.1-1.1,4.4-1.6,6.8-1.5c0.1-0.5,0.2-1.1,0.4-1.6
		c0.2-0.9,0.9-1.4,1.8-1.5c1-0.1,2.1,0.1,3.1,0.2c1.7,0.2,3.5,0.5,5.2,0.7c1.5,0.2,3.1,0.2,4.6,0.3c0.8,0.1,1.6,0.6,1.9,1.4
		c4.9-5.9,11.1-9.1,18.8-9.2c-1.5-0.2-2.9-0.4-4.4-0.6c-1-0.1-1.9-0.2-2.9-0.5c-0.9-0.3-1.6-0.9-1.5-2.4c0.1-0.7,0.8-1.5,1.7-1.6
		c0.4,0,0.9,0.1,1.3,0.2c2.1,0.7,4.3,1.5,6.4,2.2c0.4,0.1,0.6,0.1,1-0.2c1.1-0.9,2.3-1.5,3.7-1.6c1.7-0.2,3.3-0.3,5-0.2
		c1.4,0.1,1.6,0.6,1.7,2c0.1,1.8,0.1,3.6,0,5.4c0,1.4-0.7,2-2.2,2c-1,0-2,0-3.1,0c1.7,2.9,3.3,5.7,4.9,8.3c1.7-0.2,3.2-0.4,4.8-0.5
		c2.7,0,5.1,1,7.2,2.5c2.5,1.9,4.2,4.4,4.7,7.5c0.7,3.7,0.1,7.3-2.3,10.4c-1.9,2.5-4.4,4.1-7.5,4.8c-0.3,0.1-0.5,0.1-0.8,0.2
		c-1.2,0-2.5,0-3.7,0c-0.1,0-0.1-0.1-0.2-0.1c-3.3-0.5-5.9-2-8-4.6c-2.7-3.6-3.4-7.5-2.1-11.8c0.7-2.2,2-4,3.6-5.6
		c-1.3-2.2-2.6-4.5-4-6.8c-0.1,0.2-0.2,0.3-0.2,0.4c-0.3,1.3-0.5,2.7-0.8,4c-0.6,3.3-1.2,6.5-1.9,9.8c-0.3,1.3-1,2.5-2,3.4
		c-1.5,1.3-3.4,1.9-5.4,1.9c-3.2,0-6.4,0-9.6,0c-1.8,0-3.5-0.1-5.2-0.7c-0.2-0.1-0.5,0.2-0.6,0.4c-0.3,0.6-0.4,1.3-0.6,1.9
		c-1.4,3.5-3.8,5.9-7.4,7.2c-0.8,0.3-1.7,0.5-2.5,0.7C13.2,50.6,12,50.6,10.8,50.6z M57.4,32.9c-2,1.9-3.2,6.5,0,10.2
		c2.2,2.5,6.3,3.7,9.6,1.7c3.8-2.2,4.9-6.2,3.4-9.9c-1.6-3.8-5.9-5.4-8.7-4.5c0.2,0.3,0.4,0.7,0.6,1c1.1,1.9,2.2,3.8,3.2,5.7
		c0.5,1,0,2.5-0.9,3c-1.1,0.6-2.6,0.4-3.2-0.6c-0.5-0.8-1-1.6-1.5-2.5C59,35.6,58.2,34.2,57.4,32.9z M14.7,31.4
		c-1-0.3-1.8-0.6-2.6-0.9c-0.4-0.1-0.9-0.3-1.3-0.2c-2.1,0.4-3.6,1.6-4.7,3.4c-0.9,1.3-1.2,2.9-1.2,4.5c-0.1,3.5,3,7,6.5,7.4
		c3.4,0.4,6.1-0.8,8-3.7c0.3-0.5,0.5-1,0.8-1.6c-0.4,0-0.7,0-1,0c-2.2,0-4.4,0-6.6,0c-1.3,0-2.3-1-2.3-2.3c-0.1-1.1,0.6-1.8,1.2-2.5
		C12.4,34.2,13.5,32.9,14.7,31.4z M17.9,35.4c0.8,0,1.4,0,2.2,0c-0.4-0.5-0.8-0.9-1.2-1.3C18.5,34.5,18.2,34.9,17.9,35.4z"/>
</g>
<g class="st0">
	<path class="st1" d="M37.7,53c-9.8,0-19.6,0-29.4,0c-1,0-2.1,0-3.1-0.3c-2.3-0.8-3-3.2-1.2-4.8c4.6-4.1,5.8-9,5.4-15
		c-0.5-8-0.1-16-0.1-24c0-3,0.7-3.7,3.6-3.8c16.6,0,33.2,0,49.8,0c3,0,3.6,0.7,3.6,3.7c0,10.2,0,20.3,0.1,30.5
		c0,1.3,0.6,2.7,1.4,3.7c1.1,1.7,2.6,3.2,3.9,4.8c1.7,2.1,0.9,4.5-1.8,5.1C69.1,53,68.2,53,67.3,53C57.5,53,47.6,53,37.7,53z
		 M37.8,39c7.3,0,14.5,0,21.8,0c2.6,0,3.2-0.6,3.2-3.3c0-8.4,0-16.7,0-25.1c0-2.7-0.5-3.3-3.2-3.3c-14.4,0-28.9,0-43.3,0
		c-2.7,0-3.2,0.6-3.2,3.3c0,8.4,0,16.7,0,25.1c0,2.7,0.6,3.3,3.2,3.3C23.5,39,30.7,39,37.8,39z M48.3,49.1c-0.8-2.1-2.1-2.5-3.9-2.5
		c-4.4,0.1-8.9,0.1-13.3,0c-1.9,0-2.8,0.8-3.4,2.5C34.6,49.1,41.4,49.1,48.3,49.1z M32.3,50.7c1.7,1.6,10.4,1.4,11.5,0
		C39.8,50.7,36.1,50.7,32.3,50.7z"/>
	<path class="st1" d="M49.1,29.5c-0.7,1.2-1.4,2.5-2.3,3.7c-2.2,3.1-2.9,3.2-6.5,2.2c-1.4-0.4-3,0.2-4.5,0.2c-1.4,0-3.1,0.1-4.1-0.6
		c-3.6-2.5-5.7-9.5-4.5-13.7c1.2-4,4.6-5.7,8.6-4.7c1.6,0.4,3.5,0.4,5.1,0c2.9-0.7,5.2-0.2,7.2,2.1C44.2,22.7,44.5,25.8,49.1,29.5z"
		/>
	<path class="st1" d="M42.7,10.2c0.1,3.5-1.5,5.4-4.9,6.1C37.2,13.4,39,11.1,42.7,10.2z"/>
</g>
<g class="st0">
	<path class="st1" d="M31,1.2c0.1-0.4,0.4-0.8,0.7-1C32.1,0,32.5,0.1,33,0.1c2.9,0,5.7,0,8.6,0c1,0,1.4,0.2,1.7,1.2
		c0,0.4,0,0.7,0.1,1c0,0.4,0.1,0.7,0.1,1c0,0.4,0.1,0.7,0.1,1c0,0.4,0.1,0.7,0.1,1C43.8,6,43.8,6.7,44,7.4c0,0.3,0.1,0.6,0.1,0.8
		v0.1v0.1c0,0.5,0.1,1,0.2,1.5c0,0.1,0,0.3,0,0.4c0,0.5,0.1,0.9,0.2,1.4c0,0.3,0,0.5,0.1,0.8c0.1,0.7,0.1,1.4,0.3,2.1
		c0,0.2-0.1,0.5,0.2,0.7c0.7,0.4,1.3,0.8,1.9,1.3c0.1,0,0.1,0.1,0.2,0.1c0.3,0.3,0.6,0.5,0.9,0.8c0.1,0.1,0.2,0.2,0.3,0.3
		c0.2,0.3,0.5,0.5,0.7,0.8c0.1,0.1,0.1,0.1,0.2,0.2c0.3,0.4,0.5,0.7,0.8,1.1c0.2,0.3,0.4,0.7,0.6,1c0.1,0.2,0.3,0.5,0.4,0.7
		c0.1,0.1,0.1,0.2,0.2,0.3c0.3,0.7,0.6,1.4,0.9,2.1c0.1,0.3,0.2,0.7,0.3,1c0.1,0.3,0.1,0.7,0.2,1s0.1,0.7,0.2,1
		c0,0.4,0.1,0.9,0.1,1.3c0,0.1,0,0.2,0.2,0.2c0.1,0,0.3,0,0.3-0.1c0-0.2,0.2-0.2,0.2-0.4c0.1-0.1,0.3-0.1,0.5-0.1
		c0.1,0,0.1,0.1,0.2,0.1c0.2,0.3,0.1,0.7,0.1,1s0,0.7-0.1,1c0,0-0.1,0-0.1,0.1c-0.4,0.1-0.7,0-0.8-0.3c0-0.2-0.2-0.2-0.3-0.2
		c-0.2,0-0.2,0.2-0.2,0.3c0,0.8-0.1,1.5-0.3,2.3c-0.1,0.3-0.1,0.7-0.2,1s-0.2,0.7-0.3,1c0,0.1-0.1,0.1-0.1,0.2
		c-0.1,0.3-0.2,0.5-0.3,0.8c-0.2,0.3-0.3,0.7-0.5,1c-0.4,0.7-0.8,1.4-1.2,2c-0.3,0.4-0.5,0.7-0.8,1.1c-0.1,0.1-0.1,0.1-0.2,0.2
		c-0.3,0.3-0.5,0.6-0.8,0.8c-0.1,0.1-0.2,0.2-0.3,0.3c-0.2,0.2-0.5,0.4-0.7,0.6c-0.1,0.1-0.2,0.2-0.3,0.3c-0.6,0.4-1.2,0.9-1.9,1.3
		C45,42.8,45,42.9,45,43c0,0.3-0.1,0.7-0.1,1l0,0c-0.1,0.1,0,0.2-0.1,0.3v0.1c0.1,0.3,0.1,0.6,0.1,0.9c-0.1,0.4-0.1,0.8-0.2,1.2
		c-0.1,0.2-0.1,0.5-0.1,0.8c0,0-0.1,0.1,0,0.1v0.1c-0.1,0.3-0.1,0.7-0.1,1c-0.1,0.3-0.2,0.6-0.1,1c-0.1,0.4-0.1,0.8-0.2,1.2
		c-0.2,0.7-0.3,1.3-0.3,1.9c-0.1,0.3-0.1,0.7-0.1,1c0,0.4-0.2,0.7-0.1,1.1c-0.1,0.3-0.1,0.7-0.1,1c-0.1,0.3-0.1,0.7-0.1,1
		c-0.2,0.7-0.6,1.1-1.4,1.2c-0.3,0-0.6,0-0.9,0c-0.4,0-0.8,0-1.2,0c-0.3,0-0.6,0-0.9,0c-0.4,0-0.8,0-1.2,0c-0.3,0-0.6,0-0.9,0
		c-0.4,0-0.8,0-1.2,0c-0.3,0-0.6,0-0.9,0c-0.4,0-0.8,0-1.2,0c-0.3,0-0.6,0-0.9,0c-0.4,0-0.7,0-1.1-0.1l0,0c-0.5-0.3-0.7-0.7-0.8-1.3
		c0-0.3,0-0.5-0.1-0.8c0-0.3,0-0.5-0.1-0.8v-0.1c0-0.4-0.1-0.8-0.2-1.2c0-0.3-0.1-0.6-0.1-0.8c0-0.1,0-0.1,0-0.1l0,0
		c0-0.3,0-0.7-0.1-1c0-0.4-0.1-0.7-0.1-1c0-0.4-0.1-0.7-0.1-1S30,49,30,48.7c-0.1-0.7-0.1-1.4-0.3-2.1c0-0.4-0.1-0.7-0.1-1
		c0-0.4,0-0.7-0.1-1.1v-0.1c0-0.1,0-0.1,0-0.1c0-0.2,0-0.5-0.1-0.7c0.1-0.5-0.2-0.7-0.6-0.9c-0.1-0.1-0.2-0.1-0.3-0.2
		c-0.3-0.2-0.5-0.4-0.8-0.6c-0.2-0.2-0.4-0.3-0.6-0.5c-0.1-0.1-0.2-0.2-0.4-0.3c-0.9-0.8-1.7-1.7-2.5-2.8c-0.2-0.3-0.4-0.6-0.6-0.8
		c0-0.1-0.1-0.1-0.1-0.2c-0.3-0.7-0.7-1.4-1-2.1c-0.1-0.4-0.3-0.7-0.4-1.1c-0.2-0.7-0.3-1.3-0.5-2c-0.1-0.3-0.1-0.7-0.2-1
		c0-0.3-0.1-0.7-0.1-1s0-0.7,0-1s0-0.7,0-1s0.1-0.7,0.1-1c0.1-0.3,0.1-0.7,0.2-1c0.2-0.7,0.3-1.4,0.6-2.1c0.1-0.3,0.2-0.6,0.4-1
		c0.1-0.1,0.1-0.3,0.2-0.4c0.1-0.2,0.3-0.5,0.3-0.7c0.2-0.3,0.4-0.7,0.6-1l0.1-0.1c0.2-0.3,0.4-0.6,0.6-0.9c0.4-0.5,0.7-1,1.1-1.4
		c0.7-0.8,1.5-1.5,2.4-2.2c0.2-0.2,0.4-0.3,0.6-0.5c0.1-0.1,0.3-0.2,0.4-0.2c0.2-0.2,0.6-0.2,0.5-0.6c0.1-0.4,0.2-0.9,0.2-1.3
		c0-0.3,0.2-0.7,0.1-1c0.1-0.3,0.1-0.7,0.1-1c0.1-0.1,0-0.3,0.1-0.4c0.1-0.1,0.1-0.1,0-0.2V11c0.2-0.7,0.2-1.5,0.3-2.3
		c0-0.4,0.1-0.7,0.1-1.1c0.1-0.3,0.1-0.7,0.1-1c0.1-0.3,0.1-0.7,0.1-1c0.1-0.4,0.1-0.8,0.2-1.2c0-0.3,0.1-0.5,0.1-0.8
		C30.9,2.6,30.9,1.9,31,1.2z M26.6,39.3c0.3,0.3,0.7,0.7,1,0.9c0.1,0.1,0.1,0.1,0.2,0.2c0.3,0.2,0.5,0.5,0.8,0.6
		c0.6,0.5,1.3,0.9,2.1,1.2c0.1,0.1,0.2,0.1,0.4,0.2c0.2,0.1,0.4,0.2,0.6,0.3c0.3,0.2,0.7,0.3,1,0.4s0.7,0.2,1,0.3
		c0.7,0.2,1.4,0.3,2.1,0.3c0.1,0,0.1,0,0.2,0c1,0.1,1.9,0.1,2.9-0.1c0.7-0.1,1.4-0.2,2.1-0.4c0.4-0.1,0.7-0.2,1-0.3
		c0.7-0.2,1.4-0.5,2.1-0.9c0.4-0.2,0.7-0.4,1.1-0.6c0.8-0.5,1.6-1.1,2.3-1.8c2.6-2.6,4.1-5.7,4.5-9.4c0.1-1.5,0-3-0.3-4.5
		c-0.6-2.6-1.8-4.9-3.7-6.9c-0.5-0.5-1-1-1.6-1.4c-0.3-0.3-0.7-0.6-1.1-0.8c-0.3-0.2-0.7-0.4-1.1-0.6c-0.7-0.4-1.3-0.7-2.1-0.9
		c-0.3-0.1-0.7-0.2-1-0.3c-0.7-0.2-1.4-0.3-2.1-0.4c-0.1,0-0.3,0-0.4,0c-0.9-0.1-1.8-0.1-2.7,0c-0.7,0-1.4,0.1-2.1,0.3
		c-0.4,0.1-0.8,0.2-1.1,0.3c-0.7,0.2-1.3,0.4-2,0.8c-0.4,0.1-0.7,0.3-1,0.5c-0.2,0.1-0.4,0.2-0.6,0.4c-0.2,0.1-0.3,0.2-0.5,0.3
		c-0.3,0.2-0.6,0.4-0.9,0.7l-0.1,0.1c-0.4,0.3-0.7,0.6-1,1c-0.3,0.3-0.6,0.7-0.9,1c-0.1,0.1-0.1,0.2-0.2,0.3
		c-0.2,0.2-0.4,0.5-0.6,0.8c-0.5,0.6-0.8,1.3-1.2,2c-0.3,0.7-0.6,1.4-0.8,2.1c-0.1,0.3-0.2,0.7-0.3,1s-0.2,0.7-0.2,1s-0.1,0.7-0.1,1
		c-0.1,0.3,0,0.7,0,1s0,0.7,0,1s0.1,0.7,0.1,1s0.1,0.7,0.2,1c0,0.4,0.1,0.7,0.3,1c0.2,0.7,0.5,1.5,0.8,2.1c0.3,0.7,0.7,1.4,1.2,2.1
		c0.1,0.3,0.3,0.5,0.5,0.7c0,0.1,0.1,0.2,0.2,0.3C25.9,38.7,26.3,39,26.6,39.3z"/>
	<g class="st2">
		<path class="st3" d="M48.2,28.7c0.8,0,1.6,0,2.4,0c0.2,0,0.4,0,0.5,0.3c0,0.3-0.2,0.4-0.5,0.4c-0.8,0-1.6,0-2.4,0
			c-0.2,0-0.3-0.1-0.4-0.3C47.9,28.8,48,28.7,48.2,28.7z"/>
		<path class="st3" d="M49.2,22c0.1,0.2,0.1,0.4-0.2,0.5s-0.5,0.3-0.8,0.5c-0.4,0.2-0.7,0.4-1.1,0.6c-0.1,0-0.2,0.1-0.2,0.1
			c-0.1,0-0.3,0-0.4,0c-0.2-0.3-0.2-0.4,0.2-0.6c0.1-0.1,0.3-0.2,0.4-0.3c0,0,0.1,0,0.1-0.1c0.4-0.2,0.7-0.4,1-0.6
			c0.1-0.1,0.3-0.2,0.4-0.2C48.8,21.9,49,21.9,49.2,22z"/>
		<path class="st3" d="M37.5,40.3c0,0.7,0,1.4,0,2.1c0,0.2,0,0.3-0.2,0.4c-0.2,0.1-0.3,0-0.4-0.1c0-0.1,0-0.2-0.1-0.4
			c0-0.3,0-0.7,0-1s0-0.7,0-1c0-0.2,0-0.4,0.1-0.6c0.4-0.1,0.5,0,0.5,0.4C37.5,40.2,37.5,40.3,37.5,40.3z"/>
		<path class="st3" d="M36.9,15.1c0.4-0.1,0.5,0,0.5,0.4c0,0.3,0,0.7,0,1s0,0.7,0,1c0,0.1,0,0.1,0,0.2c0,0.2,0,0.3-0.2,0.4
			c-0.2,0.1-0.3,0-0.4-0.1c-0.1-0.2,0-0.3-0.1-0.5c0-0.3,0-0.7,0-1s0-0.7,0-1C36.8,15.4,36.8,15.3,36.9,15.1z"/>
		<path class="st3" d="M25.3,21.8c0.1,0,0.1,0,0.2,0l0,0c-0.1,0.1,0,0.1,0.1,0.2c0.3,0.2,0.6,0.4,1,0.5c0.4,0.2,0.7,0.4,1.1,0.7
			c0.3,0.1,0.4,0.3,0.2,0.6c-0.1,0-0.2,0-0.2,0.1c-0.1,0-0.1,0-0.2-0.1c-0.3-0.2-0.6-0.3-0.8-0.5c-0.4-0.2-0.7-0.4-1.1-0.7
			C25,22.3,24.9,22.2,25.3,21.8z"/>
		<path class="st3" d="M23.5,28.7c0.8,0,1.7,0,2.5,0c0.2,0,0.4,0.1,0.5,0.3c-0.1,0.2-0.2,0.3-0.5,0.3c-0.8,0-1.7,0-2.5,0
			c-0.1-0.1-0.2-0.2-0.3-0.3C23.3,28.9,23.3,28.7,23.5,28.7z"/>
		<path class="st3" d="M46.6,34.2c0.5,0.1,0.8,0.4,1.2,0.6c0.1,0.1,0.3,0.1,0.4,0.2c0.1,0.1,0.3,0.2,0.4,0.3
			c0.2,0.1,0.3,0.2,0.5,0.3c0.1,0.1,0.1,0.3,0,0.4c-0.2,0.1-0.3,0.1-0.5,0c-0.1-0.1-0.2-0.1-0.4-0.2c-0.4-0.2-0.7-0.4-1.1-0.6l0,0
			c-0.2-0.1-0.3-0.2-0.5-0.3C46.3,34.6,46.3,34.5,46.6,34.2z"/>
		<path class="st3" d="M44.1,40.3L44.1,40.3L44.1,40.3c0.1,0.3,0.4,0.5,0,0.8c-0.2,0.1-0.4-0.1-0.5-0.2c-0.3-0.5-0.6-1.1-0.9-1.6
			c-0.1-0.1-0.1-0.2-0.2-0.4c-0.1-0.2-0.2-0.4-0.1-0.6c0.3-0.2,0.4-0.1,0.6,0.2c0.2,0.3,0.3,0.6,0.5,0.8
			C43.7,39.7,43.8,40,44.1,40.3z"/>
		<path class="st3" d="M44.1,17.7C44.1,17.7,44.1,17.8,44.1,17.7c-0.3,0.4-0.5,0.7-0.6,1c-0.2,0.3-0.3,0.6-0.5,0.9
			c-0.2,0.3-0.3,0.3-0.6,0.1c0-0.1,0-0.3,0.1-0.4c0.1-0.2,0.2-0.4,0.3-0.6c0.3-0.5,0.6-1,0.9-1.5c0.1-0.2,0.2-0.3,0.5-0.3
			C44.4,17.2,44.2,17.4,44.1,17.7z"/>
		<path class="st3" d="M30.2,40.4c0.4-0.7,0.8-1.4,1.2-2.1c0.1-0.1,0.2-0.1,0.3-0.1s0.1,0.1,0.2,0.1c0.1,0.2,0.1,0.3,0,0.5
			c-0.3,0.5-0.6,1-0.9,1.5c-0.1,0.2-0.3,0.4-0.4,0.6c-0.1,0.1-0.3,0.2-0.5,0C29.9,40.8,30.1,40.6,30.2,40.4z"/>
		<path class="st3" d="M30.2,17.7c0-0.1,0-0.1-0.1-0.2c-0.1-0.2-0.2-0.3,0-0.5s0.3-0.1,0.5,0c0.1,0.2,0.2,0.4,0.4,0.6
			c0.3,0.5,0.6,1,0.9,1.5c0.1,0.2,0.1,0.3,0,0.5c-0.1,0-0.1,0.1-0.2,0.1c-0.1,0-0.2-0.1-0.3-0.1C31,19,30.6,18.3,30.2,17.7z"/>
		<path class="st3" d="M27.8,34.2c0.2,0.3,0.2,0.4-0.1,0.6c-0.7,0.4-1.4,0.8-2,1.2c-0.2,0.1-0.4,0.2-0.5,0s0-0.4,0.2-0.5
			c0.4-0.3,0.9-0.5,1.3-0.8c0.3-0.1,0.5-0.3,0.8-0.5C27.6,34.2,27.6,34.2,27.8,34.2C27.7,34.2,27.7,34.2,27.8,34.2z"/>
		<path class="st3" d="M47.6,31.1c0.1,0.3,0.1,0.6-0.1,0.9c-0.1,0.1-0.3,0.2-0.4,0.2c-0.3,0.1-0.6-0.1-0.9-0.1
			c-0.7-0.2-1.4-0.4-2.1-0.5c-0.2-0.1-0.5-0.2-0.8-0.2c-0.4-0.2-0.9-0.2-1.3-0.4c-0.7-0.2-1.4-0.4-2-0.5c-0.3-0.1-0.7-0.2-1-0.3
			s-0.6-0.1-0.9-0.3c-0.2-0.2-0.4-0.3-0.6-0.1c0,0-0.1,0-0.1,0.1c-0.2,0-0.5,0-0.7-0.1s-0.2,0-0.3,0.1c-0.2,0.1-0.3,0.3-0.5,0.4
			c-0.2,0.2-0.4,0.4-0.6,0.6c-0.1,0.1-0.3,0.3-0.4,0.4c-0.2,0.2-0.4,0.4-0.6,0.6c-0.1,0.1-0.3,0.3-0.4,0.4c-0.2,0.2-0.4,0.4-0.6,0.6
			c-0.1,0.1-0.3,0.3-0.4,0.4c-0.2,0.2-0.4,0.4-0.6,0.6c-0.1,0.1-0.3,0.3-0.4,0.4c-0.2,0.2-0.4,0.4-0.6,0.6c-0.1,0.1-0.3,0.3-0.4,0.4
			c-0.2,0.2-0.4,0.4-0.6,0.6c-0.1,0.1-0.3,0.3-0.4,0.4c-0.2,0.2-0.4,0.4-0.6,0.6c-0.1,0.1-0.3,0.3-0.4,0.4c-0.1,0.1-0.2,0.1-0.2,0.2
			c-0.1,0.1-0.2,0.2-0.4,0c-0.1-0.1-0.1-0.2,0-0.4c0.1-0.1,0.2-0.2,0.3-0.3s0.2-0.2,0.3-0.3c0.3-0.3,0.5-0.5,0.8-0.8
			c0.1-0.1,0.2-0.2,0.3-0.3c0.3-0.3,0.5-0.5,0.8-0.8c0.1-0.1,0.2-0.2,0.3-0.3c0.3-0.3,0.5-0.5,0.8-0.8c0.1-0.1,0.2-0.2,0.3-0.3
			c0.3-0.3,0.5-0.5,0.8-0.8c0.1-0.1,0.2-0.2,0.3-0.3c0.3-0.3,0.5-0.5,0.8-0.8c0.1-0.1,0.2-0.2,0.3-0.3c0.3-0.3,0.5-0.5,0.8-0.8
			c0.1-0.1,0.2-0.2,0.3-0.3c0.3-0.3,0.5-0.5,0.8-0.8c0.1-0.1,0.2-0.2,0.3-0.3c0.2-0.1,0.4-0.3,0.2-0.6c0-0.1,0-0.2,0-0.3
			s0-0.2-0.1-0.2c-0.2,0-0.4-0.2-0.5-0.4c-1-1.2-2.1-2.4-3.1-3.6c-0.1-0.1-0.2-0.3-0.3-0.4c0-0.1,0-0.2,0-0.4
			c0.3-0.6,0.7-0.8,1.3-0.5c0.1,0.1,0.3,0.3,0.4,0.4c0.9,1,1.8,2.1,2.7,3.1c0.2,0.2,0.3,0.4,0.5,0.6c0,0.1,0,0.3,0.1,0.4
			c0.3,0.2,0.6,0.1,0.9-0.2c0.3-0.3,0.5-0.5,0.8-0.8c0.1,0,0.1-0.1,0.2-0.1l0.1,0.1c0.2,0.1,0,0.2-0.1,0.3c-0.2,0.2-0.4,0.4-0.6,0.6
			c-0.1,0.1-0.2,0.2-0.3,0.3s0,0.2,0,0.2c0,0.1,0.1,0.1,0.2,0c0.2-0.1,0.4-0.1,0.7-0.1c0.4,0.1,0.7,0.2,1.1,0.3
			c0.7,0.2,1.3,0.4,2,0.5c0.4,0.1,0.7,0.2,1.1,0.3c0.3,0.1,0.7,0.2,1,0.3c0.7,0.2,1.4,0.4,2.1,0.6c0.3,0.1,0.7,0.2,1,0.3
			C47.3,30.8,47.5,31,47.6,31.1z M37.1,28.6c-0.3,0-0.4,0.2-0.4,0.4s0.2,0.4,0.4,0.4s0.4-0.1,0.4-0.4C37.4,28.7,37.3,28.6,37.1,28.6
			z"/>
	</g>
</g>
<g>
	<path class="st3" d="M53.5,29c0,8.8,0,17.7,0,26.5c0,1.6-0.8,2.5-2.4,2.5c-8.8,0-17.6,0-26.4,0c-1.6,0-2.5-0.8-2.5-2.5
		c0-7,0-14,0-21c0-8.5,0-16.9,0-25.4c0-2.2,0-4.4,0-6.6c0-1.6,0.9-2.5,2.5-2.5C33.5,0,42.2,0,51,0c1.6,0,2.5,0.9,2.5,2.5
		C53.5,11.3,53.5,20.2,53.5,29L53.5,29z M51.6,49.2c0-14.9,0-29.7,0-44.7c-0.2,0-0.4,0-0.7,0c-2.8,0-5.7,0-8.5,0
		c-5.9,0-11.9,0-17.8,0c-0.4,0-0.6,0.1-0.6,0.6c0,1.2,0,2.4,0,3.6c0,13.3,0,26.6,0,39.9c0,0.2,0,0.4,0,0.6
		C33.3,49.2,42.5,49.2,51.6,49.2z M40.2,53.7c0-1.2-1-2.2-2.2-2.2s-2.1,1-2.1,2.2s1,2.2,2.2,2.2C39.2,56,40.2,55,40.2,53.7z"/>
</g>
</svg>
