<?xml version="1.0" encoding="utf-8"?>
<!-- Generator: Adobe Illustrator 22.0.1, SVG Export Plug-In . SVG Version: 6.00 Build 0)  -->
<svg version="1.1" id="Layer_1" xmlns="http://www.w3.org/2000/svg" xmlns:xlink="http://www.w3.org/1999/xlink" x="0px" y="0px"
	 viewBox="0 0 100 100" style="enable-background:new 0 0 100 100;" xml:space="preserve">
<style type="text/css">
	.st0{fill:#F6851F;}
	.st1{display:none;}
	.st2{display:inline;fill:#FFFFFF;}
	.st3{display:inline;}
	.st4{fill:#FFFFFF;}
</style>
<rect class="st0" width="100" height="100"/>
<g class="st1">
	<path class="st2" d="M58.8,63.3c-5.9,0-11.8,0-17.7,0c0,0.5,0,0.9,0,1.3c0,1.7,0,3.5,0,5.2c0,2.5-1.9,4.5-4.5,4.5
		c-2.9,0-5.8,0-8.8,0c-2.5,0-4.5-1.9-4.5-4.5c0-2.5,0-5,0-7.5c0-0.2-0.1-0.3-0.3-0.5c-2.7-1.8-4.1-4.3-4.2-7.6c0-1.4,0-2.8,0-4.2
		c0-3.4,1.5-5.9,4.4-7.7c0.2-0.1,0.4-0.3,0.5-0.5c1.5-3.6,3-7.2,4.6-10.8c1.6-3.5,4.4-5.4,8.2-5.4c7.9,0,15.7,0,23.6,0c1,0,2,0,3,0
		c3.8,0.1,6.5,1.9,8.1,5.3c1.6,3.6,3.1,7.3,4.7,10.9c0.1,0.2,0.2,0.4,0.4,0.5c2.8,1.8,4.4,4.3,4.4,7.7c0,1.5,0,2.9,0,4.4
		c-0.1,3.2-1.5,5.7-4.2,7.4c-0.2,0.1-0.2,0.2-0.2,0.4c0,2.5,0,5,0,7.5c0,2.6-1.9,4.5-4.5,4.5c-2.9,0-5.8,0-8.7,0
		c-2.6,0-4.5-1.9-4.5-4.5c0-2.1,0-4.1,0-6.2C58.8,63.5,58.8,63.4,58.8,63.3z M50,58.8c5,0,9.9,0,14.9,0c2.4,0,4.8,0,7.3,0
		c2.5,0,4.4-2,4.4-4.4c0-1.5,0-3,0-4.4c0-0.3,0-0.6-0.1-0.9c-0.5-2.1-2.2-3.5-4.4-3.5c-4.8,0-9.7,0-14.5,0c-9.6,0-19.3,0-28.9,0
		c-0.3,0-0.7,0-1,0c-2.3,0.1-4.2,2-4.2,4.3c0,1.6,0,3.1,0,4.7c0,2,1.6,3.9,3.6,4.2c0.8,0.1,1.7,0.1,2.5,0.1
		C36.4,58.8,43.2,58.8,50,58.8z M29,41.1c14,0,27.9,0,41.9,0c-0.1-0.1-0.1-0.2-0.1-0.3c-1.1-2.6-2.2-5.3-3.4-7.9
		c-0.8-1.8-2.2-2.8-4.2-2.8c-2,0-4.1,0-6.1,0c-6.8,0-13.6,0-20.4,0c-1.9,0-3.3,1-4,2.7c-1.1,2.5-2.1,4.9-3.2,7.4
		C29.3,40.5,29.2,40.8,29,41.1z M72.1,63.3c-3,0-5.9,0-8.8,0c0,2.2,0,4.4,0,6.6c2.9,0,5.9,0,8.8,0C72.1,67.7,72.1,65.5,72.1,63.3z
		 M36.7,63.3c-3,0-5.9,0-8.8,0c0,2.2,0,4.4,0,6.6c2.9,0,5.9,0,8.8,0C36.7,67.7,36.7,65.5,36.7,63.3z"/>
	<path class="st2" d="M50,50c2.2,0,4.3,0,6.5,0c1.1,0,2,0.6,2.3,1.7c0.4,1.4-0.7,2.8-2.2,2.8c-1.7,0-3.4,0-5,0c-2.7,0-5.4,0-8.1,0
		c-1.4,0-2.3-1-2.3-2.3c0-1.1,0.9-2,2-2.1c0.2,0,0.3,0,0.5,0C45.7,50,47.9,50,50,50z"/>
	<path class="st2" d="M32.3,56.6c-2.5,0-4.4-2-4.4-4.4c0-2.5,2-4.4,4.5-4.4c2.5,0,4.4,2,4.4,4.5C36.7,54.7,34.7,56.6,32.3,56.6z"/>
	<path class="st2" d="M67.7,56.6c-2.4,0-4.4-2-4.4-4.4c0-2.4,2-4.4,4.4-4.4c2.4,0,4.4,2,4.4,4.4C72.1,54.7,70.2,56.6,67.7,56.6z"/>
</g>
<g class="st1">
	<path class="st2" d="M22.9,71.6c-1-0.3-2-0.5-3-0.9c-3.3-1.3-5.5-3.7-6.9-6.9c-0.9-2.1-1-4.2-0.8-6.4c0.2-2.3,1.1-4.4,2.5-6.2
		c0.1-0.2,0.3-0.4,0.4-0.6c-1.2-0.5-1.4-1.2-1.1-2.5c0.5-1.6,1.6-2.6,3-3.3c2.1-1.1,4.4-1.6,6.8-1.5c0.1-0.5,0.2-1.1,0.4-1.6
		c0.2-0.9,0.9-1.4,1.8-1.5c1-0.1,2.1,0.1,3.1,0.2c1.7,0.2,3.5,0.5,5.2,0.7c1.5,0.2,3.1,0.2,4.6,0.3c0.8,0.1,1.6,0.6,1.9,1.4
		c4.9-5.9,11.1-9.1,18.8-9.2c-1.5-0.2-2.9-0.4-4.4-0.6c-1-0.1-1.9-0.2-2.9-0.5c-0.9-0.3-1.6-0.9-1.5-2.4c0.1-0.7,0.8-1.5,1.7-1.6
		c0.4,0,0.9,0.1,1.3,0.2c2.1,0.7,4.3,1.5,6.4,2.2c0.4,0.1,0.6,0.1,1-0.2c1.1-0.9,2.3-1.5,3.7-1.6c1.7-0.2,3.3-0.3,5-0.2
		c1.4,0.1,1.6,0.6,1.7,2c0.1,1.8,0.1,3.6,0,5.4c0,1.4-0.7,2-2.2,2c-1,0-2,0-3.1,0c1.7,2.9,3.3,5.7,4.9,8.3c1.7-0.2,3.2-0.4,4.8-0.5
		c2.7,0,5.1,1,7.2,2.5c2.5,1.9,4.2,4.4,4.7,7.5c0.7,3.7,0.1,7.3-2.3,10.4c-1.9,2.5-4.4,4.1-7.5,4.8c-0.3,0.1-0.5,0.1-0.8,0.2
		c-1.2,0-2.5,0-3.7,0c-0.1,0-0.1-0.1-0.2-0.1c-3.3-0.5-5.9-2-8-4.6c-2.7-3.6-3.4-7.5-2.1-11.8c0.7-2.2,2-4,3.6-5.6
		c-1.3-2.2-2.6-4.5-4-6.8c-0.1,0.2-0.2,0.3-0.2,0.4c-0.3,1.3-0.5,2.7-0.8,4c-0.6,3.3-1.2,6.5-1.9,9.8c-0.3,1.3-1,2.5-2,3.4
		c-1.5,1.3-3.4,1.9-5.4,1.9c-3.2,0-6.4,0-9.6,0c-1.8,0-3.5-0.1-5.2-0.7c-0.2-0.1-0.5,0.2-0.6,0.4c-0.3,0.6-0.4,1.3-0.6,1.9
		c-1.4,3.5-3.8,5.9-7.4,7.2c-0.8,0.3-1.7,0.5-2.5,0.7C25.3,71.6,24.1,71.6,22.9,71.6z M69.5,53.9c-2,1.9-3.2,6.5,0,10.2
		c2.2,2.5,6.3,3.7,9.6,1.7c3.8-2.2,4.9-6.2,3.4-9.9c-1.6-3.8-5.9-5.4-8.7-4.5c0.2,0.3,0.4,0.7,0.6,1c1.1,1.9,2.2,3.8,3.2,5.7
		c0.5,1,0,2.5-0.9,3c-1.1,0.6-2.6,0.4-3.2-0.6c-0.5-0.8-1-1.6-1.5-2.5C71.1,56.6,70.3,55.2,69.5,53.9z M26.8,52.4
		c-1-0.3-1.8-0.6-2.6-0.9c-0.4-0.1-0.9-0.3-1.3-0.2c-2.1,0.4-3.6,1.6-4.7,3.4c-0.9,1.3-1.2,2.9-1.2,4.5c-0.1,3.5,3,7,6.5,7.4
		c3.4,0.4,6.1-0.8,8-3.7c0.3-0.5,0.5-1,0.8-1.6c-0.4,0-0.7,0-1,0c-2.2,0-4.4,0-6.6,0c-1.3,0-2.3-1-2.3-2.3c-0.1-1.1,0.6-1.8,1.2-2.5
		C24.5,55.2,25.6,53.9,26.8,52.4z M30,56.4c0.8,0,1.4,0,2.2,0c-0.4-0.5-0.8-0.9-1.2-1.3C30.6,55.5,30.3,55.9,30,56.4z"/>
</g>
<g class="st1">
	<path class="st2" d="M49.8,74c-9.8,0-19.6,0-29.4,0c-1,0-2.1,0-3.1-0.3c-2.3-0.8-3-3.2-1.2-4.8c4.6-4.1,5.8-9,5.4-15
		c-0.5-8-0.1-16-0.1-24c0-3,0.7-3.7,3.6-3.8c16.6,0,33.2,0,49.8,0c3,0,3.6,0.7,3.6,3.7c0,10.2,0,20.3,0.1,30.5
		c0,1.3,0.6,2.7,1.4,3.7c1.1,1.7,2.6,3.2,3.9,4.8c1.7,2.1,0.9,4.5-1.8,5.1C81.2,74,80.3,74,79.4,74C69.6,74,59.7,74,49.8,74z
		 M49.9,60c7.3,0,14.5,0,21.8,0c2.6,0,3.2-0.6,3.2-3.3c0-8.4,0-16.7,0-25.1c0-2.7-0.5-3.3-3.2-3.3c-14.4,0-28.9,0-43.3,0
		c-2.7,0-3.2,0.6-3.2,3.3c0,8.4,0,16.7,0,25.1c0,2.7,0.6,3.3,3.2,3.3C35.6,60,42.8,60,49.9,60z M60.4,70.1c-0.8-2.1-2.1-2.5-3.9-2.5
		c-4.4,0.1-8.9,0.1-13.3,0c-1.9,0-2.8,0.8-3.4,2.5C46.7,70.1,53.5,70.1,60.4,70.1z M44.4,71.7c1.7,1.6,10.4,1.4,11.5,0
		C51.9,71.7,48.2,71.7,44.4,71.7z"/>
	<path class="st2" d="M61.2,50.5c-0.7,1.2-1.4,2.5-2.3,3.7c-2.2,3.1-2.9,3.2-6.5,2.2c-1.4-0.4-3,0.2-4.5,0.2c-1.4,0-3.1,0.1-4.1-0.6
		c-3.6-2.5-5.7-9.5-4.5-13.7c1.2-4,4.6-5.7,8.6-4.7c1.6,0.4,3.5,0.4,5.1,0c2.9-0.7,5.2-0.2,7.2,2.1C56.3,43.7,56.6,46.8,61.2,50.5z"
		/>
	<path class="st2" d="M54.8,31.2c0.1,3.5-1.5,5.4-4.9,6.1C49.3,34.4,51.1,32.1,54.8,31.2z"/>
</g>
<g class="st1">
	<path class="st2" d="M43.1,22.2c0.1-0.4,0.4-0.8,0.7-1c0.4-0.2,0.8-0.1,1.3-0.1c2.9,0,5.7,0,8.6,0c1,0,1.4,0.2,1.7,1.2
		c0,0.4,0,0.7,0.1,1c0,0.4,0.1,0.7,0.1,1c0,0.4,0.1,0.7,0.1,1c0,0.4,0.1,0.7,0.1,1c0.1,0.7,0.1,1.4,0.3,2.1c0,0.3,0.1,0.6,0.1,0.8
		c0,0,0,0.1,0,0.1c0,0,0,0.1,0,0.1c0,0.5,0.1,1,0.2,1.5c0,0.1,0,0.3,0,0.4c0,0.5,0.1,0.9,0.2,1.4c0,0.3,0,0.5,0.1,0.8
		c0.1,0.7,0.1,1.4,0.3,2.1c0,0.2-0.1,0.5,0.2,0.7c0.7,0.4,1.3,0.8,1.9,1.3c0.1,0,0.1,0.1,0.2,0.1c0.3,0.3,0.6,0.5,0.9,0.8
		c0.1,0.1,0.2,0.2,0.3,0.3c0.2,0.3,0.5,0.5,0.7,0.8c0.1,0.1,0.1,0.1,0.2,0.2c0.3,0.4,0.5,0.7,0.8,1.1c0.2,0.3,0.4,0.7,0.6,1
		c0.1,0.2,0.3,0.5,0.4,0.7c0.1,0.1,0.1,0.2,0.2,0.3c0.3,0.7,0.6,1.4,0.9,2.1c0.1,0.3,0.2,0.7,0.3,1c0.1,0.3,0.1,0.7,0.2,1
		c0.1,0.3,0.1,0.7,0.2,1c0,0.4,0.1,0.9,0.1,1.3c0,0.1,0,0.2,0.2,0.2c0.1,0,0.3,0,0.3-0.1c0-0.2,0.2-0.2,0.2-0.4
		c0.1-0.1,0.3-0.1,0.5-0.1c0.1,0,0.1,0.1,0.2,0.1c0.2,0.3,0.1,0.7,0.1,1c0,0.3,0,0.7-0.1,1c0,0-0.1,0-0.1,0.1
		c-0.4,0.1-0.7,0-0.8-0.3c0-0.2-0.2-0.2-0.3-0.2c-0.2,0-0.2,0.2-0.2,0.3c0,0.8-0.1,1.5-0.3,2.3c-0.1,0.3-0.1,0.7-0.2,1
		c-0.1,0.3-0.2,0.7-0.3,1c0,0.1-0.1,0.1-0.1,0.2c-0.1,0.3-0.2,0.5-0.3,0.8c-0.2,0.3-0.3,0.7-0.5,1c-0.4,0.7-0.8,1.4-1.2,2
		c-0.3,0.4-0.5,0.7-0.8,1.1c-0.1,0.1-0.1,0.1-0.2,0.2c-0.3,0.3-0.5,0.6-0.8,0.8c-0.1,0.1-0.2,0.2-0.3,0.3c-0.2,0.2-0.5,0.4-0.7,0.6
		c-0.1,0.1-0.2,0.2-0.3,0.3c-0.6,0.4-1.2,0.9-1.9,1.3c-0.1,0-0.1,0.1-0.1,0.2c0,0.3-0.1,0.7-0.1,1c0,0,0,0,0,0
		c-0.1,0.1,0,0.2-0.1,0.3c0,0,0,0.1,0,0.1C57,65.7,57,66,57,66.3c-0.1,0.4-0.1,0.8-0.2,1.2c-0.1,0.2-0.1,0.5-0.1,0.8
		c0,0-0.1,0.1,0,0.1c0,0,0,0.1,0,0.1c-0.1,0.3-0.1,0.7-0.1,1c-0.1,0.3-0.2,0.6-0.1,1c-0.1,0.4-0.1,0.8-0.2,1.2
		C56.1,72.4,56,73,56,73.6c-0.1,0.3-0.1,0.7-0.1,1c0,0.4-0.2,0.7-0.1,1.1c-0.1,0.3-0.1,0.7-0.1,1c-0.1,0.3-0.1,0.7-0.1,1
		c-0.2,0.7-0.6,1.1-1.4,1.2c-0.3,0-0.6,0-0.9,0c-0.4,0-0.8,0-1.2,0c-0.3,0-0.6,0-0.9,0c-0.4,0-0.8,0-1.2,0c-0.3,0-0.6,0-0.9,0
		c-0.4,0-0.8,0-1.2,0c-0.3,0-0.6,0-0.9,0c-0.4,0-0.8,0-1.2,0c-0.3,0-0.6,0-0.9,0c-0.4,0-0.7,0-1.1-0.1c0,0,0,0,0,0
		c-0.5-0.3-0.7-0.7-0.8-1.3c0-0.3,0-0.5-0.1-0.8c0-0.3,0-0.5-0.1-0.8c0,0,0-0.1,0-0.1c0-0.4-0.1-0.8-0.2-1.2c0-0.3-0.1-0.6-0.1-0.8
		c0-0.1,0-0.1,0-0.1c0,0,0,0,0,0c0-0.3,0-0.7-0.1-1c0-0.4-0.1-0.7-0.1-1c0-0.4-0.1-0.7-0.1-1c0-0.3-0.1-0.7-0.1-1
		c-0.1-0.7-0.1-1.4-0.3-2.1c0-0.4-0.1-0.7-0.1-1c0-0.4,0-0.7-0.1-1.1c0,0,0-0.1,0-0.1c0-0.1,0-0.1,0-0.1c0-0.2,0-0.5-0.1-0.7
		c0.1-0.5-0.2-0.7-0.6-0.9c-0.1-0.1-0.2-0.1-0.3-0.2c-0.3-0.2-0.5-0.4-0.8-0.6c-0.2-0.2-0.4-0.3-0.6-0.5c-0.1-0.1-0.2-0.2-0.4-0.3
		c-0.9-0.8-1.7-1.7-2.5-2.8c-0.2-0.3-0.4-0.6-0.6-0.8c0-0.1-0.1-0.1-0.1-0.2c-0.3-0.7-0.7-1.4-1-2.1c-0.1-0.4-0.3-0.7-0.4-1.1
		c-0.2-0.7-0.3-1.3-0.5-2c-0.1-0.3-0.1-0.7-0.2-1c0-0.3-0.1-0.7-0.1-1c0-0.3,0-0.7,0-1c0-0.3,0-0.7,0-1c0-0.3,0.1-0.7,0.1-1
		c0.1-0.3,0.1-0.7,0.2-1c0.2-0.7,0.3-1.4,0.6-2.1c0.1-0.3,0.2-0.6,0.4-1c0.1-0.1,0.1-0.3,0.2-0.4c0.1-0.2,0.3-0.5,0.3-0.7
		c0.2-0.3,0.4-0.7,0.6-1c0,0,0.1-0.1,0.1-0.1c0.2-0.3,0.4-0.6,0.6-0.9c0.4-0.5,0.7-1,1.1-1.4c0.7-0.8,1.5-1.5,2.4-2.2
		c0.2-0.2,0.4-0.3,0.6-0.5c0.1-0.1,0.3-0.2,0.4-0.2c0.2-0.2,0.6-0.2,0.5-0.6c0.1-0.4,0.2-0.9,0.2-1.3c0-0.3,0.2-0.7,0.1-1
		c0.1-0.3,0.1-0.7,0.1-1c0.1-0.1,0-0.3,0.1-0.4c0.1-0.1,0.1-0.1,0-0.2c0,0,0-0.1,0-0.1c0.2-0.7,0.2-1.5,0.3-2.3
		c0-0.4,0.1-0.7,0.1-1.1c0.1-0.3,0.1-0.7,0.1-1c0.1-0.3,0.1-0.7,0.1-1c0.1-0.4,0.1-0.8,0.2-1.2c0-0.3,0.1-0.5,0.1-0.8
		C43,23.6,43,22.9,43.1,22.2z M38.7,60.3c0.3,0.3,0.7,0.7,1,0.9c0.1,0.1,0.1,0.1,0.2,0.2c0.3,0.2,0.5,0.5,0.8,0.6
		c0.6,0.5,1.3,0.9,2.1,1.2c0.1,0.1,0.2,0.1,0.4,0.2c0.2,0.1,0.4,0.2,0.6,0.3c0.3,0.2,0.7,0.3,1,0.4c0.3,0.1,0.7,0.2,1,0.3
		c0.7,0.2,1.4,0.3,2.1,0.3c0.1,0,0.1,0,0.2,0c1,0.1,1.9,0.1,2.9-0.1c0.7-0.1,1.4-0.2,2.1-0.4c0.4-0.1,0.7-0.2,1-0.3
		c0.7-0.2,1.4-0.5,2.1-0.9c0.4-0.2,0.7-0.4,1.1-0.6c0.8-0.5,1.6-1.1,2.3-1.8c2.6-2.6,4.1-5.7,4.5-9.4c0.1-1.5,0-3-0.3-4.5
		c-0.6-2.6-1.8-4.9-3.7-6.9c-0.5-0.5-1-1-1.6-1.4c-0.3-0.3-0.7-0.6-1.1-0.8c-0.3-0.2-0.7-0.4-1.1-0.6c-0.7-0.4-1.3-0.7-2.1-0.9
		c-0.3-0.1-0.7-0.2-1-0.3c-0.7-0.2-1.4-0.3-2.1-0.4c-0.1,0-0.3,0-0.4,0c-0.9-0.1-1.8-0.1-2.7,0c-0.7,0-1.4,0.1-2.1,0.3
		c-0.4,0.1-0.8,0.2-1.1,0.3c-0.7,0.2-1.3,0.4-2,0.8c-0.4,0.1-0.7,0.3-1,0.5c-0.2,0.1-0.4,0.2-0.6,0.4c-0.2,0.1-0.3,0.2-0.5,0.3
		c-0.3,0.2-0.6,0.4-0.9,0.7c0,0-0.1,0.1-0.1,0.1c-0.4,0.3-0.7,0.6-1,1c-0.3,0.3-0.6,0.7-0.9,1c-0.1,0.1-0.1,0.2-0.2,0.3
		c-0.2,0.2-0.4,0.5-0.6,0.8c-0.5,0.6-0.8,1.3-1.2,2c-0.3,0.7-0.6,1.4-0.8,2.1c-0.1,0.3-0.2,0.7-0.3,1c-0.1,0.3-0.2,0.7-0.2,1
		c0,0.3-0.1,0.7-0.1,1c-0.1,0.3,0,0.7,0,1c0,0.3,0,0.7,0,1c0,0.3,0.1,0.7,0.1,1c0,0.3,0.1,0.7,0.2,1c0,0.4,0.1,0.7,0.3,1
		c0.2,0.7,0.5,1.5,0.8,2.1c0.3,0.7,0.7,1.4,1.2,2.1c0.1,0.3,0.3,0.5,0.5,0.7c0,0.1,0.1,0.2,0.2,0.3C38,59.7,38.4,60,38.7,60.3z"/>
	<g class="st3">
		<path class="st4" d="M60.3,49.7c0.8,0,1.6,0,2.4,0c0.2,0,0.4,0,0.5,0.3c0,0.3-0.2,0.4-0.5,0.4c-0.8,0-1.6,0-2.4,0
			c-0.2,0-0.3-0.1-0.4-0.3C60,49.8,60.1,49.7,60.3,49.7z"/>
		<path class="st4" d="M61.3,43c0.1,0.2,0.1,0.4-0.2,0.5c-0.3,0.1-0.5,0.3-0.8,0.5c-0.4,0.2-0.7,0.4-1.1,0.6c-0.1,0-0.2,0.1-0.2,0.1
			c-0.1,0-0.3,0-0.4,0c-0.2-0.3-0.2-0.4,0.2-0.6c0.1-0.1,0.3-0.2,0.4-0.3c0,0,0.1,0,0.1-0.1c0.4-0.2,0.7-0.4,1-0.6
			c0.1-0.1,0.3-0.2,0.4-0.2C60.9,42.9,61.1,42.9,61.3,43z"/>
		<path class="st4" d="M49.6,61.3c0,0.7,0,1.4,0,2.1c0,0.2,0,0.3-0.2,0.4c-0.2,0.1-0.3,0-0.4-0.1c0-0.1,0-0.2-0.1-0.4
			c0-0.3,0-0.7,0-1c0-0.3,0-0.7,0-1c0-0.2,0-0.4,0.1-0.6c0.4-0.1,0.5,0,0.5,0.4C49.6,61.2,49.6,61.3,49.6,61.3z"/>
		<path class="st4" d="M49,36.1c0.4-0.1,0.5,0,0.5,0.4c0,0.3,0,0.7,0,1c0,0.3,0,0.7,0,1c0,0.1,0,0.1,0,0.2c0,0.2,0,0.3-0.2,0.4
			c-0.2,0.1-0.3,0-0.4-0.1c-0.1-0.2,0-0.3-0.1-0.5c0-0.3,0-0.7,0-1c0-0.3,0-0.7,0-1C48.9,36.4,48.9,36.3,49,36.1z"/>
		<path class="st4" d="M37.4,42.8c0.1,0,0.1,0,0.2,0c0,0,0,0,0,0c-0.1,0.1,0,0.1,0.1,0.2c0.3,0.2,0.6,0.4,1,0.5
			c0.4,0.2,0.7,0.4,1.1,0.7c0.3,0.1,0.4,0.3,0.2,0.6c-0.1,0-0.2,0-0.2,0.1c-0.1,0-0.1,0-0.2-0.1c-0.3-0.2-0.6-0.3-0.8-0.5
			c-0.4-0.2-0.7-0.4-1.1-0.7C37.1,43.3,37,43.2,37.4,42.8z"/>
		<path class="st4" d="M35.6,49.7c0.8,0,1.7,0,2.5,0c0.2,0,0.4,0.1,0.5,0.3c-0.1,0.2-0.2,0.3-0.5,0.3c-0.8,0-1.7,0-2.5,0
			c-0.1-0.1-0.2-0.2-0.3-0.3C35.4,49.9,35.4,49.7,35.6,49.7z"/>
		<path class="st4" d="M58.7,55.2c0.5,0.1,0.8,0.4,1.2,0.6c0.1,0.1,0.3,0.1,0.4,0.2c0.1,0.1,0.3,0.2,0.4,0.3
			c0.2,0.1,0.3,0.2,0.5,0.3c0.1,0.1,0.1,0.3,0,0.4c-0.2,0.1-0.3,0.1-0.5,0c-0.1-0.1-0.2-0.1-0.4-0.2c-0.4-0.2-0.7-0.4-1.1-0.6l0,0
			c-0.2-0.1-0.3-0.2-0.5-0.3C58.4,55.6,58.4,55.5,58.7,55.2z"/>
		<path class="st4" d="M56.2,61.3L56.2,61.3C56.2,61.3,56.2,61.3,56.2,61.3c0.1,0.3,0.4,0.5,0,0.8c-0.2,0.1-0.4-0.1-0.5-0.2
			c-0.3-0.5-0.6-1.1-0.9-1.6c-0.1-0.1-0.1-0.2-0.2-0.4c-0.1-0.2-0.2-0.4-0.1-0.6c0.3-0.2,0.4-0.1,0.6,0.2c0.2,0.3,0.3,0.6,0.5,0.8
			C55.8,60.7,55.9,61,56.2,61.3z"/>
		<path class="st4" d="M56.2,38.7c0,0,0,0.1-0.1,0.1c-0.2,0.3-0.4,0.6-0.5,0.9c-0.2,0.3-0.3,0.6-0.5,0.9c-0.2,0.3-0.3,0.3-0.6,0.1
			c0-0.1,0-0.3,0.1-0.4c0.1-0.2,0.2-0.4,0.3-0.6c0.3-0.5,0.6-1,0.9-1.5c0.1-0.2,0.2-0.3,0.5-0.3C56.5,38.2,56.3,38.4,56.2,38.7z"/>
		<path class="st4" d="M42.3,61.4c0.4-0.7,0.8-1.4,1.2-2.1c0.1-0.1,0.2-0.1,0.3-0.1c0.1,0,0.1,0.1,0.2,0.1c0.1,0.2,0.1,0.3,0,0.5
			c-0.3,0.5-0.6,1-0.9,1.5c-0.1,0.2-0.3,0.4-0.4,0.6c-0.1,0.1-0.3,0.2-0.5,0C42,61.8,42.2,61.6,42.3,61.4z"/>
		<path class="st4" d="M42.3,38.7c0-0.1,0-0.1-0.1-0.2c-0.1-0.2-0.2-0.3,0-0.5c0.2-0.2,0.3-0.1,0.5,0c0.1,0.2,0.2,0.4,0.4,0.6
			c0.3,0.5,0.6,1,0.9,1.5c0.1,0.2,0.1,0.3,0,0.5c-0.1,0-0.1,0.1-0.2,0.1c-0.1,0-0.2-0.1-0.3-0.1C43.1,40,42.7,39.3,42.3,38.7z"/>
		<path class="st4" d="M39.9,55.2c0.2,0.3,0.2,0.4-0.1,0.6c-0.7,0.4-1.4,0.8-2,1.2c-0.2,0.1-0.4,0.2-0.5,0c-0.1-0.2,0-0.4,0.2-0.5
			c0.4-0.3,0.9-0.5,1.3-0.8c0.3-0.1,0.5-0.3,0.8-0.5c0.1,0,0.1,0,0.2,0C39.8,55.2,39.8,55.2,39.9,55.2z"/>
		<path class="st4" d="M59.7,52.1c0.1,0.3,0.1,0.6-0.1,0.9c-0.1,0.1-0.3,0.2-0.4,0.2c-0.3,0.1-0.6-0.1-0.9-0.1
			c-0.7-0.2-1.4-0.4-2.1-0.5c-0.2-0.1-0.5-0.2-0.8-0.2c-0.4-0.2-0.9-0.2-1.3-0.4c-0.7-0.2-1.4-0.4-2-0.5c-0.3-0.1-0.7-0.2-1-0.3
			c-0.3-0.1-0.6-0.1-0.9-0.3c-0.2-0.2-0.4-0.3-0.6-0.1c0,0-0.1,0-0.1,0.1c-0.2,0-0.5,0-0.7-0.1c-0.2-0.1-0.2,0-0.3,0.1
			c-0.2,0.1-0.3,0.3-0.5,0.4c-0.2,0.2-0.4,0.4-0.6,0.6c-0.1,0.1-0.3,0.3-0.4,0.4c-0.2,0.2-0.4,0.4-0.6,0.6c-0.1,0.1-0.3,0.3-0.4,0.4
			c-0.2,0.2-0.4,0.4-0.6,0.6c-0.1,0.1-0.3,0.3-0.4,0.4c-0.2,0.2-0.4,0.4-0.6,0.6c-0.1,0.1-0.3,0.3-0.4,0.4c-0.2,0.2-0.4,0.4-0.6,0.6
			c-0.1,0.1-0.3,0.3-0.4,0.4c-0.2,0.2-0.4,0.4-0.6,0.6c-0.1,0.1-0.3,0.3-0.4,0.4c-0.2,0.2-0.4,0.4-0.6,0.6c-0.1,0.1-0.3,0.3-0.4,0.4
			c-0.1,0.1-0.2,0.1-0.2,0.2c-0.1,0.1-0.2,0.2-0.4,0c-0.1-0.1-0.1-0.2,0-0.4c0.1-0.1,0.2-0.2,0.3-0.3c0.1-0.1,0.2-0.2,0.3-0.3
			c0.3-0.3,0.5-0.5,0.8-0.8c0.1-0.1,0.2-0.2,0.3-0.3c0.3-0.3,0.5-0.5,0.8-0.8c0.1-0.1,0.2-0.2,0.3-0.3c0.3-0.3,0.5-0.5,0.8-0.8
			c0.1-0.1,0.2-0.2,0.3-0.3c0.3-0.3,0.5-0.5,0.8-0.8c0.1-0.1,0.2-0.2,0.3-0.3c0.3-0.3,0.5-0.5,0.8-0.8c0.1-0.1,0.2-0.2,0.3-0.3
			c0.3-0.3,0.5-0.5,0.8-0.8c0.1-0.1,0.2-0.2,0.3-0.3c0.3-0.3,0.5-0.5,0.8-0.8c0.1-0.1,0.2-0.2,0.3-0.3c0.2-0.1,0.4-0.3,0.2-0.6
			c0-0.1,0-0.2,0-0.3c0-0.1,0-0.2-0.1-0.2c-0.2,0-0.4-0.2-0.5-0.4c-1-1.2-2.1-2.4-3.1-3.6c-0.1-0.1-0.2-0.3-0.3-0.4
			c0-0.1,0-0.2,0-0.4c0.3-0.6,0.7-0.8,1.3-0.5c0.1,0.1,0.3,0.3,0.4,0.4c0.9,1,1.8,2.1,2.7,3.1c0.2,0.2,0.3,0.4,0.5,0.6
			c0,0.1,0,0.3,0.1,0.4c0.3,0.2,0.6,0.1,0.9-0.2c0.3-0.3,0.5-0.5,0.8-0.8c0.1,0,0.1-0.1,0.2-0.1c0,0,0.1,0.1,0.1,0.1
			c0.2,0.1,0,0.2-0.1,0.3c-0.2,0.2-0.4,0.4-0.6,0.6c-0.1,0.1-0.2,0.2-0.3,0.3c-0.1,0.1,0,0.2,0,0.2c0,0.1,0.1,0.1,0.2,0
			c0.2-0.1,0.4-0.1,0.7-0.1c0.4,0.1,0.7,0.2,1.1,0.3c0.7,0.2,1.3,0.4,2,0.5c0.4,0.1,0.7,0.2,1.1,0.3c0.3,0.1,0.7,0.2,1,0.3
			c0.7,0.2,1.4,0.4,2.1,0.6c0.3,0.1,0.7,0.2,1,0.3C59.4,51.8,59.6,52,59.7,52.1z M49.2,49.6c-0.3,0-0.4,0.2-0.4,0.4
			c0,0.2,0.2,0.4,0.4,0.4c0.2,0,0.4-0.1,0.4-0.4C49.5,49.7,49.4,49.6,49.2,49.6z"/>
	</g>
</g>
<g class="st1">
	<path class="st2" d="M65.6,50c0,8.8,0,17.7,0,26.5c0,1.6-0.8,2.5-2.4,2.5c-8.8,0-17.6,0-26.4,0c-1.6,0-2.5-0.8-2.5-2.5
		c0-7,0-14,0-21c0-8.5,0-16.9,0-25.4c0-2.2,0-4.4,0-6.6c0-1.6,0.9-2.5,2.5-2.5c8.8,0,17.5,0,26.3,0c1.6,0,2.5,0.9,2.5,2.5
		C65.6,32.3,65.6,41.2,65.6,50C65.6,50,65.6,50,65.6,50z M63.7,70.2c0-14.9,0-29.7,0-44.7c-0.2,0-0.4,0-0.7,0c-2.8,0-5.7,0-8.5,0
		c-5.9,0-11.9,0-17.8,0c-0.4,0-0.6,0.1-0.6,0.6c0,1.2,0,2.4,0,3.6c0,13.3,0,26.6,0,39.9c0,0.2,0,0.4,0,0.6
		C45.4,70.2,54.6,70.2,63.7,70.2z M52.3,74.7c0-1.2-1-2.2-2.2-2.2c-1.2,0-2.1,1-2.1,2.2c0,1.2,1,2.2,2.2,2.2
		C51.3,77,52.3,76,52.3,74.7z"/>
</g>
<g class="st1">
	<path class="st2" d="M79.1,51.2c-1.6-0.1-3-0.8-4.2-1.9c-7.2-6.4-14.3-12.8-21.4-19.2c-0.8-0.7-1.7-1.5-2.5-2.3
		c-0.4-0.3-0.6-0.4-1,0c-3.1,2.7-6.2,5.3-9.4,7.9c-5.5,4.6-11,9.3-16.4,13.9c-1,0.9-2.1,1.6-3.5,1.6c-1.1,0.1-1.9-0.4-2.6-1.2
		c-0.3-0.3-0.3-0.5,0.1-0.9c3.9-3.4,7.8-6.9,11.7-10.3c6.7-5.9,13.4-11.8,20-17.6c0.4-0.4,0.7-0.5,1.2,0
		C61.2,30.5,71.4,39.8,81.6,49c0.7,0.6,0.7,0.6,0,1.3C81,50.9,80.1,51.2,79.1,51.2z"/>
	<path class="st2" d="M49.5,79c-7.2,0-14.3,0-21.5,0c-1.5,0-2.5-0.9-2.6-2.4c0-0.1,0-0.3,0-0.4c0-8.6,0-17.2,0-25.8
		c0-0.5,0.2-0.8,0.5-1.1c8-6.7,15.9-13.3,23.9-20c0.4-0.3,0.6-0.4,1,0c7.5,6.7,15.1,13.4,22.6,20.1c0.3,0.3,0.4,0.5,0.4,0.9
		c0,8.6,0,17.2,0,25.7c0,1.9-1.1,2.9-3,2.9C63.7,78.9,56.6,78.9,49.5,79C49.5,79,49.5,79,49.5,79z M49.5,76.8
		C49.5,76.8,49.5,76.8,49.5,76.8c7,0,14,0,21,0c1,0,1.1,0,1.1-1c0-8.1,0-16.3,0-24.4c0-0.4-0.2-0.7-0.5-1
		c-6.8-6.1-13.7-12.1-20.5-18.2c-0.3-0.3-0.5-0.3-0.8,0C42.6,38.2,35.3,44.4,28,50.5c-0.3,0.2-0.4,0.5-0.4,0.8c0,8.3,0,16.5,0,24.8
		c0,0.6,0.2,0.8,0.8,0.7C35.4,76.8,42.5,76.8,49.5,76.8z"/>
	<path class="st2" d="M44.7,55.9c-1.3,0-2.6,0-3.9,0c-0.4,0-0.5-0.1-0.5-0.5c0-2.3,0-4.7,0-7c0-0.4,0.1-0.5,0.5-0.5
		c2.6,0,5.3,0,7.9,0c0.3,0,0.5,0.1,0.5,0.5c0,2.4,0,4.7,0,7.1c0,0.4-0.2,0.5-0.5,0.5C47.4,55.9,46,55.9,44.7,55.9z"/>
	<path class="st2" d="M44.7,65.9c-1.3,0-2.6,0-3.9,0c-0.4,0-0.5-0.1-0.5-0.5c0-2.3,0-4.7,0-7c0-0.4,0.1-0.5,0.5-0.5
		c2.6,0,5.3,0,7.9,0c0.3,0,0.5,0.1,0.5,0.5c0,2.4,0,4.7,0,7.1c0,0.4-0.2,0.5-0.5,0.5C47.4,65.8,46,65.9,44.7,65.9z"/>
	<path class="st2" d="M55.8,47.9c1.3,0,2.6,0,3.9,0c0.4,0,0.5,0.1,0.5,0.5c0,2.3,0,4.7,0,7c0,0.4-0.1,0.5-0.5,0.5
		c-2.6,0-5.2,0-7.9,0c-0.4,0-0.5-0.1-0.5-0.5c0-2.3,0-4.7,0-7c0-0.4,0.1-0.5,0.5-0.5C53.1,47.9,54.5,47.9,55.8,47.9z"/>
	<path class="st2" d="M55.7,65.9c-1.3,0-2.5,0-3.8,0c-0.4,0-0.6-0.1-0.6-0.6c0-2.3,0-4.6,0-6.9c0-0.4,0.1-0.6,0.6-0.6
		c2.6,0,5.2,0,7.8,0c0.4,0,0.5,0.1,0.5,0.5c0,2.3,0,4.7,0,7c0,0.4-0.2,0.5-0.5,0.5C58.3,65.8,57,65.9,55.7,65.9z"/>
</g>
<g class="st1">
	<path class="st2" d="M50,73.1c-7.7,0-15.3,0-23,0c-3.4,0-6.1-2.7-6-6c0.1-8.6,0-17.2,0-25.8c0-3.1,2.6-5.7,5.8-5.7
		c2.2,0,4.4,0,6.6,0c1.5,0,2.3-0.6,2.8-2c0.6-1.6,1.1-3.3,1.7-4.9c0.4-1,1.3-1.7,2.4-1.7c5.6,0,11.2,0,16.8,0c0.9,0,1.8,0,2.7,0
		c1.2,0,2.1,0.7,2.5,1.8c0.6,1.7,1.1,3.3,1.7,5c0.4,1.2,1.3,1.9,2.6,1.9c2.2,0,4.5,0,6.7,0c2.9,0,5.3,2.1,5.7,4.9
		c0.1,0.9,0.1,1.8,0.1,2.7c0,8,0,16,0,24.1c0,3.3-2.5,5.8-5.8,5.8C65.4,73.1,57.7,73.1,50,73.1z M50,38.5c-8,0-14.5,6.4-14.5,14.4
		c0,8,6.4,14.5,14.4,14.5c8,0,14.5-6.4,14.5-14.4C64.5,44.9,58,38.5,50,38.5z M71.1,45.4c1.1,0,2.1-0.9,2.1-2c0-1.1-0.9-2-2-2
		c-1.1,0-2.1,0.9-2.1,2C69.1,44.4,70,45.4,71.1,45.4z"/>
	<path class="st2" d="M49.9,44.2c4.9,0,8.8,3.8,8.8,8.6c0,4.8-3.8,8.7-8.7,8.7c-4.8,0-8.7-3.8-8.7-8.6
		C41.3,48.2,45.2,44.3,49.9,44.2z"/>
</g>
<path class="st4" d="M40.6,80.7c-1.1,0.1-2.1,0.1-3.2,0c-0.1,0-0.2,0-0.3,0c-0.8-0.1-1.6-0.2-2.4-0.3c-0.1,0-0.1,0-0.2,0
	c-0.1,0-0.1-0.1-0.2-0.1c-1.1-0.2-2.1-0.6-3.2-0.9c-0.3-0.1-0.6-0.3-1-0.3c-0.1-0.1-0.1-0.1-0.2-0.1c-0.5-0.4-1.1-0.6-1.7-0.9
	c-0.1,0-0.1-0.1-0.2-0.1c-0.2-0.2-0.5-0.4-0.8-0.5c0,0,0,0,0,0c0,0-0.1-0.1-0.1-0.1c-1-0.7-2-1.4-2.9-2.2c-0.5-0.5-1.1-1-1.6-1.5
	c0,0,0,0,0,0c-0.1-0.2-0.2-0.4-0.4-0.5c0-0.1-0.1-0.1-0.2-0.2c-0.2-0.4-0.5-0.7-0.8-1c0,0,0,0,0-0.1c-0.1-0.2-0.2-0.4-0.4-0.5
	c0,0,0,0,0-0.1c0-0.1,0-0.2-0.1-0.2l0,0c0-0.1,0-0.2-0.2-0.3l0,0c0,0-0.1-0.1-0.1-0.1c0,0,0,0,0,0c-0.2-0.4-0.4-0.8-0.7-1.1
	c0,0,0,0,0-0.1c0-0.2-0.1-0.4-0.3-0.5c0,0,0-0.1-0.1-0.1c-0.4-1-0.9-2-1.3-3.1c-0.5-1.7-0.9-3.4-1-5.1c0-0.1,0-0.2-0.1-0.3
	c0-0.1,0-0.2,0-0.2c0-1.1,0-2.2,0.1-3.4c0-0.4,0.1-0.9,0.1-1.3c0-0.1,0-0.1,0-0.2c0.3-0.9,0.4-1.8,0.7-2.7c0.1-0.5,0.4-0.9,0.4-1.4
	c0.1-0.2,0.2-0.4,0.2-0.6c0.1-0.1,0.2-0.2,0.1-0.3c0,0,0,0,0,0c0.1,0,0.1-0.1,0.1-0.2c0.1-0.2,0.2-0.3,0.2-0.5c0,0,0-0.1,0.1-0.1
	c0.1-0.1,0.1-0.2,0.2-0.3c0.4-0.6,0.7-1.2,1-1.8c0.4-0.5,0.8-1,1.1-1.6c0,0,0-0.1,0.1-0.1c0.1,0,0.1-0.1,0.1-0.2
	c0,0,0.1-0.1,0.1-0.1c0.1-0.1,0.2-0.1,0.2-0.3c0,0,0,0,0,0c0.5-0.5,1-1,1.5-1.6c0.1,0,0.1-0.1,0.2-0.2c0.3-0.3,0.6-0.5,0.9-0.8
	c0.1,0,0.1,0,0.1-0.1c0.2,0,0.3-0.2,0.4-0.3c0,0,0.1-0.1,0.1-0.1c0.5-0.3,1-0.7,1.5-1.1c0,0,0.1,0,0.1,0c0.1,0,0.2,0,0.2-0.1l0,0
	c0,0,0.1-0.1,0.1-0.1l0,0c0.4-0.1,0.6-0.4,0.9-0.5c0.8-0.4,1.6-0.9,2.5-1.3c0,0,0,0,0,0c0,0,0.1-0.1,0.1-0.1c0.1,0,0.2,0,0.3-0.1
	c0.1,0,0.1,0,0.2-0.1c0.3,0,0.5-0.1,0.7-0.3c0.1,0,0.1,0,0.2-0.1l0,0c1.2-0.3,2.3-0.6,3.5-0.9c0.1,0,0.1,0,0.2,0
	c2.3-0.3,4.5-0.3,6.8,0c0.1,0,0.1,0,0.2,0c0.9,0.2,1.8,0.4,2.6,0.6c0.7,0.2,0.7,0.2,1.1-0.4c0.2-0.1,0.3-0.2,0.4-0.3
	c0.1,0,0.1-0.1,0.1-0.1l0,0c0.6-0.4,1.1-0.8,1.6-1.2c0.6-0.3,1.1-0.7,1.7-1.1c0.3-0.2,0.6-0.3,0.9-0.5c0.3-0.1,0.7-0.2,1-0.5
	c0.1,0,0.1-0.1,0.2-0.1c0.3,0,0.6-0.2,0.8-0.3c0.2,0,0.3-0.2,0.5-0.2c0.9-0.2,1.7-0.5,2.6-0.7c0.2-0.1,0.1-0.2,0.1-0.3
	c-0.3-0.4-0.6-0.8-0.9-1.1c0-0.1-0.1-0.2-0.2-0.2c0-0.1-0.1-0.1-0.1-0.2c-0.9-1-1.7-2.1-2.6-3.1c-0.3-0.4-0.6-0.8-0.7-1.3
	c0-0.3,0-0.6,0-0.9c0-0.1,0-0.1,0-0.2c0.1,0,0.1-0.1,0-0.2c0.3-0.9,1-1.5,1.9-1.8c0.4,0,0.6-0.3,0.8-0.6c0.3-0.2,0.6-0.5,0.8-0.8
	c0.3-0.2,0.6-0.5,0.8-0.8c0.3-0.2,0.6-0.5,0.8-0.8c0.3-0.2,0.6-0.5,0.8-0.8c0.3,0,0.6,0,0.8-0.1c0.6,0.1,1.1,0.1,1.7,0
	c0.6,0,1.1,0,1.7,0c0.6,0,1.1,0.1,1.7,0c0.5,0,0.9,0,1.4,0c0.1,0.1,0.2,0.1,0.3,0.2c0.5,0.5,1,1,1.5,1.5c0,0.1,0.1,0.2,0.2,0.2
	c0.5,0.5,1,1,1.5,1.5c0,0.1,0.1,0.2,0.2,0.2c0.1,0.2,0.3,0.4,0.5,0.4c0.4,0.1,0.8,0.3,1.2,0.5c0.2,0.2,0.4,0.5,0.7,0.7
	c0,0,0.1,0.1,0.1,0.2c0,0.1,0,0.2,0.1,0.3c0.3,1,0.1,1.9-0.6,2.7c-0.1,0.1-0.2,0.2-0.2,0.3c0,0,0,0,0,0c-0.5,0.4-0.8,0.9-1.2,1.4
	c-0.1,0.1-0.2,0.2-0.2,0.3c-0.1,0-0.1,0.1-0.1,0.2c0,0,0,0,0,0.1c-0.3,0.3-0.6,0.6-0.8,0.9c-0.2,0.1-0.2,0.3-0.3,0.4
	c-0.1,0-0.1,0.1-0.1,0.2c-0.1,0.1-0.1,0.2-0.2,0.2c-0.1,0-0.1,0.1-0.1,0.2c0,0,0,0,0,0.1c-0.2,0.1-0.4,0.2-0.3,0.4
	c0,0.2,0.3,0.1,0.4,0.2c0,0,0.1,0,0.2,0c0.1,0,0.1,0,0.2,0c0,0.1,0.1,0.1,0.2,0.1c1.4,0.4,2.7,0.9,4,1.6c0.7,0.4,1.3,0.7,2,1.1
	c0,0,0,0,0.1,0c0,0.1,0.1,0.1,0.2,0.1c0,0,0,0,0.1,0c0,0.1,0.1,0.1,0.2,0.1c0,0,0,0,0.1,0c0.4,0.4,0.8,0.7,1.3,1
	c0.3,0.2,0.5,0.6,0.9,0.8c0.2,0.2,0.4,0.4,0.6,0.6c0.2,0.3,0.4,0.5,0.7,0.7c0,0.1,0.1,0.2,0.2,0.2c0.1,0.1,0.1,0.2,0.2,0.3
	c0.2,0.3,0.3,0.5,0.6,0.7c0.2,0.4,0.5,0.7,0.7,1c0.3,0.4,0.5,0.9,0.9,1.3l0,0c0,0,0.1,0.1,0.1,0.1c0,0.1,0,0.2,0.1,0.2
	c0.3,0.6,0.6,1.2,1,1.8c0.1,0.3,0.2,0.7,0.4,1c0.1,0.2,0.2,0.4,0.3,0.6c0,0.1,0,0.2,0.1,0.3c0,0,0,0.1,0.1,0.1
	c0.1,0.4,0.2,0.8,0.4,1.2c0.1,0.6,0.2,1.1,0.4,1.6c0.1,0.6,0.2,1.1,0.3,1.6c0,0.4,0,0.7,0.1,1.1c0,0.1,0,0.3,0,0.4
	c0,0.6,0,1.2,0,1.8c0,0.2,0,0.5,0,0.7c0,0,0,0,0,0.1c0,0.2,0,0.4,0,0.7c-0.1,0.5-0.1,1-0.2,1.5c-0.1,0.7-0.2,1.3-0.3,2
	c-0.1,0.3-0.2,0.5-0.2,0.8c0,0,0,0.1-0.1,0.1c-0.1,0.2-0.2,0.5-0.2,0.7c-0.1,0.3-0.2,0.5-0.3,0.8c-0.3,0.9-0.8,1.7-1.1,2.5
	c-0.2,0.4-0.5,0.8-0.7,1.2c-0.5,0.7-1,1.4-1.4,2.2c-0.2,0.1-0.3,0.3-0.4,0.5c-0.3,0.3-0.6,0.7-0.9,1c-0.3,0.3-0.5,0.5-0.8,0.8
	c-0.3,0.2-0.6,0.5-0.9,0.8c-0.3,0.1-0.4,0.4-0.6,0.5c-1,0.7-2,1.4-3.1,2c0,0-0.1,0-0.1,0.1c0,0-0.1,0.1-0.1,0.1
	c-0.7,0.3-1.4,0.6-2.1,1c-0.8,0.4-1.7,0.5-2.5,0.9c-0.1,0-0.2,0-0.3,0.1c-0.5,0.1-0.9,0.2-1.4,0.3c-0.7,0.1-1.4,0.2-2.1,0.3
	c-0.1,0-0.1,0-0.2,0c-0.6-0.1-1.2,0-1.8,0c-0.6,0-1.1-0.1-1.7,0c-0.1,0-0.1,0-0.2,0c-0.2-0.1-0.4-0.1-0.6-0.1c-0.1,0-0.2,0-0.3,0
	c-0.1-0.1-0.2-0.1-0.3-0.1c-1.1-0.2-2.2-0.4-3.3-0.7c-0.4-0.1-0.6-0.1-0.8,0.3c-0.1,0-0.2,0.1-0.3,0.3c-0.2,0.1-0.3,0.3-0.5,0.4
	c-0.2,0.1-0.4,0.3-0.5,0.4c-0.1,0-0.2,0-0.2,0.1c-0.2,0.1-0.3,0.2-0.5,0.4c-0.1,0-0.2,0-0.2,0.1c-0.2,0.1-0.4,0.3-0.7,0.4
	c-0.1,0-0.2,0-0.2,0.1c0,0-0.1,0-0.1,0c-0.1,0-0.2,0-0.2,0.1c-0.2,0.1-0.3,0.2-0.5,0.3c-1.2,0.7-2.4,1.2-3.6,1.7
	c-0.4,0.1-0.7,0.2-1.1,0.4c-0.8,0.2-1.5,0.4-2.3,0.5c-0.9,0.2-1.7,0.3-2.6,0.4C40.7,80.7,40.6,80.7,40.6,80.7z M48.3,67.2L48.3,67.2
	L48.3,67.2C48.2,67.2,48.2,67.2,48.3,67.2L48.3,67.2c-0.1-0.2-0.2-0.3-0.3-0.4c-1.1-1.1-2-2.2-2.8-3.5c-0.2-0.4-0.4-0.8-0.7-1.1
	c-0.2-0.5-0.5-1-0.7-1.6c0,0,0-0.1-0.1-0.1l0,0c0-0.3-0.1-0.5-0.3-0.7c0-0.1-0.1-0.3-0.1-0.4c-0.2-0.8-0.4-1.6-0.6-2.3
	c0-0.1,0-0.2,0-0.2c0-0.3,0-0.7-0.2-1c0-0.1,0-0.1,0-0.2c0-0.7-0.1-1.4-0.1-2.1c0-0.1,0-0.2,0-0.3c0.1-0.9,0.1-1.8,0.2-2.6
	c0.2-0.4,0.2-0.8,0.3-1.2c0.1-0.1,0.1-0.1,0.1-0.2c0-0.1,0-0.2,0-0.2c0.4-1.1,0.7-2.2,1.2-3.3c0.3-0.5,0.6-1.1,0.9-1.6
	c0.3-0.2,0.4-0.5,0.5-0.8c0.1-0.2,0-0.2-0.1-0.3c-0.5-0.2-0.9-0.3-1.4-0.5c-0.1-0.1-0.2,0-0.3,0.1c-0.6,1-1.2,2-1.6,3.1c0,0,0,0,0,0
	c-0.1,0.1-0.2,0.2-0.2,0.4c-0.1,0.1-0.1,0.2-0.1,0.4c0,0-0.1,0.1-0.1,0.1c-0.6,1.6-0.9,3.3-1.2,5c-0.1,0.8,0,1.6,0,2.5
	c0,0.1,0,0.3,0,0.4c0,0.1,0,0.3,0,0.4c0,0.1,0,0.2,0,0.3c0,0.8,0.1,1.5,0.3,2.2c0,0.1,0,0.1,0,0.2c0,0.1,0,0.2,0.1,0.2
	c0,0.1,0,0.1,0,0.2c0,0.1,0,0.2,0.1,0.2c0,0.1,0,0.1,0,0.2c0,0.1,0,0.1,0,0.2c0,0.1,0,0.1,0,0.2c0.1,0.5,0.2,1,0.5,1.5
	c0,0.1,0.1,0.2,0.1,0.3c0.1,0.6,0.4,1.2,0.7,1.7c0,0.3,0.2,0.6,0.4,0.8c0.5,0.9,0.9,1.7,1.6,2.5c0.2,0.3,0.4,0.6,0.7,0.9
	c0.2,0.3,0.4,0.6,0.7,0.8c0.3,0.4,0.6,0.8,1,1.1c0.2,0.2,0.4,0.4,0.6,0.6c0.3,0.4,0.6,0.6,1,0.9c0,0.1,0.1,0.2,0.2,0.2
	c0,0.1,0.1,0.1,0.2,0.1c0,0,0,0,0.1,0c0,0.1,0.1,0.1,0.2,0.2c0.8,0.6,1.7,1.2,2.6,1.6c0,0.1,0.1,0.1,0.2,0.1c0,0,0.1,0,0.1,0.1
	c0.1,0.1,0.2,0.2,0.3,0.2c0.3,0.2,0.5,0.3,0.9,0.4c0.6,0.3,1.2,0.5,1.8,0.6c0,0.1,0.1,0.1,0.2,0.1c1.5,0.6,3.1,0.8,4.8,0.8
	c0.2,0.1,0.3,0.1,0.5,0c1,0.1,2,0,3-0.1c0.5,0,1.1-0.1,1.6-0.3c0.1,0,0.2,0,0.2,0c1.1-0.1,2.1-0.5,3.1-0.9c0.1,0,0.2-0.1,0.4-0.1
	c0.1,0,0.2,0,0.2-0.1c0.1,0,0.1,0,0.2-0.1c0.2,0,0.3-0.1,0.4-0.2c0.1,0,0.2,0,0.2-0.1c0,0,0,0,0.1-0.1c0.1,0,0.2,0,0.3-0.1
	c0,0,0.1,0,0.1-0.1c0.1,0,0.2,0,0.2-0.1c0,0,0.1,0,0.1-0.1c0.1,0,0.1-0.1,0.2-0.1c0,0,0.1,0,0.1-0.1c0.1,0,0.2-0.1,0.2-0.1
	c0.1,0,0.2,0,0.2-0.1c0,0,0,0,0.1,0c0.5-0.2,0.9-0.5,1.4-0.9c0.1-0.1,0.3-0.2,0.4-0.3c0.5-0.2,0.9-0.6,1.2-0.9
	c0.7-0.6,1.5-1.3,2.1-2.1l0,0c0.5-0.5,1-1,1.3-1.7c0.1,0,0.1-0.1,0.2-0.2c0.1,0,0.2-0.1,0.2-0.3c0,0,0,0,0,0
	c0.4-0.3,0.5-0.7,0.7-1.2c0.4-0.5,0.6-1.1,0.9-1.6c0.1-0.1,0.1-0.2,0.1-0.3c0.2-0.3,0.3-0.7,0.4-1.1c0,0,0.1,0,0.1-0.1
	c0.2-0.7,0.5-1.3,0.6-2c0-0.1,0-0.1,0-0.2c0.1,0,0.1-0.1,0-0.2c0-0.1,0-0.1,0-0.2c0.1-0.2,0.2-0.4,0.1-0.6c0-0.1,0-0.1,0-0.2
	c0,0,0.1-0.1,0.1-0.1c0.2-1.2,0.3-2.4,0.3-3.6c0-0.7,0-1.4-0.2-2.1c0-0.1,0-0.2,0-0.3c0-0.1,0.1-0.2,0-0.3c0-0.1,0-0.2,0-0.3
	c0-0.7-0.2-1.3-0.4-1.9c0-0.1,0-0.1,0-0.2c0.1-0.1,0-0.1-0.1-0.2c-0.1-0.4-0.1-0.7-0.3-1.1c-0.3-1.2-0.8-2.3-1.5-3.4
	c0-0.1-0.1-0.1-0.1-0.2c0,0-0.1-0.1-0.1-0.1c-0.2-0.4-0.4-0.8-0.7-1.2c0-0.1-0.1-0.2-0.2-0.3c-0.1-0.2-0.1-0.4-0.3-0.5
	c0,0-0.1-0.1-0.1-0.1c-0.2-0.3-0.4-0.6-0.7-0.9c-0.2-0.3-0.4-0.6-0.7-0.8c0-0.1-0.1-0.2-0.3-0.3c-0.1-0.2-0.2-0.3-0.4-0.4
	c0-0.1-0.1-0.2-0.2-0.2c-0.1-0.2-0.3-0.4-0.6-0.6c-1-1-2-1.7-3.2-2.4c-0.2-0.2-0.5-0.3-0.7-0.4c-0.3-0.2-0.6-0.4-0.9-0.5
	c-0.2-0.2-0.5-0.3-0.8-0.4c-0.9-0.3-1.7-0.8-2.6-0.9c-0.6-0.2-1.2-0.4-1.8-0.4c-0.6-0.3-0.7-0.4-0.6-1.1l0,0c0,0,0.1,0,0.1-0.1
	c0.3-0.3,0.5-0.6,0.8-0.9c0.7-0.8,1.3-1.6,2-2.4c0.4-0.6,0.9-1.1,1.3-1.7c0.1,0,0.1-0.1,0.1-0.1l0,0c0.1,0,0.2-0.1,0.2-0.2
	c0.3-0.3,0.5-0.5,0.7-0.9c0.3-0.3,0.3-0.7,0.1-1.1c-0.1-0.3-0.3-0.5-0.6-0.6c-0.3,0-0.4,0.3-0.5,0.5c-0.2,0.2-0.5,0.4-0.6,0.7
	c-0.1,0.1-0.1,0.1-0.2,0.2c-0.9,1-1.7,2.1-2.6,3.1c-0.4,0.5-0.9,1.1-1.3,1.7c-0.1,0-0.2,0.1-0.2,0.2c-0.5,0.4-0.8,0.9-1.2,1.4
	c-0.1,0-0.1,0.1-0.2,0.1c0,0-0.1,0.1-0.1,0.1c0,0,0,0,0,0c-0.8,0.2-1.4,0-1.9-0.7c-0.1-0.1-0.2-0.2-0.2-0.3
	c-0.7-0.9-1.4-1.8-2.2-2.6c0-0.1-0.1-0.2-0.2-0.2c0-0.2-0.1-0.3-0.2-0.3l0,0c-0.3-0.4-0.6-0.8-1-1.1c0-0.2-0.2-0.4-0.4-0.5
	c0-0.1-0.1-0.2-0.2-0.2c-0.1-0.1-0.1-0.3-0.3-0.3c-0.1-0.3-0.3-0.5-0.5-0.7c-0.1-0.1-0.2-0.2-0.3-0.3c0-0.1-0.1-0.2-0.2-0.2
	c-0.1-0.1-0.1-0.2-0.3-0.3c0-0.1-0.1-0.2-0.2-0.2c0-0.1-0.1-0.2-0.3-0.1c-0.1,0-0.2,0-0.2,0.1l0,0c-0.5,0.3-0.8,1-0.4,1.4
	c0.5,0.7,1,1.3,1.6,1.9c0,0.1,0.1,0.2,0.2,0.2c0.2,0.4,0.5,0.7,0.8,1l0,0c0,0.1,0.1,0.2,0.2,0.2c0,0.1,0.1,0.2,0.2,0.2
	c0,0.1,0.1,0.2,0.1,0.2c0.1,0.1,0.1,0.2,0.3,0.3c0,0.1,0.1,0.2,0.1,0.2c0,0,0.1,0.1,0.1,0.1c0.1,0.2,0.2,0.4,0.4,0.5
	c0.1,0.2,0.3,0.5,0.5,0.6c0,0.2,0.2,0.3,0.3,0.4c0,0.1,0.1,0.1,0.2,0.2c0.3,0.8,0.1,1-0.7,1.2c-0.2,0-0.4,0.1-0.6,0.1
	c-1,0.3-2.1,0.5-3.1,1c-0.1,0-0.1,0-0.2,0.1c-0.3,0-0.6,0.2-0.9,0.4c-0.9,0.4-1.7,0.8-2.5,1.4c-0.5,0.2-0.9,0.5-1.3,0.9
	c-0.1,0.1-0.3,0.1-0.3,0.3c-0.4,0.2-0.6,0.5-0.9,0.7c-0.2,0.1-0.1,0.2,0.1,0.3c0.3,0.1,0.6,0.2,0.9,0.3c0.3,0.2,0.6,0.5,0.9,0.3
	c0.3-0.2,0.5-0.4,0.7-0.6c0,0,0.1,0,0.1-0.1c1-0.7,2-1.3,3.1-1.8c0.4-0.2,0.9-0.4,1.3-0.5c0.7-0.2,1.4-0.5,2-0.7c0.1,0,0.1,0,0.2,0
	c0.2,0,0.4,0,0.6-0.1c0.1,0,0.1,0,0.2,0c0.8-0.1,1.6-0.2,2.4-0.3c0.5,0,1.1,0,1.6,0c0.7,0.1,1.4,0.1,2.1,0.2c0.1,0,0.2,0,0.3,0
	c0.2,0.1,0.5,0.2,0.7,0.1c0.1,0,0.1,0,0.2,0c0.5,0.1,0.9,0.3,1.4,0.4c0.7,0.1,1.3,0.5,2,0.6c0.6,0.3,1.1,0.5,1.7,0.8
	c0.1,0.1,0.2,0.2,0.4,0.2c0.4,0.3,0.8,0.6,1.3,0.8c0.1,0.1,0.2,0.1,0.3,0.2c1.3,0.9,2.5,2,3.5,3.2c0.6,0.8,1.2,1.6,1.8,2.4
	c0.5,1,1,1.9,1.4,2.9c0,0.1,0,0.2,0.1,0.3c0,0,0,0,0,0c0.2,0.6,0.3,1.2,0.6,1.7c0.1,0.5,0.2,1.1,0.3,1.6c0,0.5,0.1,1,0.1,1.4
	c0,0.6,0.1,1.3,0.1,1.9c-0.1,0.4-0.1,0.8,0,1.2c-0.1,0.3-0.1,0.6-0.1,0.9c-0.1,1-0.4,2-0.6,2.9c-0.2,0.4-0.3,0.8-0.4,1.3
	c0,0,0,0.1-0.1,0.1c0,0.1-0.1,0.2-0.1,0.2c-0.6,1.1-1.1,2.3-1.8,3.4l0,0c0,0,0,0-0.1,0.1c0,0.1-0.1,0.1-0.1,0.2
	c-0.4,0.4-0.7,0.8-1,1.3c-0.1,0-0.2,0.1-0.2,0.2c-0.2,0.1-0.3,0.2-0.4,0.4l0,0c-0.1,0-0.1,0.1-0.1,0.1l0,0c-0.3,0.2-0.6,0.5-0.8,0.8
	c-0.1,0.1-0.2,0.1-0.3,0.3c-0.1,0-0.2,0.1-0.3,0.2c-0.1,0-0.2,0.1-0.3,0.2c-0.4,0.3-0.8,0.6-1.2,0.9c-0.1,0-0.2,0.1-0.3,0.2
	c-0.1,0-0.2,0-0.2,0.1l0,0c-0.1,0.1-0.3,0.1-0.4,0.2c-0.8,0.5-1.7,1-2.5,1.4c-0.3,0.2-0.7,0.2-1,0.5c-0.1,0-0.1,0-0.2,0.1
	c-0.9,0.2-1.7,0.6-2.7,0.7c-0.6,0.1-1.2,0.2-1.8,0.3c-0.1,0-0.3,0-0.4,0c-0.9,0-1.8,0.1-2.7,0c-0.1,0-0.2,0-0.3,0
	c-0.1-0.1-0.3-0.1-0.4-0.1c-0.1,0-0.3,0-0.4,0c-0.1,0-0.1-0.1-0.2-0.1c-0.9-0.2-1.7-0.3-2.6-0.6c-0.6-0.2-1.2-0.4-1.9-0.6
	c0,0-0.1,0-0.1,0c-0.1,0-0.2-0.1-0.2-0.1c-1.1-0.5-2.2-1.1-3.2-1.9C49.6,68.3,49,67.8,48.3,67.2C48.4,67.3,48.4,67.3,48.3,67.2
	C48.3,67.3,48.3,67.2,48.3,67.2z M23.6,51.1c-0.1,0-0.1,0.1-0.1,0.2c0,0,0,0,0,0c-0.2,0.3-0.4,0.6-0.5,1c0,0,0,0.1,0,0.1
	c-0.2,0.2-0.2,0.4-0.3,0.6c0,0.1,0,0.2-0.1,0.3c0,0,0,0.1-0.1,0.1c0,0,0,0.1,0,0.1c0,0,0,0.1-0.1,0.1c-0.1,0-0.1,0.1-0.1,0.2
	c0,0-0.1,0.1-0.1,0.1c-0.8,2.6-0.9,5.1-0.5,7.8c0.1,0.6,0.1,1.1,0.4,1.7c0,0,0,0.1,0,0.1c0,0,0,0.1,0,0.1c0,0.1,0,0.1,0.1,0.2
	c0.1,0.6,0.4,1.2,0.6,1.8c0.3,0.6,0.5,1.3,1,1.8c0,0.1,0.1,0.2,0.1,0.2c0,0.1,0,0.2,0.1,0.2c0.1,0.2,0.2,0.5,0.4,0.6
	c0,0,0.1,0.1,0.1,0.1c0.4,0.7,0.9,1.3,1.5,1.9c0.2,0.3,0.5,0.6,0.8,0.8c0.6,0.7,1.3,1.1,2,1.7c0.3,0.2,0.7,0.5,1.1,0.7
	c0,0.1,0.1,0.1,0.1,0.1c0.4,0.4,1,0.6,1.5,0.8c0.5,0.3,1.1,0.5,1.7,0.7c0.2,0.1,0.3,0.1,0.5,0.2c0.9,0.2,1.7,0.5,2.7,0.5
	c0.7,0.2,1.3,0.2,2,0.1c0.1,0.1,0.3,0,0.4,0c0.6,0.1,1.2,0,1.8-0.1c0.9-0.1,1.8-0.2,2.6-0.5c0.1,0,0.1,0,0.2,0
	c0.7-0.1,1.3-0.4,1.9-0.6c1-0.4,2-0.9,2.8-1.6c0.4-0.2,0.7-0.4,1-0.7c0.1-0.1,0.3-0.2,0.1-0.3c-0.3-0.2-0.5-0.5-0.9-0.6
	c-0.3-0.4-0.7-0.6-1.1-0.8l0,0c-0.1-0.2-0.2-0.3-0.4-0.3l0,0c-0.4-0.4-0.8-0.7-1.2-1.1c-0.9-0.9-1.7-1.9-2.6-2.9
	c-0.2-0.4-0.5-0.7-0.7-1.1c-0.2-0.5-0.5-0.9-0.8-1.3c0,0,0,0,0,0c0,0,0-0.1-0.1-0.1c0,0,0,0,0,0c0,0,0-0.1-0.1-0.1l0,0
	c-0.2-0.6-0.5-1.2-0.8-1.7c0-0.1,0-0.1-0.1-0.2c0-0.1,0-0.2-0.1-0.2c0-0.1,0-0.1-0.1-0.2c0-0.1,0-0.2-0.1-0.3c0,0,0-0.1,0-0.1
	c-0.1-0.3-0.2-0.6-0.3-0.9c0-0.1,0-0.1,0-0.2c0-0.2,0-0.3-0.1-0.4c0-0.1,0-0.1,0-0.2c0-0.1,0-0.1-0.1-0.2c0-0.1,0-0.1,0-0.2
	c-0.1-0.6-0.2-1.2-0.4-1.8c0-0.1,0-0.2,0-0.3c0-0.1,0-0.1,0-0.2c0-0.1,0-0.2,0-0.3c0-0.1,0-0.3-0.1-0.4c0-0.1,0-0.3,0-0.4
	c0-0.9,0-1.9-0.1-2.8c0-0.1,0-0.3,0-0.4c0.1-0.7,0.2-1.4,0.2-2.1c0-0.1,0-0.2,0-0.3c0.1,0,0.1-0.1,0-0.2c0-0.1,0-0.2,0-0.3
	c0.1-0.1,0.1-0.1,0.1-0.2c0.3-1,0.4-2.1,0.8-3c0.1-0.2,0.3-0.4,0.2-0.6c0-0.1,0.1-0.2,0.1-0.2c0.3-0.2,0.3-0.5,0.4-0.8
	c0.4-0.8,0.7-1.5,1.2-2.2c0.1-0.1,0.3-0.3-0.1-0.4c-0.4-0.1-0.8-0.2-1.3-0.2c-0.1,0-0.1,0-0.2,0c-0.8-0.2-1.6-0.1-2.5-0.1
	c-0.2,0-0.3,0-0.5,0c-0.2,0-0.4-0.1-0.7,0.1c-0.1,0-0.1,0-0.2,0c-0.1,0-0.2,0-0.4,0c-1.4,0.2-2.8,0.6-4.1,1.1
	c-0.7,0.3-1.4,0.6-2.1,1.1c0,0-0.1,0-0.1,0.1c-0.1,0-0.2,0.1-0.3,0.1c-1.7,1-3.2,2.3-4.4,3.9c-0.7,0.8-1.3,1.7-1.7,2.6
	c-0.1,0.1-0.1,0.1-0.1,0.2C23.6,51,23.6,51,23.6,51.1L23.6,51.1z M54.5,48.7L54.5,48.7c0,0.1,0,0.2,0.2,0.3l0,0
	c0.2,0.6,0.6,1.1,0.9,1.6c0,0,0,0.1,0.1,0.1c0.5,1.1,0.8,2.2,1.2,3.3c0,0.2,0.1,0.3,0.1,0.5c0,0,0,0.1,0.1,0.1c0,0.2,0,0.4,0.1,0.6
	c0,0.2,0.1,0.4,0.1,0.6c0.1,0.6,0.2,1.2,0.2,1.8c0,0.1,0,0.2,0,0.3c0,0.2,0,0.3,0,0.5c0,0.1,0,0.2,0,0.3c0,0.6-0.1,1.3-0.1,1.9
	c-0.1,0.2,0,0.5,0,0.7c-0.2,0.9-0.4,1.9-0.6,2.8c0,0.1,0,0.1,0,0.2c-0.2,0.4-0.3,0.8-0.4,1.2c-0.2,0.5-0.5,1.1-0.7,1.6
	c-0.4,0.6-0.7,1.2-1.1,1.7c-0.4,0.6-0.4,0.6,0.3,0.8c0,0,0,0,0,0c0.3,0.2,0.6,0.2,0.9,0.4c0.2,0.1,0.3,0,0.3-0.1
	c0.5-0.9,1.1-1.7,1.4-2.7c0.4-0.7,0.7-1.5,0.9-2.3c0.5-1.5,0.8-2.9,0.8-4.5c0-0.1,0-0.2,0-0.3c0.1-1.1,0-2.2,0-3.3
	c0-0.3,0-0.5-0.1-0.8c0-0.1,0-0.1,0-0.2c-0.1-0.7-0.2-1.4-0.4-2.1c0-0.2-0.1-0.3-0.1-0.5c0,0,0-0.1,0-0.1c0-0.4-0.2-0.7-0.4-1l0,0
	c-0.1-0.6-0.3-1.1-0.6-1.6c-0.5-1.2-1.1-2.3-1.9-3.4c-0.2-0.4-0.5-0.8-0.8-1.1c-0.1-0.2-0.3-0.4-0.5-0.6c-0.3-0.4-0.6-0.8-1-1.1
	c-0.1-0.2-0.3-0.3-0.5-0.4c-0.4-0.4-0.8-0.9-1.4-1.2c-0.2-0.2-0.4-0.4-0.6-0.5c-0.3-0.3-0.6-0.5-1-0.7c-1.1-0.8-2.2-1.4-3.5-1.8
	c-0.1,0-0.1,0-0.2-0.1c-0.2-0.2-0.4-0.2-0.7-0.3c-0.1-0.1-0.3-0.1-0.5-0.2c-0.3-0.2-0.6-0.2-0.9-0.3c-1.2-0.3-2.5-0.6-3.8-0.6
	c-0.1,0-0.1,0-0.2,0c-0.8,0-1.6-0.2-2.4,0c-0.2,0-0.5,0-0.7,0c-0.6,0-1.3,0.1-1.9,0.2c-0.9,0.2-1.8,0.3-2.7,0.7
	c-0.1,0-0.3,0.1-0.4,0.1c-0.4,0-0.8,0.3-1.2,0.4c-0.9,0.4-1.8,0.7-2.6,1.3c-0.6,0.3-1.2,0.6-1.7,1.1l0,0c-0.2,0-0.3,0.1-0.4,0.2
	c-0.6,0.4-1.1,0.9-1.6,1.4c-1.1,1-2,2.1-2.8,3.3c-0.1,0.1-0.2,0.1-0.2,0.3c-0.4,0.4-0.7,1-0.9,1.5c-0.7,1-1.1,2.1-1.5,3.3
	c-0.1,0.1-0.1,0.2-0.1,0.3c0,0,0,0.1,0,0.1c-0.1,0.1-0.1,0.2-0.1,0.3c-0.1,0.1-0.1,0.2-0.1,0.3c-0.1,0.2-0.1,0.4-0.1,0.6
	c-0.2,0.6-0.3,1.3-0.4,1.9c0,0.1,0,0.3,0,0.4c-0.1,0.1-0.1,0.2,0,0.3c-0.1,0.1-0.1,0.3,0,0.4c-0.1,0.1-0.1,0.3-0.1,0.4
	c-0.1,0.9,0,1.8,0,2.6c0,0.7,0.1,1.4,0.3,2.1c0,0.1,0,0.1,0,0.2c0,0.1,0,0.2,0,0.2c0,0.1,0,0.2,0,0.2c0,0.1,0,0.1,0,0.2
	c0,0.1,0,0.1,0,0.2c0,0.1,0,0.2,0.1,0.2c0,0.1,0,0.1,0,0.2c0.1,0.7,0.3,1.3,0.6,1.9c0.2,0.6,0.3,1.2,0.7,1.7l0,0
	c0.1,0.5,0.3,0.9,0.6,1.3c0,0,0.1,0.1,0.1,0.1c0,0,0,0.1,0.1,0.1c0.2,0.6,0.5,1.1,0.9,1.5c0,0.1,0.1,0.2,0.2,0.2
	c0,0.1,0.1,0.2,0.1,0.2c0.8,1.2,1.8,2.3,2.8,3.2c0.6,0.5,1.2,1.1,1.9,1.5c0,0,0,0,0,0c0.5,0.5,1,0.8,1.6,1.1
	c0.2,0.2,0.5,0.4,0.8,0.5c0.8,0.4,1.6,0.9,2.5,1.1c0.6,0.3,1.2,0.5,1.8,0.6c0.1,0,0.1,0,0.2,0c0,0.1,0.1,0.1,0.2,0
	c0.1,0,0.1,0,0.2,0c0.4,0.2,0.9,0.3,1.3,0.3c0.1,0.1,0.2,0.1,0.3,0c0.1,0.1,0.3,0.1,0.4,0.1c0.1,0,0.2,0,0.3,0
	c0.7,0.2,1.4,0.2,2.1,0.2c0.5,0,1,0,1.6,0c0.7,0,1.3,0,2-0.2c0.1,0,0.2,0,0.3,0c0.1,0,0.2,0,0.2,0c0.1,0,0.2,0,0.3,0
	c0.1,0,0.2,0,0.2-0.1c0.1,0,0.1,0,0.2,0c0.2,0,0.4,0,0.5-0.2c0,0,0.1,0,0.1,0c1-0.1,1.9-0.5,2.8-0.9c0.6-0.2,1.1-0.4,1.6-0.8l0,0
	c0.6-0.2,1.1-0.6,1.7-0.9c0.4-0.2,0.8-0.4,1.1-0.7c0,0,0.1-0.1,0.1-0.1c0.1,0,0.2-0.1,0.2-0.2c0.1,0,0.2-0.1,0.2-0.2
	c0.3-0.2,0.6-0.5,0.9-0.7c0.2-0.2,0.2-0.3-0.1-0.4c-0.5-0.2-0.9-0.4-1.3-0.6c-0.1-0.1-0.2-0.1-0.3,0c-0.2,0.2-0.5,0.3-0.6,0.6
	c-0.1,0-0.1,0-0.2,0.1c-0.6,0.4-1.3,0.8-1.9,1.2c-0.5,0.3-1.1,0.5-1.5,0.8c-0.1,0-0.1,0-0.2,0.1c-0.1,0-0.2,0-0.2,0.1
	c-0.1,0-0.3,0.1-0.4,0.1c-1.1,0.3-2.2,0.8-3.4,0.9c-0.6,0.1-1.3,0.2-1.9,0.3c-0.1,0-0.2,0-0.3,0c-0.9,0-1.8,0-2.6,0
	c-0.1,0-0.2,0-0.3,0c-0.1-0.1-0.1-0.1-0.2-0.1C35,77.2,33,76.6,31,75.7c-0.9-0.4-1.7-0.9-2.5-1.4l0,0c0-0.1-0.1-0.1-0.2-0.1
	c0,0,0,0-0.1,0c0-0.1-0.1-0.1-0.2-0.1c-0.1,0-0.1-0.1-0.2-0.1c0-0.1-0.1-0.1-0.2-0.1c0,0,0,0-0.1,0c-0.2-0.3-0.5-0.5-0.8-0.7l0,0
	c-0.1-0.2-0.3-0.4-0.5-0.5c-0.1-0.2-0.3-0.3-0.5-0.4c0,0-0.1-0.1-0.1-0.1l0,0c-0.1-0.3-0.3-0.4-0.6-0.6c0-0.1,0-0.1-0.1-0.1
	c0-0.2-0.2-0.3-0.3-0.3c0-0.2-0.2-0.2-0.3-0.3c0-0.1-0.1-0.2-0.2-0.3l0,0c-0.2-0.4-0.4-0.7-0.7-1c0,0-0.1-0.1-0.1-0.1
	c0,0-0.1-0.1-0.1-0.1c0-0.2-0.1-0.3-0.3-0.4c-0.3-0.6-0.7-1.3-1-1.9c-0.3-0.6-0.5-1.2-0.8-1.7c0-0.1,0-0.1-0.1-0.2
	c0-0.1,0-0.1-0.1-0.2c0-0.1,0-0.1,0-0.2c-0.2-0.9-0.5-1.7-0.6-2.6c-0.1-0.6-0.2-1.2-0.3-1.7c0-0.5,0-0.9,0-1.4
	c0.1-1.1,0.1-2.2,0.3-3.3c0.1-0.5,0.2-1.1,0.4-1.6c0.2-0.5,0.4-1.1,0.5-1.7c0.4-1.1,1-2.2,1.6-3.2c0.2-0.2,0.4-0.5,0.5-0.7
	c0.3-0.3,0.5-0.6,0.7-1c0.8-0.9,1.7-1.9,2.7-2.7c0.1-0.1,0.3-0.2,0.4-0.4c0.5-0.3,0.9-0.6,1.3-1c0,0,0,0,0.1,0
	c0.6-0.3,1.1-0.6,1.7-0.9c3-1.5,6.2-2.2,9.5-2c1.6,0.1,3.1,0.3,4.6,0.8c0.7,0.2,1.5,0.5,2.2,0.8c0.3,0.2,0.6,0.3,0.9,0.4
	c0.1,0.1,0.2,0.2,0.4,0.2c0,0,0,0,0.1,0c0,0.1,0.1,0.1,0.2,0.1c0.1,0.1,0.1,0.1,0.2,0.1c0,0.1,0.1,0.1,0.2,0.1c0,0,0,0,0.1,0
	c0,0.1,0.1,0.1,0.2,0.1c0,0,0,0,0.1,0c0,0.1,0.1,0.1,0.2,0.1c0.2,0.2,0.3,0.3,0.6,0.4c0,0,0.1,0.1,0.1,0.1l0,0
	c0.1,0.2,0.3,0.3,0.5,0.3c0,0,0.1,0,0.1,0.1c0,0.1,0.1,0.1,0.2,0.2c0.1,0.2,0.2,0.3,0.4,0.3c0,0.1,0.1,0.1,0.2,0.2
	c0.1,0.1,0.3,0.2,0.4,0.3c0.4,0.4,0.8,0.9,1.2,1.3c0,0.1,0.1,0.2,0.2,0.2c0.1,0.3,0.4,0.5,0.6,0.8c0,0.1,0.1,0.1,0.1,0.2
	c0,0.1,0.1,0.2,0.1,0.2c0,0.1,0.1,0.2,0.2,0.2c0,0.1,0.1,0.2,0.1,0.2c0,0.1,0.1,0.2,0.2,0.3C54.4,48.6,54.4,48.6,54.5,48.7z
	 M63.1,20.7c0,0.1,0,0.1,0,0.2c0,0.1,0,0.2,0.1,0.3c0.1,0.5,0.2,0.9,0.4,1.3c0.1,0.7,0.1,0.7,0.8,0.7c0.2,0,0.3,0,0.5,0
	c0.4,0,0.8,0,1.2,0c0.1,0,0.2,0,0.2,0c0-0.1-0.1-0.2-0.2-0.2c-0.1-0.1-0.2-0.3-0.3-0.3c-0.3-0.4-0.6-0.7-1-1
	c-0.2-0.3-0.4-0.5-0.7-0.7c-0.3-0.4-0.7-0.2-1-0.2C63.2,20.7,63.1,20.7,63.1,20.7L63.1,20.7C63,20.7,63.1,20.7,63.1,20.7z
	 M56.3,22.5c-0.1,0-0.1,0-0.1,0.1c-0.1,0.1-0.2,0.1-0.3,0.3c-0.1,0-0.2,0.1-0.1,0.2c0,0.1,0.1,0.1,0.2,0.1c0.7,0,1.4,0,2.1,0
	c0.2,0,0.2-0.1,0.3-0.2c0.2-0.7,0.5-1.3,0.7-2c0.1-0.2,0-0.2-0.2-0.3c-0.6-0.1-1.1,0.1-1.5,0.7c-0.3,0.3-0.6,0.5-0.9,0.9
	C56.4,22.2,56.3,22.4,56.3,22.5L56.3,22.5z M78.2,52.3c0-0.1,0-0.1,0-0.2c0-0.1,0-0.2,0-0.3c0-0.2,0-0.3,0-0.5c0-0.1,0-0.2,0-0.2
	c0-0.1,0-0.2-0.1-0.3c0-0.1,0-0.1,0-0.2c-0.1-0.6-0.2-1.2-0.4-1.8c0-0.2-0.1-0.4-0.2-0.6c0,0,0-0.1-0.1-0.1c0-0.2-0.1-0.4-0.2-0.5
	c0-0.1,0-0.2-0.1-0.2c0,0,0,0,0,0c-0.1-0.4-0.3-0.9-0.6-1.2c0,0,0-0.1,0-0.1c0,0,0-0.1-0.1-0.1c0,0,0,0,0-0.1c0,0,0-0.1-0.1-0.1l0,0
	c-0.6-1.3-1.4-2.5-2.4-3.5c-0.1-0.2-0.3-0.4-0.5-0.5c-0.3-0.4-0.7-0.8-1.2-1.1c-0.2-0.3-0.4-0.5-0.7-0.6c-0.4-0.4-0.9-0.7-1.5-1
	c-0.6-0.4-1.2-0.7-1.9-0.9c0,0,0,0,0,0c-0.1-0.1-0.2-0.2-0.4-0.2c-0.2-0.1-0.4-0.2-0.6-0.2c-0.2-0.2-0.5-0.2-0.7-0.3
	c-0.3-0.1-0.7-0.3-1-0.3c0,0-0.1,0-0.1,0c-0.1,0-0.2-0.1-0.3-0.1c-0.6-0.2-1.2-0.3-1.8-0.3c-0.1,0-0.1,0-0.2,0
	c-0.3-0.1-0.5-0.1-0.8-0.1c-0.1,0-0.2,0-0.3,0c-0.4-0.1-0.8,0-1.2,0c-0.5,0-1-0.1-1.5,0.1c-0.1,0-0.2,0-0.3,0
	c-1,0.1-1.9,0.3-2.8,0.6c-0.6,0.2-1.3,0.3-1.8,0.7c-0.1,0-0.2,0.1-0.4,0.1c-0.2,0-0.4,0.1-0.5,0.3l0,0c-0.5,0.2-0.9,0.4-1.3,0.7
	c0,0,0,0-0.1,0c-0.1,0-0.2,0-0.2,0.1l0,0c-0.4,0.2-0.7,0.5-1.1,0.7c-0.1,0.1-0.2,0.2,0,0.3c0.9,0.6,1.8,1.3,2.7,2
	c0,0.1,0.1,0.1,0.1,0.1c0.5,0.5,1,1,1.5,1.4c0.1,0.1,0.1,0.1,0.2,0.2c0.9,1,1.7,2.1,2.5,3.3c0.1,0.3,0.3,0.6,0.6,0.9
	c0.1,0.3,0.2,0.5,0.4,0.8c0.1,0.5,0.5,0.9,0.6,1.5c0,0.1,0.2,0.1,0.2,0.2c-0.1,0.5,0.3,0.9,0.4,1.3c0.1,0.7,0.4,1.4,0.6,2
	c0,0.1,0,0.2,0.1,0.3c0,0.1,0,0.1,0,0.2c0,0.1,0,0.2,0,0.3c0,0.1,0,0.1,0,0.2c0,0.1,0,0.2,0.1,0.3c0,0.1,0,0.1,0,0.2
	c0,0.1,0,0.2,0,0.2c0.1,0.6,0.1,1.3,0.2,1.9c0,0.2,0,0.4,0,0.6c0,0.9-0.1,1.8-0.1,2.7c0,0.2,0,0.3,0,0.5c-0.2,0.9-0.3,1.8-0.5,2.6
	c0,0.1,0,0.1,0,0.2c-0.1,0-0.1,0.1,0,0.2c0,0.1,0,0.1,0,0.2C60,64.7,60,64.9,60,65.2c0,0.1,0,0.1,0,0.2c-0.1,0.1-0.1,0.1-0.1,0.2
	c-0.2,0.5-0.4,1-0.6,1.6c-0.3,0.5-0.5,1.1-0.8,1.6c-0.1,0-0.1,0.1-0.1,0.2c0,0,0,0.1-0.1,0.1c-0.1,0.1-0.1,0.2-0.1,0.3
	c-0.2,0.1-0.3,0.4-0.4,0.6c-0.3,0.5-0.3,0.5,0.3,0.6c0,0,0.1,0,0.1,0c1.7,0.3,3.4,0.3,5.2,0.1c0.6-0.1,1.3-0.1,1.8-0.4
	c0.2,0,0.4-0.1,0.6-0.1c0.1,0,0.1,0,0.2-0.1c0.2,0,0.4-0.1,0.6-0.2c0.1,0,0.1,0,0.2,0c1.3-0.4,2.4-1,3.5-1.7
	c0.8-0.5,1.6-1.1,2.3-1.8c0,0,0.1-0.1,0.1-0.1c0.5-0.3,0.8-0.7,1.2-1.2c0.1,0,0.1-0.1,0.2-0.2c0.5-0.4,0.9-0.9,1.2-1.5
	c0.2-0.1,0.3-0.3,0.3-0.5c0.1-0.1,0.2-0.1,0.2-0.2l0,0c0.8-1.2,1.4-2.5,1.8-3.9c0.2-0.5,0.3-1.1,0.4-1.6c0.2-0.6,0.3-1.1,0.3-1.7
	c0.1-0.1,0.1-0.2,0-0.3c0.1-0.4,0.1-0.8,0.1-1.2C78.3,53.4,78.3,52.8,78.2,52.3z M45.8,45.7c-0.1,0-0.1,0.1-0.1,0.2
	c0,0.1-0.1,0.2-0.1,0.3c-0.1,0-0.1,0.1-0.1,0.2c-0.1,0.2-0.3,0.4-0.3,0.7c-0.5,1.2-1,2.5-1.1,3.8c-0.1,0.1-0.1,0.2,0,0.3
	c-0.1,0.2-0.1,0.4-0.1,0.6c0,0.1,0,0.1,0,0.2c-0.1,0.7-0.2,1.4-0.1,2.1c0,0.3,0,0.6,0,0.9c0,0.1,0,0.2,0,0.3c0.2,2,0.7,3.8,1.5,5.6
	c0.5,1.1,1.1,2.2,1.9,3.1c0.3,0.4,0.6,0.9,1,1.2c0,0.1,0.1,0.2,0.2,0.3c0.4,0.5,0.9,1,1.4,1.3c0.1,0.2,0.3,0.3,0.5,0.4
	c0.3,0.3,0.7,0.6,1.2,0.8c0.3,0.3,0.7,0.5,1.1,0.7c0.1,0.1,0.3,0,0.4-0.1c0.1-0.2,0.2-0.3,0.3-0.5c0.3-0.3,0.5-0.6,0.6-1
	c0.3-0.5,0.6-1,0.8-1.6c0.5-1.1,0.9-2.2,1-3.3c0.2-0.7,0.3-1.4,0.3-2.1c0-0.3,0-0.6,0-0.9c0.1-0.5,0-1,0-1.5c0-0.4,0-0.8-0.2-1.2
	c0-0.2,0-0.5-0.1-0.7c0,0,0-0.1,0-0.1c0,0,0-0.1,0-0.1c0-0.5-0.2-1-0.3-1.6c-0.2-0.8-0.4-1.5-0.9-2.2c0,0,0,0,0,0
	c0,0-0.1-0.1-0.1-0.1c0-0.1,0-0.2-0.1-0.2c0,0-0.1-0.1-0.1-0.1c0-0.2-0.1-0.4-0.3-0.5c-0.2-0.4-0.4-0.9-0.7-1.2
	c-0.2-0.4-0.4-0.7-0.7-1c-0.3-0.4-0.5-0.9-0.9-1.2c0,0-0.1-0.1-0.1-0.1c-0.5-0.6-1-1.1-1.6-1.5c0-0.1-0.1-0.1-0.2-0.1
	c-0.8-0.7-1.7-1.3-2.6-1.8c-0.2-0.1-0.3,0-0.4,0.2c0,0,0,0,0,0c-0.1,0-0.1,0.1-0.1,0.2c0,0,0,0.1,0,0.1C46.3,44.8,46,45.2,45.8,45.7
	L45.8,45.7z M58.7,26.3c0-0.1,0-0.1,0-0.2c0,0,0-0.1,0-0.1c0,0,0-0.1,0-0.1c0-0.3-0.1-0.6-0.2-0.9c0-0.2,0-0.4-0.3-0.4
	c-0.5,0-0.9,0-1.4,0c-0.3,0-0.6,0-0.9,0c-0.1,0-0.2,0-0.2,0.1c-0.1,0.1,0.1,0.2,0.1,0.2c1.1,1.3,2.2,2.7,3.3,4
	c0.2,0.2,0.3,0.4,0.6,0.6c-0.3-0.8-0.4-1.6-0.7-2.4c0-0.1,0-0.1,0-0.2c0-0.1,0-0.1,0-0.2c0-0.1,0-0.1,0-0.2
	C58.8,26.4,58.8,26.3,58.7,26.3z M65.5,25.9c0.4-0.3,0.7-0.8,1-1.2c0.1-0.1,0.1-0.2-0.1-0.2c-0.5,0-1.1,0-1.6,0c-0.2,0-0.5,0-0.7,0
	c-0.2,0-0.3,0.1-0.3,0.2c-0.1,0.3-0.2,0.6-0.2,1c-0.4,1.2-0.7,2.4-0.9,3.6c0.3-0.2,0.5-0.5,0.7-0.8c0.3-0.3,0.6-0.6,0.8-1
	c0.3-0.3,0.6-0.6,0.8-0.9C65.2,26.4,65.4,26.2,65.5,25.9z M59.9,25c0,0.1,0,0.1,0,0.2c0,0.1,0,0.1,0,0.2c0,0.1,0,0.1,0,0.2
	c0,0.1,0,0.1,0,0.2c0,0.3,0.1,0.6,0.2,0.9c0.2,1,0.5,1.9,0.7,2.9c0.1-0.2,0.2-0.3,0.3-0.5c0.3-1.2,0.6-2.4,0.9-3.7
	c0.2-0.8,0.2-0.8-0.7-0.7c-0.5-0.1-1.1-0.1-1.6,0c-0.3,0-0.1,0.2-0.1,0.3C59.9,24.9,59.9,24.9,59.9,25z M62.2,22.7
	c-0.1-0.6-0.4-1.2-0.6-1.8c-0.1-0.3-0.3-0.2-0.5-0.2c-0.2,0-0.4,0-0.5,0.2c-0.2,0.7-0.4,1.3-0.7,2c-0.1,0.2,0,0.2,0.2,0.3
	c0.7,0,1.3,0,2,0c0.3,0,0.4-0.1,0.2-0.3C62.2,22.8,62.2,22.7,62.2,22.7z"/>
</svg>
