<?xml version="1.0" encoding="utf-8"?>
<!-- Generator: Adobe Illustrator 22.0.1, SVG Export Plug-In . SVG Version: 6.00 Build 0)  -->
<svg version="1.1" id="Layer_1" xmlns="http://www.w3.org/2000/svg" xmlns:xlink="http://www.w3.org/1999/xlink" x="0px" y="0px"
	 viewBox="0 0 76.9 49.5" style="enable-background:new 0 0 76.9 49.5;" xml:space="preserve">
<style type="text/css">
	.st0{fill:#F6851F;}
	.st1{fill:#FFFFFF;}
	.st2{fill:none;stroke:#000000;stroke-width:2;stroke-miterlimit:10;}
	.st3{fill:none;stroke:#000000;stroke-width:2;stroke-linecap:round;stroke-linejoin:round;stroke-miterlimit:10;}
</style>
<path class="st0" d="M76.9,33.3v7.3c0,4.9-4,8.9-8.9,8.9H9c-4.9,0-8.9-4-8.9-8.9v-7.3H76.9z"/>
<g>
	<path d="M68,2c3.8,0,6.9,3.1,6.9,6.9v31.7c0,3.8-3.1,6.9-6.9,6.9H9c-3.8,0-6.9-3.1-6.9-6.9V8.9C2,5.1,5.1,2,8.9,2H68 M68,0H9
		C4,0,0,4,0,8.9v31.7c0,4.9,4,8.9,8.9,8.9h59c4.9,0,8.9-4,8.9-8.9V8.9C76.9,4,72.9,0,68,0L68,0z"/>
</g>
<g>
	<g id="XMLID_3_">
		<g>
			<path class="st1" d="M72.2,33.3c0,0,0,2.8,0,4.3s-0.3,1.7-0.9,2c-1.4,0.7-2.9,0.9-2.9,0.9c0-0.2,0.1-0.4,0.1-0.6
				c0-1.6-1.3-2.9-3-2.9c-1.6,0-3,1.3-3,2.9c0,0.2,0,0.4,0.1,0.6h-0.2H45.3h-0.1c0-0.2,0.1-0.4,0.1-0.6c0-1.6-1.3-2.9-3-2.9
				c-1.6,0-3,1.3-3,2.9c0,0.3,0,0.6,0.1,0.9l-0.3-0.3h-2.3c0,0,0-2.8,0-3.4c0-0.6,0.4-3.6,8.4-3.8c8-0.3,18.3,0,18.3,0l1.9-1.9l0,0
				c1.6,0.7,2.4,1.3,2.4,1.3L72.2,33.3z"/>
			<path class="st1" d="M68.4,39.9c0,0.2,0,0.4-0.1,0.6c-0.3,1.3-1.5,2.4-2.9,2.4s-2.6-1-2.9-2.4c0-0.2-0.1-0.4-0.1-0.6
				c0-1.6,1.3-2.9,3-2.9C67.1,37,68.4,38.3,68.4,39.9z"/>
			<path class="st1" d="M45.3,39.9c0,0.2,0,0.4-0.1,0.6c-0.3,1.3-1.5,2.4-2.9,2.4c-1.3,0-2.4-0.9-2.8-2.1c-0.1-0.3-0.1-0.6-0.1-0.9
				c0-1.6,1.3-2.9,3-2.9C43.9,37,45.3,38.3,45.3,39.9z"/>
		</g>
		<g>
			<path class="st2" d="M65.4,31.4l-1.9,1.9c0,0-10.2-0.2-18.3,0c-8.1,0.3-8.4,3.2-8.4,3.8s0,3.4,0,3.4h2.3"/>
			<path class="st2" d="M39.5,40.8c-0.1-0.3-0.1-0.6-0.1-0.9c0-1.6,1.3-2.9,3-2.9c1.6,0,3,1.3,3,2.9c0,0.2,0,0.4-0.1,0.6
				c-0.3,1.3-1.5,2.4-2.9,2.4C41,42.9,39.9,42,39.5,40.8z"/>
			<path class="st2" d="M62.6,40.5c0-0.2-0.1-0.4-0.1-0.6c0-1.6,1.3-2.9,3-2.9c1.6,0,3,1.3,3,2.9c0,0.2,0,0.4-0.1,0.6
				c-0.3,1.3-1.5,2.4-2.9,2.4S62.8,41.9,62.6,40.5z"/>
			<line class="st2" x1="45.3" y1="40.5" x2="62.3" y2="40.5"/>
			<path class="st2" d="M68.3,40.5c0,0,1.5-0.1,2.9-0.9c0.6-0.4,0.9-0.5,0.9-2s0-4.3,0-4.3l-4.3-0.6c0,0-0.9-0.6-2.4-1.3
				c-2-0.9-5.2-1.9-9.1-1.8c-7,0.1-11,3.7-11,3.7"/>
		</g>
	</g>
</g>
<line class="st3" x1="10.1" y1="12.7" x2="32.1" y2="12.7"/>
<line class="st3" x1="10.1" y1="18.7" x2="40.2" y2="18.7"/>
<line class="st3" x1="10.1" y1="24.7" x2="32.1" y2="24.7"/>
</svg>
