<?xml version="1.0" encoding="utf-8"?>
<!-- Generator: Adobe Illustrator 22.0.1, SVG Export Plug-In . SVG Version: 6.00 Build 0)  -->
<svg version="1.1" id="Layer_1" xmlns="http://www.w3.org/2000/svg" xmlns:xlink="http://www.w3.org/1999/xlink" x="0px" y="0px"
	 viewBox="0 0 78.8 31.1" style="enable-background:new 0 0 78.8 31.1;" xml:space="preserve">
<style type="text/css">
	.st0{fill:#F6851F;}
	.st1{fill:none;stroke:#000000;stroke-width:2;stroke-miterlimit:10;}
</style>
<g>
	<path class="st0" d="M69.6,23.6c0,0.4-0.1,0.9-0.2,1.4c-0.6,2.9-3.2,5.1-6.3,5.1c-3.1,0-5.7-2.2-6.3-5.2c-0.1-0.4-0.2-0.8-0.2-1.3
		c0-3.6,2.9-6.4,6.4-6.4C66.8,17.2,69.6,20.1,69.6,23.6z"/>
	<path class="st0" d="M63.3,5L59,9.1c0,0-22.2-0.5-39.8,0.1c0,0,8.6-7.9,24-8.1C52,0.9,59,3.1,63.3,5z"/>
	<path class="st0" d="M19.3,23.6c0,0.4-0.1,0.8-0.2,1.3c-0.6,3-3.2,5.2-6.3,5.2s-5.7-2.2-6.3-5.2c-0.1-0.4-0.2-0.8-0.2-1.3
		c0-3.6,2.9-6.4,6.4-6.4C16.4,17.2,19.3,20.1,19.3,23.6z"/>
</g>
<g>
	<path class="st1" d="M63.3,5L59,9.1c0,0-22.2-0.5-39.8,0.1C1.7,9.7,1,16.2,1,17.5S1,25,1,25h5"/>
	<path class="st1" d="M6.6,24.9c-0.1-0.4-0.2-0.8-0.2-1.3c0-3.6,2.9-6.4,6.4-6.4s6.4,2.9,6.4,6.4c0,0.4-0.1,0.8-0.2,1.3
		c-0.6,3-3.2,5.2-6.3,5.2C9.7,30.1,7.2,27.9,6.6,24.9z"/>
	<path class="st1" d="M56.9,24.9c-0.1-0.4-0.2-0.8-0.2-1.3c0-3.6,2.9-6.4,6.4-6.4c3.5,0,6.4,2.9,6.4,6.4c0,0.4-0.1,0.9-0.2,1.4
		c-0.6,2.9-3.2,5.1-6.3,5.1C60.2,30.1,57.5,27.9,56.9,24.9z"/>
	<line class="st1" x1="19.3" y1="25" x2="56.4" y2="25"/>
	<path class="st1" d="M69.5,25c0,0,3.4-0.3,6.4-2c1.4-0.8,2-1.1,2-4.4s0-9.5,0-9.5l-9.3-1.4c0,0-1.9-1.3-5.2-2.7
		c-4.4-1.9-11.3-4.1-20-3.9c-15.3,0.3-24,8.1-24,8.1"/>
</g>
</svg>
