<?xml version="1.0" encoding="utf-8"?>
<!-- Generator: Adobe Illustrator 22.0.1, SVG Export Plug-In . SVG Version: 6.00 Build 0)  -->
<svg version="1.1" id="Layer_1" xmlns="http://www.w3.org/2000/svg" xmlns:xlink="http://www.w3.org/1999/xlink" x="0px" y="0px"
	 viewBox="0 0 76.9 49.5" style="enable-background:new 0 0 76.9 49.5;" xml:space="preserve">
<style type="text/css">
	.st0{fill:#F6851F;}
	.st1{fill:#FFFFFF;}
	.st2{fill:none;stroke:#000000;stroke-width:2;stroke-linecap:round;stroke-linejoin:round;stroke-miterlimit:10;}
</style>
<path class="st0" d="M76.9,33.3v7.3c0,4.9-4,8.9-8.9,8.9H9c-4.9,0-8.9-4-8.9-8.9v-7.3H76.9z"/>
<g>
	<g id="XMLID_4_">
		<g>
			<path class="st1" d="M65.2,38.8c0,0.2,0.1,0.4,0.1,0.7c0,2.1-1.7,3.8-3.8,3.8s-3.8-1.7-3.8-3.8c0-0.2,0-0.4,0.1-0.7H65.2z"/>
			<path class="st1" d="M63,33.5c3.9,1.1,3.7,5.2,3.7,5.2h-1.5h-7.5H56c0-2.1,1.2-3.9,2.5-4.5c-1.2-4.4-0.6-7.4,0.4-8.2
				C61.9,27.1,62.6,30.9,63,33.5z"/>
			<path class="st1" d="M52,35c0.9,2.9,1,3.6,1,3.6v0.1h-6.9h-7.5h-2.9c0,0,2.5-6.9,5-7.1c2.5-0.3,7.9,0,8.5,0
				C49.8,31.6,51.1,32.1,52,35z"/>
			<path class="st1" d="M46.2,38.8c0,0.2,0,0.4,0,0.7c0,2.1-1.7,3.8-3.8,3.8s-3.8-1.7-3.8-3.8c0-0.2,0-0.4,0.1-0.7H46.2z"/>
		</g>
		<g>
			<path class="st2" d="M56,38.8c0-2.1,1.2-3.9,2.5-4.5c-1.2-4.4-0.6-7.4,0.4-8.2c3,1,3.7,4.8,4.1,7.4c3.9,1.1,3.7,5.2,3.7,5.2h-1.5
				h-7.5L56,38.8l-3-0.1h-6.9h-7.5h-2.9c0,0,2.5-6.9,5-7.1c2.5-0.3,7.9,0,8.5,0s2,0.4,2.9,3.4c0.9,2.9,1,3.6,1,3.6"/>
			<path class="st2" d="M46.2,38.8c0,0.2,0,0.4,0,0.7c0,2.1-1.7,3.8-3.8,3.8s-3.8-1.7-3.8-3.8c0-0.2,0-0.4,0.1-0.7"/>
			<path class="st2" d="M65.2,38.8c0,0.2,0.1,0.4,0.1,0.7c0,2.1-1.7,3.8-3.8,3.8s-3.8-1.7-3.8-3.8c0-0.2,0-0.4,0.1-0.7"/>
			<path class="st2" d="M61.4,22.1v4h-1.3c-1.1,0-1.9-0.8-2-1.9v-0.1c0-0.6,0.2-1.1,0.6-1.4c0.4-0.4,0.9-0.6,1.4-0.6H61.4z"/>
			<line class="st2" x1="55.8" y1="24.2" x2="58.1" y2="24.2"/>
		</g>
	</g>
</g>
<g>
	<path d="M68,2c3.8,0,6.9,3.1,6.9,6.9v31.7c0,3.8-3.1,6.9-6.9,6.9H9c-3.8,0-6.9-3.1-6.9-6.9V8.9C2,5.1,5.1,2,8.9,2H68 M68,0H9
		C4,0,0,4,0,8.9v31.7c0,4.9,4,8.9,8.9,8.9h59c4.9,0,8.9-4,8.9-8.9V8.9C76.9,4,72.9,0,68,0L68,0z"/>
</g>
<line class="st2" x1="10.3" y1="12.7" x2="32.2" y2="12.7"/>
<line class="st2" x1="10.3" y1="18.7" x2="38.6" y2="18.7"/>
<line class="st2" x1="10.3" y1="24.7" x2="32.2" y2="24.7"/>
</svg>
