<?xml version="1.0" encoding="utf-8"?>
<!-- Generator: Adobe Illustrator 22.0.1, SVG Export Plug-In . SVG Version: 6.00 Build 0)  -->
<svg version="1.1" id="Layer_1" xmlns="http://www.w3.org/2000/svg" xmlns:xlink="http://www.w3.org/1999/xlink" x="0px" y="0px"
	 viewBox="0 0 34.8 59.2" style="enable-background:new 0 0 34.8 59.2;" xml:space="preserve">
<style type="text/css">
	.st0{fill:#F6851F;}
	.st1{fill:#FFFFFF;stroke:#000000;stroke-width:2;stroke-miterlimit:10;}
	.st2{fill:none;stroke:#000000;stroke-width:2;stroke-miterlimit:10;}
</style>
<path class="st0" d="M34.8,10.4v33.5c0,1.1-1.4,1.9-3,1.9H3c-1.7,0-3-0.9-3-1.9V10.4c0-1.1,1.4-1.9,3-1.9h28.8
	C33.5,8.5,34.8,9.3,34.8,10.4z"/>
<g>
	<path d="M31.8,2c0.6,0,1,0.4,1,1v53.2c0,0.6-0.5,1-1,1H3c-0.6,0-1-0.5-1-1V3c0-0.6,0.5-1,1-1H31.8 M31.8,0H3C1.4,0,0,1.3,0,3v53.2
		c0,1.6,1.3,3,3,3h28.8c1.6,0,3-1.3,3-3V3C34.8,1.3,33.5,0,31.8,0L31.8,0z"/>
</g>
<circle class="st1" cx="17.4" cy="51.7" r="2.8"/>
<line class="st2" x1="0" y1="8.5" x2="34.8" y2="8.5"/>
<line class="st2" x1="0" y1="45.2" x2="34.8" y2="45.2"/>
</svg>
