<?xml version="1.0" encoding="utf-8"?>
<!-- Generator: Adobe Illustrator 22.0.1, SVG Export Plug-In . SVG Version: 6.00 Build 0)  -->
<svg version="1.1" id="Layer_1" xmlns="http://www.w3.org/2000/svg" xmlns:xlink="http://www.w3.org/1999/xlink" x="0px" y="0px"
	 viewBox="0 0 59 40.7" style="enable-background:new 0 0 59 40.7;" xml:space="preserve">
<style type="text/css">
	.st0{fill:#F6851F;stroke:#000000;stroke-width:2;stroke-linecap:round;stroke-linejoin:round;stroke-miterlimit:10;}
	.st1{fill:none;stroke:#000000;stroke-width:2;stroke-linecap:round;stroke-linejoin:round;stroke-miterlimit:10;}
</style>
<path class="st0" d="M38.4,31.5c0-3.8,2.2-7.2,4.6-8.2c-2.2-8-1.1-13.5,0.8-14.9c5.4,1.8,6.7,8.9,7.5,13.6c7.2,2.1,6.8,9.6,6.8,9.6
	h-57c0,0,4.6-12.6,9.1-13.1s14.4,0,15.5,0s3.6,0.8,5.2,6.2c1.6,5.3,1.9,6.6,1.9,6.6"/>
<path class="st1" d="M20.3,31.5c0.1,0.4,0.1,0.8,0.1,1.2c0,3.9-3.1,7-7,7s-7-3.1-7-7c0-0.4,0-0.8,0.1-1.2"/>
<path class="st1" d="M55.1,31.5c0.1,0.4,0.1,0.8,0.1,1.2c0,3.9-3.1,7-7,7s-7-3.1-7-7c0-0.4,0-0.8,0.1-1.2"/>
<path class="st1" d="M48.2,1v7.3h-2.5c-2,0-3.7-1.6-3.7-3.7c0-1,0.4-1.9,1.1-2.6c0.7-0.6,1.6-1,2.7-1H48.2z"/>
<line class="st1" x1="37.9" y1="4.9" x2="42.1" y2="4.9"/>
</svg>
