<?xml version="1.0" encoding="utf-8"?>
<!-- Generator: Adobe Illustrator 22.0.1, SVG Export Plug-In . SVG Version: 6.00 Build 0)  -->
<svg version="1.1" id="Layer_1" xmlns="http://www.w3.org/2000/svg" xmlns:xlink="http://www.w3.org/1999/xlink" x="0px" y="0px"
	 viewBox="0 0 76.4 68.5" style="enable-background:new 0 0 76.4 68.5;" xml:space="preserve">
<style type="text/css">
	.st0{fill:none;stroke:#000000;stroke-width:2;stroke-miterlimit:10;}
	.st1{fill:#F6851F;stroke:#000000;stroke-width:2;stroke-linecap:round;stroke-linejoin:round;stroke-miterlimit:10;}
	.st2{fill:#F2F2F2;stroke:#000000;stroke-width:2;stroke-linecap:round;stroke-linejoin:round;stroke-miterlimit:10;}
	.st3{fill:#FFFFFF;stroke:#000000;stroke-width:2;stroke-linecap:round;stroke-linejoin:round;stroke-miterlimit:10;}
</style>
<path class="st0" d="M72.8,60.7H3.9c-1.5,0-2.6,1.2-2.6,2.6v4.2h74.1v-4.2C75.4,61.9,74.3,60.7,72.8,60.7z"/>
<rect x="6.4" y="19" class="st0" width="63.7" height="41.7"/>
<path class="st1" d="M26.3,37.6H15.9c-1.1,0-1.9,0.9-1.9,1.9v21.2h14.2V39.5C28.2,38.5,27.3,37.6,26.3,37.6z"/>
<path class="st1" d="M61.9,51.8H40.2c-1.1,0-1.9-0.9-1.9-1.9V39.5c0-1.1,0.9-1.9,1.9-1.9h21.7c1.1,0,1.9,0.9,1.9,1.9v10.3
	C63.8,50.9,62.9,51.8,61.9,51.8z"/>
<path class="st1" d="M6.3,28.8L6.3,28.8c-2.9,0-5.3-2.4-5.3-5.3v-4.3h10.6v4.3C11.6,26.5,9.2,28.8,6.3,28.8z"/>
<path class="st2" d="M16.8,28.8L16.8,28.8c-2.9,0-5.3-2.4-5.3-5.3v-4.3h10.6v4.3C22.1,26.5,19.7,28.8,16.8,28.8z"/>
<path class="st1" d="M27.6,28.8L27.6,28.8c-2.9,0-5.3-2.4-5.3-5.3v-4.3h10.6v4.3C32.9,26.5,30.5,28.8,27.6,28.8z"/>
<path class="st2" d="M38.4,28.8L38.4,28.8c-2.9,0-5.3-2.4-5.3-5.3v-4.3h10.6v4.3C43.7,26.5,41.3,28.8,38.4,28.8z"/>
<path class="st1" d="M49,28.8L49,28.8c-2.9,0-5.3-2.4-5.3-5.3v-4.3h10.6v4.3C54.3,26.5,51.9,28.8,49,28.8z"/>
<path class="st2" d="M59.6,28.8L59.6,28.8c-2.9,0-5.3-2.4-5.3-5.3v-4.3h10.6v4.3C64.9,26.5,62.5,28.8,59.6,28.8z"/>
<path class="st1" d="M70.1,28.8L70.1,28.8c-2.9,0-5.3-2.4-5.3-5.3v-4.3h10.6v4.3C75.4,26.5,73.1,28.8,70.1,28.8z"/>
<polygon class="st1" points="11.6,19.2 1,19.2 6.1,9.2 15.2,9.2 "/>
<polygon class="st3" points="22.5,19.2 11.9,19.2 15.6,9.2 24.7,9.2 "/>
<polygon class="st1" points="32.7,19.2 22.2,19.2 24.3,9.2 33.5,9.2 "/>
<polygon class="st3" points="43.7,19.2 33.1,19.2 33.8,9.2 43,9.2 "/>
<polygon class="st1" points="54.3,19.2 43.7,19.2 43,9.2 52.1,9.2 "/>
<polygon class="st3" points="64.9,19.2 54.3,19.2 52.1,9.2 61.2,9.2 "/>
<polygon class="st1" points="75.4,19.2 64.9,19.2 61.2,9.2 70.4,9.2 "/>
<path class="st0" d="M68,1H8.2C7,1,6.1,2,6.1,3.1v6h64.1v-6C70.1,2,69.2,1,68,1z"/>
</svg>
