<?xml version="1.0" encoding="utf-8"?>
<!-- Generator: Adobe Illustrator 22.0.1, SVG Export Plug-In . SVG Version: 6.00 Build 0)  -->
<svg version="1.1" id="Layer_1" xmlns="http://www.w3.org/2000/svg" xmlns:xlink="http://www.w3.org/1999/xlink" x="0px" y="0px"
	 viewBox="0 0 76.7 77.2" style="enable-background:new 0 0 76.7 77.2;" xml:space="preserve">
<style type="text/css">
	.st0{fill:#F6851F;stroke:#FFFFFF;stroke-width:2;stroke-miterlimit:10;}
	.st1{fill:#FFC200;stroke:#FFFFFF;stroke-width:2;stroke-miterlimit:10;}
	.st2{fill:none;stroke:#FFFFFF;stroke-width:2;stroke-linecap:round;stroke-linejoin:round;stroke-miterlimit:10;}
	.st3{fill:none;stroke:#FFFFFF;stroke-width:2;stroke-miterlimit:10;}
	.st4{fill:#FFFFFF;stroke:#FFFFFF;stroke-width:2;stroke-miterlimit:10;}
</style>
<path class="st0" d="M45.7,16.2c-16.6,0-30,13.4-30,30s13.4,30,30,30s30-13.4,30-30C75.7,29.7,62.2,16.2,45.7,16.2z M45.7,68.9
	C33.2,68.9,23,58.7,23,46.2s10.1-22.7,22.7-22.7c12.5,0,22.7,10.1,22.7,22.7C68.3,58.7,58.2,68.9,45.7,68.9z"/>
<circle class="st1" cx="45.7" cy="46.2" r="3.3"/>
<line class="st2" x1="40.1" y1="39.4" x2="43.6" y2="43.7"/>
<line class="st2" x1="56.5" y1="32.9" x2="47.9" y2="43.7"/>
<polyline class="st3" points="51.1,16.7 51.1,5.2 40.2,5.2 40.2,16.7 "/>
<path class="st4" d="M52.4,1H39c-2.1,0-3.8,1.7-3.8,3.8l0,0c0,2.1,1.7,3.8,3.8,3.8h13.4c2.1,0,3.8-1.7,3.8-3.8l0,0
	C56.2,2.7,54.5,1,52.4,1z"/>
<line class="st2" x1="30.6" y1="46.2" x2="27.4" y2="46.2"/>
<line class="st2" x1="45.7" y1="61.3" x2="45.7" y2="64.6"/>
<line class="st2" x1="60.7" y1="46.2" x2="64" y2="46.2"/>
<line class="st2" x1="45.7" y1="31.2" x2="45.7" y2="27.9"/>
<line class="st2" x1="20.8" y1="29.6" x2="9.8" y2="29.6"/>
<line class="st2" x1="17" y1="37.1" x2="1.4" y2="37.1"/>
<line class="st2" x1="15.7" y1="44.6" x2="5.7" y2="44.6"/>
<line class="st2" x1="16.1" y1="52.1" x2="4.7" y2="52.1"/>
<line class="st2" x1="1" y1="52.1" x2="1" y2="52.1"/>
</svg>
