<?xml version="1.0" encoding="utf-8"?>
<!-- Generator: Adobe Illustrator 22.0.1, SVG Export Plug-In . SVG Version: 6.00 Build 0)  -->
<svg version="1.1" id="Layer_1" xmlns="http://www.w3.org/2000/svg" xmlns:xlink="http://www.w3.org/1999/xlink" x="0px" y="0px"
	 viewBox="0 0 64.5 74.4" style="enable-background:new 0 0 64.5 74.4;" xml:space="preserve">
<style type="text/css">
	.st0{fill:none;stroke:#FFFFFF;stroke-width:2;stroke-miterlimit:10;}
	.st1{fill:#F6851F;stroke:#FFFFFF;stroke-width:2;stroke-miterlimit:10;}
	.st2{fill:none;stroke:#FFFFFF;stroke-width:2;stroke-linecap:round;stroke-linejoin:round;stroke-miterlimit:10;}
</style>
<path class="st0" d="M48.1,18.8v37.6c0,3.3-2.7,6-6,6H7c-3.3,0-6-2.7-6-6V7c0-3.3,2.7-6,6-6h22.4c2,0,3.9,0.7,5.4,2.1l10.7,9.8
	C47.2,14.4,48.1,16.6,48.1,18.8z"/>
<circle class="st1" cx="48.1" cy="58" r="15.4"/>
<line class="st2" x1="7.7" y1="20.7" x2="21" y2="20.7"/>
<line class="st2" x1="7.7" y1="29.6" x2="21" y2="29.6"/>
<line class="st2" x1="26.1" y1="20.7" x2="31.6" y2="20.7"/>
<line class="st2" x1="26.1" y1="29.6" x2="31.6" y2="29.6"/>
<line class="st2" x1="7.7" y1="38.5" x2="21" y2="38.5"/>
<polyline class="st2" points="41.3,56.5 47,61 54.9,52.9 "/>
</svg>
