<?xml version="1.0" encoding="utf-8"?>
<!-- Generator: Adobe Illustrator 22.0.1, SVG Export Plug-In . SVG Version: 6.00 Build 0)  -->
<svg version="1.1" id="Layer_1" xmlns="http://www.w3.org/2000/svg" xmlns:xlink="http://www.w3.org/1999/xlink" x="0px" y="0px"
	 viewBox="0 0 69.6 62.5" style="enable-background:new 0 0 69.6 62.5;" xml:space="preserve">
<style type="text/css">
	.st0{fill:none;stroke:#FFFFFF;stroke-width:2;stroke-miterlimit:10;}
	.st1{fill:#FFFFFF;stroke:#FFFFFF;stroke-width:2;stroke-linecap:round;stroke-linejoin:round;stroke-miterlimit:10;}
	.st2{fill:none;stroke:#FFFFFF;stroke-width:2;stroke-linecap:round;stroke-linejoin:round;stroke-miterlimit:10;}
	.st3{fill:#F6851F;stroke:#FFFFFF;stroke-width:2;stroke-linecap:round;stroke-linejoin:round;stroke-miterlimit:10;}
</style>
<path class="st0" d="M62.4,1c-3.4,0-6.2,2.8-6.2,6.2v45.6c0,4.8-3.9,8.7-8.7,8.7H17.8c-3.8,0-7-3.1-7-7V8c0-3.8,3.1-7,7-7H62.4z"/>
<path class="st0" d="M68.6,7.2v10.1H56.2V7.2C56.2,3.8,59,1,62.4,1c1.7,0,3.3,0.7,4.4,1.8S68.6,5.5,68.6,7.2z"/>
<path class="st1" d="M39.1,52.1v-4.4H1v5.7c0,4.4,3.6,8,8,8h26.4h3.7H47C40.2,61.5,39.2,54.8,39.1,52.1z"/>
<line class="st2" x1="19.9" y1="36" x2="46.6" y2="36"/>
<line class="st2" x1="19.9" y1="41.3" x2="46.6" y2="41.3"/>
<path class="st3" d="M41.3,13l-8.4-4.3V8.6h-0.1h-0.1c0,0,0,0,0,0.1L24.3,13c0,0-0.5,6.8,0,10c0.5,3.1,7,5.9,8.4,7.5v0.1
	c0,0,0,0,0.1-0.1c0,0,0,0,0.1,0.1v-0.1c1.4-1.7,7.9-4.4,8.4-7.5C41.9,19.8,41.3,13,41.3,13z"/>
<polyline class="st2" points="29.3,19.4 31.8,21.8 36.3,17.3 "/>
</svg>
