<?xml version="1.0" encoding="utf-8"?>
<!-- Generator: Adobe Illustrator 22.0.1, SVG Export Plug-In . SVG Version: 6.00 Build 0)  -->
<svg version="1.1" id="Layer_1" xmlns="http://www.w3.org/2000/svg" xmlns:xlink="http://www.w3.org/1999/xlink" x="0px" y="0px"
	 viewBox="0 0 76.4 68.5" style="enable-background:new 0 0 76.4 68.5;" xml:space="preserve">
<style type="text/css">
	.st0{fill:none;stroke:#000000;stroke-width:2;stroke-miterlimit:10;}
	.st1{fill:#F6851F;}
	.st2{fill:#F6851F;stroke:#000000;stroke-width:2;stroke-linecap:round;stroke-linejoin:round;stroke-miterlimit:10;}
	.st3{fill:#F2F2F2;stroke:#000000;stroke-width:2;stroke-linecap:round;stroke-linejoin:round;stroke-miterlimit:10;}
	.st4{fill:#FFFFFF;stroke:#000000;stroke-width:2;stroke-linecap:round;stroke-linejoin:round;stroke-miterlimit:10;}
	.st5{fill:#FFFFFF;stroke:#000000;stroke-width:2;stroke-miterlimit:10;}
	.st6{fill:#F6851F;stroke:#000000;stroke-miterlimit:10;}
	.st7{fill:#FFFFFF;stroke:#FFFFFF;stroke-linecap:round;stroke-linejoin:round;stroke-miterlimit:10;}
	.st8{fill:#F6851F;stroke:#FFFFFF;stroke-miterlimit:10;}
</style>
<path class="st0" d="M3.5-55.1h-68.9c-1.5,0-2.6,1.2-2.6,2.6v4.2H6.1v-4.2C6.1-53.9,5-55.1,3.5-55.1z"/>
<rect x="-62.9" y="-96.8" class="st0" width="63.7" height="41.7"/>
<path class="st1" d="M-43-78.2h-10.4c-1.1,0-1.9,0.9-1.9,1.9v21.2h14.2v-21.2C-41.1-77.3-42-78.2-43-78.2z"/>
<path class="st2" d="M-7.4-64h-21.7c-1.1,0-1.9-0.9-1.9-1.9v-10.4c0-1.1,0.9-1.9,1.9-1.9h21.7c1.1,0,1.9,0.9,1.9,1.9V-66
	C-5.5-64.9-6.4-64-7.4-64z"/>
<path class="st2" d="M-63-87L-63-87c-2.9,0-5.3-2.4-5.3-5.3v-4.3h10.6v4.3C-57.7-89.3-60.1-87-63-87z"/>
<path class="st3" d="M-52.5-87L-52.5-87c-2.9,0-5.3-2.4-5.3-5.3v-4.3h10.6v4.3C-47.2-89.3-49.6-87-52.5-87z"/>
<path class="st2" d="M-41.7-87L-41.7-87c-2.9,0-5.3-2.4-5.3-5.3v-4.3h10.6v4.3C-36.4-89.3-38.8-87-41.7-87z"/>
<path class="st3" d="M-30.9-87L-30.9-87c-2.9,0-5.3-2.4-5.3-5.3v-4.3h10.6v4.3C-25.6-89.3-28-87-30.9-87z"/>
<path class="st2" d="M-20.3-87L-20.3-87c-2.9,0-5.3-2.4-5.3-5.3v-4.3H-15v4.3C-15-89.3-17.4-87-20.3-87z"/>
<path class="st3" d="M-9.7-87L-9.7-87c-2.9,0-5.3-2.4-5.3-5.3v-4.3h10.6v4.3C-4.4-89.3-6.8-87-9.7-87z"/>
<path class="st2" d="M0.8-87L0.8-87c-2.9,0-5.3-2.4-5.3-5.3v-4.3H6.1v4.3C6.1-89.3,3.8-87,0.8-87z"/>
<polygon class="st2" points="-57.7,-96.6 -68.3,-96.6 -63.2,-106.6 -54.1,-106.6 "/>
<polygon class="st4" points="-46.8,-96.6 -57.4,-96.6 -53.7,-106.6 -44.6,-106.6 "/>
<polygon class="st2" points="-36.6,-96.6 -47.1,-96.6 -45,-106.6 -35.8,-106.6 "/>
<polygon class="st4" points="-25.6,-96.6 -36.2,-96.6 -35.5,-106.6 -26.3,-106.6 "/>
<polygon class="st2" points="-15,-96.6 -25.6,-96.6 -26.3,-106.6 -17.2,-106.6 "/>
<polygon class="st4" points="-4.4,-96.6 -15,-96.6 -17.2,-106.6 -8.1,-106.6 "/>
<polygon class="st2" points="6.1,-96.6 -4.4,-96.6 -8.1,-106.6 1.1,-106.6 "/>
<path class="st0" d="M-1.3-114.8h-59.8c-1.2,0-2.1,1-2.1,2.1v6H0.9v-6C0.8-113.8-0.1-114.8-1.3-114.8z"/>
<g>
	<circle class="st5" cx="-141.3" cy="27.8" r="33"/>
	<g>
		<path class="st6" d="M-160.4,28.9c-0.3-7.2,1.6-13.4,8-17.3c7.2-4.4,14.7-4.5,22-0.2c5.1,3.1,8,7.7,8.8,13.9
			c-0.8-0.1-1.4-0.1-1.9-0.3c-1.8-0.7-3.7-1.2-5.5-2.2c-3.1-1.7-3.8-3.3-3.6-7.2c-0.5,0.5-0.8,0.8-1.2,1.1
			c-4.2,4.2-8.9,7.3-14.8,8.4c-2.3,0.4-4.7,0.7-7,1C-157.6,26.4-159.4,26.9-160.4,28.9z"/>
		<path class="st6" d="M-121.3,35.4c0.4-2.2,1-4.2,1.2-6.3c0.9-10.2-6.1-19.5-16.5-21.8c-11.4-2.6-22.9,4.6-25.3,16.1
			c-2.5,11.6,5.4,22.9,17.4,24.8c0.3,0.1,0.7-0.1,1-0.2c0.9-0.4,1.8-0.4,2.2,0.4c0.3,0.5,0.3,1.5,0,2c-0.5,0.8-1.3,0.8-2.2,0.4
			c-0.9-0.4-1.9-0.5-2.8-0.8c-7.6-1.8-13.1-6.3-16.4-13.5c-0.2-0.5-0.8-0.9-1.2-1.4c-0.7-0.8-1.6-1.4-2.1-2.3
			c-1.6-3.1-1.5-6.3,0-9.4c0.3-0.7,0.8-1.4,1.4-1.8c1-0.6,1.3-1.5,1.7-2.4c3.7-8.5,10.1-13.4,19.3-14.5c11-1.2,20.9,5.1,24.6,15.4
			c0.1,0.4,0.3,0.8,0.6,1c2.9,2,3.5,4.9,3.2,8.1c-0.1,1.3-0.7,2.7-1.3,3.9C-117.7,34.9-119.4,35.6-121.3,35.4z"/>
		<path class="st6" d="M-148.9,34.3c-2.1,0-3.7-1.7-3.7-3.8s1.7-3.8,3.8-3.8s3.7,1.7,3.7,3.8C-145,32.6-146.8,34.3-148.9,34.3z"/>
		<path class="st6" d="M-134,34.3c-2.1,0-3.7-1.7-3.7-3.8s1.7-3.8,3.8-3.8s3.7,1.7,3.7,3.8C-130.1,32.6-131.8,34.3-134,34.3z"/>
		<path class="st6" d="M-146.4,40.2c3.6,1.5,7,1.5,10.6-0.1c0.5,1,0.1,1.8-0.4,2.6c-1,1.3-2.4,1.9-4,2c-2.1,0.2-3.9-0.4-5.4-1.8
			C-146.5,42-146.7,41.4-146.4,40.2z"/>
	</g>
</g>
<path class="st7" d="M44.7,61.4c-4.1-0.2-8.1-0.4-12.2-0.6c-2.5-0.1-4.9-0.2-7.4-0.3c-2.8-0.1-5.6-0.2-8.4-0.3
	c-0.4,0-0.7,0.1-0.9,0.4c-0.6,0.9-1.5,1.4-2.6,1.5c-2,0.2-4,0.3-6.1,0.4c-2.2,0.1-3.8-1.3-4-3.5c-0.3-4.4-0.7-8.7-1-13.1
	c-0.1-2,1.1-3.7,3-3.9c2.2-0.3,4.5-0.4,6.7-0.5c0.9,0,1.8,0.3,2.4,1.1c0.3,0.4,0.6,0.4,1.1,0.2c2.8-1.3,5.8-1.9,8.9-1.9
	c2.2,0,4.4,0.4,6.6,1c1.7,0.5,3.4,0.7,5.2,0.7c4.5,0,9,0.1,13.5,0.1c1.7,0,3.2,1.4,3.3,3c0.1,1.9-1.1,3.5-3,3.6
	c-4.2,0.4-8.3,0.8-12.5,1.2c-1,0.1-2.1,0.2-3.1,0.3c-0.7,0.1-1.2,0.4-1.2,1c0,0.5,0.5,0.9,1.2,0.9c2.2-0.1,4.4-0.1,6.7-0.3
	c3.2-0.2,6.4-0.6,9.7-1c3.1-0.4,5.7-1.8,8.3-3.5c3.1-2,6.3-3.8,9.7-5.3c0.7-0.3,1.4-0.6,2.2-0.6c1.2,0,2.2,0.5,2.7,1.6
	c0.6,1.1,0.5,2.2-0.3,3.3c-0.3,0.4-0.7,0.7-1.2,1c-6.7,3.9-13.3,7.8-20,11.7C50,60.8,47.4,61.4,44.7,61.4z M9.3,59.2
	c1.1,0,2.1-0.9,2.1-2s-1-1.9-2.1-1.9c-1.2,0-2.1,0.9-2,2C7.2,58.3,8.1,59.2,9.3,59.2z"/>
<path class="st8" d="M58.8,22.2c0,8.9-7.3,16.2-16.1,16.2c-8.9,0-16.2-7.3-16.2-16.2c0-9,7.3-16.2,16.2-16.2
	C51.7,6,58.9,13.3,58.8,22.2z M42.5,33.3c1.5,0,1.5,0,1.5-1.5c0,0,0,0,0-0.1c0-1.2,0-1.1,1.1-1.6c1.9-0.7,3.1-2.1,3.3-4.1
	c0.2-2.1-0.7-3.7-2.5-4.8C45,20.7,44,20.4,43.1,20c-0.5-0.2-1.1-0.5-1.5-0.9c-0.8-0.7-0.7-1.7,0.3-2.2c0.3-0.2,0.6-0.2,1-0.3
	c1.2-0.1,2.4,0.1,3.4,0.7c0.5,0.2,0.7,0.1,0.8-0.4s0.3-1.1,0.5-1.6c0.2-0.6,0-1-0.6-1.2c-0.7-0.2-1.4-0.5-2.1-0.6
	c-0.6-0.1-0.8-0.3-0.8-0.9c0-1.5,0.2-1.6-1.7-1.6c-0.1,0-0.1,0-0.2,0c-0.7,0-1,0.3-0.9,1c0.2,1.1-0.2,1.8-1.4,2.2
	c-1.7,0.6-2.7,1.9-2.8,3.8c-0.2,1.9,0.7,3.3,2.2,4.3c1,0.6,2,1,3.1,1.4c0.6,0.2,1.1,0.5,1.6,1c0.7,0.8,0.6,1.8-0.3,2.4
	c-0.3,0.2-0.6,0.3-0.9,0.4c-1.5,0.3-2.9-0.1-4.3-0.7c-0.7-0.3-0.8-0.3-1.1,0.5c-0.1,0.4-0.2,0.8-0.4,1.2c-0.2,0.7,0,1.1,0.6,1.4
	c0.6,0.2,1.2,0.5,1.8,0.6c1.5,0.3,1.5,0.3,1.6,1.9c0,0.5,0.2,0.8,0.8,0.8C42.1,33.3,42.3,33.3,42.5,33.3z"/>
<path class="st7" d="M56,44.2c-0.1-0.4,0.1-0.5,0.3-0.6c2.8-1.5,5.6-2.9,8.6-4c0.8-0.3,1.6-0.2,2.3,0.1c0.1,0.1,0.4,0.1,0.4,0.3
	s-0.2,0.2-0.4,0.3c-2.7,1.3-5.4,2.8-8,4.3c-0.8,0.5-1.6,1-2.4,1.6c-0.3,0.2-0.5,0.3-0.5-0.2C56.3,45.3,56.2,44.7,56,44.2z"/>
<path class="st7" d="M60.6,37.7c0.6,0.1,1.4,0,1.5,0.5c0.1,0.4-0.7,0.5-1.1,0.7c-1.9,0.8-3.9,1.5-5.7,2.6c-0.4,0.3-0.7,0.1-1-0.2
	c-1-1-1.1-1,0.3-1.5c1.7-0.6,3.3-1.3,5-1.9C59.9,37.8,60.3,37.8,60.6,37.7z"/>
</svg>
