<?xml version="1.0" standalone="no"?>
<!DOCTYPE svg PUBLIC "-//W3C//DTD SVG 1.1//EN" "http://www.w3.org/Graphics/SVG/1.1/DTD/svg11.dtd" >
<svg>
<metadata>
Created by FontForge 20090914 at Wed Sep  9 05:04:22 2020
 By www-data
Copyright 2020 The Encode Project Authors (https://github.com/thundernixon/Encode-Sans), with Reserved Font Name 'Encode Sans'.
</metadata>
<defs>
<font id="EncodeSans-Regular" horiz-adv-x="0" >
  <font-face 
    font-family="Encode Sans"
    font-weight="400"
    font-stretch="normal"
    units-per-em="2000"
    panose-1="0 0 0 0 0 0 0 0 0 0"
    ascent="1600"
    descent="-400"
    x-height="1085"
    cap-height="1480"
    bbox="-328 -466.004 2596 2142"
    underline-thickness="50"
    underline-position="-75"
    unicode-range="U+000D-U+FB02"
  />
<missing-glyph horiz-adv-x="1214" 
d="M607 -10c-76 0 -147.5 1.83301 -214.5 5.5s-139.167 10.5 -216.5 20.5v1438c66 14 138.167 24.167 216.5 30.5s149.833 9.5 214.5 9.5s136.167 -3.16699 214.5 -9.5s150.5 -16.5 216.5 -30.5v-1438c-77.333 -10 -149.5 -16.833 -216.5 -20.5s-138.5 -5.5 -214.5 -5.5z
M607 1428c-56.667 0 -114.667 -2.33301 -174 -7s-122.333 -11.667 -189 -21v-1322c43.333 -6.66699 94.5 -12 153.5 -16s128.833 -6 209.5 -6s150.667 2 210 6s110.333 9.33301 153 16v1322c-122.667 18.667 -243.667 28 -363 28zM941 49l-335 635l-35 64l-349 659l54 26
l330 -623l35 -62l357 -674zM271 49l-57 25l357 674l35 62l330 623l54 -26l-349 -659l-35 -64z" />
    <glyph glyph-name=".notdef" horiz-adv-x="1214" 
d="M607 -10c-76 0 -147.5 1.83301 -214.5 5.5s-139.167 10.5 -216.5 20.5v1438c66 14 138.167 24.167 216.5 30.5s149.833 9.5 214.5 9.5s136.167 -3.16699 214.5 -9.5s150.5 -16.5 216.5 -30.5v-1438c-77.333 -10 -149.5 -16.833 -216.5 -20.5s-138.5 -5.5 -214.5 -5.5z
M607 1428c-56.667 0 -114.667 -2.33301 -174 -7s-122.333 -11.667 -189 -21v-1322c43.333 -6.66699 94.5 -12 153.5 -16s128.833 -6 209.5 -6s150.667 2 210 6s110.333 9.33301 153 16v1322c-122.667 18.667 -243.667 28 -363 28zM941 49l-335 635l-35 64l-349 659l54 26
l330 -623l35 -62l357 -674zM271 49l-57 25l357 674l35 62l330 623l54 -26l-349 -659l-35 -64z" />
    <glyph glyph-name="NULL" 
 />
    <glyph glyph-name="NULL" 
 />
    <glyph glyph-name="CR" unicode="&#xd;" horiz-adv-x="489" 
 />
    <glyph glyph-name="space" unicode=" " horiz-adv-x="489" 
 />
    <glyph glyph-name="exclam" unicode="!" horiz-adv-x="501" 
d="M200 372l-34 545v563h169v-563l-33 -545h-102zM251 -13c-34.667 0 -62.5 9.83301 -83.5 29.5s-31.5 45.5 -31.5 77.5c0 33.333 10.333 59.833 31 79.5s48.667 29.5 84 29.5c34.667 0 62.5 -10 83.5 -30s31.5 -46.333 31.5 -79c0 -32 -10.667 -57.833 -32 -77.5
s-49 -29.5 -83 -29.5z" />
    <glyph glyph-name="quotedbl" unicode="&#x22;" horiz-adv-x="756" 
d="M161 915l-35 701h166l-34 -701h-97zM498 915l-35 701h166l-34 -701h-97z" />
    <glyph glyph-name="numbersign" unicode="#" horiz-adv-x="1157" 
d="M625 0l154 1480h131l-154 -1480h-131zM100 457v130h957v-130h-957zM246 0l154 1480h132l-154 -1480h-132zM100 893v130h957v-130h-957z" />
    <glyph glyph-name="dollar" unicode="$" horiz-adv-x="1063" 
d="M459 -19c-57.333 0 -117.67 4.99609 -181.003 14.9961s-123.666 24.667 -180.999 44v139c41.333 -13.333 83.166 -24.5 125.499 -33.5s83.5 -15.667 123.5 -20s78 -6.5 114 -6.5c82.667 0 151 10.333 205 31s94 51.167 120 91.5s39 90.166 39 149.499
c0 75.333 -22.167 132.833 -66.5 172.5s-119.833 73.5 -226.5 101.5l-80 21c-126 32 -220.333 80.5 -283 145.5s-94 150.833 -94 257.5c0 127.333 44.333 227.5 133 300.5s221.334 109.5 398.001 109.5c55.333 0 110.833 -3.83301 166.5 -11.5s106.5 -18.5 152.5 -32.5v-140
c-50.667 16 -102.667 27.667 -156 35s-106 11 -158 11c-86 0 -156.5 -10.333 -211.5 -31s-95.5 -50.667 -121.5 -90s-39 -86.666 -39 -141.999c0 -72.667 20.333 -129 61 -169s111 -73.333 211 -100l81 -20c90.667 -23.333 165.334 -53.166 224.001 -89.499
s102.334 -80.666 131.001 -132.999s43 -114.166 43 -185.499c0 -89.333 -20.667 -165.166 -62 -227.499s-101.5 -110 -180.5 -143s-174.833 -49.5 -287.5 -49.5zM456.996 -240.004v261l150 7v-268h-150zM456.996 1465v255h150v-255h-150z" />
    <glyph glyph-name="percent" unicode="%" horiz-adv-x="1846" 
d="M528 0l650 1480h140l-649 -1480h-141zM444 575c-66.667 0 -125.499 15.667 -176.499 47s-91 80.833 -120 148.5s-43.5 156.5 -43.5 266.5c0 109.333 14.333 198 43 266s68.5 117.667 119.5 149s110.167 47 177.5 47s126.666 -15.667 177.999 -47s91.333 -81 120 -149
s43 -156.667 43 -266c0 -110 -14.5 -198.833 -43.5 -266.5s-69.167 -117.167 -120.5 -148.5s-110.333 -47 -177 -47zM444.001 688c40.667 0 76.5 10.667 107.5 32s55.167 57.333 72.5 108s26 119.667 26 207c0 88 -8.66699 157.5 -26 208.5s-41.5 87.333 -72.5 109
s-66.833 32.5 -107.5 32.5s-76.334 -10.667 -107.001 -32s-54.667 -57.333 -72 -108s-26 -119.667 -26 -207s8.66699 -156.5 26 -207.5s41.333 -87.5 72 -109.5s66.334 -33 107.001 -33zM1402 -18c-66.667 0 -125.667 15.667 -177 47s-91.333 80.833 -120 148.5
s-43 156.5 -43 266.5s14.333 198.833 43 266.5s68.5 117.167 119.5 148.5s110.167 47 177.5 47s126.5 -15.667 177.5 -47s90.833 -80.833 119.5 -148.5s43 -156.5 43 -266.5s-14.333 -198.833 -43 -266.5s-68.667 -117.167 -120 -148.5s-110.333 -47 -177 -47zM1402 95
c40.667 0 76.334 10.668 107.001 32.001s54.834 57.333 72.501 108s26.5 119.667 26.5 207c0 88 -8.83301 157.667 -26.5 209s-41.834 87.666 -72.501 108.999s-66.334 32 -107.001 32s-76.334 -10.667 -107.001 -32s-54.834 -57.333 -72.501 -108
s-26.5 -119.667 -26.5 -207s8.83301 -156.5 26.5 -207.5s41.834 -87.5 72.501 -109.5s66.334 -33 107.001 -33z" />
    <glyph glyph-name="ampersand" unicode="&#x26;" horiz-adv-x="1496" 
d="M1416 -20l-796.001 604.003c-84.667 64 -150.834 122.5 -198.501 175.5s-81.167 104.667 -100.5 155s-29 104.166 -29 161.499c0 134 43.5 238 130.5 312s219.167 111 396.5 111c46 0 89.333 -2.5 130 -7.5s78.334 -11.833 113.001 -20.5v-140
c-36.667 10 -74.834 17.5 -114.501 22.5s-80.167 7.5 -121.5 7.5c-87.333 0 -158.166 -11.167 -212.499 -33.5s-94.166 -54.833 -119.499 -97.5s-38 -94.667 -38 -156c0 -42.667 6.83301 -82.334 20.5 -119.001s38.167 -74.834 73.5 -114.501s85.333 -85.167 150 -136.5
l796 -604zM677.999 -17.9971c-119.333 0 -218.999 17.6689 -298.999 53.002s-140.167 84.666 -180.5 147.999s-60.5 136.666 -60.5 219.999c0 63.333 11.167 121.166 33.5 173.499s54.166 98.333 95.499 138s90.666 71.834 147.999 96.501l85 -82
c-66 -32.667 -115.5 -74.834 -148.5 -126.501s-49.5 -112.5 -49.5 -182.5c0 -62.667 14 -117.334 42 -164.001s70.833 -83 128.5 -109s131.167 -39 220.5 -39c88.667 0 165.334 14.5 230.001 43.5s114.334 74.333 149.001 136s52 141.834 52 240.501
c0 42.667 -3.5 87.334 -10.5 134.001s-17.5 92 -31.5 136h138c13.333 -44 23.166 -89.167 29.499 -135.5s9.5 -90.833 9.5 -133.5c0 -120 -23 -220.5 -69 -301.5s-112.333 -142.167 -199 -183.5s-191 -62 -313 -62z" />
    <glyph glyph-name="quotesingle" unicode="'" horiz-adv-x="419" 
d="M161 915l-35 701h166l-34 -701h-97z" />
    <glyph glyph-name="parenleft" unicode="(" horiz-adv-x="659" 
d="M467 -440c-119.333 146.667 -206.166 306.667 -260.499 480s-81.5 356 -81.5 548s27.167 374.833 81.5 548.5s141.166 333.5 260.499 479.5h172c-82 -103.333 -148.667 -210 -200 -320s-88.833 -224 -112.5 -342s-35.5 -240 -35.5 -366s11.833 -248 35.5 -366
s61.167 -232 112.5 -342s118 -216.667 200 -320h-172z" />
    <glyph glyph-name="parenright" unicode=")" horiz-adv-x="659" 
d="M20 -440c82 103.333 148.667 210 200 320s88.833 224 112.5 342s35.5 240 35.5 366s-11.833 248 -35.5 366s-61.167 232 -112.5 342s-118 216.667 -200 320h172c120 -146 207 -305.833 261 -479.5s81 -356.5 81 -548.5s-27 -374.667 -81 -548s-141 -333.333 -261 -480
h-172z" />
    <glyph glyph-name="asterisk" unicode="*" horiz-adv-x="918" 
d="M519 1183l135 -148l101 -138l-95 -70l-102 138l-99 178l-99 -178l-101 -138l-96 70l102 138l134 148l-194 39l-175 57l37 111l173 -56l183 -84l-23 200v166h118v-166l-23 -200l183 84l174 56l36 -111l-175 -57z" />
    <glyph glyph-name="plus" unicode="+" horiz-adv-x="1076" 
d="M470 356v339h-321v130h321v339h136v-339h321v-130h-321v-339h-136z" />
    <glyph glyph-name="comma" unicode="," horiz-adv-x="461" 
d="M150 -315c23.333 62 41.666 120 54.999 174s20 108.333 20 163l28 -35h-22c-34.667 0 -62.5 10.333 -83.5 31s-31.5 47.667 -31.5 81c0 34 10 60.833 30 80.5s47.333 29.5 82 29.5c36.667 0 65.334 -11.833 86.001 -35.5s31 -60.167 31 -109.5
c0 -69.333 -9.33301 -136.5 -28 -201.5s-42.667 -124.167 -72 -177.5h-95z" />
    <glyph glyph-name="hyphen" unicode="-" horiz-adv-x="839" 
d="M149 495v135h541v-135h-541z" />
    <glyph glyph-name="period" unicode="." horiz-adv-x="461" 
d="M231 -13c-34.667 0 -62.5 9.99805 -83.5 29.998s-31.5 47 -31.5 81s10.333 61 31 81s48.667 30 84 30c34.667 0 62.5 -10.167 83.5 -30.5s31.5 -47.166 31.5 -80.499s-10.667 -60.166 -32 -80.499s-49 -30.5 -83 -30.5z" />
    <glyph glyph-name="slash" unicode="/" horiz-adv-x="616" 
d="M0 -240l458 1856h158l-457 -1856h-159z" />
    <glyph glyph-name="zero" unicode="0" horiz-adv-x="1249" 
d="M624 -19c-103.333 0 -193.167 25 -269.5 75s-135.333 130.667 -177 242s-62.5 258.666 -62.5 441.999s20.667 330.666 62 441.999s100 192 176 242s166.333 75 271 75c105.333 0 196 -25 272 -75s134.667 -130.667 176 -242s62 -258.666 62 -441.999
s-20.833 -330.666 -62.5 -441.999s-100.667 -192 -177 -242s-166.5 -75 -270.5 -75zM624.999 121c70 0 131 18.333 183 55s92.167 99.834 120.5 189.501s42.5 213.5 42.5 371.5c0 160 -14.167 285.167 -42.5 375.5s-68.5 154 -120.5 191s-113 55.5 -183 55.5
c-70.667 0 -132 -18.333 -184 -55s-92.167 -99.834 -120.5 -189.501s-42.5 -213.5 -42.5 -371.5c0 -160 14.167 -285.167 42.5 -375.5s68.5 -154 120.5 -191s113.333 -55.5 184 -55.5z" />
    <glyph glyph-name="one" unicode="1" horiz-adv-x="731" 
d="M390 0v1361l59 -38l-424 -304v160l424 306h103v-1485h-162z" />
    <glyph glyph-name="two" unicode="2" horiz-adv-x="986" 
d="M60 0l0.000976562 89l424 564c48 64 86.5 121.167 115.5 171.5s49.833 96.833 62.5 139.5s19 85 19 127c0 96 -26.333 165 -79 207s-132 63 -238 63c-58 0 -113.833 -5 -167.5 -15s-104.834 -24.667 -153.501 -44v140c28.667 11.333 61.167 21.333 97.5 30
s74.833 15.334 115.5 20.001s81 7 121 7c149.333 0 264.333 -31.5 345 -94.5s121 -163.167 121 -300.5c0 -52.667 -7.16699 -104.5 -21.5 -155.5s-37.833 -105.333 -70.5 -163s-77 -122.834 -133 -195.501l-376 -496l-13 45h694v-139h-863z" />
    <glyph glyph-name="three" unicode="3" horiz-adv-x="1012" 
d="M409 -19c-62 0 -123.332 4.83105 -183.999 14.498s-118.334 23.834 -173.001 42.501v132c57.333 -18.667 116.5 -33 177.5 -43s119.5 -15 175.5 -15c126.667 0 221.5 25.167 284.5 75.5s94.5 123.5 94.5 219.5c0 90 -29.5 160.167 -88.5 210.5s-152.833 75.5 -281.5 75.5
h-177v132h97c132.667 0 232.5 25 299.5 75s100.5 121 100.5 213c0 82.667 -27.167 145.834 -81.5 189.501s-134.833 65.5 -241.5 65.5c-54.667 0 -109.334 -4.5 -164.001 -13.5s-108 -23.167 -160 -42.5v132c30.667 11.333 64.667 21.166 102 29.499s76 14.666 116 18.999
s79.667 6.5 119 6.5c152.667 0 268.834 -32.833 348.501 -98.5s119.5 -158.167 119.5 -277.5c0 -95.333 -28.833 -175.166 -86.5 -239.499s-137.167 -106.833 -238.5 -127.5l1 22c120.667 -15.333 213 -55.5 277 -120.5s96 -150.833 96 -257.5
c0 -88 -20 -163.167 -60 -225.5s-99.333 -110.166 -178 -143.499s-176.667 -50 -294 -50z" />
    <glyph glyph-name="four" unicode="4" horiz-adv-x="1181" 
d="M48 355v90l574 1035h163l-574 -1036l-23 43h952v-132h-1092zM781 0v487l20 493h130v-980h-150z" />
    <glyph glyph-name="five" unicode="5" horiz-adv-x="1023" 
d="M436 -19c-62.667 0 -124.666 5.16699 -185.999 15.5s-118.666 24.5 -171.999 42.5v132c56 -18 114.667 -32.167 176 -42.5s121 -15.5 179 -15.5c126.667 0 221.167 25.333 283.5 76s93.5 126 93.5 226c0 64.667 -15.5 118.5 -46.5 161.5s-82.167 76.5 -153.5 100.5
s-168.333 39.333 -291 46l-186 11l50 746h722v-132h-645l73 66l-42 -621l-103 70l186 -10c139.333 -8.66699 252.666 -30 339.999 -64s151.166 -81.667 191.499 -143s60.5 -137.333 60.5 -228c0 -142 -44.833 -250.333 -134.5 -325s-221.5 -112 -395.5 -112z" />
    <glyph glyph-name="six" unicode="6" horiz-adv-x="1151" 
d="M641 -19c-76.667 0 -146.497 12.832 -209.497 38.499s-117.333 66.5 -163 122.5s-80.834 129.333 -105.501 220s-37 200.667 -37 330c0 186 24.167 338.5 72.5 457.5s119.166 207 212.499 264s207 85.5 341 85.5c48 0 95.167 -3.33301 141.5 -10s89.166 -18 128.499 -34
v-134c-40 15.333 -83 26.666 -129 33.999s-91 11 -135 11c-104 0 -191 -21.833 -261 -65.5s-122.667 -112.167 -158 -205.5s-53 -214.666 -53 -363.999v-57c0 -108 8.33301 -198.333 25 -271s40.667 -130.5 72 -173.5s69 -73.833 113 -92.5s92.667 -28 146 -28
c56.667 0 107.334 10.667 152.001 32s79.834 54.5 105.501 99.5s38.5 102.833 38.5 173.5c0 72 -13.5 130.833 -40.5 176.5s-65.333 79.167 -115 100.5s-107.834 32 -174.501 32c-40.667 0 -82.834 -5 -126.501 -15s-85.5 -25.833 -125.5 -47.5s-74.333 -50.167 -103 -85.5
v136c42 44 97.5 78.333 166.5 103s140.5 37 214.5 37c89.333 0 168.333 -15.667 237 -47s122.5 -78.833 161.5 -142.5s58.5 -144.5 58.5 -242.5c0 -95.333 -19.167 -175.666 -57.5 -240.999s-91.333 -114.5 -159 -147.5s-145.5 -49.5 -233.5 -49.5z" />
    <glyph glyph-name="seven" unicode="7" horiz-adv-x="940" 
d="M170 0l553 1392l47 -51h-758v139h869v-89l-542 -1391h-169z" />
    <glyph glyph-name="eight" unicode="8" horiz-adv-x="1249" 
d="M633 -19c-117.333 0 -215.664 15.6729 -294.997 47.0059s-139 76 -179 134s-60 127.667 -60 209c0 95.333 28.167 177.666 84.5 246.999s134.833 120.666 235.5 153.999l122 -51c-93.333 -26.667 -164.333 -69.834 -213 -129.501s-73 -128.167 -73 -205.5
c0 -90.667 31.833 -160.167 95.5 -208.5s158.167 -72.5 283.5 -72.5c116.667 0 205.667 23.167 267 69.5s92 111.833 92 196.5c0 54 -11.667 99.667 -35 137s-62.333 69.333 -117 96s-129 51.334 -223 74.001c-115.333 27.333 -207.5 61.166 -276.5 101.499
s-118.667 88 -149 143s-45.5 118.5 -45.5 190.5c0 78 18.667 145.833 56 203.5s92 102.5 164 134.5s159 48 261 48c148 0 263.833 -33.333 347.5 -100s125.5 -158 125.5 -274c0 -58.667 -10.833 -112.667 -32.5 -162s-54.167 -93 -97.5 -131s-98 -70 -164 -96l-114 50
c92.667 39.333 159.5 84.5 200.5 135.5s61.5 114.833 61.5 191.5c0 85.333 -28.667 150.333 -86 195s-138.333 67 -243 67c-106.667 0 -186.834 -23.167 -240.501 -69.5s-80.5 -108.833 -80.5 -187.5c0 -52.667 11 -98 33 -136s60.333 -71.333 115 -100
s130.667 -54.667 228 -78c115.333 -28.667 207.166 -62.334 275.499 -101.001s117.5 -84.334 147.5 -137.001s45 -114.334 45 -185.001c0 -79.333 -19.833 -149 -59.5 -209s-97.834 -106.833 -174.501 -140.5s-170.667 -50.5 -282 -50.5z" />
    <glyph glyph-name="nine" unicode="9" horiz-adv-x="1151" 
d="M510 1499c76.667 0 146.497 -12.832 209.497 -38.499s117.333 -66.5 163 -122.5s80.834 -129.333 105.501 -220s37 -200.667 37 -330c0 -186 -24.167 -338.5 -72.5 -457.5s-119.166 -207 -212.499 -264s-207 -85.5 -341 -85.5c-48 0 -95.167 3.33301 -141.5 10
s-89.166 18 -128.499 34v134c40 -15.333 83 -26.666 129 -33.999s91 -11 135 -11c104 0 191 21.833 261 65.5s122.667 112.167 158 205.5s53 214.666 53 363.999v57c0 108 -8.33301 198.333 -25 271s-40.667 130.5 -72 173.5s-69 73.833 -113 92.5s-92.667 28 -146 28
c-56.667 0 -107.334 -10.667 -152.001 -32s-79.834 -54.5 -105.501 -99.5s-38.5 -102.833 -38.5 -173.5c0 -72 13.5 -130.833 40.5 -176.5s65.333 -79.167 115 -100.5s107.834 -32 174.501 -32c40.667 0 82.834 5 126.501 15s85.5 25.833 125.5 47.5s74.333 50.167 103 85.5
v-136c-42 -44 -97.5 -78.333 -166.5 -103s-140.5 -37 -214.5 -37c-89.333 0 -168.333 15.667 -237 47s-122.5 78.833 -161.5 142.5s-58.5 144.5 -58.5 242.5c0 95.333 19.167 175.666 57.5 240.999s91.333 114.5 159 147.5s145.5 49.5 233.5 49.5z" />
    <glyph glyph-name="colon" unicode=":" horiz-adv-x="461" 
d="M231 -13c-34.667 0 -62.5 9.99805 -83.5 29.998s-31.5 47 -31.5 81s10.333 61 31 81s48.667 30 84 30c34.667 0 62.5 -10.167 83.5 -30.5s31.5 -47.166 31.5 -80.499s-10.667 -60.166 -32 -80.499s-49 -30.5 -83 -30.5zM231 874.998
c-34.667 0 -62.5 9.99805 -83.5 29.998s-31.5 47 -31.5 81s10.333 61 31 81s48.667 30 84 30c34.667 0 62.5 -10.167 83.5 -30.5s31.5 -47.166 31.5 -80.499s-10.667 -60.166 -32 -80.499s-49 -30.5 -83 -30.5z" />
    <glyph glyph-name="semicolon" unicode=";" horiz-adv-x="461" 
d="M150 -315c23.333 62 41.666 120 54.999 174s20 108.333 20 163l28 -35h-22c-34.667 0 -62.5 10.333 -83.5 31s-31.5 47.667 -31.5 81c0 34 10 60.833 30 80.5s47.333 29.5 82 29.5c36.667 0 65.334 -11.833 86.001 -35.5s31 -60.167 31 -109.5
c0 -69.333 -9.33301 -136.5 -28 -201.5s-42.667 -124.167 -72 -177.5h-95zM231 875c-34.667 0 -62.5 9.99805 -83.5 29.998s-31.5 47 -31.5 81s10.333 61 31 81s48.667 30 84 30c34.667 0 62.5 -10.167 83.5 -30.5s31.5 -47.166 31.5 -80.499s-10.667 -60.166 -32 -80.499
s-49 -30.5 -83 -30.5z" />
    <glyph glyph-name="less" unicode="&#x3c;" horiz-adv-x="1076" 
d="M927 360l-778 328v144l778 328v-136l-672 -278v29l672 -279v-136z" />
    <glyph glyph-name="equal" unicode="=" horiz-adv-x="1076" 
d="M149 892v130h778v-130h-778zM149 498v130h778v-130h-778z" />
    <glyph glyph-name="greater" unicode="&#x3e;" horiz-adv-x="1076" 
d="M149 360v136l672 279v-29l-672 278v136l778 -328v-144z" />
    <glyph glyph-name="question" unicode="?" horiz-adv-x="904" 
d="M355 360l-27.998 407.002c91.333 28 163.166 58.333 215.499 91s89.333 69.667 111 111s32.5 89 32.5 143c0 82.667 -27 145.5 -81 188.5s-134.667 64.5 -242 64.5c-54.667 0 -109.167 -4.5 -163.5 -13.5s-107.833 -22.833 -160.5 -41.5v134
c31.333 11.333 65.666 21.166 102.999 29.499s76 14.666 116 18.999s79.667 6.5 119 6.5c152 0 268 -32.833 348 -98.5s120 -158.5 120 -278.5c0 -70.667 -12.5 -132.667 -37.5 -186s-65 -100.5 -120 -141.5s-126.833 -78.5 -215.5 -112.5l-15 -322h-102zM406.002 -12.998
c-34.667 0 -62.5 9.83301 -83.5 29.5s-31.5 45.5 -31.5 77.5c0 33.333 10.5 59.833 31.5 79.5s48.833 29.5 83.5 29.5s62.5 -10 83.5 -30s31.5 -46.333 31.5 -79c0 -31.333 -10.333 -57 -31 -77s-48.667 -30 -84 -30z" />
    <glyph glyph-name="at" unicode="@" horiz-adv-x="1916" 
d="M1005 -460c-194 0 -357.835 34.167 -491.502 102.5s-235.167 174.666 -304.5 318.999s-104 330.5 -104 558.5c0 226.667 33.833 412 101.5 556s165.667 250.333 294 319s283.166 103 464.499 103c182.667 0 337 -33.333 463 -100s221.333 -168 286 -304s97 -308 97 -516
c0 -144 -15.833 -259.667 -47.5 -347s-74.5 -150.666 -128.5 -189.999s-114.667 -59 -182 -59c-62 0 -112.667 13 -152 39s-67.333 61.667 -84 107h-12c-33.333 -48 -78 -84.333 -134 -109s-116.333 -37 -181 -37c-102 0 -182.333 26.167 -241 78.5s-88 124.833 -88 217.5
c0 94.667 30.833 168.334 92.5 221.001s159.5 85.334 293.5 98.001l299 34l12 -105l-300 -33c-81.333 -9.33301 -140.833 -30 -178.5 -62s-56.5 -77.667 -56.5 -137c0 -62 17.667 -108.667 53 -140s86.666 -47 153.999 -47c46.667 0 94.5 10.167 143.5 30.5
s91.833 54.5 128.5 102.5v477c0 64.667 -10.167 115 -30.5 151s-51 61.333 -92 76s-91.833 22 -152.5 22c-40.667 0 -86.5 -4 -137.5 -12s-101.833 -21 -152.5 -39v131c46 16 97 28.5 153 37.5s108.667 13.5 158 13.5c90 0 165.5 -12 226.5 -36s107.167 -64 138.5 -120
s47 -132.333 47 -229v-456c0 -56 10 -96.167 30 -120.5s50.667 -36.5 92 -36.5c36 0 69.5 14.333 100.5 43s56 77.167 75 145.5s28.5 162.166 28.5 281.499c0 143.333 -15.167 266.333 -45.5 369s-75.666 186.667 -135.999 252s-135.5 113.333 -225.5 144
s-194.667 46 -314 46c-118 0 -222.167 -15.833 -312.5 -47.5s-166.166 -81.667 -227.499 -150s-107.666 -156.833 -138.999 -265.5s-47 -240 -47 -394c0 -156 16 -289 48 -399s79.833 -199.333 143.5 -268s143.334 -118.834 239.001 -150.501s207.5 -47.5 335.5 -47.5
c68.667 0 135 4.66699 199 14s129.667 23.333 197 42v-119c-59.333 -16.667 -122.5 -30 -189.5 -40s-135.833 -15 -206.5 -15z" />
    <glyph glyph-name="A" unicode="A" horiz-adv-x="1349" 
d="M29 0l531 1480h229l531 -1480h-165l-496 1403h28l-496 -1403h-162zM307 479l38 137h658l38 -137h-734z" />
    <glyph glyph-name="B" unicode="B" horiz-adv-x="1259" 
d="M534 -13c-39.333 0 -79.166 1.00195 -119.499 3.00195s-80.833 4.66699 -121.5 8s-82 7.66602 -124 12.999v1444c40.667 8.66699 82.5 16 125.5 22s87.833 10.667 134.5 14s95.667 5 147 5c132.667 0 240.834 -14.5 324.501 -43.5s145.167 -72.667 184.5 -131
s59 -131.833 59 -220.5c0 -56.667 -10.333 -109.167 -31 -157.5s-53.334 -88.833 -98.001 -121.5s-103 -54.667 -175 -66l2 14c116 -13.333 202.333 -52.333 259 -117s85 -148.334 85 -251.001c0 -67.333 -11.833 -126.833 -35.5 -178.5s-61.334 -95 -113.001 -130
s-119 -61.5 -202 -79.5s-183.5 -27 -301.5 -27zM567 116.002c116.667 0 208.835 10.668 276.502 32.001s116 53.5 145 96.5s43.5 97.167 43.5 162.5c0 98 -30.833 170.333 -92.5 217s-159.167 70 -292.5 70h-341v131h312c89.333 0 161.166 10 215.499 30
s93.666 50 117.999 90s36.5 90 36.5 150c0 96.667 -30.167 166.167 -90.5 208.5s-162.833 63.5 -307.5 63.5c-54 0 -101.667 -1.83301 -143 -5.5s-80.666 -8.83398 -117.999 -15.501v-1216c38.667 -5.33301 77.167 -9 115.5 -11s79.166 -3 122.499 -3z" />
    <glyph glyph-name="C" unicode="C" horiz-adv-x="1151" 
d="M775 -19c-102 0 -194.165 13.499 -276.498 40.499s-152.833 70.167 -211.5 129.5s-103.667 137.333 -135 234s-47 214 -47 352c0 178.667 27.333 324 82 436s133.167 194.333 235.5 247s225.166 79 368.499 79c57.333 0 112.166 -3.66699 164.499 -11
s104.166 -18 155.499 -32v-142c-52 16 -103.833 27.333 -155.5 34s-104.5 10 -158.5 10c-112 0 -206.833 -19.833 -284.5 -59.5s-136.5 -104.667 -176.5 -195s-60 -211.166 -60 -362.499c0 -156 20.333 -279.167 61 -369.5s99.167 -154.5 175.5 -192.5
s167.833 -57 274.5 -57c54.667 0 107.667 4.33301 159 13s106.333 22.667 165 42v-141c-49.333 -17.333 -102.166 -30.833 -158.499 -40.5s-115.5 -14.5 -177.5 -14.5z" />
    <glyph glyph-name="D" unicode="D" horiz-adv-x="1400" 
d="M519 -12c-37.333 0 -74.333 0.833008 -111 2.5s-74.667 4 -114 7s-81 6.83301 -125 11.5v1447c40 8 81.833 15 125.5 21s87.667 10.5 132 13.5s87.5 4.5 129.5 4.5c244 0 428.167 -61.667 552.5 -185s186.5 -313.333 186.5 -570c0 -174 -29 -316.333 -87 -427
s-144.5 -192.5 -259.5 -245.5s-258.167 -79.5 -429.5 -79.5zM551 127c128.667 0 235.67 20.834 321.003 62.501s149.166 107.667 191.499 198s63.5 208.166 63.5 353.499c0 143.333 -20.833 260.333 -62.5 351s-104.334 157.5 -188.001 200.5s-188.834 64.5 -315.501 64.5
c-36 0 -73.333 -1.66699 -112 -5s-78 -8.33301 -118 -15v-1198c34.667 -4 69.5 -7 104.5 -9s73.5 -3 115.5 -3z" />
    <glyph glyph-name="E" unicode="E" horiz-adv-x="1166" 
d="M169 0v1480h916v-137h-755v-1206h765v-137h-926zM271 691v137h716v-137h-716z" />
    <glyph glyph-name="F" unicode="F" horiz-adv-x="1125" 
d="M169 0v1480h908v-139h-746v-1341h-162zM283 678v138h697v-138h-697z" />
    <glyph glyph-name="G" unicode="G" horiz-adv-x="1347" 
d="M865 -13c-166.667 0 -306.335 26.335 -419.002 79.002s-197.667 134.167 -255 244.5s-86 252.5 -86 426.5c0 179.333 29.667 325 89 437s143.333 194.167 252 246.5s237 78.5 385 78.5c56 0 111.5 -3.66699 166.5 -11s109.833 -18.333 164.5 -33v-141
c-60 16.667 -116 28.167 -168 34.5s-103.333 9.5 -154 9.5c-117.333 0 -218.166 -20 -302.499 -60s-149.166 -105.333 -194.499 -196s-68 -212.334 -68 -365.001c0 -144.667 21.667 -261.834 65 -351.501s108 -155.167 194 -196.5s193 -62 321 -62c48 0 92.833 2 134.5 6
s80.5 9.33301 116.5 16l-64 -67v638h154v-704c-62.667 -10 -120 -17.333 -172 -22s-105 -7 -159 -7z" />
    <glyph glyph-name="H" unicode="H" horiz-adv-x="1445" 
d="M169 0v1480h162v-647h782v647h163v-1480h-163v686h-782v-686h-162z" />
    <glyph glyph-name="I" unicode="I" horiz-adv-x="501" 
d="M169 0v1480h162v-1480h-162z" />
    <glyph glyph-name="J" unicode="J" horiz-adv-x="501" 
d="M98 -344l-107 73c42 58 76.167 114.5 102.5 169.5s45.666 113.833 57.999 176.5s18.5 134.667 18.5 216v1189h161v-1210c0 -81.333 -7.83301 -155.5 -23.5 -222.5s-40.667 -132 -75 -195s-79.166 -128.5 -134.499 -196.5z" />
    <glyph glyph-name="K" unicode="K" horiz-adv-x="1237" 
d="M1077 0l-583 756l546 724h178l-561 -742l2 46l601 -784h-183zM169 0v1480h162v-1480h-162zM305 686v146h264v-146h-264z" />
    <glyph glyph-name="L" unicode="L" horiz-adv-x="1071" 
d="M169 0v1480h162v-1339h729v-141h-891z" />
    <glyph glyph-name="M" unicode="M" horiz-adv-x="1760" 
d="M173 0v1480h193l535 -1149h-35l528 1149h193v-1480h-153v1339h46l-527 -1134h-146l-533 1134h52v-1339h-153z" />
    <glyph glyph-name="N" unicode="N" horiz-adv-x="1469" 
d="M169 0v1480h167l851 -1294h-40v1294h153v-1480h-167l-850 1294h40v-1294h-154z" />
    <glyph glyph-name="O" unicode="O" horiz-adv-x="1439" 
d="M720 -19c-123.333 0 -231 26.167 -323 78.5s-163.667 134.333 -215 246s-77 256.5 -77 434.5s25.667 322.833 77 434.5s123.166 193.667 215.499 246s199.833 78.5 322.5 78.5s230 -26.167 322 -78.5s163.667 -134.333 215 -246s77 -256.5 77 -434.5
s-25.667 -322.833 -77 -434.5s-123.166 -193.667 -215.499 -246s-199.5 -78.5 -321.5 -78.5zM720 120c89.333 0 167.5 19.833 234.5 59.5s119 104.5 156 194.5s55.5 210.333 55.5 361c0 154 -18.5 276.667 -55.5 368s-89 157 -156 197s-145.167 60 -234.5 60
c-90 0 -168.5 -19.667 -235.5 -59s-119 -104 -156 -194s-55.5 -210.667 -55.5 -362c0 -154.667 18.5 -277.5 55.5 -368.5s89 -156.5 156 -196.5s145.5 -60 235.5 -60z" />
    <glyph glyph-name="P" unicode="P" horiz-adv-x="1233" 
d="M169 0v1458c61.333 12 122.833 21.333 184.5 28s126.834 10 195.501 10c195.333 0 343.166 -40.5 443.499 -121.5s150.5 -208.833 150.5 -383.5c0 -164 -49.833 -289.333 -149.5 -376s-255.5 -130 -467.5 -130c-34.667 0 -67.167 0.833008 -97.5 2.5
s-62.833 3.83398 -97.5 6.50098v-494h-162zM529 616.999c159.333 0 274.666 30.501 345.999 91.501s107 154.167 107 279.5c0 131.333 -34.833 226.833 -104.5 286.5s-175.5 89.5 -317.5 89.5c-43.333 0 -83.5 -1.5 -120.5 -4.5s-73.167 -7.5 -108.5 -13.5v-717
c32.667 -4.66699 64.834 -7.83398 96.501 -9.50098s65.5 -2.5 101.5 -2.5z" />
    <glyph glyph-name="Q" unicode="Q" horiz-adv-x="1439" 
d="M1284 -230c-182.667 22 -340.5 50.8379 -473.5 86.5049s-244.833 79.667 -335.5 132s-163 114.166 -217 185.499s-93 153.5 -117 246.5s-36 198.5 -36 316.5c0 179.333 25.667 325 77 437s123.166 194.167 215.499 246.5s199.833 78.5 322.5 78.5
c122 0 229.167 -25.833 321.5 -77.5s164.166 -133.334 215.499 -245.001s77 -257.167 77 -436.5c0 -160.667 -22.167 -296.334 -66.5 -407.001s-110.166 -194.834 -197.499 -252.501s-195.666 -86.5 -324.999 -86.5c-19.333 0 -39 0.666992 -59 2s-40.333 3.33301 -61 6
l33 45c63.333 -26.667 131.333 -49.334 204 -68.001s147 -34 223 -46s151 -21.333 225 -28zM720 120.005c89.333 0 167.499 19.833 234.499 59.5s119 104.5 156 194.5s55.5 210.333 55.5 361c0 154 -18.5 276.667 -55.5 368s-89 157 -156 197s-145.167 60 -234.5 60
c-90 0 -168.5 -19.667 -235.5 -59s-119 -104 -156 -194s-55.5 -210.667 -55.5 -362c0 -154.667 18.5 -277.667 55.5 -369s88.833 -156.833 155.5 -196.5s145.334 -59.5 236.001 -59.5z" />
    <glyph glyph-name="R" unicode="R" horiz-adv-x="1307" 
d="M169 0l-0.000976562 1456c38 7.33301 77.5 14 118.5 20s84.5 10.833 130.5 14.5s94.667 5.5 146 5.5c194.667 0 339.667 -35.5 435 -106.5s143 -181.833 143 -332.5c0 -98.667 -23.167 -181 -69.5 -247s-114.5 -115.667 -204.5 -149s-201.333 -50 -334 -50
c-40.667 0 -76.667 0.833008 -108 2.5s-63.666 3.83398 -96.999 6.50098v-620h-160zM1071 -0.000976562l-522 696h181l526 -696h-185zM534.999 740.999c158.667 0 273.668 25.668 345.001 77.001s107 130.333 107 237c0 74 -14.333 133.833 -43 179.5s-73.5 79 -134.5 100
s-139.833 31.5 -236.5 31.5c-50 0 -93.667 -1.83301 -131 -5.5s-75 -8.83398 -113 -15.501v-594c26 -2.66699 49.333 -4.66699 70 -6s41.667 -2.33301 63 -3s45.666 -1 72.999 -1z" />
    <glyph glyph-name="S" unicode="S" horiz-adv-x="1063" 
d="M462 -19c-58.667 0 -119.833 4.99609 -183.5 14.9961s-124.167 25 -181.5 45v140c41.333 -14 83.166 -25.5 125.499 -34.5s83.833 -15.833 124.5 -20.5s79.667 -7 117 -7c122.667 0 213.334 23.167 272.001 69.5s88 113.833 88 202.5
c0 75.333 -22.167 132.833 -66.5 172.5s-119.833 73.5 -226.5 101.5l-80 21c-126 32 -220.333 80.5 -283 145.5s-94 150.833 -94 257.5c0 127.333 44.167 227.5 132.5 300.5s219.833 109.5 394.5 109.5c57.333 0 114 -3.83301 170 -11.5s107 -18.834 153 -33.501v-140
c-50.667 16 -102.834 27.833 -156.501 35.5s-107.834 11.5 -162.501 11.5c-84.667 0 -154 -10.333 -208 -31s-94 -50.667 -120 -90s-39 -86.666 -39 -141.999c0 -72.667 20.333 -129 61 -169s111 -73.333 211 -100l81 -20c90.667 -23.333 165.334 -53.166 224.001 -89.499
s102.334 -80.666 131.001 -132.999s43 -114.166 43 -185.499c0 -89.333 -20.667 -165.166 -62 -227.499s-101.333 -110 -180 -143s-173.667 -49.5 -285 -49.5z" />
    <glyph glyph-name="T" unicode="T" horiz-adv-x="1176" 
d="M507 0v1339h-493v141h1148v-141h-493v-1339h-162z" />
    <glyph glyph-name="U" unicode="U" horiz-adv-x="1417" 
d="M710 -19c-126 0 -229.334 20.667 -310.001 62s-140.5 104.833 -179.5 190.5s-58.5 194.5 -58.5 326.5v920h162v-938c0 -146 31.167 -252.667 93.5 -320s159.833 -101 292.5 -101c134 0 232 33.667 294 101s93 174 93 320v938h158v-920
c0 -132 -19.167 -240.833 -57.5 -326.5s-97.666 -149.167 -177.999 -190.5s-183.5 -62 -309.5 -62z" />
    <glyph glyph-name="V" unicode="V" horiz-adv-x="1314" 
d="M539 0l-528 1480h172l496 -1406h-36l499 1406h161l-528 -1480h-236z" />
    <glyph glyph-name="W" unicode="W" horiz-adv-x="2116" 
d="M472 0l-417 1480h167l386 -1402h-41l399 1402h191l394 -1402h-37l389 1402h157l-417 -1480h-212l-392 1377h42l-396 -1377h-213z" />
    <glyph glyph-name="X" unicode="X" horiz-adv-x="1278" 
d="M1080 0l-443 631l-95 123l-512 726h186l423 -601l95 -123l532 -756h-186zM11 0l531 754l97 125l424 601h182l-511 -724l-97 -125l-443 -631h-183z" />
    <glyph glyph-name="Y" unicode="Y" horiz-adv-x="1176" 
d="M507 0v726l36 -123l-574 877h179l471 -721h-55l465 721h168l-563 -877l36 121v-724h-163z" />
    <glyph glyph-name="Z" unicode="Z" horiz-adv-x="1153" 
d="M62 0v91l829 1288l11 -38h-829v139h1007v-91l-830 -1288l-10 38h851v-139h-1029z" />
    <glyph glyph-name="bracketleft" unicode="[" horiz-adv-x="659" 
d="M189 -440v2056h506v-133h-346v-1790h344v-133h-504z" />
    <glyph glyph-name="backslash" unicode="\" horiz-adv-x="619" 
d="M459 -240l-459 1856h160l459 -1856h-160z" />
    <glyph glyph-name="bracketright" unicode="]" horiz-adv-x="659" 
d="M-34 -440v133h344v1790h-346v133h506v-2056h-504z" />
    <glyph glyph-name="asciicircum" unicode="^" horiz-adv-x="1157" 
d="M96 740l396 740h171l398 -740h-164l-345 655h53l-345 -655h-164z" />
    <glyph glyph-name="underscore" unicode="_" horiz-adv-x="1122" 
d="M92 -133v133h938v-133h-938z" />
    <glyph glyph-name="grave" unicode="`" horiz-adv-x="1052" 
d="M526 1253l-240 363h173l215 -363h-148z" />
    <glyph glyph-name="a" unicode="a" horiz-adv-x="1030" 
d="M420 -18c-102 0 -182.167 26.333 -240.5 79s-87.5 125 -87.5 217c0 94.667 31.167 168.5 93.5 221.5s162.5 86.167 300.5 99.5l291 31l15 -106l-296 -32c-86 -8.66699 -147.833 -29.5 -185.5 -62.5s-56.5 -78.5 -56.5 -136.5c0 -60.667 17.333 -107 52 -139
s86.334 -48 155.001 -48c47.333 0 95 10.167 143 30.5s91 54.5 129 102.5v479c0 66.667 -10.333 118.167 -31 154.5s-51.667 61.833 -93 76.5s-93.333 22 -156 22c-40.667 0 -86.834 -3.66699 -138.501 -11s-103.167 -19.666 -154.5 -36.999v131
c46.667 15.333 98.167 27.166 154.5 35.499s109.5 12.5 159.5 12.5c92 0 168.833 -12 230.5 -36s108 -64.5 139 -121.5s46.5 -134.833 46.5 -233.5v-711h-134l-12 121h-10c-35.333 -44.667 -80.5 -79 -135.5 -103s-114.5 -36 -178.5 -36z" />
    <glyph glyph-name="b" unicode="b" horiz-adv-x="1129" 
d="M486 -19c-56.667 0 -114.001 4.16699 -172.001 12.5s-112.333 20.5 -163 36.5v1586h160v-643h9c33.333 38 75.5 69 126.5 93s109.167 36 174.5 36c75.333 0 144.333 -17.5 207 -52.5s112.834 -92 150.501 -171s56.5 -184.167 56.5 -315.5c0 -196 -46.5 -342 -139.5 -438
s-229.5 -144 -409.5 -144zM497.999 112c122.667 0 215.667 34 279 102s95 179.667 95 335c0 108 -13 192 -39 252s-61.5 102.167 -106.5 126.5s-95.833 36.5 -152.5 36.5c-49.333 0 -97.5 -10.167 -144.5 -30.5s-86.5 -52.166 -118.5 -95.499v-702
c24 -6.66699 52.5 -12.334 85.5 -17.001s66.833 -7 101.5 -7z" />
    <glyph glyph-name="c" unicode="c" horiz-adv-x="876" 
d="M574 -19c-102.667 0 -189.668 19.501 -261.001 58.501s-125.666 99.667 -162.999 182s-56 189.166 -56 320.499s20.167 238.166 60.5 320.499s99.166 142.833 176.499 181.5s172 58 284 58c38 0 76 -2.33301 114 -7s74.333 -11.667 109 -21v-136
c-35.333 9.33301 -70.166 16.333 -104.499 21s-68.166 7 -101.499 7c-83.333 0 -152.666 -13.667 -207.999 -41s-96.5 -71.666 -123.5 -132.999s-40.5 -143.333 -40.5 -246c0 -105.333 12.667 -189.333 38 -252s63.166 -107.834 113.499 -135.501
s112.166 -41.5 185.499 -41.5c35.333 0 72.333 3.5 111 10.5s82 18.167 130 33.5v-135c-42.667 -15.333 -86.167 -26.666 -130.5 -33.999s-88.833 -11 -133.5 -11z" />
    <glyph glyph-name="d" unicode="d" horiz-adv-x="1129" 
d="M521 -19c-78.667 0 -150.334 17.8311 -215.001 53.498s-116.167 92.834 -154.5 171.501s-57.5 183.334 -57.5 314.001s20.833 239 62.5 325s103.167 150.333 184.5 193s181.333 64 300 64c30.667 0 61.334 -1.33301 92.001 -4s59 -6 85 -10v528h160v-1616h-136l-11 117
h-11c-32 -39.333 -73.5 -71.833 -124.5 -97.5s-109.167 -38.5 -174.5 -38.5zM557 118.998c48.667 0 96.333 10.667 143 32s86 55.333 118 102v699c-24 6 -52 10.667 -84 14s-63.667 5 -95 5c-126 0 -221.167 -34 -285.5 -102s-96.5 -179.667 -96.5 -335
c0 -106.667 12.833 -190.167 38.5 -250.5s61 -102.833 106 -127.5s96.833 -37 155.5 -37z" />
    <glyph glyph-name="e" unicode="e" horiz-adv-x="1030" 
d="M608 -19c-112.667 0 -207.167 19.1689 -283.5 57.502s-133.833 98.666 -172.5 180.999s-58 190.166 -58 323.499c0 127.333 17.833 232.333 53.5 315s86.334 144 152.001 184s143.5 60 233.5 60c88.667 0 164.167 -20.167 226.5 -60.5s109.833 -102 142.5 -185
s49 -188.833 49 -317.5v-49h-770v109h652l-35 -24c0 101.333 -10.5 182 -31.5 242s-51.333 103.167 -91 129.5s-87.834 39.5 -144.501 39.5c-56 0 -104.667 -13 -146 -39s-73.166 -69 -95.499 -129s-33.5 -141 -33.5 -243v-56c0 -100 13.5 -179.833 40.5 -239.5
s67.833 -102.667 122.5 -129s124 -39.5 208 -39.5c41.333 0 84.166 3.83301 128.499 11.5s91.5 18.5 141.5 32.5v-131c-52 -14.667 -101.5 -25.5 -148.5 -32.5s-93.833 -10.5 -140.5 -10.5z" />
    <glyph glyph-name="f" unicode="f" horiz-adv-x="717" 
d="M223 0v1249c0 84 14.833 154.833 44.5 212.5s73.834 101.167 132.501 130.5s131 44 217 44c24.667 0 49.5 -1 74.5 -3s49.5 -5 73.5 -9v-134c-22.667 4 -44.834 6.83301 -66.501 8.5s-43.5 2.5 -65.5 2.5c-84.667 0 -147.667 -18.667 -189 -56s-62 -100.333 -62 -189
v-1256h-159zM19 953v132h704v-132h-704z" />
    <glyph glyph-name="g" unicode="g" horiz-adv-x="1129" 
d="M483 -460c-50 0 -103.5 4.16602 -160.5 12.499s-110.167 20.5 -159.5 36.5v134c56.667 -17.333 110.834 -30.166 162.501 -38.499s101.167 -12.5 148.5 -12.5c117.333 0 204 25.167 260 75.5s84 137.5 84 261.5v106h-9c-32.667 -38 -74.5 -69 -125.5 -93
s-109.167 -36 -174.5 -36c-75.333 0 -144.333 17.5 -207 52.5s-113 91.667 -151 170s-57 182.5 -57 312.5c0 194.667 46.5 340.167 139.5 436.5s229.833 144.5 410.5 144.5c37.333 0 75.5 -2 114.5 -6s77.167 -9.66699 114.5 -17s72.333 -16 105 -26v-1020
c0 -176 -41.333 -302.167 -124 -378.5s-206.334 -114.5 -371.001 -114.5zM556 122.999c48.667 0 96.5 10.333 143.5 31s86.5 52.334 118.5 95.001v700c-24 6 -52.333 11.167 -85 15.5s-66.667 6.5 -102 6.5c-121.333 0 -214 -33.833 -278 -101.5s-96 -178.834 -96 -333.501
c0 -107.333 13 -191 39 -251s61.5 -102 106.5 -126s96.167 -36 153.5 -36z" />
    <glyph glyph-name="h" unicode="h" horiz-adv-x="1137" 
d="M151 0l0.000976562 1616h160v-652h9c44 46 94.667 80.5 152 103.5s118.333 34.5 183 34.5c66 0 124.833 -12.5 176.5 -37.5s92.167 -65.5 121.5 -121.5s44 -131 44 -225v-718h-159v711c0 93.333 -20.833 157.833 -62.5 193.5s-96.834 53.5 -165.501 53.5
c-33.333 0 -68 -4.83301 -104 -14.5s-71 -25 -105 -46s-64 -48.833 -90 -83.5v-814h-160z" />
    <glyph glyph-name="i" unicode="i" horiz-adv-x="463" 
d="M151 0v1085h160v-1085h-160zM231 1321c-36 0 -63.5 8.83301 -82.5 26.5s-28.5 42.167 -28.5 73.5c0 32 9.5 57 28.5 75s46.5 27 82.5 27s63.5 -9 82.5 -27s28.5 -43 28.5 -75c0 -31.333 -9.5 -55.833 -28.5 -73.5s-46.5 -26.5 -82.5 -26.5z" />
    <glyph glyph-name="j" unicode="j" horiz-adv-x="463" 
d="M79 -464l-106 72c42 58 76.167 115.333 102.5 172s45.5 116.5 57.5 179.5s18 133.167 18 210.5v915h160v-906c0 -86 -7.83301 -164.833 -23.5 -236.5s-40.5 -140.5 -74.5 -206.5s-78.667 -132.667 -134 -200zM230 1325c-36 0 -63.5 8.83301 -82.5 26.5
s-28.5 42.167 -28.5 73.5c0 32 9.5 57 28.5 75s46.5 27 82.5 27s63.5 -9 82.5 -27s28.5 -43 28.5 -75c0 -31.333 -9.5 -55.833 -28.5 -73.5s-46.5 -26.5 -82.5 -26.5z" />
    <glyph glyph-name="k" unicode="k" horiz-adv-x="1038" 
d="M879 0l-436 556l406 529h178l-417 -549v44l450 -580h-181zM291 489v134h221v-134h-221zM151 0v1616h160v-1616h-160z" />
    <glyph glyph-name="l" unicode="l" horiz-adv-x="462" 
d="M151 0v1616h160v-1616h-160z" />
    <glyph glyph-name="m" unicode="m" horiz-adv-x="1695" 
d="M151 0v1085h135l11 -123h11c41.333 46.667 88.833 81.667 142.5 105s110.834 35 171.501 35c60 0 113.667 -12.333 161 -37s84.666 -64.834 111.999 -120.501s41 -130.167 41 -223.5v-721h-158v711c0 93.333 -18.333 158 -55 194s-85 54 -145 54
c-30 0 -61.167 -5 -93.5 -15s-63.5 -25.833 -93.5 -47.5s-56.667 -50.5 -80 -86.5v-810h-160zM1396 0.000976562v711c0 93.333 -19.167 158 -57.5 194s-87.5 54 -147.5 54c-30.667 0 -63.167 -5.16699 -97.5 -15.5s-67.666 -28 -99.999 -53s-60.5 -59.167 -84.5 -102.5
l-40 129c52.667 68.667 111 116.667 175 144s125.667 41 185 41c62.667 0 118.667 -12.5 168 -37.5s88.166 -65.5 116.499 -121.5s42.5 -131 42.5 -225v-718h-160z" />
    <glyph glyph-name="n" unicode="n" horiz-adv-x="1137" 
d="M151 0v1085h135l11 -122h11c44 44.667 95.333 79 154 103s121 36 187 36c68 0 128.167 -12.5 180.5 -37.5s93.333 -65.667 123 -122s44.5 -131.5 44.5 -225.5v-717h-159v710c0 93.333 -20.5 158.166 -61.5 194.499s-96.5 54.5 -166.5 54.5c-32 0 -66 -4.66699 -102 -14
s-71.167 -24.666 -105.5 -45.999s-64.833 -49.666 -91.5 -84.999v-814h-160z" />
    <glyph glyph-name="o" unicode="o" horiz-adv-x="1112" 
d="M556 -19c-93.333 0 -174.667 19.501 -244 58.501s-123 99.667 -161 182s-57 189.166 -57 320.499c0 130 18.833 236.333 56.5 319s91.167 143.5 160.5 182.5s151 58.5 245 58.5s175.667 -19.5 245 -58.5s122.833 -99.667 160.5 -182s56.5 -188.833 56.5 -319.5
c0 -130 -19.167 -236.333 -57.5 -319s-92 -143.667 -161 -183s-150.167 -59 -243.5 -59zM555.999 111.001c61.333 0 114.333 13.332 159 39.999s79.167 71.167 103.5 133.5s36.5 147.166 36.5 254.499c0 109.333 -12.167 195.5 -36.5 258.5s-59 107.667 -104 134
s-97.833 39.5 -158.5 39.5c-61.333 0 -114.333 -13.167 -159 -39.5s-79.167 -70.666 -103.5 -132.999s-36.5 -147.166 -36.5 -254.499c0 -108.667 12.167 -194.5 36.5 -257.5s58.833 -108 103.5 -135s97.667 -40.5 159 -40.5z" />
    <glyph glyph-name="p" unicode="p" horiz-adv-x="1129" 
d="M151 -440l-0.00195312 1525h136l12 -119h10c32.667 40 74.5 72.667 125.5 98s108.833 38 173.5 38c78 0 149.333 -17.333 214 -52s116.334 -91.5 155.001 -170.5s58 -184.5 58 -316.5c0 -130.667 -20.667 -239 -62 -325s-102.666 -150.333 -183.999 -193
s-181.666 -64 -300.999 -64c-30.667 0 -61.334 1.5 -92.001 4.5s-59 6.16699 -85 9.5v-435h-160zM489.998 112c126.667 0 222 34 286 102s96 179.667 96 335c0 108 -13 192 -39 252s-61.667 102.167 -107 126.5s-96.666 36.5 -153.999 36.5
c-48.667 0 -96.334 -10.5 -143.001 -31.5s-86 -55.167 -118 -102.5v-699c24 -5.33301 52.167 -9.83301 84.5 -13.5s63.833 -5.5 94.5 -5.5z" />
    <glyph glyph-name="q" unicode="q" horiz-adv-x="1129" 
d="M818 -440l0.000976562 550h-9c-32.667 -38 -74.5 -69 -125.5 -93s-109.167 -36 -174.5 -36c-76 0 -145.333 17.5 -208 52.5s-112.834 92 -150.501 171s-56.5 184.167 -56.5 315.5c0 196 46.5 342 139.5 438s229.833 144 410.5 144c37.333 0 75.5 -2 114.5 -6
s77.167 -9.66699 114.5 -17s72.333 -16 105 -26v-1493h-160zM556.001 119c48.667 0 96.5 10.332 143.5 30.999s86.5 52.334 118.5 95.001v704c-24 6 -52.333 11.167 -85 15.5s-66.667 6.5 -102 6.5c-121.333 0 -214 -34 -278 -102s-96 -179.667 -96 -335
c0 -108 13 -192 39 -252s61.5 -102.167 106.5 -126.5s96.167 -36.5 153.5 -36.5z" />
    <glyph glyph-name="r" unicode="r" horiz-adv-x="723" 
d="M151 0v1085h134l13 -145h10c37.333 51.333 84.166 90.166 140.499 116.499s115.166 39.5 176.499 39.5c16.667 0 31.834 -0.666992 45.501 -2s27.167 -3.33301 40.5 -6v-148c-15.333 2.66699 -30.5 4.33398 -45.5 5.00098s-31.167 1 -48.5 1
c-35.333 0 -72.166 -5.5 -110.499 -16.5s-74.5 -28 -108.5 -51s-63 -51.833 -87 -86.5v-792h-160z" />
    <glyph glyph-name="s" unicode="s" horiz-adv-x="901" 
d="M410 -19c-54.667 0 -106.831 3.66699 -156.498 11s-97.834 18.333 -144.501 33v128c53.333 -16 104.333 -27.5 153 -34.5s98 -10.5 148 -10.5c94 0 162.167 16 204.5 48s63.5 77 63.5 135c0 49.333 -12.667 87.166 -38 113.499s-68.333 45.833 -129 58.5l-147 30
c-98.667 21.333 -169.167 56.5 -211.5 105.5s-63.5 112.167 -63.5 189.5c0 91.333 35.167 166.5 105.5 225.5s178.5 88.5 324.5 88.5c46.667 0 91.167 -2.66699 133.5 -8s83.166 -13.333 122.499 -24v-129c-44 12 -86.167 20.667 -126.5 26s-82.5 8 -126.5 8
c-68.667 0 -123.5 -8.16699 -164.5 -24.5s-70.5 -38.333 -88.5 -66s-27 -58.5 -27 -92.5c0 -42.667 12 -78 36 -106s66 -48.667 126 -62l147 -30c100 -20.667 171.833 -54.667 215.5 -102s65.5 -111.666 65.5 -192.999c0 -98 -35.833 -175.5 -107.5 -232.5
s-176.5 -85.5 -314.5 -85.5z" />
    <glyph glyph-name="t" unicode="t" horiz-adv-x="749" 
d="M565 -19c-110.667 0 -196.667 28.5 -258 85.5s-92 148.167 -92 273.5v745l26 395h134v-1114c0 -91.333 18.833 -155.333 56.5 -192s93.834 -55 168.501 -55c20 0 40.667 1.5 62 4.5s44.666 7.16699 69.999 12.5v-135c-26.667 -6.66699 -54 -11.667 -82 -15
s-56.333 -5 -85 -5zM11 953v132h705v-132h-705z" />
    <glyph glyph-name="u" unicode="u" horiz-adv-x="1127" 
d="M486 -18c-67.333 0 -127.001 12.333 -179.001 37s-93 65 -123 121s-45 131 -45 225v720h160v-713c0 -92.667 20.667 -157.167 62 -193.5s94.666 -54.5 159.999 -54.5c32.667 0 66.834 5 102.501 15s70.167 25.667 103.5 47s63 49 89 83v816h160v-1085h-135l-11 119h-10
c-45.333 -45.333 -96.666 -79.5 -153.999 -102.5s-117.333 -34.5 -180 -34.5z" />
    <glyph glyph-name="v" unicode="v" horiz-adv-x="1058" 
d="M426 0l-411 1085h171l357 -970h-20l358 970h161l-411 -1085h-205z" />
    <glyph glyph-name="w" unicode="w" horiz-adv-x="1693" 
d="M378 0l-318 1085h157l271 -946h-16l283 946h189l283 -946h-18l272 946h151l-316 -1085h-189l-288 957h18l-290 -957h-189z" />
    <glyph glyph-name="x" unicode="x" horiz-adv-x="1009" 
d="M813 0l-310 432l-94 115l-386 538h183l301 -420l93 -116l396 -549h-183zM16 0l393 547l98 118l301 420h177l-385 -536l-97 -117l-308 -432h-179z" />
    <glyph glyph-name="y" unicode="y" horiz-adv-x="1058" 
d="M305 -440l167 440l51 115l358 970h161l-577 -1525h-160zM426 0l-411 1085h171l393 -1085h-153z" />
    <glyph glyph-name="z" unicode="z" horiz-adv-x="919" 
d="M63 0v99l614 891v-37h-603v132h779v-99l-614 -891v38h626v-133h-802z" />
    <glyph glyph-name="braceleft" unicode="{" horiz-adv-x="699" 
d="M596 -460c-121.333 0 -212.833 29.166 -274.5 87.499s-92.5 145.5 -92.5 261.5v503c0 58 -14 100.167 -42 126.5s-69 39.5 -123 39.5h-28v133h28c54 0 95 13.333 123 40s42 68.667 42 126v430c0 116 30.833 203.167 92.5 261.5s153.167 87.5 274.5 87.5
c26 0 51.167 -1 75.5 -3s45.5 -4.66699 63.5 -8v-125h-122c-74.667 0 -130.667 -16.5 -168 -49.5s-56 -87.167 -56 -162.5v-422c0 -76 -16.333 -134.5 -49 -175.5s-85.667 -66.5 -159 -76.5v21c73.333 -9.33301 126.333 -34.666 159 -75.999s49 -100 49 -176v-495
c0 -74.667 18.667 -128.667 56 -162s93.333 -50 168 -50h122v-125c-18 -2.66699 -39.167 -5.16699 -63.5 -7.5s-49.5 -3.5 -75.5 -3.5z" />
    <glyph glyph-name="bar" unicode="|" horiz-adv-x="487" 
d="M169 -440v2056h148v-2056h-148z" />
    <glyph glyph-name="braceright" unicode="}" horiz-adv-x="699" 
d="M103 -460c-26 0 -51 1.16797 -75 3.50098s-45.333 4.83301 -64 7.5v125h122c75.333 0 131.5 16.667 168.5 50s55.5 87.333 55.5 162v495c0 76 16.5 134.667 49.5 176s85.833 66.666 158.5 75.999v-21c-72.667 10 -125.5 35.5 -158.5 76.5s-49.5 99.5 -49.5 175.5v422
c0 75.333 -18.5 129.5 -55.5 162.5s-93.167 49.5 -168.5 49.5h-122v125c18.667 3.33301 40 6 64 8s49 3 75 3c122 0 213.667 -29.167 275 -87.5s92 -145.5 92 -261.5v-430c0 -57.333 14 -99.333 42 -126s69 -40 123 -40h28v-133h-28c-54 0 -95 -13.167 -123 -39.5
s-42 -68.5 -42 -126.5v-503c0 -116 -30.667 -203.167 -92 -261.5s-153 -87.5 -275 -87.5z" />
    <glyph glyph-name="asciitilde" unicode="~" horiz-adv-x="1076" 
d="M719 633c-36.667 0 -71.668 6.83105 -105.001 20.498s-65.333 27.834 -96 42.501l-82.5 37c-26.333 11.333 -52.833 17 -79.5 17c-40.667 0 -77.667 -9 -111 -27s-65.333 -45.333 -96 -82v144c50.667 62 120 93 208 93c37.333 0 72.5 -6.66699 105.5 -20
s64.833 -27.666 95.5 -42.999l82.5 -37c26.333 -11.333 52.833 -17 79.5 -17c40.667 0 77.834 9 111.501 27s65.5 45.333 95.5 82v-144c-50 -62 -119.333 -93 -208 -93z" />
    <glyph glyph-name="uni00A0" unicode="&#xa0;" horiz-adv-x="489" 
 />
    <glyph glyph-name="exclamdown" unicode="&#xa1;" horiz-adv-x="501" 
d="M200 707h102l33 -542v-545h-169v545zM251 1098c34 0 61.667 -10 83 -30s32 -46.667 32 -80s-10.5 -60.333 -31.5 -81s-48.833 -31 -83.5 -31c-35.333 0 -63.333 10.167 -84 30.5s-31 47.5 -31 81.5s10.5 60.833 31.5 80.5s48.833 29.5 83.5 29.5z" />
    <glyph glyph-name="cent" unicode="&#xa2;" horiz-adv-x="881" 
d="M574 -19c-102.667 0 -189.666 19.501 -260.999 58.501s-125.666 99.667 -162.999 182s-56 189.166 -56 320.499s20 238.166 60 320.499s98.833 142.833 176.5 181.5s172.834 58 285.501 58c38 0 75.5 -2.33301 112.5 -7s73.5 -11.667 109.5 -21v-136
c-36.667 9.33301 -72.167 16.333 -106.5 21s-68.5 7 -102.5 7c-83.333 0 -152.333 -13.667 -207 -41s-95.334 -71.666 -122.001 -132.999s-40 -143.333 -40 -246c0 -105.333 12.667 -189.333 38 -252s63.166 -107.834 113.499 -135.501s112.166 -41.5 185.499 -41.5
c35.333 0 72.333 3.5 111 10.5s82 18.167 130 33.5v-135c-42.667 -15.333 -86.167 -26.666 -130.5 -33.999s-88.833 -11 -133.5 -11zM493.001 -239.999v255h140v-255h-140zM493.001 1070v255h140v-255h-140z" />
    <glyph glyph-name="sterling" unicode="&#xa3;" horiz-adv-x="1267" 
d="M298 56l0.000976562 987.001c0 153.333 45.167 267.666 135.5 342.999s223.833 113 400.5 113c55.333 0 111 -3.83301 167 -11.5s106.667 -18.5 152 -32.5v-140c-50 16 -101.667 27.667 -155 35s-106 11 -158 11c-86.667 0 -158.334 -10.5 -215.001 -31.5
s-99 -54.333 -127 -100s-42 -106.5 -42 -182.5v-991h-158zM77.001 0.000976562v136h1117v-136h-1117zM77.001 686.001v128h899v-128h-899z" />
    <glyph glyph-name="currency" unicode="&#xa4;" horiz-adv-x="1157" 
d="M354 904l-147 118l-106 101l92 93l102 -105l119 -148zM802 904l-60 59l120 148l101 105l93 -93l-107 -101zM962 264l-102 105l-110 138l60 62l139 -111l105 -101zM195 264l-93 93l105 101l140 111l60 -62l-110 -138zM578 397c-65.333 0 -122.833 14.167 -172.5 42.5
s-88.5 68.333 -116.5 120s-42 111.834 -42 180.501c0 68 14 127.667 42 179s66.833 91.166 116.5 119.499s107.167 42.5 172.5 42.5s122.833 -14.167 172.5 -42.5s88.667 -68.166 117 -119.499s42.5 -111 42.5 -179c0 -68.667 -14.167 -128.834 -42.5 -180.501
s-67.333 -91.667 -117 -120s-107.167 -42.5 -172.5 -42.5zM578 501c66 0 119.668 20.833 161.001 62.5s62 100.5 62 176.5c0 70 -19.167 127.333 -57.5 172s-92.833 67 -163.5 67c-66.667 0 -120.834 -21 -162.501 -63s-62.5 -100.667 -62.5 -176
c0 -74.667 20.833 -133.167 62.5 -175.5s95.167 -63.5 160.5 -63.5z" />
    <glyph glyph-name="yen" unicode="&#xa5;" horiz-adv-x="1214" 
d="M526 0v726l36 -123l-571 877h179l468 -721h-55l468 721h168l-566 -877l36 121v-724h-163zM209 299v109h797v-109h-797zM209 640v109h797v-109h-797z" />
    <glyph glyph-name="brokenbar" unicode="&#xa6;" horiz-adv-x="487" 
d="M169 836v780h148v-780h-148zM169 -440v780h148v-780h-148z" />
    <glyph glyph-name="section" unicode="&#xa7;" horiz-adv-x="1015" 
d="M440 -19c-50.667 0 -100.667 3.33105 -150 9.99805s-97.333 17 -144 31v124c53.333 -15.333 103.666 -26.166 150.999 -32.499s95 -9.5 143 -9.5c65.333 0 118.333 7.16699 159 21.5s70.334 35.166 89.001 62.499s28 60 28 98c0 50 -13 88.333 -39 115
s-69 46.334 -129 59.001l-160 33c-93.333 20.667 -161.5 55 -204.5 103s-64.5 111 -64.5 189c0 50 11.833 95.333 35.5 136s57.167 74.667 100.5 102l93 -68c-30.667 -21.333 -53.5 -45.666 -68.5 -72.999s-22.5 -57 -22.5 -89c0 -45.333 12.833 -83.333 38.5 -114
s70.167 -53 133.5 -67l161 -33c98 -21.333 168.667 -54.833 212 -100.5s65 -106.167 65 -181.5c0 -97.333 -35.833 -174.333 -107.5 -231s-178.167 -85 -319.5 -85zM760 454.998l-98.001 68.002c33.333 21.333 57.666 45.166 72.999 71.499s23 56.833 23 91.5
c0 51.333 -13.833 91.333 -41.5 120s-73.167 50 -136.5 64l-160 33c-96 21.333 -165.667 55.166 -209 101.499s-65 105.833 -65 178.5c0 60.667 15.333 114.667 46 162s78 84.5 142 111.5s145.667 40.5 245 40.5c44.667 0 87.834 -2.5 129.501 -7.5
s81.834 -12.167 120.501 -21.5v-125c-44 12 -84.833 20.167 -122.5 24.5s-77.167 6.5 -118.5 6.5c-72.667 0 -130.167 -8.16699 -172.5 -24.5s-72.833 -38.333 -91.5 -66s-28 -58.167 -28 -91.5c0 -44 12.167 -80 36.5 -108s66.5 -48.667 126.5 -62l163 -33
c96.667 -20.667 166.5 -54.667 209.5 -102s64.5 -110.333 64.5 -189c0 -53.333 -12 -100.333 -36 -141s-57.333 -74.667 -100 -102z" />
    <glyph glyph-name="dieresis" unicode="&#xa8;" horiz-adv-x="1052" 
d="M817 1323c-32 0 -57.167 8.83301 -75.5 26.5s-27.5 41.5 -27.5 71.5c0 30.667 9.16699 55 27.5 73s43.5 27 75.5 27c31.333 0 56.166 -9 74.499 -27s27.5 -42.333 27.5 -73c0 -30 -9.16699 -53.833 -27.5 -71.5s-43.166 -26.5 -74.499 -26.5zM384 1323
c-32 0 -57.167 8.83301 -75.5 26.5s-27.5 41.5 -27.5 71.5c0 30.667 9.16699 55 27.5 73s43.5 27 75.5 27c31.333 0 56.166 -9 74.499 -27s27.5 -42.333 27.5 -73c0 -30 -9.16699 -53.833 -27.5 -71.5s-43.166 -26.5 -74.499 -26.5z" />
    <glyph glyph-name="copyright" unicode="&#xa9;" horiz-adv-x="1702" 
d="M851 -22c-149.333 0 -279.833 31.667 -391.5 95s-198.667 152.166 -261 266.499s-93.5 247.833 -93.5 400.5s31.167 286.167 93.5 400.5s149.333 203.166 261 266.499s242.167 95 391.5 95s279.833 -31.667 391.5 -95s198.5 -152.166 260.5 -266.499
s93 -247.833 93 -400.5s-31 -286.167 -93 -400.5s-148.833 -203.166 -260.5 -266.499s-242.167 -95 -391.5 -95zM894 324c-120 0 -216.669 34.668 -290.002 104.001s-110 171 -110 305c0 131.333 37 232.666 111 303.999s178 107 312 107c34.667 0 67.5 -2 98.5 -6
s62.167 -10.667 93.5 -20v-114c-30.667 8.66699 -60.667 15 -90 19s-60.666 6 -93.999 6c-97.333 0 -171.666 -24 -222.999 -72s-77 -121.667 -77 -221c0 -100.667 25 -175.334 75 -224.001s118.667 -73 206 -73c28.667 0 59.5 2.66699 92.5 8s69.833 15 110.5 29v-113
c-32 -13.333 -65.833 -23.166 -101.5 -29.499s-73.5 -9.5 -113.5 -9.5zM850.998 83.001c129.333 0 241.833 27.167 337.5 81.5s169.667 130.666 222 228.999s78.5 213.833 78.5 346.5s-26.167 248.167 -78.5 346.5s-126.333 174.666 -222 228.999s-208.167 81.5 -337.5 81.5
s-241.833 -27.167 -337.5 -81.5s-169.667 -130.666 -222 -228.999s-78.5 -213.833 -78.5 -346.5s26.167 -248.167 78.5 -346.5s126.333 -174.666 222 -228.999s208.167 -81.5 337.5 -81.5z" />
    <glyph glyph-name="ordfeminine" unicode="&#xaa;" horiz-adv-x="868" 
d="M346 595c-86.667 0 -154.501 21.8301 -203.501 65.4971s-73.5 101.834 -73.5 174.501c0 77.333 26 137.333 78 180s136.333 69 253 79l246 24l15 -90l-245 -24c-70 -6.66699 -120.5 -22.5 -151.5 -47.5s-46.5 -59.833 -46.5 -104.5c0 -47.333 14.333 -83.5 43 -108.5
s71.667 -37.5 129 -37.5c38 0 76.167 7.83301 114.5 23.5s72.5 40.834 102.5 75.501v381c0 48.667 -8.33301 86.834 -25 114.501s-42.334 47 -77.001 58s-78.667 16.5 -132 16.5c-36 0 -75.167 -3.16699 -117.5 -9.5s-84.833 -16.5 -127.5 -30.5v120
c40.667 13.333 84.667 23.333 132 30s92.333 10 135 10c80 0 146.833 -10.167 200.5 -30.5s93.834 -54 120.501 -101s40 -111.167 40 -192.5v-561h-126l-11 97h-9c-30 -36 -68.167 -63.667 -114.5 -83s-96.166 -29 -149.499 -29z" />
    <glyph glyph-name="guillemotleft" unicode="&#xab;" horiz-adv-x="1007" 
d="M366 137l-254 426l254 425h166l-254 -425l254 -426h-166zM769 137l-254 426l254 425h166l-254 -425l254 -426h-166z" />
    <glyph glyph-name="logicalnot" unicode="&#xac;" horiz-adv-x="1333" 
d="M1058 194v501h-909v130h1045v-631h-136z" />
    <glyph glyph-name="uni00AD" unicode="&#xad;" horiz-adv-x="839" 
d="M149 495v135h541v-135h-541z" />
    <glyph glyph-name="registered" unicode="&#xae;" horiz-adv-x="1502" 
d="M751 268c-120.667 0 -226.834 25.833 -318.501 77.5s-163.167 123.667 -214.5 216s-77 199.166 -77 320.499s25.667 228.333 77 321s122.833 165 214.5 217s197.834 78 318.501 78s226.834 -26 318.501 -78s163.167 -124.333 214.5 -217s77 -199.667 77 -321
s-25.667 -228.166 -77 -320.499s-122.833 -164.333 -214.5 -216s-197.834 -77.5 -318.501 -77.5zM911 600l-154 224l87 26l170 -250h-103zM751 357c104 0 194.833 21.667 272.5 65s137.667 104.333 180 183s63.5 171 63.5 277s-21.167 198.5 -63.5 277.5
s-102.333 140.333 -180 184s-168.5 65.5 -272.5 65.5s-194.667 -21.833 -272 -65.5s-137.333 -105 -180 -184s-64 -171.5 -64 -277.5s21.333 -198.333 64 -277s102.667 -139.667 180 -183s168 -65 272 -65zM540 600l-0.000976562 592.001h199c82 0 144 -16.333 186 -49
s63 -79.334 63 -140.001s-20.667 -107 -62 -139s-103.666 -48 -186.999 -48h-106l-2 -216h-91zM632.999 896.001h121c95.333 0 143 35.667 143 107c0 72.667 -47.667 109 -143 109h-121v-216z" />
    <glyph glyph-name="macron" unicode="&#xaf;" horiz-adv-x="1052" 
d="M290 1369v107h620v-107h-620z" />
    <glyph glyph-name="degree" unicode="&#xb0;" horiz-adv-x="979" 
d="M490 804c-68 0 -128.167 14.833 -180.5 44.5s-93.5 70.667 -123.5 123s-45 111.833 -45 178.5c0 67.333 15 127.166 45 179.499s71.167 93.333 123.5 123s112.5 44.5 180.5 44.5c67.333 0 127.166 -14.833 179.499 -44.5s93.5 -70.667 123.5 -123
s45 -112.166 45 -179.499c0 -66.667 -15 -126.167 -45 -178.5s-71.167 -93.333 -123.5 -123s-112.166 -44.5 -179.499 -44.5zM490 912c68 0 123.833 21.499 167.5 64.499s65.5 100.833 65.5 173.5c0 74 -21.833 132.167 -65.5 174.5s-99.5 63.5 -167.5 63.5
s-124 -21.167 -168 -63.5s-66 -100.166 -66 -173.499s22 -131.5 66 -174.5s100 -64.5 168 -64.5z" />
    <glyph glyph-name="plusminus" unicode="&#xb1;" horiz-adv-x="1076" 
d="M470 337v331h-321v130h321v331h136v-331h321v-130h-321v-331h-136zM149 0v130h778v-130h-778z" />
    <glyph glyph-name="uni00B2" unicode="&#xb2;" horiz-adv-x="788" 
d="M89 616l0.00195312 73l294 374c49.333 62 84.666 114.5 105.999 157.5s32 84.5 32 124.5c0 60 -18 103.667 -54 131s-90.667 41 -164 41c-41.333 0 -81 -3.5 -119 -10.5s-73.667 -16.833 -107 -29.5v114c32 12 69.167 21.333 111.5 28s85.833 10 130.5 10
c107.333 0 190.166 -21.667 248.499 -65s87.5 -112.333 87.5 -207c0 -53.333 -12.333 -105.833 -37 -157.5s-65.667 -113.5 -123 -185.5l-254 -320l-6 36h466v-114h-612z" />
    <glyph glyph-name="uni00B3" unicode="&#xb3;" horiz-adv-x="788" 
d="M325 603c-44 0 -87.667 3.16406 -131 9.49707s-84.333 15.833 -123 28.5v108c40.667 -13.333 82.667 -23.166 126 -29.499s84.333 -9.5 123 -9.5c86.667 0 151.167 15.833 193.5 47.5s63.5 77.834 63.5 138.501c0 56.667 -19.667 100.667 -59 132
s-101.666 47 -186.999 47h-135v108h83c87.333 0 153 15.5 197 46.5s66 75.167 66 132.5c0 52.667 -18.5 92.667 -55.5 120s-92.167 41 -165.5 41c-37.333 0 -75.5 -3.16699 -114.5 -9.5s-76.5 -16.166 -112.5 -29.499v108c32 12 69.5 21.167 112.5 27.5s85.5 9.5 127.5 9.5
c110 0 193.667 -22.333 251 -67s86 -108 86 -190c0 -64 -19.5 -117.167 -58.5 -159.5s-92.167 -70.5 -159.5 -84.5v14c81.333 -10 143.666 -37 186.999 -81s65 -101.667 65 -173c0 -90 -31.833 -160 -95.5 -210s-158.5 -75 -284.5 -75z" />
    <glyph glyph-name="acute" unicode="&#xb4;" horiz-adv-x="1052" 
d="M526 1253l215 363h173l-240 -363h-148z" />
    <glyph glyph-name="uni00B5" unicode="&#xb5;" horiz-adv-x="1127" 
d="M511 -18c-61.333 0 -114.333 12.333 -159 37s-79.334 65 -104.001 121s-37 131 -37 225v164h88v-157c0 -92.667 20.667 -157.167 62 -193.5s94.666 -54.5 159.999 -54.5c32.667 0 66.834 5 102.501 15s70.167 25.667 103.5 47s63 49 89 83v816h160v-1085h-135l-11 119
h-10c-42 -45.333 -89.667 -79.5 -143 -102.5s-108.666 -34.5 -165.999 -34.5zM139 -440v1525h160v-1525h-160z" />
    <glyph glyph-name="paragraph" unicode="&#xb6;" horiz-adv-x="1233" 
d="M682 0l-0.000976562 493c-22.667 -2.66699 -44.667 -4.66699 -66 -6s-44.666 -2 -69.999 -2c-156.667 0 -272 43.333 -346 130s-111 212 -111 376c0 174.667 37.5 302.5 112.5 383.5s186.5 121.5 334.5 121.5c48.667 0 96 -1.5 142 -4.5s89.333 -6.83301 130 -11.5v-1480
h-126zM937.999 0v1480h126v-1480h-126z" />
    <glyph glyph-name="periodcentered" unicode="&#xb7;" horiz-adv-x="461" 
d="M231 448c-34.667 0 -62.5 9.99805 -83.5 29.998s-31.5 47 -31.5 81s10.333 61 31 81s48.667 30 84 30c34.667 0 62.5 -10.167 83.5 -30.5s31.5 -47.166 31.5 -80.499s-10.667 -60.166 -32 -80.499s-49 -30.5 -83 -30.5z" />
    <glyph glyph-name="cedilla" unicode="&#xb8;" horiz-adv-x="1052" 
d="M604 -415c-30 0 -60.1689 3 -90.502 9s-56.833 14.333 -79.5 25v81c28.667 -13.333 57.334 -22.833 86.001 -28.5s55.334 -8.5 80.001 -8.5c37.333 0 65.333 6.66699 84 20s28 34.333 28 63c0 57.333 -38 86 -114 86h-37v188h92v-157l-41 35
c64 0 112.667 -13.667 146 -41s50 -66 50 -116c0 -48 -17.5 -86 -52.5 -114s-85.5 -42 -151.5 -42z" />
    <glyph glyph-name="uni00B9" unicode="&#xb9;" horiz-adv-x="788" 
d="M369 639v890l48 -36l-279 -196v127l279 196h86v-981h-134zM140 616v114h581v-114h-581z" />
    <glyph glyph-name="ordmasculine" unicode="&#xba;" horiz-adv-x="943" 
d="M471 595c-120 0 -216.001 36.668 -288.001 110.001s-108 187 -108 341c0 154.667 36 268.167 108 340.5s168.333 108.5 289 108.5s216.834 -36.333 288.501 -109s107.5 -186 107.5 -340c0 -102.667 -16.333 -187.334 -49 -254.001s-78.667 -116.167 -138 -148.5
s-129.333 -48.5 -210 -48.5zM470.999 715.001c50 0 93.333 10.333 130 31s65 55.167 85 103.5s30 113.833 30 196.5c0 83.333 -10 148.833 -30 196.5s-48.333 81.667 -85 102s-80 30.5 -130 30.5c-49.333 0 -92.333 -10.167 -129 -30.5s-65.167 -54.333 -85.5 -102
s-30.5 -113.167 -30.5 -196.5c0 -82.667 10.167 -148.167 30.5 -196.5s48.833 -82.833 85.5 -103.5s79.667 -31 129 -31z" />
    <glyph glyph-name="guillemotright" unicode="&#xbb;" horiz-adv-x="1007" 
d="M72 137l254 426l-254 425h166l254 -425l-254 -426h-166zM475 137l254 426l-254 425h166l254 -425l-254 -426h-166z" />
    <glyph glyph-name="onequarter" unicode="&#xbc;" horiz-adv-x="1852" 
d="M369 639v890l48 -36l-279 -196v127l279 196h86v-981h-134zM140 616v114h581v-114h-581zM460 -136l794 1752h138l-793 -1752h-139zM1094 96v75l360 693h130l-360 -694l-17 34h619v-108h-732zM1568 -136v340l24 322h97v-662h-121z" />
    <glyph glyph-name="onehalf" unicode="&#xbd;" horiz-adv-x="1852" 
d="M369 639v890l48 -36l-279 -196v127l279 196h86v-981h-134zM140 616v114h581v-114h-581zM460 -136l794 1752h138l-793 -1752h-139zM1153 -136l0.000976562 73l294 374c49.333 62 84.666 114.5 105.999 157.5s32 84.5 32 124.5c0 60 -18 103.667 -54 131
s-90.667 41 -164 41c-41.333 0 -81 -3.5 -119 -10.5s-73.667 -16.833 -107 -29.5v114c32 12 69.167 21.333 111.5 28s85.833 10 130.5 10c107.333 0 190.166 -21.667 248.499 -65s87.5 -112.333 87.5 -207c-0.666992 -53.333 -13.167 -105.833 -37.5 -157.5
s-65.166 -113.5 -122.499 -185.5l-254 -320l-6 36h466v-114h-612z" />
    <glyph glyph-name="threequarters" unicode="&#xbe;" horiz-adv-x="1852" 
d="M325 603c-44 0 -87.667 3.16406 -131 9.49707s-84.333 15.833 -123 28.5v108c40.667 -13.333 82.667 -23.166 126 -29.499s84.333 -9.5 123 -9.5c86.667 0 151.167 15.833 193.5 47.5s63.5 77.834 63.5 138.501c0 56.667 -19.667 100.667 -59 132
s-101.666 47 -186.999 47h-135v108h83c87.333 0 153 15.5 197 46.5s66 75.167 66 132.5c0 52.667 -18.5 92.667 -55.5 120s-92.167 41 -165.5 41c-37.333 0 -75.5 -3.16699 -114.5 -9.5s-76.5 -16.166 -112.5 -29.499v108c32 12 69.5 21.167 112.5 27.5s85.5 9.5 127.5 9.5
c110 0 193.667 -22.333 251 -67s86 -108 86 -190c0 -64 -19.5 -117.167 -58.5 -159.5s-92.167 -70.5 -159.5 -84.5v14c81.333 -10 143.666 -37 186.999 -81s65 -101.667 65 -173c0 -90 -31.833 -160 -95.5 -210s-158.5 -75 -284.5 -75zM460 -136.003l794 1752h138
l-793 -1752h-139zM1094 95.9971v75l360 693h130l-360 -694l-17 34h619v-108h-732zM1568 -136.003v340l24 322h97v-662h-121z" />
    <glyph glyph-name="questiondown" unicode="&#xbf;" horiz-adv-x="904" 
d="M549 725l28.002 -407c-91.333 -28 -163.166 -58.167 -215.499 -90.5s-89.5 -68.833 -111.5 -109.5s-33 -87 -33 -139c0 -78.667 27.167 -139.334 81.5 -182.001s135.166 -64 242.499 -64c55.333 0 110.166 4.66699 164.499 14s107.166 23.333 158.499 42v-135
c-30.667 -11.333 -64.667 -21 -102 -29s-76 -14.167 -116 -18.5s-79.667 -6.5 -119 -6.5c-152 0 -268 32.667 -348 98s-120 155.666 -120 270.999c0 68.667 12.5 129.334 37.5 182.001s64.833 99.334 119.5 140.001s126.667 78 216 112l15 322h102zM498.002 1098
c34 0 61.667 -9.83203 83 -29.499s32 -45.5 32 -77.5c0 -32.667 -10.5 -58.834 -31.5 -78.501s-48.833 -29.5 -83.5 -29.5s-62.5 10 -83.5 30s-31.5 46 -31.5 78c0 31.333 10.5 57 31.5 77s48.833 30 83.5 30z" />
    <glyph glyph-name="Agrave" unicode="&#xc0;" horiz-adv-x="1349" 
d="M29 0l531 1480h229l531 -1480h-165l-496 1403h28l-496 -1403h-162zM307 479l38 137h658l38 -137h-734zM602 1608l-204 284h173l177 -284h-146z" />
    <glyph glyph-name="Aacute" unicode="&#xc1;" horiz-adv-x="1349" 
d="M29 0l531 1480h229l531 -1480h-165l-496 1403h28l-496 -1403h-162zM307 479l38 137h658l38 -137h-734zM602 1608l177 284h173l-205 -284h-145z" />
    <glyph glyph-name="Acircumflex" unicode="&#xc2;" horiz-adv-x="1349" 
d="M29 0l531 1480h229l531 -1480h-165l-496 1403h28l-496 -1403h-162zM307 479l38 137h658l38 -137h-734zM356 1608l245 284h148l245 -284h-140l-196 233h34l-196 -233h-140z" />
    <glyph glyph-name="Atilde" unicode="&#xc3;" horiz-adv-x="1349" 
d="M29 0l531 1480h229l531 -1480h-165l-496 1403h28l-496 -1403h-162zM307 479l38 137h658l38 -137h-734zM829 1668c-31.333 0 -60.833 4.33203 -88.5 12.999s-54.5 18 -80.5 28c-24 9.33301 -47.5 17.5 -70.5 24.5s-46.5 10.5 -70.5 10.5c-36 0 -67.333 -5.66699 -94 -17
s-52.667 -29 -78 -53v109c21.333 22 46 38.5 74 49.5s61.333 16.5 100 16.5c31.333 0 61 -4.33301 89 -13s54.667 -18 80 -28c24 -9.33301 47.5 -17.666 70.5 -24.999s46.5 -11 70.5 -11c36 0 67.5 5.83301 94.5 17.5s52.833 29.5 77.5 53.5v-110
c-20.667 -21.333 -45.167 -37.5 -73.5 -48.5s-61.833 -16.5 -100.5 -16.5z" />
    <glyph glyph-name="Adieresis" unicode="&#xc4;" horiz-adv-x="1349" 
d="M29 0l531 1480h229l531 -1480h-165l-496 1403h28l-496 -1403h-162zM307 479l38 137h658l38 -137h-734zM909 1659c-32.667 0 -58 8.33301 -76 25s-27 39 -27 67c0 29.333 9 52.333 27 69s43.333 25 76 25c32 0 57 -8.33301 75 -25s27 -39.667 27 -69
c0 -28 -9 -50.333 -27 -67s-43 -25 -75 -25zM441 1659c-32 0 -57 8.33301 -75 25s-27 39 -27 67c0 29.333 9 52.333 27 69s43 25 75 25c32.667 0 58 -8.33301 76 -25s27 -39.667 27 -69c0 -28 -9 -50.333 -27 -67s-43.333 -25 -76 -25z" />
    <glyph glyph-name="Aring" unicode="&#xc5;" horiz-adv-x="1349" 
d="M29 0l531 1480h229l531 -1480h-165l-496 1403h28l-496 -1403h-162zM307 479l38 137h658l38 -137h-734zM675 1600c-56 0 -102.5 18.333 -139.5 55s-55.5 83 -55.5 139s18.5 102.167 55.5 138.5s83.5 54.5 139.5 54.5c56.667 0 103.334 -18.167 140.001 -54.5
s55 -82.5 55 -138.5s-18.333 -102.333 -55 -139s-83.334 -55 -140.001 -55zM675 1675c34 0 62 10.667 84 32s33 50.333 33 87c0 37.333 -11 66.5 -33 87.5s-50 31.5 -84 31.5s-62 -10.5 -84 -31.5s-33 -50.167 -33 -87.5c0 -36.667 11 -65.667 33 -87s50 -32 84 -32z" />
    <glyph glyph-name="AE" unicode="&#xc6;" horiz-adv-x="1847" 
d="M29 0l540 1480h348l-1 -137h-239l-485 -1343h-163zM311 479l39 137h609v-137h-648zM940 0l-100 1480h926v-137h-759l84 -1206h685v-137h-836zM983 691v137h685v-137h-685z" />
    <glyph glyph-name="Ccedilla" unicode="&#xc7;" horiz-adv-x="1151" 
d="M775 -19c-102 0 -194.165 13.499 -276.498 40.499s-152.833 70.167 -211.5 129.5s-103.667 137.333 -135 234s-47 214 -47 352c0 178.667 27.333 324 82 436s133.167 194.333 235.5 247s225.166 79 368.499 79c57.333 0 112.166 -3.66699 164.499 -11
s104.166 -18 155.499 -32v-142c-52 16 -103.833 27.333 -155.5 34s-104.5 10 -158.5 10c-112 0 -206.833 -19.833 -284.5 -59.5s-136.5 -104.667 -176.5 -195s-60 -211.166 -60 -362.499c0 -156 20.333 -279.167 61 -369.5s99.167 -154.5 175.5 -192.5
s167.833 -57 274.5 -57c54.667 0 107.667 4.33301 159 13s106.333 22.667 165 42v-141c-49.333 -17.333 -102.166 -30.833 -158.499 -40.5s-115.5 -14.5 -177.5 -14.5zM714.002 -415.001c-33.333 0 -66.666 3 -99.999 9s-64.333 15 -93 27v81
c35.333 -14.667 68.166 -24.834 98.499 -30.501s59.833 -8.5 88.5 -8.5c41.333 0 73.333 6.5 96 19.5s34 34.5 34 64.5c0 29.333 -11.5 50.833 -34.5 64.5s-55.5 20.5 -97.5 20.5h-41v188h91v-157l-33 36c65.333 0 117 -13.167 155 -39.5s57 -65.166 57 -116.499
s-19.333 -90.5 -58 -117.5s-93 -40.5 -163 -40.5z" />
    <glyph glyph-name="Egrave" unicode="&#xc8;" horiz-adv-x="1166" 
d="M169 0v1480h916v-137h-755v-1206h765v-137h-926zM271 691v137h716v-137h-716zM576 1608l-204 284h173l177 -284h-146z" />
    <glyph glyph-name="Eacute" unicode="&#xc9;" horiz-adv-x="1166" 
d="M169 0v1480h916v-137h-755v-1206h765v-137h-926zM271 691v137h716v-137h-716zM576 1608l177 284h173l-205 -284h-145z" />
    <glyph glyph-name="Ecircumflex" unicode="&#xca;" horiz-adv-x="1166" 
d="M169 0v1480h916v-137h-755v-1206h765v-137h-926zM271 691v137h716v-137h-716zM330 1608l245 284h148l245 -284h-140l-196 233h34l-196 -233h-140z" />
    <glyph glyph-name="Edieresis" unicode="&#xcb;" horiz-adv-x="1166" 
d="M169 0v1480h916v-137h-755v-1206h765v-137h-926zM271 691v137h716v-137h-716zM883 1659c-32.667 0 -58 8.33301 -76 25s-27 39 -27 67c0 29.333 9 52.333 27 69s43.333 25 76 25c32 0 57 -8.33301 75 -25s27 -39.667 27 -69c0 -28 -9 -50.333 -27 -67s-43 -25 -75 -25z
M415 1659c-32 0 -57 8.33301 -75 25s-27 39 -27 67c0 29.333 9 52.333 27 69s43 25 75 25c32.667 0 58 -8.33301 76 -25s27 -39.667 27 -69c0 -28 -9 -50.333 -27 -67s-43.333 -25 -76 -25z" />
    <glyph glyph-name="Igrave" unicode="&#xcc;" horiz-adv-x="501" 
d="M169 0v1480h162v-1480h-162zM177 1608l-204 284h173l177 -284h-146z" />
    <glyph glyph-name="Iacute" unicode="&#xcd;" horiz-adv-x="501" 
d="M169 0v1480h162v-1480h-162zM177 1608l177 284h173l-205 -284h-145z" />
    <glyph glyph-name="Icircumflex" unicode="&#xce;" horiz-adv-x="501" 
d="M169 0v1480h162v-1480h-162zM-69 1608l245 284h148l245 -284h-140l-196 233h34l-196 -233h-140z" />
    <glyph glyph-name="Idieresis" unicode="&#xcf;" horiz-adv-x="501" 
d="M169 0v1480h162v-1480h-162zM484 1659c-32.667 0 -58 8.33301 -76 25s-27 39 -27 67c0 29.333 9 52.333 27 69s43.333 25 76 25c32 0 57 -8.33301 75 -25s27 -39.667 27 -69c0 -28 -9 -50.333 -27 -67s-43 -25 -75 -25zM16 1659c-32 0 -57 8.33301 -75 25s-27 39 -27 67
c0 29.333 9 52.333 27 69s43 25 75 25c32.667 0 58 -8.33301 76 -25s27 -39.667 27 -69c0 -28 -9 -50.333 -27 -67s-43.333 -25 -76 -25z" />
    <glyph glyph-name="Eth" unicode="&#xd0;" horiz-adv-x="1400" 
d="M3 705v114h659v-114h-659zM519 -12c-37.333 0 -74.333 0.833008 -111 2.5s-74.667 4 -114 7s-81 6.83301 -125 11.5v1447c40 8 81.833 15 125.5 21s87.667 10.5 132 13.5s87.5 4.5 129.5 4.5c244 0 428.167 -61.667 552.5 -185s186.5 -313.333 186.5 -570
c0 -174 -29 -316.333 -87 -427s-144.5 -192.5 -259.5 -245.5s-258.167 -79.5 -429.5 -79.5zM551 127c128.667 0 235.67 20.834 321.003 62.501s149.166 107.667 191.499 198s63.5 208.166 63.5 353.499c0 143.333 -20.833 260.333 -62.5 351s-104.334 157.5 -188.001 200.5
s-188.834 64.5 -315.501 64.5c-36 0 -73.333 -1.66699 -112 -5s-78 -8.33301 -118 -15v-1198c34.667 -4 69.5 -7 104.5 -9s73.5 -3 115.5 -3z" />
    <glyph glyph-name="Ntilde" unicode="&#xd1;" horiz-adv-x="1469" 
d="M169 0v1480h167l851 -1294h-40v1294h153v-1480h-167l-850 1294h40v-1294h-154zM889 1668c-31.333 0 -60.833 4.33203 -88.5 12.999s-54.5 18 -80.5 28c-24 9.33301 -47.5 17.5 -70.5 24.5s-46.5 10.5 -70.5 10.5c-36 0 -67.333 -5.66699 -94 -17s-52.667 -29 -78 -53v109
c21.333 22 46 38.5 74 49.5s61.333 16.5 100 16.5c31.333 0 61 -4.33301 89 -13s54.667 -18 80 -28c24 -9.33301 47.5 -17.666 70.5 -24.999s46.5 -11 70.5 -11c36 0 67.5 5.83301 94.5 17.5s52.833 29.5 77.5 53.5v-110c-20.667 -21.333 -45.167 -37.5 -73.5 -48.5
s-61.833 -16.5 -100.5 -16.5z" />
    <glyph glyph-name="Ograve" unicode="&#xd2;" horiz-adv-x="1439" 
d="M720 -19c-123.333 0 -231 26.167 -323 78.5s-163.667 134.333 -215 246s-77 256.5 -77 434.5s25.667 322.833 77 434.5s123.166 193.667 215.499 246s199.833 78.5 322.5 78.5s230 -26.167 322 -78.5s163.667 -134.333 215 -246s77 -256.5 77 -434.5
s-25.667 -322.833 -77 -434.5s-123.166 -193.667 -215.499 -246s-199.5 -78.5 -321.5 -78.5zM720 120c89.333 0 167.5 19.833 234.5 59.5s119 104.5 156 194.5s55.5 210.333 55.5 361c0 154 -18.5 276.667 -55.5 368s-89 157 -156 197s-145.167 60 -234.5 60
c-90 0 -168.5 -19.667 -235.5 -59s-119 -104 -156 -194s-55.5 -210.667 -55.5 -362c0 -154.667 18.5 -277.5 55.5 -368.5s89 -156.5 156 -196.5s145.5 -60 235.5 -60zM647 1608l-204 284h173l177 -284h-146z" />
    <glyph glyph-name="Oacute" unicode="&#xd3;" horiz-adv-x="1439" 
d="M720 -19c-123.333 0 -231 26.167 -323 78.5s-163.667 134.333 -215 246s-77 256.5 -77 434.5s25.667 322.833 77 434.5s123.166 193.667 215.499 246s199.833 78.5 322.5 78.5s230 -26.167 322 -78.5s163.667 -134.333 215 -246s77 -256.5 77 -434.5
s-25.667 -322.833 -77 -434.5s-123.166 -193.667 -215.499 -246s-199.5 -78.5 -321.5 -78.5zM720 120c89.333 0 167.5 19.833 234.5 59.5s119 104.5 156 194.5s55.5 210.333 55.5 361c0 154 -18.5 276.667 -55.5 368s-89 157 -156 197s-145.167 60 -234.5 60
c-90 0 -168.5 -19.667 -235.5 -59s-119 -104 -156 -194s-55.5 -210.667 -55.5 -362c0 -154.667 18.5 -277.5 55.5 -368.5s89 -156.5 156 -196.5s145.5 -60 235.5 -60zM647 1608l177 284h173l-205 -284h-145z" />
    <glyph glyph-name="Ocircumflex" unicode="&#xd4;" horiz-adv-x="1439" 
d="M720 -19c-123.333 0 -231 26.167 -323 78.5s-163.667 134.333 -215 246s-77 256.5 -77 434.5s25.667 322.833 77 434.5s123.166 193.667 215.499 246s199.833 78.5 322.5 78.5s230 -26.167 322 -78.5s163.667 -134.333 215 -246s77 -256.5 77 -434.5
s-25.667 -322.833 -77 -434.5s-123.166 -193.667 -215.499 -246s-199.5 -78.5 -321.5 -78.5zM720 120c89.333 0 167.5 19.833 234.5 59.5s119 104.5 156 194.5s55.5 210.333 55.5 361c0 154 -18.5 276.667 -55.5 368s-89 157 -156 197s-145.167 60 -234.5 60
c-90 0 -168.5 -19.667 -235.5 -59s-119 -104 -156 -194s-55.5 -210.667 -55.5 -362c0 -154.667 18.5 -277.5 55.5 -368.5s89 -156.5 156 -196.5s145.5 -60 235.5 -60zM401 1608l245 284h148l245 -284h-140l-196 233h34l-196 -233h-140z" />
    <glyph glyph-name="Otilde" unicode="&#xd5;" horiz-adv-x="1439" 
d="M720 -19c-123.333 0 -231 26.167 -323 78.5s-163.667 134.333 -215 246s-77 256.5 -77 434.5s25.667 322.833 77 434.5s123.166 193.667 215.499 246s199.833 78.5 322.5 78.5s230 -26.167 322 -78.5s163.667 -134.333 215 -246s77 -256.5 77 -434.5
s-25.667 -322.833 -77 -434.5s-123.166 -193.667 -215.499 -246s-199.5 -78.5 -321.5 -78.5zM720 120c89.333 0 167.5 19.833 234.5 59.5s119 104.5 156 194.5s55.5 210.333 55.5 361c0 154 -18.5 276.667 -55.5 368s-89 157 -156 197s-145.167 60 -234.5 60
c-90 0 -168.5 -19.667 -235.5 -59s-119 -104 -156 -194s-55.5 -210.667 -55.5 -362c0 -154.667 18.5 -277.5 55.5 -368.5s89 -156.5 156 -196.5s145.5 -60 235.5 -60zM874 1668c-31.333 0 -60.833 4.33203 -88.5 12.999s-54.5 18 -80.5 28
c-24 9.33301 -47.5 17.5 -70.5 24.5s-46.5 10.5 -70.5 10.5c-36 0 -67.333 -5.66699 -94 -17s-52.667 -29 -78 -53v109c21.333 22 46 38.5 74 49.5s61.333 16.5 100 16.5c31.333 0 61 -4.33301 89 -13s54.667 -18 80 -28c24 -9.33301 47.5 -17.666 70.5 -24.999
s46.5 -11 70.5 -11c36 0 67.5 5.83301 94.5 17.5s52.833 29.5 77.5 53.5v-110c-20.667 -21.333 -45.167 -37.5 -73.5 -48.5s-61.833 -16.5 -100.5 -16.5z" />
    <glyph glyph-name="Odieresis" unicode="&#xd6;" horiz-adv-x="1439" 
d="M720 -19c-123.333 0 -231 26.167 -323 78.5s-163.667 134.333 -215 246s-77 256.5 -77 434.5s25.667 322.833 77 434.5s123.166 193.667 215.499 246s199.833 78.5 322.5 78.5s230 -26.167 322 -78.5s163.667 -134.333 215 -246s77 -256.5 77 -434.5
s-25.667 -322.833 -77 -434.5s-123.166 -193.667 -215.499 -246s-199.5 -78.5 -321.5 -78.5zM720 120c89.333 0 167.5 19.833 234.5 59.5s119 104.5 156 194.5s55.5 210.333 55.5 361c0 154 -18.5 276.667 -55.5 368s-89 157 -156 197s-145.167 60 -234.5 60
c-90 0 -168.5 -19.667 -235.5 -59s-119 -104 -156 -194s-55.5 -210.667 -55.5 -362c0 -154.667 18.5 -277.5 55.5 -368.5s89 -156.5 156 -196.5s145.5 -60 235.5 -60zM954 1659c-32.667 0 -58 8.33301 -76 25s-27 39 -27 67c0 29.333 9 52.333 27 69s43.333 25 76 25
c32 0 57 -8.33301 75 -25s27 -39.667 27 -69c0 -28 -9 -50.333 -27 -67s-43 -25 -75 -25zM486 1659c-32 0 -57 8.33301 -75 25s-27 39 -27 67c0 29.333 9 52.333 27 69s43 25 75 25c32.667 0 58 -8.33301 76 -25s27 -39.667 27 -69c0 -28 -9 -50.333 -27 -67
s-43.333 -25 -76 -25z" />
    <glyph glyph-name="multiply" unicode="&#xd7;" horiz-adv-x="1000" 
d="M209 378l-91 91l291 291l-291 291l91 91l291 -291l291 291l91 -91l-291 -291l291 -291l-91 -91l-291 291z" />
    <glyph glyph-name="Oslash" unicode="&#xd8;" horiz-adv-x="1439" 
d="M233 -1h-129l1098 1481h130zM720 -19c-123.333 0 -231 26.167 -323 78.5s-163.667 134.333 -215 246s-77 256.5 -77 434.5s25.667 322.833 77 434.5s123.166 193.667 215.499 246s199.833 78.5 322.5 78.5s230 -26.167 322 -78.5s163.667 -134.333 215 -246
s77 -256.5 77 -434.5s-25.667 -322.833 -77 -434.5s-123.166 -193.667 -215.499 -246s-199.5 -78.5 -321.5 -78.5zM720 120c89.333 0 167.5 19.833 234.5 59.5s119 104.5 156 194.5s55.5 210.333 55.5 361c0 154 -18.5 276.667 -55.5 368s-89 157 -156 197
s-145.167 60 -234.5 60c-90 0 -168.5 -19.667 -235.5 -59s-119 -104 -156 -194s-55.5 -210.667 -55.5 -362c0 -154.667 18.5 -277.5 55.5 -368.5s89 -156.5 156 -196.5s145.5 -60 235.5 -60z" />
    <glyph glyph-name="Ugrave" unicode="&#xd9;" horiz-adv-x="1417" 
d="M710 -19c-126 0 -229.334 20.667 -310.001 62s-140.5 104.833 -179.5 190.5s-58.5 194.5 -58.5 326.5v920h162v-938c0 -146 31.167 -252.667 93.5 -320s159.833 -101 292.5 -101c134 0 232 33.667 294 101s93 174 93 320v938h158v-920
c0 -132 -19.167 -240.833 -57.5 -326.5s-97.666 -149.167 -177.999 -190.5s-183.5 -62 -309.5 -62zM636.999 1608l-204 284h173l177 -284h-146z" />
    <glyph glyph-name="Uacute" unicode="&#xda;" horiz-adv-x="1417" 
d="M710 -19c-126 0 -229.334 20.667 -310.001 62s-140.5 104.833 -179.5 190.5s-58.5 194.5 -58.5 326.5v920h162v-938c0 -146 31.167 -252.667 93.5 -320s159.833 -101 292.5 -101c134 0 232 33.667 294 101s93 174 93 320v938h158v-920
c0 -132 -19.167 -240.833 -57.5 -326.5s-97.666 -149.167 -177.999 -190.5s-183.5 -62 -309.5 -62zM636.999 1608l177 284h173l-205 -284h-145z" />
    <glyph glyph-name="Ucircumflex" unicode="&#xdb;" horiz-adv-x="1417" 
d="M710 -19c-126 0 -229.334 20.667 -310.001 62s-140.5 104.833 -179.5 190.5s-58.5 194.5 -58.5 326.5v920h162v-938c0 -146 31.167 -252.667 93.5 -320s159.833 -101 292.5 -101c134 0 232 33.667 294 101s93 174 93 320v938h158v-920
c0 -132 -19.167 -240.833 -57.5 -326.5s-97.666 -149.167 -177.999 -190.5s-183.5 -62 -309.5 -62zM390.999 1608l245 284h148l245 -284h-140l-196 233h34l-196 -233h-140z" />
    <glyph glyph-name="Udieresis" unicode="&#xdc;" horiz-adv-x="1417" 
d="M710 -19c-126 0 -229.334 20.667 -310.001 62s-140.5 104.833 -179.5 190.5s-58.5 194.5 -58.5 326.5v920h162v-938c0 -146 31.167 -252.667 93.5 -320s159.833 -101 292.5 -101c134 0 232 33.667 294 101s93 174 93 320v938h158v-920
c0 -132 -19.167 -240.833 -57.5 -326.5s-97.666 -149.167 -177.999 -190.5s-183.5 -62 -309.5 -62zM943.999 1659c-32.667 0 -58 8.33301 -76 25s-27 39 -27 67c0 29.333 9 52.333 27 69s43.333 25 76 25c32 0 57 -8.33301 75 -25s27 -39.667 27 -69
c0 -28 -9 -50.333 -27 -67s-43 -25 -75 -25zM475.999 1659c-32 0 -57 8.33301 -75 25s-27 39 -27 67c0 29.333 9 52.333 27 69s43 25 75 25c32.667 0 58 -8.33301 76 -25s27 -39.667 27 -69c0 -28 -9 -50.333 -27 -67s-43.333 -25 -76 -25z" />
    <glyph glyph-name="Yacute" unicode="&#xdd;" horiz-adv-x="1176" 
d="M507 0v726l36 -123l-574 877h179l471 -721h-55l465 721h168l-563 -877l36 121v-724h-163zM515 1608l177 284h173l-205 -284h-145z" />
    <glyph glyph-name="Thorn" unicode="&#xde;" horiz-adv-x="1243" 
d="M169 0l0.00195312 1481h162v-233c29.333 4.66699 62.5 8.66699 99.5 12s77.833 5 122.5 5c193.333 0 340 -40.5 440 -121.5s150 -208.5 150 -382.5c0 -164.667 -49.833 -290.167 -149.5 -376.5s-255.167 -129.5 -466.5 -129.5c-34.667 0 -67.334 0.833008 -98.001 2.5
s-63.334 3.83398 -98.001 6.50098v-264h-162zM529.002 385.999c159.333 0 274.666 30.5 345.999 91.5s107 154.5 107 280.5c0 131.333 -34.833 226.833 -104.5 286.5s-175.5 89.5 -317.5 89.5c-43.333 0 -83.5 -1.5 -120.5 -4.5s-73.167 -7.5 -108.5 -13.5v-718
c32.667 -4 64.834 -7 96.501 -9s65.5 -3 101.5 -3z" />
    <glyph glyph-name="germandbls" unicode="&#xdf;" horiz-adv-x="1391" 
d="M894 -19c-51.333 0 -101.669 3.33398 -151.002 10.001s-97.333 16.667 -144 30v129c34.667 -10 68.5 -18 101.5 -24s65.5 -10.5 97.5 -13.5s63.667 -4.5 95 -4.5c97.333 0 167.5 16 210.5 48s64.5 77 64.5 135c0 49.333 -12.667 87.166 -38 113.499
s-68.333 45.833 -129 58.5l-147 30c-99.333 21.333 -170.166 56.5 -212.499 105.5s-63.5 111.5 -63.5 187.5c0 92 35 166.833 105 224.5s176 86.5 318 86.5c13.333 0 28 -0.333008 44 -1s32 -1.66699 48 -3s31.333 -3 46 -5l-89 -65c6 24.667 10.833 50.5 14.5 77.5
s5.5 53.5 5.5 79.5c0 82 -14.333 147.333 -43 196s-67.834 83.667 -117.501 105s-105.834 32 -168.501 32c-76.667 0 -141.667 -13.5 -195 -40.5s-93.833 -70.333 -121.5 -130s-41.5 -137.834 -41.5 -234.501v-1108h-160v1111c0 116.667 20.333 213.834 61 291.501
s98.834 136 174.501 175s166.834 58.5 273.501 58.5c88.667 0 167.834 -15.833 237.501 -47.5s124.5 -81.667 164.5 -150s60 -156.833 60 -265.5c0 -36 -2.66699 -73.167 -8 -111.5s-11.666 -71.5 -18.999 -99.5c-20 4 -41.667 7.16699 -65 9.5s-51.333 3.5 -84 3.5
c-71.333 0 -127.833 -8.16699 -169.5 -24.5s-71.5 -38.333 -89.5 -66s-27 -58.5 -27 -92.5c0 -42.667 12.167 -78 36.5 -106s66.166 -48.667 125.499 -62l147 -30c100.667 -21.333 172.667 -55.5 216 -102.5s65 -111.167 65 -192.5c0 -98 -36.167 -175.5 -108.5 -232.5
s-178.833 -85.5 -319.5 -85.5zM18.9971 950.001v135h280v-135h-280z" />
    <glyph glyph-name="agrave" unicode="&#xe0;" horiz-adv-x="1030" 
d="M420 -18c-102 0 -182.167 26.333 -240.5 79s-87.5 125 -87.5 217c0 94.667 31.167 168.5 93.5 221.5s162.5 86.167 300.5 99.5l291 31l15 -106l-296 -32c-86 -8.66699 -147.833 -29.5 -185.5 -62.5s-56.5 -78.5 -56.5 -136.5c0 -60.667 17.333 -107 52 -139
s86.334 -48 155.001 -48c47.333 0 95 10.167 143 30.5s91 54.5 129 102.5v479c0 66.667 -10.333 118.167 -31 154.5s-51.667 61.833 -93 76.5s-93.333 22 -156 22c-40.667 0 -86.834 -3.66699 -138.501 -11s-103.167 -19.666 -154.5 -36.999v131
c46.667 15.333 98.167 27.166 154.5 35.499s109.5 12.5 159.5 12.5c92 0 168.833 -12 230.5 -36s108 -64.5 139 -121.5s46.5 -134.833 46.5 -233.5v-711h-134l-12 121h-10c-35.333 -44.667 -80.5 -79 -135.5 -103s-114.5 -36 -178.5 -36zM437 1253l-240 363h173l215 -363
h-148z" />
    <glyph glyph-name="aacute" unicode="&#xe1;" horiz-adv-x="1030" 
d="M420 -18c-102 0 -182.167 26.333 -240.5 79s-87.5 125 -87.5 217c0 94.667 31.167 168.5 93.5 221.5s162.5 86.167 300.5 99.5l291 31l15 -106l-296 -32c-86 -8.66699 -147.833 -29.5 -185.5 -62.5s-56.5 -78.5 -56.5 -136.5c0 -60.667 17.333 -107 52 -139
s86.334 -48 155.001 -48c47.333 0 95 10.167 143 30.5s91 54.5 129 102.5v479c0 66.667 -10.333 118.167 -31 154.5s-51.667 61.833 -93 76.5s-93.333 22 -156 22c-40.667 0 -86.834 -3.66699 -138.501 -11s-103.167 -19.666 -154.5 -36.999v131
c46.667 15.333 98.167 27.166 154.5 35.499s109.5 12.5 159.5 12.5c92 0 168.833 -12 230.5 -36s108 -64.5 139 -121.5s46.5 -134.833 46.5 -233.5v-711h-134l-12 121h-10c-35.333 -44.667 -80.5 -79 -135.5 -103s-114.5 -36 -178.5 -36zM437 1253l215 363h173l-240 -363
h-148z" />
    <glyph glyph-name="acircumflex" unicode="&#xe2;" horiz-adv-x="1030" 
d="M420 -18c-102 0 -182.167 26.333 -240.5 79s-87.5 125 -87.5 217c0 94.667 31.167 168.5 93.5 221.5s162.5 86.167 300.5 99.5l291 31l15 -106l-296 -32c-86 -8.66699 -147.833 -29.5 -185.5 -62.5s-56.5 -78.5 -56.5 -136.5c0 -60.667 17.333 -107 52 -139
s86.334 -48 155.001 -48c47.333 0 95 10.167 143 30.5s91 54.5 129 102.5v479c0 66.667 -10.333 118.167 -31 154.5s-51.667 61.833 -93 76.5s-93.333 22 -156 22c-40.667 0 -86.834 -3.66699 -138.501 -11s-103.167 -19.666 -154.5 -36.999v131
c46.667 15.333 98.167 27.166 154.5 35.499s109.5 12.5 159.5 12.5c92 0 168.833 -12 230.5 -36s108 -64.5 139 -121.5s46.5 -134.833 46.5 -233.5v-711h-134l-12 121h-10c-35.333 -44.667 -80.5 -79 -135.5 -103s-114.5 -36 -178.5 -36zM216 1253l223 363h144l223 -363
h-128l-184 308h34l-184 -308h-128z" />
    <glyph glyph-name="atilde" unicode="&#xe3;" horiz-adv-x="1030" 
d="M420 -18c-102 0 -182.167 26.333 -240.5 79s-87.5 125 -87.5 217c0 94.667 31.167 168.5 93.5 221.5s162.5 86.167 300.5 99.5l291 31l15 -106l-296 -32c-86 -8.66699 -147.833 -29.5 -185.5 -62.5s-56.5 -78.5 -56.5 -136.5c0 -60.667 17.333 -107 52 -139
s86.334 -48 155.001 -48c47.333 0 95 10.167 143 30.5s91 54.5 129 102.5v479c0 66.667 -10.333 118.167 -31 154.5s-51.667 61.833 -93 76.5s-93.333 22 -156 22c-40.667 0 -86.834 -3.66699 -138.501 -11s-103.167 -19.666 -154.5 -36.999v131
c46.667 15.333 98.167 27.166 154.5 35.499s109.5 12.5 159.5 12.5c92 0 168.833 -12 230.5 -36s108 -64.5 139 -121.5s46.5 -134.833 46.5 -233.5v-711h-134l-12 121h-10c-35.333 -44.667 -80.5 -79 -135.5 -103s-114.5 -36 -178.5 -36zM654 1345
c-29.333 0 -57 4.83301 -83 14.5s-51 19.5 -75 29.5c-22.667 10 -44.5 18.833 -65.5 26.5s-42.5 11.5 -64.5 11.5c-32 0 -61.167 -6.16699 -87.5 -18.5s-52.166 -31.5 -77.499 -57.5v116c42 44.667 97.667 67 167 67c29.333 0 57 -4.83301 83 -14.5s51 -19.5 75 -29.5
c22.667 -10 44.667 -18.833 66 -26.5s42.666 -11.5 63.999 -11.5c32.667 0 62.167 6.16699 88.5 18.5s51.833 31.5 76.5 57.5v-116c-42 -44.667 -97.667 -67 -167 -67z" />
    <glyph glyph-name="adieresis" unicode="&#xe4;" horiz-adv-x="1030" 
d="M420 -18c-102 0 -182.167 26.333 -240.5 79s-87.5 125 -87.5 217c0 94.667 31.167 168.5 93.5 221.5s162.5 86.167 300.5 99.5l291 31l15 -106l-296 -32c-86 -8.66699 -147.833 -29.5 -185.5 -62.5s-56.5 -78.5 -56.5 -136.5c0 -60.667 17.333 -107 52 -139
s86.334 -48 155.001 -48c47.333 0 95 10.167 143 30.5s91 54.5 129 102.5v479c0 66.667 -10.333 118.167 -31 154.5s-51.667 61.833 -93 76.5s-93.333 22 -156 22c-40.667 0 -86.834 -3.66699 -138.501 -11s-103.167 -19.666 -154.5 -36.999v131
c46.667 15.333 98.167 27.166 154.5 35.499s109.5 12.5 159.5 12.5c92 0 168.833 -12 230.5 -36s108 -64.5 139 -121.5s46.5 -134.833 46.5 -233.5v-711h-134l-12 121h-10c-35.333 -44.667 -80.5 -79 -135.5 -103s-114.5 -36 -178.5 -36zM728 1323
c-32 0 -57.167 8.83301 -75.5 26.5s-27.5 41.5 -27.5 71.5c0 30.667 9.16699 55 27.5 73s43.5 27 75.5 27c31.333 0 56.166 -9 74.499 -27s27.5 -42.333 27.5 -73c0 -30 -9.16699 -53.833 -27.5 -71.5s-43.166 -26.5 -74.499 -26.5zM295 1323
c-32 0 -57.167 8.83301 -75.5 26.5s-27.5 41.5 -27.5 71.5c0 30.667 9.16699 55 27.5 73s43.5 27 75.5 27c31.333 0 56.166 -9 74.499 -27s27.5 -42.333 27.5 -73c0 -30 -9.16699 -53.833 -27.5 -71.5s-43.166 -26.5 -74.499 -26.5z" />
    <glyph glyph-name="aring" unicode="&#xe5;" horiz-adv-x="1030" 
d="M420 -18c-102 0 -182.167 26.333 -240.5 79s-87.5 125 -87.5 217c0 94.667 31.167 168.5 93.5 221.5s162.5 86.167 300.5 99.5l291 31l15 -106l-296 -32c-86 -8.66699 -147.833 -29.5 -185.5 -62.5s-56.5 -78.5 -56.5 -136.5c0 -60.667 17.333 -107 52 -139
s86.334 -48 155.001 -48c47.333 0 95 10.167 143 30.5s91 54.5 129 102.5v479c0 66.667 -10.333 118.167 -31 154.5s-51.667 61.833 -93 76.5s-93.333 22 -156 22c-40.667 0 -86.834 -3.66699 -138.501 -11s-103.167 -19.666 -154.5 -36.999v131
c46.667 15.333 98.167 27.166 154.5 35.499s109.5 12.5 159.5 12.5c92 0 168.833 -12 230.5 -36s108 -64.5 139 -121.5s46.5 -134.833 46.5 -233.5v-711h-134l-12 121h-10c-35.333 -44.667 -80.5 -79 -135.5 -103s-114.5 -36 -178.5 -36zM511 1248
c-56 0 -102.5 18.333 -139.5 55s-55.5 82.667 -55.5 138c0 56 18.5 102.333 55.5 139s83.5 55 139.5 55c56.667 0 103.334 -18.333 140.001 -55s55 -83 55 -139c0 -55.333 -18.333 -101.333 -55 -138s-83.334 -55 -140.001 -55zM511 1322c34 0 62 10.833 84 32.5
s33 50.5 33 86.5c0 37.333 -11 66.666 -33 87.999s-50 32 -84 32s-62 -10.667 -84 -32s-33 -50.666 -33 -87.999c0 -36 11 -64.833 33 -86.5s50 -32.5 84 -32.5z" />
    <glyph glyph-name="ae" unicode="&#xe6;" horiz-adv-x="1656" 
d="M1238 -19c-110.667 0 -203.333 19.1689 -278 57.502s-131 98.833 -169 181.5s-57 190.667 -57 324l22 15c0 122.667 16.5 224.167 49.5 304.5s80.333 140.166 142 179.499s134.834 59 219.501 59c85.333 0 158.666 -19.833 219.999 -59.5s108.5 -100.834 141.5 -183.501
s49.5 -188.667 49.5 -318v-51h-725v109h607l-36 -28c0 103.333 -10.5 185.333 -31.5 246s-51 104 -90 130s-86.5 39 -142.5 39c-55.333 0 -103.166 -13 -143.499 -39s-71.5 -69 -93.5 -129s-33 -141 -33 -243v-56c0 -100 13.333 -179.833 40 -239.5
s67.167 -102.667 121.5 -129s122.5 -39.5 204.5 -39.5c40.667 0 83.167 3.83301 127.5 11.5s91.166 18.5 140.499 32.5v-131c-51.333 -14.667 -100.5 -25.5 -147.5 -32.5s-93.167 -10.5 -138.5 -10.5zM432.001 -17.998c-70.667 0 -131.499 11.833 -182.499 35.5
s-90 57.5 -117 101.5s-40.5 97 -40.5 159c0 62.667 14 118.167 42 166.5s72.667 86.166 134 113.499s142 41 242 41h265v-107h-257c-65.333 0 -117.333 -8.66699 -156 -26s-66.334 -41.166 -83.001 -71.499s-25 -64.833 -25 -103.5c0 -60 17.833 -105.833 53.5 -137.5
s87.5 -47.5 155.5 -47.5c55.333 0 110.833 13.5 166.5 40.5s105.5 76.167 149.5 147.5l58 -94c-60.667 -84 -125.5 -141.333 -194.5 -172s-139.167 -46 -210.5 -46zM734.002 544.002l0.00390625 175.998c0 65.333 -10.5 116.333 -31.5 153s-52.333 62.167 -94 76.5
s-93.5 21.5 -155.5 21.5c-40.667 0 -86.834 -3.66699 -138.501 -11s-102.834 -19.666 -153.501 -36.999v131c47.333 16 98.166 28 152.499 36s106.166 12 155.499 12c88.667 0 162.5 -12.333 221.5 -37s103.5 -65.167 133.5 -121.5s45 -132.166 45 -227.499v-187z" />
    <glyph glyph-name="ccedilla" unicode="&#xe7;" horiz-adv-x="876" 
d="M574 -19c-102.667 0 -189.668 19.501 -261.001 58.501s-125.666 99.667 -162.999 182s-56 189.166 -56 320.499s20.167 238.166 60.5 320.499s99.166 142.833 176.499 181.5s172 58 284 58c38 0 76 -2.33301 114 -7s74.333 -11.667 109 -21v-136
c-35.333 9.33301 -70.166 16.333 -104.499 21s-68.166 7 -101.499 7c-83.333 0 -152.666 -13.667 -207.999 -41s-96.5 -71.666 -123.5 -132.999s-40.5 -143.333 -40.5 -246c0 -105.333 12.667 -189.333 38 -252s63.166 -107.834 113.499 -135.501
s112.166 -41.5 185.499 -41.5c35.333 0 72.333 3.5 111 10.5s82 18.167 130 33.5v-135c-42.667 -15.333 -86.167 -26.666 -130.5 -33.999s-88.833 -11 -133.5 -11zM521.999 -414.999c-30 0 -60.1689 3 -90.502 9s-56.833 14.333 -79.5 25v81
c28.667 -13.333 57.334 -22.833 86.001 -28.5s55.334 -8.5 80.001 -8.5c37.333 0 65.333 6.66699 84 20s28 34.333 28 63c0 57.333 -38 86 -114 86h-37v188h92v-157l-41 35c64 0 112.667 -13.667 146 -41s50 -66 50 -116c0 -48 -17.5 -86 -52.5 -114s-85.5 -42 -151.5 -42z
" />
    <glyph glyph-name="egrave" unicode="&#xe8;" horiz-adv-x="1030" 
d="M608 -19c-112.667 0 -207.167 19.1689 -283.5 57.502s-133.833 98.666 -172.5 180.999s-58 190.166 -58 323.499c0 127.333 17.833 232.333 53.5 315s86.334 144 152.001 184s143.5 60 233.5 60c88.667 0 164.167 -20.167 226.5 -60.5s109.833 -102 142.5 -185
s49 -188.833 49 -317.5v-49h-770v109h652l-35 -24c0 101.333 -10.5 182 -31.5 242s-51.333 103.167 -91 129.5s-87.834 39.5 -144.501 39.5c-56 0 -104.667 -13 -146 -39s-73.166 -69 -95.499 -129s-33.5 -141 -33.5 -243v-56c0 -100 13.5 -179.833 40.5 -239.5
s67.833 -102.667 122.5 -129s124 -39.5 208 -39.5c41.333 0 84.166 3.83301 128.499 11.5s91.5 18.5 141.5 32.5v-131c-52 -14.667 -101.5 -25.5 -148.5 -32.5s-93.833 -10.5 -140.5 -10.5zM457 1253l-240 363h173l215 -363h-148z" />
    <glyph glyph-name="eacute" unicode="&#xe9;" horiz-adv-x="1030" 
d="M608 -19c-112.667 0 -207.167 19.1689 -283.5 57.502s-133.833 98.666 -172.5 180.999s-58 190.166 -58 323.499c0 127.333 17.833 232.333 53.5 315s86.334 144 152.001 184s143.5 60 233.5 60c88.667 0 164.167 -20.167 226.5 -60.5s109.833 -102 142.5 -185
s49 -188.833 49 -317.5v-49h-770v109h652l-35 -24c0 101.333 -10.5 182 -31.5 242s-51.333 103.167 -91 129.5s-87.834 39.5 -144.501 39.5c-56 0 -104.667 -13 -146 -39s-73.166 -69 -95.499 -129s-33.5 -141 -33.5 -243v-56c0 -100 13.5 -179.833 40.5 -239.5
s67.833 -102.667 122.5 -129s124 -39.5 208 -39.5c41.333 0 84.166 3.83301 128.499 11.5s91.5 18.5 141.5 32.5v-131c-52 -14.667 -101.5 -25.5 -148.5 -32.5s-93.833 -10.5 -140.5 -10.5zM457 1253l215 363h173l-240 -363h-148z" />
    <glyph glyph-name="ecircumflex" unicode="&#xea;" horiz-adv-x="1030" 
d="M608 -19c-112.667 0 -207.167 19.1689 -283.5 57.502s-133.833 98.666 -172.5 180.999s-58 190.166 -58 323.499c0 127.333 17.833 232.333 53.5 315s86.334 144 152.001 184s143.5 60 233.5 60c88.667 0 164.167 -20.167 226.5 -60.5s109.833 -102 142.5 -185
s49 -188.833 49 -317.5v-49h-770v109h652l-35 -24c0 101.333 -10.5 182 -31.5 242s-51.333 103.167 -91 129.5s-87.834 39.5 -144.501 39.5c-56 0 -104.667 -13 -146 -39s-73.166 -69 -95.499 -129s-33.5 -141 -33.5 -243v-56c0 -100 13.5 -179.833 40.5 -239.5
s67.833 -102.667 122.5 -129s124 -39.5 208 -39.5c41.333 0 84.166 3.83301 128.499 11.5s91.5 18.5 141.5 32.5v-131c-52 -14.667 -101.5 -25.5 -148.5 -32.5s-93.833 -10.5 -140.5 -10.5zM236 1253l223 363h144l223 -363h-128l-184 308h34l-184 -308h-128z" />
    <glyph glyph-name="edieresis" unicode="&#xeb;" horiz-adv-x="1030" 
d="M608 -19c-112.667 0 -207.167 19.1689 -283.5 57.502s-133.833 98.666 -172.5 180.999s-58 190.166 -58 323.499c0 127.333 17.833 232.333 53.5 315s86.334 144 152.001 184s143.5 60 233.5 60c88.667 0 164.167 -20.167 226.5 -60.5s109.833 -102 142.5 -185
s49 -188.833 49 -317.5v-49h-770v109h652l-35 -24c0 101.333 -10.5 182 -31.5 242s-51.333 103.167 -91 129.5s-87.834 39.5 -144.501 39.5c-56 0 -104.667 -13 -146 -39s-73.166 -69 -95.499 -129s-33.5 -141 -33.5 -243v-56c0 -100 13.5 -179.833 40.5 -239.5
s67.833 -102.667 122.5 -129s124 -39.5 208 -39.5c41.333 0 84.166 3.83301 128.499 11.5s91.5 18.5 141.5 32.5v-131c-52 -14.667 -101.5 -25.5 -148.5 -32.5s-93.833 -10.5 -140.5 -10.5zM748 1323c-32 0 -57.167 8.83301 -75.5 26.5s-27.5 41.5 -27.5 71.5
c0 30.667 9.16699 55 27.5 73s43.5 27 75.5 27c31.333 0 56.166 -9 74.499 -27s27.5 -42.333 27.5 -73c0 -30 -9.16699 -53.833 -27.5 -71.5s-43.166 -26.5 -74.499 -26.5zM315 1323c-32 0 -57.167 8.83301 -75.5 26.5s-27.5 41.5 -27.5 71.5c0 30.667 9.16699 55 27.5 73
s43.5 27 75.5 27c31.333 0 56.166 -9 74.499 -27s27.5 -42.333 27.5 -73c0 -30 -9.16699 -53.833 -27.5 -71.5s-43.166 -26.5 -74.499 -26.5z" />
    <glyph glyph-name="igrave" unicode="&#xec;" horiz-adv-x="463" 
d="M151 0v1085h160v-1085h-160zM157 1253l-240 363h173l215 -363h-148z" />
    <glyph glyph-name="iacute" unicode="&#xed;" horiz-adv-x="463" 
d="M151 0v1085h160v-1085h-160zM157 1253l215 363h173l-240 -363h-148z" />
    <glyph glyph-name="icircumflex" unicode="&#xee;" horiz-adv-x="463" 
d="M151 0v1085h160v-1085h-160zM-64 1253l223 363h144l223 -363h-128l-184 308h34l-184 -308h-128z" />
    <glyph glyph-name="idieresis" unicode="&#xef;" horiz-adv-x="463" 
d="M151 0v1085h160v-1085h-160zM448 1323c-32 0 -57.167 8.83301 -75.5 26.5s-27.5 41.5 -27.5 71.5c0 30.667 9.16699 55 27.5 73s43.5 27 75.5 27c31.333 0 56.166 -9 74.499 -27s27.5 -42.333 27.5 -73c0 -30 -9.16699 -53.833 -27.5 -71.5s-43.166 -26.5 -74.499 -26.5z
M15 1323c-32 0 -57.167 8.83301 -75.5 26.5s-27.5 41.5 -27.5 71.5c0 30.667 9.16699 55 27.5 73s43.5 27 75.5 27c31.333 0 56.166 -9 74.499 -27s27.5 -42.333 27.5 -73c0 -30 -9.16699 -53.833 -27.5 -71.5s-43.166 -26.5 -74.499 -26.5z" />
    <glyph glyph-name="eth" unicode="&#xf0;" horiz-adv-x="1112" 
d="M557 -20c-94 0 -175.67 19.5039 -245.003 58.5039s-123 99.833 -161 182.5s-57 189.667 -57 321c0 130 18.833 236.167 56.5 318.5s90.334 142.666 158.001 180.999s146.5 57.5 236.5 57.5c64.667 0 125.334 -13.5 182.001 -40.5s104.334 -76.167 143.001 -147.5l-66 25
c-24 81.333 -58 161.5 -102 240.5s-98.667 155.5 -164 229.5s-142.333 144 -231 210h198c72 -52.667 139 -117.334 201 -194.001s116.333 -160.834 163 -252.501s83 -187.334 109 -287.001s39 -199.5 39 -299.5c0 -140 -18.833 -254.333 -56.5 -343
s-91 -154.167 -160 -196.5s-150.167 -63.5 -243.5 -63.5zM556.997 111.004c60.667 0 113.333 14.168 158 42.501s79.167 73.833 103.5 136.5s36.5 145.667 36.5 249c0 108.667 -12.167 194.5 -36.5 257.5s-58.833 107.833 -103.5 134.5s-97.667 40 -159 40
s-114.333 -13.167 -159 -39.5s-79.167 -70.833 -103.5 -133.5s-36.5 -147.334 -36.5 -254.001c0 -108.667 12.167 -194.667 36.5 -258s58.833 -108.333 103.5 -135s98 -40 160 -40zM203.996 1224l-18 101l788 133l18 -101z" />
    <glyph glyph-name="ntilde" unicode="&#xf1;" horiz-adv-x="1137" 
d="M151 0v1085h135l11 -122h11c44 44.667 95.333 79 154 103s121 36 187 36c68 0 128.167 -12.5 180.5 -37.5s93.333 -65.667 123 -122s44.5 -131.5 44.5 -225.5v-717h-159v710c0 93.333 -20.5 158.166 -61.5 194.499s-96.5 54.5 -166.5 54.5c-32 0 -66 -4.66699 -102 -14
s-71.167 -24.666 -105.5 -45.999s-64.833 -49.666 -91.5 -84.999v-814h-160zM718 1345c-29.333 0 -57 4.83301 -83 14.5s-51 19.5 -75 29.5c-22.667 10 -44.5 18.833 -65.5 26.5s-42.5 11.5 -64.5 11.5c-32 0 -61.167 -6.16699 -87.5 -18.5s-52.166 -31.5 -77.499 -57.5v116
c42 44.667 97.667 67 167 67c29.333 0 57 -4.83301 83 -14.5s51 -19.5 75 -29.5c22.667 -10 44.667 -18.833 66 -26.5s42.666 -11.5 63.999 -11.5c32.667 0 62.167 6.16699 88.5 18.5s51.833 31.5 76.5 57.5v-116c-42 -44.667 -97.667 -67 -167 -67z" />
    <glyph glyph-name="ograve" unicode="&#xf2;" horiz-adv-x="1112" 
d="M556 -19c-93.333 0 -174.667 19.501 -244 58.501s-123 99.667 -161 182s-57 189.166 -57 320.499c0 130 18.833 236.333 56.5 319s91.167 143.5 160.5 182.5s151 58.5 245 58.5s175.667 -19.5 245 -58.5s122.833 -99.667 160.5 -182s56.5 -188.833 56.5 -319.5
c0 -130 -19.167 -236.333 -57.5 -319s-92 -143.667 -161 -183s-150.167 -59 -243.5 -59zM555.999 111.001c61.333 0 114.333 13.332 159 39.999s79.167 71.167 103.5 133.5s36.5 147.166 36.5 254.499c0 109.333 -12.167 195.5 -36.5 258.5s-59 107.667 -104 134
s-97.833 39.5 -158.5 39.5c-61.333 0 -114.333 -13.167 -159 -39.5s-79.167 -70.666 -103.5 -132.999s-36.5 -147.166 -36.5 -254.499c0 -108.667 12.167 -194.5 36.5 -257.5s58.833 -108 103.5 -135s97.667 -40.5 159 -40.5zM481.999 1253l-240 363h173l215 -363h-148z" />
    <glyph glyph-name="oacute" unicode="&#xf3;" horiz-adv-x="1112" 
d="M556 -19c-93.333 0 -174.667 19.501 -244 58.501s-123 99.667 -161 182s-57 189.166 -57 320.499c0 130 18.833 236.333 56.5 319s91.167 143.5 160.5 182.5s151 58.5 245 58.5s175.667 -19.5 245 -58.5s122.833 -99.667 160.5 -182s56.5 -188.833 56.5 -319.5
c0 -130 -19.167 -236.333 -57.5 -319s-92 -143.667 -161 -183s-150.167 -59 -243.5 -59zM555.999 111.001c61.333 0 114.333 13.332 159 39.999s79.167 71.167 103.5 133.5s36.5 147.166 36.5 254.499c0 109.333 -12.167 195.5 -36.5 258.5s-59 107.667 -104 134
s-97.833 39.5 -158.5 39.5c-61.333 0 -114.333 -13.167 -159 -39.5s-79.167 -70.666 -103.5 -132.999s-36.5 -147.166 -36.5 -254.499c0 -108.667 12.167 -194.5 36.5 -257.5s58.833 -108 103.5 -135s97.667 -40.5 159 -40.5zM481.999 1253l215 363h173l-240 -363h-148z" />
    <glyph glyph-name="ocircumflex" unicode="&#xf4;" horiz-adv-x="1112" 
d="M556 -19c-93.333 0 -174.667 19.501 -244 58.501s-123 99.667 -161 182s-57 189.166 -57 320.499c0 130 18.833 236.333 56.5 319s91.167 143.5 160.5 182.5s151 58.5 245 58.5s175.667 -19.5 245 -58.5s122.833 -99.667 160.5 -182s56.5 -188.833 56.5 -319.5
c0 -130 -19.167 -236.333 -57.5 -319s-92 -143.667 -161 -183s-150.167 -59 -243.5 -59zM555.999 111.001c61.333 0 114.333 13.332 159 39.999s79.167 71.167 103.5 133.5s36.5 147.166 36.5 254.499c0 109.333 -12.167 195.5 -36.5 258.5s-59 107.667 -104 134
s-97.833 39.5 -158.5 39.5c-61.333 0 -114.333 -13.167 -159 -39.5s-79.167 -70.666 -103.5 -132.999s-36.5 -147.166 -36.5 -254.499c0 -108.667 12.167 -194.5 36.5 -257.5s58.833 -108 103.5 -135s97.667 -40.5 159 -40.5zM260.999 1253l223 363h144l223 -363h-128
l-184 308h34l-184 -308h-128z" />
    <glyph glyph-name="otilde" unicode="&#xf5;" horiz-adv-x="1112" 
d="M556 -19c-93.333 0 -174.667 19.501 -244 58.501s-123 99.667 -161 182s-57 189.166 -57 320.499c0 130 18.833 236.333 56.5 319s91.167 143.5 160.5 182.5s151 58.5 245 58.5s175.667 -19.5 245 -58.5s122.833 -99.667 160.5 -182s56.5 -188.833 56.5 -319.5
c0 -130 -19.167 -236.333 -57.5 -319s-92 -143.667 -161 -183s-150.167 -59 -243.5 -59zM555.999 111.001c61.333 0 114.333 13.332 159 39.999s79.167 71.167 103.5 133.5s36.5 147.166 36.5 254.499c0 109.333 -12.167 195.5 -36.5 258.5s-59 107.667 -104 134
s-97.833 39.5 -158.5 39.5c-61.333 0 -114.333 -13.167 -159 -39.5s-79.167 -70.666 -103.5 -132.999s-36.5 -147.166 -36.5 -254.499c0 -108.667 12.167 -194.5 36.5 -257.5s58.833 -108 103.5 -135s97.667 -40.5 159 -40.5zM698.999 1345c-29.333 0 -57 4.83301 -83 14.5
s-51 19.5 -75 29.5c-22.667 10 -44.5 18.833 -65.5 26.5s-42.5 11.5 -64.5 11.5c-32 0 -61.167 -6.16699 -87.5 -18.5s-52.166 -31.5 -77.499 -57.5v116c42 44.667 97.667 67 167 67c29.333 0 57 -4.83301 83 -14.5s51 -19.5 75 -29.5c22.667 -10 44.667 -18.833 66 -26.5
s42.666 -11.5 63.999 -11.5c32.667 0 62.167 6.16699 88.5 18.5s51.833 31.5 76.5 57.5v-116c-42 -44.667 -97.667 -67 -167 -67z" />
    <glyph glyph-name="odieresis" unicode="&#xf6;" horiz-adv-x="1112" 
d="M556 -19c-93.333 0 -174.667 19.501 -244 58.501s-123 99.667 -161 182s-57 189.166 -57 320.499c0 130 18.833 236.333 56.5 319s91.167 143.5 160.5 182.5s151 58.5 245 58.5s175.667 -19.5 245 -58.5s122.833 -99.667 160.5 -182s56.5 -188.833 56.5 -319.5
c0 -130 -19.167 -236.333 -57.5 -319s-92 -143.667 -161 -183s-150.167 -59 -243.5 -59zM555.999 111.001c61.333 0 114.333 13.332 159 39.999s79.167 71.167 103.5 133.5s36.5 147.166 36.5 254.499c0 109.333 -12.167 195.5 -36.5 258.5s-59 107.667 -104 134
s-97.833 39.5 -158.5 39.5c-61.333 0 -114.333 -13.167 -159 -39.5s-79.167 -70.666 -103.5 -132.999s-36.5 -147.166 -36.5 -254.499c0 -108.667 12.167 -194.5 36.5 -257.5s58.833 -108 103.5 -135s97.667 -40.5 159 -40.5zM772.999 1323
c-32 0 -57.167 8.83301 -75.5 26.5s-27.5 41.5 -27.5 71.5c0 30.667 9.16699 55 27.5 73s43.5 27 75.5 27c31.333 0 56.166 -9 74.499 -27s27.5 -42.333 27.5 -73c0 -30 -9.16699 -53.833 -27.5 -71.5s-43.166 -26.5 -74.499 -26.5zM339.999 1323
c-32 0 -57.167 8.83301 -75.5 26.5s-27.5 41.5 -27.5 71.5c0 30.667 9.16699 55 27.5 73s43.5 27 75.5 27c31.333 0 56.166 -9 74.499 -27s27.5 -42.333 27.5 -73c0 -30 -9.16699 -53.833 -27.5 -71.5s-43.166 -26.5 -74.499 -26.5z" />
    <glyph glyph-name="divide" unicode="&#xf7;" horiz-adv-x="1076" 
d="M149 695v130h778v-130h-778zM538 299c-32 0 -58.002 9.33203 -78.002 27.999s-30 44 -30 76s9.83301 57.5 29.5 76.5s45.834 28.5 78.501 28.5s58.834 -9.66699 78.501 -29s29.5 -44.666 29.5 -75.999s-10 -56.5 -30 -75.5s-46 -28.5 -78 -28.5zM537.998 1012
c-32 0 -58.002 9.33301 -78.002 28s-30 44 -30 76s9.83301 57.5 29.5 76.5s45.834 28.5 78.501 28.5s58.834 -9.5 78.501 -28.5s29.5 -44.5 29.5 -76.5c0 -31.333 -10 -56.5 -30 -75.5s-46 -28.5 -78 -28.5z" />
    <glyph glyph-name="oslash" unicode="&#xf8;" horiz-adv-x="1112" 
d="M906 949c36 -45.333 63.668 -101.668 83.001 -169.001s29 -146.666 29 -237.999c0 -130 -19.167 -236.333 -57.5 -319s-92 -143.667 -161 -183s-150.167 -59 -243.5 -59c-54.667 0 -105.334 7.16699 -152.001 21.5s-88.334 36.5 -125.001 66.5l-53 -75h-123l102 142
c-35.333 46 -62.666 102.5 -81.999 169.5s-29 145.833 -29 236.5c0 130 18.833 236.333 56.5 319s91.167 143.5 160.5 182.5s151 58.5 245 58.5c54 0 104.333 -7 151 -21s88 -36 124 -66l54 76h122zM556.001 972.998c-62 0 -115.668 -13.1689 -161.001 -39.502
s-80.166 -70.833 -104.499 -133.5s-36.5 -148 -36.5 -256c0 -60 4.5 -112.667 13.5 -158s21.833 -83.666 38.5 -114.999l447 627c-24.667 26.667 -53.667 45.834 -87 57.501s-70 17.5 -110 17.5zM556 109.996c62 0 115.501 13.332 160.501 39.999
s79.833 71.334 104.5 134.001s37 147.667 37 255c0 62 -4.5 115.833 -13.5 161.5s-22.167 84.167 -39.5 115.5l-448 -630c25.333 -27.333 54.666 -46.833 87.999 -58.5s70.333 -17.5 111 -17.5z" />
    <glyph glyph-name="ugrave" unicode="&#xf9;" horiz-adv-x="1127" 
d="M486 -18c-67.333 0 -127.001 12.333 -179.001 37s-93 65 -123 121s-45 131 -45 225v720h160v-713c0 -92.667 20.667 -157.167 62 -193.5s94.666 -54.5 159.999 -54.5c32.667 0 66.834 5 102.501 15s70.167 25.667 103.5 47s63 49 89 83v816h160v-1085h-135l-11 119h-10
c-45.333 -45.333 -96.666 -79.5 -153.999 -102.5s-117.333 -34.5 -180 -34.5zM483.999 1253l-240 363h173l215 -363h-148z" />
    <glyph glyph-name="uacute" unicode="&#xfa;" horiz-adv-x="1127" 
d="M486 -18c-67.333 0 -127.001 12.333 -179.001 37s-93 65 -123 121s-45 131 -45 225v720h160v-713c0 -92.667 20.667 -157.167 62 -193.5s94.666 -54.5 159.999 -54.5c32.667 0 66.834 5 102.501 15s70.167 25.667 103.5 47s63 49 89 83v816h160v-1085h-135l-11 119h-10
c-45.333 -45.333 -96.666 -79.5 -153.999 -102.5s-117.333 -34.5 -180 -34.5zM483.999 1253l215 363h173l-240 -363h-148z" />
    <glyph glyph-name="ucircumflex" unicode="&#xfb;" horiz-adv-x="1127" 
d="M486 -18c-67.333 0 -127.001 12.333 -179.001 37s-93 65 -123 121s-45 131 -45 225v720h160v-713c0 -92.667 20.667 -157.167 62 -193.5s94.666 -54.5 159.999 -54.5c32.667 0 66.834 5 102.501 15s70.167 25.667 103.5 47s63 49 89 83v816h160v-1085h-135l-11 119h-10
c-45.333 -45.333 -96.666 -79.5 -153.999 -102.5s-117.333 -34.5 -180 -34.5zM262.999 1253l223 363h144l223 -363h-128l-184 308h34l-184 -308h-128z" />
    <glyph glyph-name="udieresis" unicode="&#xfc;" horiz-adv-x="1127" 
d="M486 -18c-67.333 0 -127.001 12.333 -179.001 37s-93 65 -123 121s-45 131 -45 225v720h160v-713c0 -92.667 20.667 -157.167 62 -193.5s94.666 -54.5 159.999 -54.5c32.667 0 66.834 5 102.501 15s70.167 25.667 103.5 47s63 49 89 83v816h160v-1085h-135l-11 119h-10
c-45.333 -45.333 -96.666 -79.5 -153.999 -102.5s-117.333 -34.5 -180 -34.5zM774.999 1323c-32 0 -57.167 8.83301 -75.5 26.5s-27.5 41.5 -27.5 71.5c0 30.667 9.16699 55 27.5 73s43.5 27 75.5 27c31.333 0 56.166 -9 74.499 -27s27.5 -42.333 27.5 -73
c0 -30 -9.16699 -53.833 -27.5 -71.5s-43.166 -26.5 -74.499 -26.5zM341.999 1323c-32 0 -57.167 8.83301 -75.5 26.5s-27.5 41.5 -27.5 71.5c0 30.667 9.16699 55 27.5 73s43.5 27 75.5 27c31.333 0 56.166 -9 74.499 -27s27.5 -42.333 27.5 -73
c0 -30 -9.16699 -53.833 -27.5 -71.5s-43.166 -26.5 -74.499 -26.5z" />
    <glyph glyph-name="yacute" unicode="&#xfd;" horiz-adv-x="1058" 
d="M305 -440l167 440l51 115l358 970h161l-577 -1525h-160zM426 0l-411 1085h171l393 -1085h-153zM456 1253l215 363h173l-240 -363h-148z" />
    <glyph glyph-name="thorn" unicode="&#xfe;" horiz-adv-x="1129" 
d="M151 -440l-0.000976562 2056h160v-644h9c34 38.667 76.333 70 127 94s108.667 36 174 36c75.333 0 144.5 -17.5 207.5 -52.5s113.167 -92 150.5 -171s56 -184.167 56 -315.5c0 -130.667 -20.667 -239 -62 -325s-102.666 -150.333 -183.999 -193
s-181.666 -64 -300.999 -64c-30.667 0 -61.334 1.5 -92.001 4.5s-59 6.16699 -85 9.5v-435h-160zM489.999 112c126.667 0 222 34 286 102s96 179.667 96 335c0 108 -13 192 -39 252s-61.5 102.167 -106.5 126.5s-95.833 36.5 -152.5 36.5
c-48.667 0 -96.667 -10.5 -144 -31.5s-87 -54.167 -119 -99.5v-702c24 -5.33301 52.167 -9.83301 84.5 -13.5s63.833 -5.5 94.5 -5.5z" />
    <glyph glyph-name="ydieresis" unicode="&#xff;" horiz-adv-x="1058" 
d="M305 -440l167 440l51 115l358 970h161l-577 -1525h-160zM426 0l-411 1085h171l393 -1085h-153zM747 1323c-32 0 -57.167 8.83301 -75.5 26.5s-27.5 41.5 -27.5 71.5c0 30.667 9.16699 55 27.5 73s43.5 27 75.5 27c31.333 0 56.166 -9 74.499 -27s27.5 -42.333 27.5 -73
c0 -30 -9.16699 -53.833 -27.5 -71.5s-43.166 -26.5 -74.499 -26.5zM314 1323c-32 0 -57.167 8.83301 -75.5 26.5s-27.5 41.5 -27.5 71.5c0 30.667 9.16699 55 27.5 73s43.5 27 75.5 27c31.333 0 56.166 -9 74.499 -27s27.5 -42.333 27.5 -73
c0 -30 -9.16699 -53.833 -27.5 -71.5s-43.166 -26.5 -74.499 -26.5z" />
    <glyph glyph-name="Amacron" unicode="&#x100;" horiz-adv-x="1349" 
d="M29 0l531 1480h229l531 -1480h-165l-496 1403h28l-496 -1403h-162zM307 479l38 137h658l38 -137h-734zM369 1694v108h612v-108h-612z" />
    <glyph glyph-name="amacron" unicode="&#x101;" horiz-adv-x="1030" 
d="M420 -18c-102 0 -182.167 26.333 -240.5 79s-87.5 125 -87.5 217c0 94.667 31.167 168.5 93.5 221.5s162.5 86.167 300.5 99.5l291 31l15 -106l-296 -32c-86 -8.66699 -147.833 -29.5 -185.5 -62.5s-56.5 -78.5 -56.5 -136.5c0 -60.667 17.333 -107 52 -139
s86.334 -48 155.001 -48c47.333 0 95 10.167 143 30.5s91 54.5 129 102.5v479c0 66.667 -10.333 118.167 -31 154.5s-51.667 61.833 -93 76.5s-93.333 22 -156 22c-40.667 0 -86.834 -3.66699 -138.501 -11s-103.167 -19.666 -154.5 -36.999v131
c46.667 15.333 98.167 27.166 154.5 35.499s109.5 12.5 159.5 12.5c92 0 168.833 -12 230.5 -36s108 -64.5 139 -121.5s46.5 -134.833 46.5 -233.5v-711h-134l-12 121h-10c-35.333 -44.667 -80.5 -79 -135.5 -103s-114.5 -36 -178.5 -36zM201 1369v107h620v-107h-620z" />
    <glyph glyph-name="Abreve" unicode="&#x102;" horiz-adv-x="1349" 
d="M29 0l531 1480h229l531 -1480h-165l-496 1403h28l-496 -1403h-162zM307 479l38 137h658l38 -137h-734zM676 1617c-66.667 0 -122.832 10.5 -168.499 31.5s-81 50.5 -106 88.5s-40.167 82.667 -45.5 134h108c8 -52 28.167 -91.5 60.5 -118.5s82.833 -40.5 151.5 -40.5
c70 0 120.667 13.5 152 40.5s50.666 66.5 57.999 118.5h108c-5.33301 -52 -20.333 -97 -45 -135s-59.5 -67.333 -104.5 -88s-101.167 -31 -168.5 -31z" />
    <glyph glyph-name="abreve" unicode="&#x103;" horiz-adv-x="1030" 
d="M420 -18c-102 0 -182.167 26.333 -240.5 79s-87.5 125 -87.5 217c0 94.667 31.167 168.5 93.5 221.5s162.5 86.167 300.5 99.5l291 31l15 -106l-296 -32c-86 -8.66699 -147.833 -29.5 -185.5 -62.5s-56.5 -78.5 -56.5 -136.5c0 -60.667 17.333 -107 52 -139
s86.334 -48 155.001 -48c47.333 0 95 10.167 143 30.5s91 54.5 129 102.5v479c0 66.667 -10.333 118.167 -31 154.5s-51.667 61.833 -93 76.5s-93.333 22 -156 22c-40.667 0 -86.834 -3.66699 -138.501 -11s-103.167 -19.666 -154.5 -36.999v131
c46.667 15.333 98.167 27.166 154.5 35.499s109.5 12.5 159.5 12.5c92 0 168.833 -12 230.5 -36s108 -64.5 139 -121.5s46.5 -134.833 46.5 -233.5v-711h-134l-12 121h-10c-35.333 -44.667 -80.5 -79 -135.5 -103s-114.5 -36 -178.5 -36zM512 1264
c-91.333 0 -163 28.333 -215 85s-80.333 137 -85 241h107c5.33301 -75.333 23.5 -132.666 54.5 -171.999s77.167 -59 138.5 -59c62 0 108.333 19.667 139 59s48 96.666 52 171.999h107c-4 -104.667 -31.667 -185.167 -83 -241.5s-123 -84.5 -215 -84.5z" />
    <glyph glyph-name="Aogonek" unicode="&#x104;" horiz-adv-x="1349" 
d="M29 0l531 1480h229l531 -1480h-165l-496 1403h28l-496 -1403h-162zM307 479l38 137h658l38 -137h-734zM1245 -415c-76.667 0 -134.998 16.168 -174.998 48.501s-60 77.166 -60 134.499c0 36.667 8.33301 71.5 25 104.5s44.167 64.667 82.5 95s89.833 59.833 154.5 88.5
l48 -56c-54 -25.333 -96.167 -50 -126.5 -74s-51.5 -48.167 -63.5 -72.5s-18 -49.5 -18 -75.5c0 -36.667 12.167 -64.834 36.5 -84.501s61.166 -29.5 110.499 -29.5c24 0 48.5 3 73.5 9s53.833 15.333 86.5 28v-80c-28 -11.333 -56.333 -20.166 -85 -26.499
s-58.334 -9.5 -89.001 -9.5z" />
    <glyph glyph-name="aogonek" unicode="&#x105;" horiz-adv-x="1030" 
d="M420 -18c-102 0 -182.167 26.333 -240.5 79s-87.5 125 -87.5 217c0 94.667 31.167 168.5 93.5 221.5s162.5 86.167 300.5 99.5l291 31l15 -106l-296 -32c-86 -8.66699 -147.833 -29.5 -185.5 -62.5s-56.5 -78.5 -56.5 -136.5c0 -60.667 17.333 -107 52 -139
s86.334 -48 155.001 -48c47.333 0 95 10.167 143 30.5s91 54.5 129 102.5v479c0 66.667 -10.333 118.167 -31 154.5s-51.667 61.833 -93 76.5s-93.333 22 -156 22c-40.667 0 -86.834 -3.66699 -138.501 -11s-103.167 -19.666 -154.5 -36.999v131
c46.667 15.333 98.167 27.166 154.5 35.499s109.5 12.5 159.5 12.5c92 0 168.833 -12 230.5 -36s108 -64.5 139 -121.5s46.5 -134.833 46.5 -233.5v-711l-127 -5l-19 126h-10c-35.333 -44.667 -80.5 -79 -135.5 -103s-114.5 -36 -178.5 -36zM816 -415
c-69.333 0 -122.667 16.334 -160 49.001s-56 77.334 -56 134.001c0 37.333 8 72.5 24 105.5s41.833 64.667 77.5 95s82.5 59.5 140.5 87.5l48 -56c-46 -24.667 -82.667 -48.834 -110 -72.501s-47.166 -47.834 -59.499 -72.501s-18.5 -50.667 -18.5 -78
c0 -35.333 11.167 -63 33.5 -83s53.5 -30 93.5 -30c23.333 0 47.166 3.33301 71.499 10s48.5 16.667 72.5 30v-81c-22 -12 -46.667 -21.333 -74 -28s-55 -10 -83 -10z" />
    <glyph glyph-name="Cacute" unicode="&#x106;" horiz-adv-x="1151" 
d="M775 -19c-102 0 -194.165 13.499 -276.498 40.499s-152.833 70.167 -211.5 129.5s-103.667 137.333 -135 234s-47 214 -47 352c0 178.667 27.333 324 82 436s133.167 194.333 235.5 247s225.166 79 368.499 79c57.333 0 112.166 -3.66699 164.499 -11
s104.166 -18 155.499 -32v-142c-52 16 -103.833 27.333 -155.5 34s-104.5 10 -158.5 10c-112 0 -206.833 -19.833 -284.5 -59.5s-136.5 -104.667 -176.5 -195s-60 -211.166 -60 -362.499c0 -156 20.333 -279.167 61 -369.5s99.167 -154.5 175.5 -192.5
s167.833 -57 274.5 -57c54.667 0 107.667 4.33301 159 13s106.333 22.667 165 42v-141c-49.333 -17.333 -102.166 -30.833 -158.499 -40.5s-115.5 -14.5 -177.5 -14.5zM629.002 1608l177 284h173l-205 -284h-145z" />
    <glyph glyph-name="cacute" unicode="&#x107;" horiz-adv-x="876" 
d="M574 -19c-102.667 0 -189.668 19.501 -261.001 58.501s-125.666 99.667 -162.999 182s-56 189.166 -56 320.499s20.167 238.166 60.5 320.499s99.166 142.833 176.499 181.5s172 58 284 58c38 0 76 -2.33301 114 -7s74.333 -11.667 109 -21v-136
c-35.333 9.33301 -70.166 16.333 -104.499 21s-68.166 7 -101.499 7c-83.333 0 -152.666 -13.667 -207.999 -41s-96.5 -71.666 -123.5 -132.999s-40.5 -143.333 -40.5 -246c0 -105.333 12.667 -189.333 38 -252s63.166 -107.834 113.499 -135.501
s112.166 -41.5 185.499 -41.5c35.333 0 72.333 3.5 111 10.5s82 18.167 130 33.5v-135c-42.667 -15.333 -86.167 -26.666 -130.5 -33.999s-88.833 -11 -133.5 -11zM439.999 1253l215 363h173l-240 -363h-148z" />
    <glyph glyph-name="Ccircumflex" unicode="&#x108;" horiz-adv-x="1151" 
d="M775 -19c-102 0 -194.165 13.499 -276.498 40.499s-152.833 70.167 -211.5 129.5s-103.667 137.333 -135 234s-47 214 -47 352c0 178.667 27.333 324 82 436s133.167 194.333 235.5 247s225.166 79 368.499 79c57.333 0 112.166 -3.66699 164.499 -11
s104.166 -18 155.499 -32v-142c-52 16 -103.833 27.333 -155.5 34s-104.5 10 -158.5 10c-112 0 -206.833 -19.833 -284.5 -59.5s-136.5 -104.667 -176.5 -195s-60 -211.166 -60 -362.499c0 -156 20.333 -279.167 61 -369.5s99.167 -154.5 175.5 -192.5
s167.833 -57 274.5 -57c54.667 0 107.667 4.33301 159 13s106.333 22.667 165 42v-141c-49.333 -17.333 -102.166 -30.833 -158.499 -40.5s-115.5 -14.5 -177.5 -14.5zM383.002 1608l245 284h148l245 -284h-140l-196 233h34l-196 -233h-140z" />
    <glyph glyph-name="ccircumflex" unicode="&#x109;" horiz-adv-x="876" 
d="M574 -19c-102.667 0 -189.668 19.501 -261.001 58.501s-125.666 99.667 -162.999 182s-56 189.166 -56 320.499s20.167 238.166 60.5 320.499s99.166 142.833 176.499 181.5s172 58 284 58c38 0 76 -2.33301 114 -7s74.333 -11.667 109 -21v-136
c-35.333 9.33301 -70.166 16.333 -104.499 21s-68.166 7 -101.499 7c-83.333 0 -152.666 -13.667 -207.999 -41s-96.5 -71.666 -123.5 -132.999s-40.5 -143.333 -40.5 -246c0 -105.333 12.667 -189.333 38 -252s63.166 -107.834 113.499 -135.501
s112.166 -41.5 185.499 -41.5c35.333 0 72.333 3.5 111 10.5s82 18.167 130 33.5v-135c-42.667 -15.333 -86.167 -26.666 -130.5 -33.999s-88.833 -11 -133.5 -11zM218.999 1253l223 363h144l223 -363h-128l-184 308h34l-184 -308h-128z" />
    <glyph glyph-name="Cdotaccent" unicode="&#x10a;" horiz-adv-x="1151" 
d="M775 -19c-102 0 -194.165 13.499 -276.498 40.499s-152.833 70.167 -211.5 129.5s-103.667 137.333 -135 234s-47 214 -47 352c0 178.667 27.333 324 82 436s133.167 194.333 235.5 247s225.166 79 368.499 79c57.333 0 112.166 -3.66699 164.499 -11
s104.166 -18 155.499 -32v-142c-52 16 -103.833 27.333 -155.5 34s-104.5 10 -158.5 10c-112 0 -206.833 -19.833 -284.5 -59.5s-136.5 -104.667 -176.5 -195s-60 -211.166 -60 -362.499c0 -156 20.333 -279.167 61 -369.5s99.167 -154.5 175.5 -192.5
s167.833 -57 274.5 -57c54.667 0 107.667 4.33301 159 13s106.333 22.667 165 42v-141c-49.333 -17.333 -102.166 -30.833 -158.499 -40.5s-115.5 -14.5 -177.5 -14.5zM702.002 1659c-35.333 0 -62.666 8.33301 -81.999 25s-29 39 -29 67c0 29.333 9.66699 52.333 29 69
s46.666 25 81.999 25s62.666 -8.33301 81.999 -25s29 -39.667 29 -69c0 -28 -9.66699 -50.333 -29 -67s-46.666 -25 -81.999 -25z" />
    <glyph glyph-name="cdotaccent" unicode="&#x10b;" horiz-adv-x="876" 
d="M574 -19c-102.667 0 -189.668 19.501 -261.001 58.501s-125.666 99.667 -162.999 182s-56 189.166 -56 320.499s20.167 238.166 60.5 320.499s99.166 142.833 176.499 181.5s172 58 284 58c38 0 76 -2.33301 114 -7s74.333 -11.667 109 -21v-136
c-35.333 9.33301 -70.166 16.333 -104.499 21s-68.166 7 -101.499 7c-83.333 0 -152.666 -13.667 -207.999 -41s-96.5 -71.666 -123.5 -132.999s-40.5 -143.333 -40.5 -246c0 -105.333 12.667 -189.333 38 -252s63.166 -107.834 113.499 -135.501
s112.166 -41.5 185.499 -41.5c35.333 0 72.333 3.5 111 10.5s82 18.167 130 33.5v-135c-42.667 -15.333 -86.167 -26.666 -130.5 -33.999s-88.833 -11 -133.5 -11zM513.999 1321c-36 0 -63.5 8.83301 -82.5 26.5s-28.5 42.167 -28.5 73.5c0 32 9.5 57 28.5 75
s46.5 27 82.5 27s63.5 -9 82.5 -27s28.5 -43 28.5 -75c0 -31.333 -9.5 -55.833 -28.5 -73.5s-46.5 -26.5 -82.5 -26.5z" />
    <glyph glyph-name="Ccaron" unicode="&#x10c;" horiz-adv-x="1151" 
d="M775 -19c-102 0 -194.165 13.499 -276.498 40.499s-152.833 70.167 -211.5 129.5s-103.667 137.333 -135 234s-47 214 -47 352c0 178.667 27.333 324 82 436s133.167 194.333 235.5 247s225.166 79 368.499 79c57.333 0 112.166 -3.66699 164.499 -11
s104.166 -18 155.499 -32v-142c-52 16 -103.833 27.333 -155.5 34s-104.5 10 -158.5 10c-112 0 -206.833 -19.833 -284.5 -59.5s-136.5 -104.667 -176.5 -195s-60 -211.166 -60 -362.499c0 -156 20.333 -279.167 61 -369.5s99.167 -154.5 175.5 -192.5
s167.833 -57 274.5 -57c54.667 0 107.667 4.33301 159 13s106.333 22.667 165 42v-141c-49.333 -17.333 -102.166 -30.833 -158.499 -40.5s-115.5 -14.5 -177.5 -14.5zM628.002 1608l-245 284h140l196 -234h-34l196 234h140l-245 -284h-148z" />
    <glyph glyph-name="ccaron" unicode="&#x10d;" horiz-adv-x="876" 
d="M574 -19c-102.667 0 -189.668 19.501 -261.001 58.501s-125.666 99.667 -162.999 182s-56 189.166 -56 320.499s20.167 238.166 60.5 320.499s99.166 142.833 176.499 181.5s172 58 284 58c38 0 76 -2.33301 114 -7s74.333 -11.667 109 -21v-136
c-35.333 9.33301 -70.166 16.333 -104.499 21s-68.166 7 -101.499 7c-83.333 0 -152.666 -13.667 -207.999 -41s-96.5 -71.666 -123.5 -132.999s-40.5 -143.333 -40.5 -246c0 -105.333 12.667 -189.333 38 -252s63.166 -107.834 113.499 -135.501
s112.166 -41.5 185.499 -41.5c35.333 0 72.333 3.5 111 10.5s82 18.167 130 33.5v-135c-42.667 -15.333 -86.167 -26.666 -130.5 -33.999s-88.833 -11 -133.5 -11zM441.999 1253l-226 363h128l187 -309h-34l187 309h128l-226 -363h-144z" />
    <glyph glyph-name="Dcaron" unicode="&#x10e;" horiz-adv-x="1400" 
d="M519 -12c-37.333 0 -74.333 0.833008 -111 2.5s-74.667 4 -114 7s-81 6.83301 -125 11.5v1447c40 8 81.833 15 125.5 21s87.667 10.5 132 13.5s87.5 4.5 129.5 4.5c244 0 428.167 -61.667 552.5 -185s186.5 -313.333 186.5 -570c0 -174 -29 -316.333 -87 -427
s-144.5 -192.5 -259.5 -245.5s-258.167 -79.5 -429.5 -79.5zM551 127c128.667 0 235.67 20.834 321.003 62.501s149.166 107.667 191.499 198s63.5 208.166 63.5 353.499c0 143.333 -20.833 260.333 -62.5 351s-104.334 157.5 -188.001 200.5s-188.834 64.5 -315.501 64.5
c-36 0 -73.333 -1.66699 -112 -5s-78 -8.33301 -118 -15v-1198c34.667 -4 69.5 -7 104.5 -9s73.5 -3 115.5 -3zM559.003 1608l-245 284h140l196 -234h-34l196 234h140l-245 -284h-148z" />
    <glyph glyph-name="dcaron" unicode="&#x10f;" horiz-adv-x="1129" 
d="M521 -19c-78.667 0 -150.334 17.8311 -215.001 53.498s-116.167 92.834 -154.5 171.501s-57.5 183.334 -57.5 314.001s20.833 239 62.5 325s103.167 150.333 184.5 193s181.333 64 300 64c30.667 0 61.334 -1.33301 92.001 -4s59 -6 85 -10v528h160v-1616h-136l-11 117
h-11c-32 -39.333 -73.5 -71.833 -124.5 -97.5s-109.167 -38.5 -174.5 -38.5zM557 118.998c48.667 0 96.333 10.667 143 32s86 55.333 118 102v699c-24 6 -52 10.667 -84 14s-63.667 5 -95 5c-126 0 -221.167 -34 -285.5 -102s-96.5 -179.667 -96.5 -335
c0 -106.667 12.833 -190.167 38.5 -250.5s61 -102.833 106 -127.5s96.833 -37 155.5 -37zM1068 1180c9.33301 72 15.333 145.833 18 221.5s4 147.167 4 214.5h119c0 -70 -3.83301 -143.333 -11.5 -220s-20.167 -148.667 -37.5 -216h-92z" />
    <glyph glyph-name="Dcroat" unicode="&#x110;" horiz-adv-x="1400" 
d="M3 705v114h659v-114h-659zM519 -12c-37.333 0 -74.333 0.833008 -111 2.5s-74.667 4 -114 7s-81 6.83301 -125 11.5v1447c40 8 81.833 15 125.5 21s87.667 10.5 132 13.5s87.5 4.5 129.5 4.5c244 0 428.167 -61.667 552.5 -185s186.5 -313.333 186.5 -570
c0 -174 -29 -316.333 -87 -427s-144.5 -192.5 -259.5 -245.5s-258.167 -79.5 -429.5 -79.5zM551 127c128.667 0 235.67 20.834 321.003 62.501s149.166 107.667 191.499 198s63.5 208.166 63.5 353.499c0 143.333 -20.833 260.333 -62.5 351s-104.334 157.5 -188.001 200.5
s-188.834 64.5 -315.501 64.5c-36 0 -73.333 -1.66699 -112 -5s-78 -8.33301 -118 -15v-1198c34.667 -4 69.5 -7 104.5 -9s73.5 -3 115.5 -3z" />
    <glyph glyph-name="dcroat" unicode="&#x111;" horiz-adv-x="1129" 
d="M464 1299v112h657v-112h-657zM521 -19c-78.667 0 -150.334 17.8311 -215.001 53.498s-116.167 92.834 -154.5 171.501s-57.5 183.334 -57.5 314.001s20.833 239 62.5 325s103.167 150.333 184.5 193s181.333 64 300 64c30.667 0 61.334 -1.33301 92.001 -4s59 -6 85 -10
v528h160v-1616h-136l-11 117h-11c-32 -39.333 -73.5 -71.833 -124.5 -97.5s-109.167 -38.5 -174.5 -38.5zM557 118.998c48.667 0 96.333 10.667 143 32s86 55.333 118 102v699c-24 6 -52 10.667 -84 14s-63.667 5 -95 5c-126 0 -221.167 -34 -285.5 -102
s-96.5 -179.667 -96.5 -335c0 -106.667 12.833 -190.167 38.5 -250.5s61 -102.833 106 -127.5s96.833 -37 155.5 -37z" />
    <glyph glyph-name="Emacron" unicode="&#x112;" horiz-adv-x="1166" 
d="M169 0v1480h916v-137h-755v-1206h765v-137h-926zM271 691v137h716v-137h-716zM343 1694v108h612v-108h-612z" />
    <glyph glyph-name="emacron" unicode="&#x113;" horiz-adv-x="1030" 
d="M608 -19c-112.667 0 -207.167 19.1689 -283.5 57.502s-133.833 98.666 -172.5 180.999s-58 190.166 -58 323.499c0 127.333 17.833 232.333 53.5 315s86.334 144 152.001 184s143.5 60 233.5 60c88.667 0 164.167 -20.167 226.5 -60.5s109.833 -102 142.5 -185
s49 -188.833 49 -317.5v-49h-770v109h652l-35 -24c0 101.333 -10.5 182 -31.5 242s-51.333 103.167 -91 129.5s-87.834 39.5 -144.501 39.5c-56 0 -104.667 -13 -146 -39s-73.166 -69 -95.499 -129s-33.5 -141 -33.5 -243v-56c0 -100 13.5 -179.833 40.5 -239.5
s67.833 -102.667 122.5 -129s124 -39.5 208 -39.5c41.333 0 84.166 3.83301 128.499 11.5s91.5 18.5 141.5 32.5v-131c-52 -14.667 -101.5 -25.5 -148.5 -32.5s-93.833 -10.5 -140.5 -10.5zM221 1369v107h620v-107h-620z" />
    <glyph glyph-name="Ebreve" unicode="&#x114;" horiz-adv-x="1166" 
d="M169 0v1480h916v-137h-755v-1206h765v-137h-926zM271 691v137h716v-137h-716zM650 1617c-66.667 0 -122.832 10.5 -168.499 31.5s-81 50.5 -106 88.5s-40.167 82.667 -45.5 134h108c8 -52 28.167 -91.5 60.5 -118.5s82.833 -40.5 151.5 -40.5c70 0 120.667 13.5 152 40.5
s50.666 66.5 57.999 118.5h108c-5.33301 -52 -20.333 -97 -45 -135s-59.5 -67.333 -104.5 -88s-101.167 -31 -168.5 -31z" />
    <glyph glyph-name="ebreve" unicode="&#x115;" horiz-adv-x="1030" 
d="M608 -19c-112.667 0 -207.167 19.1689 -283.5 57.502s-133.833 98.666 -172.5 180.999s-58 190.166 -58 323.499c0 127.333 17.833 232.333 53.5 315s86.334 144 152.001 184s143.5 60 233.5 60c88.667 0 164.167 -20.167 226.5 -60.5s109.833 -102 142.5 -185
s49 -188.833 49 -317.5v-49h-770v109h652l-35 -24c0 101.333 -10.5 182 -31.5 242s-51.333 103.167 -91 129.5s-87.834 39.5 -144.501 39.5c-56 0 -104.667 -13 -146 -39s-73.166 -69 -95.499 -129s-33.5 -141 -33.5 -243v-56c0 -100 13.5 -179.833 40.5 -239.5
s67.833 -102.667 122.5 -129s124 -39.5 208 -39.5c41.333 0 84.166 3.83301 128.499 11.5s91.5 18.5 141.5 32.5v-131c-52 -14.667 -101.5 -25.5 -148.5 -32.5s-93.833 -10.5 -140.5 -10.5zM532 1264c-91.333 0 -163 28.333 -215 85s-80.333 137 -85 241h107
c5.33301 -75.333 23.5 -132.666 54.5 -171.999s77.167 -59 138.5 -59c62 0 108.333 19.667 139 59s48 96.666 52 171.999h107c-4 -104.667 -31.667 -185.167 -83 -241.5s-123 -84.5 -215 -84.5z" />
    <glyph glyph-name="Edotaccent" unicode="&#x116;" horiz-adv-x="1166" 
d="M169 0v1480h916v-137h-755v-1206h765v-137h-926zM271 691v137h716v-137h-716zM649 1659c-35.333 0 -62.666 8.33301 -81.999 25s-29 39 -29 67c0 29.333 9.66699 52.333 29 69s46.666 25 81.999 25s62.666 -8.33301 81.999 -25s29 -39.667 29 -69
c0 -28 -9.66699 -50.333 -29 -67s-46.666 -25 -81.999 -25z" />
    <glyph glyph-name="edotaccent" unicode="&#x117;" horiz-adv-x="1030" 
d="M608 -19c-112.667 0 -207.167 19.1689 -283.5 57.502s-133.833 98.666 -172.5 180.999s-58 190.166 -58 323.499c0 127.333 17.833 232.333 53.5 315s86.334 144 152.001 184s143.5 60 233.5 60c88.667 0 164.167 -20.167 226.5 -60.5s109.833 -102 142.5 -185
s49 -188.833 49 -317.5v-49h-770v109h652l-35 -24c0 101.333 -10.5 182 -31.5 242s-51.333 103.167 -91 129.5s-87.834 39.5 -144.501 39.5c-56 0 -104.667 -13 -146 -39s-73.166 -69 -95.499 -129s-33.5 -141 -33.5 -243v-56c0 -100 13.5 -179.833 40.5 -239.5
s67.833 -102.667 122.5 -129s124 -39.5 208 -39.5c41.333 0 84.166 3.83301 128.499 11.5s91.5 18.5 141.5 32.5v-131c-52 -14.667 -101.5 -25.5 -148.5 -32.5s-93.833 -10.5 -140.5 -10.5zM531 1321c-36 0 -63.5 8.83301 -82.5 26.5s-28.5 42.167 -28.5 73.5
c0 32 9.5 57 28.5 75s46.5 27 82.5 27s63.5 -9 82.5 -27s28.5 -43 28.5 -75c0 -31.333 -9.5 -55.833 -28.5 -73.5s-46.5 -26.5 -82.5 -26.5z" />
    <glyph glyph-name="Eogonek" unicode="&#x118;" horiz-adv-x="1166" 
d="M169 0v1480h916v-137h-755v-1206h765v-137h-926zM271 691v137h716v-137h-716zM1020 -415c-76.667 0 -134.998 16.168 -174.998 48.501s-60 77.166 -60 134.499c0 36.667 8.33301 71.5 25 104.5s44.167 64.667 82.5 95s89.833 59.833 154.5 88.5l48 -56
c-54 -25.333 -96.167 -50 -126.5 -74s-51.5 -48.167 -63.5 -72.5s-18 -49.5 -18 -75.5c0 -36.667 12.167 -64.834 36.5 -84.501s61.166 -29.5 110.499 -29.5c24 0 48.5 3 73.5 9s53.833 15.333 86.5 28v-80c-28 -11.333 -56.333 -20.166 -85 -26.499
s-58.334 -9.5 -89.001 -9.5z" />
    <glyph glyph-name="eogonek" unicode="&#x119;" horiz-adv-x="1030" 
d="M740 -415c-69.333 0 -122.668 16.334 -160.001 49.001s-56 77.334 -56 134.001c0 50 14.833 96.167 44.5 138.5s76.5 78.5 140.5 108.5l6 -28c-17.333 -2 -35.166 -3.5 -53.499 -4.5s-36.166 -1.5 -53.499 -1.5c-112.667 0 -207.167 19.167 -283.5 57.5
s-133.833 98.666 -172.5 180.999s-58 190.166 -58 323.499c0 127.333 17.833 232.333 53.5 315s86.334 144 152.001 184s143.5 60 233.5 60c88.667 0 164.167 -20.167 226.5 -60.5s109.833 -102 142.5 -185s49 -188.833 49 -317.5v-49h-770v106h652l-35 -23
c0 101.333 -10.5 182 -31.5 242s-51.333 103 -91 129s-87.834 39 -144.501 39c-56 0 -104.667 -13 -146 -39s-73.166 -69 -95.499 -129s-33.5 -140.667 -33.5 -242v-54c0 -100 13.5 -179.833 40.5 -239.5s67.833 -102.667 122.5 -129s124 -39.5 208 -39.5
c41.333 0 84.166 3.83301 128.499 11.5s91.5 18.5 141.5 32.5v-131c-73.333 -24 -129.5 -49.833 -168.5 -77.5s-65.833 -56 -80.5 -85s-22 -56.833 -22 -83.5c0 -36 11.167 -64 33.5 -84s53.5 -30 93.5 -30c23.333 0 47.166 3.33301 71.499 10s48.5 16.667 72.5 30v-81
c-22 -12 -46.667 -21.333 -74 -28s-55 -10 -83 -10z" />
    <glyph glyph-name="Ecaron" unicode="&#x11a;" horiz-adv-x="1166" 
d="M169 0v1480h916v-137h-755v-1206h765v-137h-926zM271 691v137h716v-137h-716zM575 1608l-245 284h140l196 -234h-34l196 234h140l-245 -284h-148z" />
    <glyph glyph-name="ecaron" unicode="&#x11b;" horiz-adv-x="1030" 
d="M608 -19c-112.667 0 -207.167 19.1689 -283.5 57.502s-133.833 98.666 -172.5 180.999s-58 190.166 -58 323.499c0 127.333 17.833 232.333 53.5 315s86.334 144 152.001 184s143.5 60 233.5 60c88.667 0 164.167 -20.167 226.5 -60.5s109.833 -102 142.5 -185
s49 -188.833 49 -317.5v-49h-770v109h652l-35 -24c0 101.333 -10.5 182 -31.5 242s-51.333 103.167 -91 129.5s-87.834 39.5 -144.501 39.5c-56 0 -104.667 -13 -146 -39s-73.166 -69 -95.499 -129s-33.5 -141 -33.5 -243v-56c0 -100 13.5 -179.833 40.5 -239.5
s67.833 -102.667 122.5 -129s124 -39.5 208 -39.5c41.333 0 84.166 3.83301 128.499 11.5s91.5 18.5 141.5 32.5v-131c-52 -14.667 -101.5 -25.5 -148.5 -32.5s-93.833 -10.5 -140.5 -10.5zM459 1253l-226 363h128l187 -309h-34l187 309h128l-226 -363h-144z" />
    <glyph glyph-name="Gcircumflex" unicode="&#x11c;" horiz-adv-x="1347" 
d="M865 -13c-166.667 0 -306.335 26.335 -419.002 79.002s-197.667 134.167 -255 244.5s-86 252.5 -86 426.5c0 179.333 29.667 325 89 437s143.333 194.167 252 246.5s237 78.5 385 78.5c56 0 111.5 -3.66699 166.5 -11s109.833 -18.333 164.5 -33v-141
c-60 16.667 -116 28.167 -168 34.5s-103.333 9.5 -154 9.5c-117.333 0 -218.166 -20 -302.499 -60s-149.166 -105.333 -194.499 -196s-68 -212.334 -68 -365.001c0 -144.667 21.667 -261.834 65 -351.501s108 -155.167 194 -196.5s193 -62 321 -62c48 0 92.833 2 134.5 6
s80.5 9.33301 116.5 16l-64 -67v638h154v-704c-62.667 -10 -120 -17.333 -172 -22s-105 -7 -159 -7zM424.999 1608l245 284h148l245 -284h-140l-196 233h34l-196 -233h-140z" />
    <glyph glyph-name="gcircumflex" unicode="&#x11d;" horiz-adv-x="1129" 
d="M483 -460c-50 0 -103.5 4.16602 -160.5 12.499s-110.167 20.5 -159.5 36.5v134c56.667 -17.333 110.834 -30.166 162.501 -38.499s101.167 -12.5 148.5 -12.5c117.333 0 204 25.167 260 75.5s84 137.5 84 261.5v106h-9c-32.667 -38 -74.5 -69 -125.5 -93
s-109.167 -36 -174.5 -36c-75.333 0 -144.333 17.5 -207 52.5s-113 91.667 -151 170s-57 182.5 -57 312.5c0 194.667 46.5 340.167 139.5 436.5s229.833 144.5 410.5 144.5c37.333 0 75.5 -2 114.5 -6s77.167 -9.66699 114.5 -17s72.333 -16 105 -26v-1020
c0 -176 -41.333 -302.167 -124 -378.5s-206.334 -114.5 -371.001 -114.5zM556 122.999c48.667 0 96.5 10.333 143.5 31s86.5 52.334 118.5 95.001v700c-24 6 -52.333 11.167 -85 15.5s-66.667 6.5 -102 6.5c-121.333 0 -214 -33.833 -278 -101.5s-96 -178.834 -96 -333.501
c0 -107.333 13 -191 39 -251s61.5 -102 106.5 -126s96.167 -36 153.5 -36zM290 1253l223 363h144l223 -363h-128l-184 308h34l-184 -308h-128z" />
    <glyph glyph-name="Gbreve" unicode="&#x11e;" horiz-adv-x="1347" 
d="M865 -13c-166.667 0 -306.335 26.335 -419.002 79.002s-197.667 134.167 -255 244.5s-86 252.5 -86 426.5c0 179.333 29.667 325 89 437s143.333 194.167 252 246.5s237 78.5 385 78.5c56 0 111.5 -3.66699 166.5 -11s109.833 -18.333 164.5 -33v-141
c-60 16.667 -116 28.167 -168 34.5s-103.333 9.5 -154 9.5c-117.333 0 -218.166 -20 -302.499 -60s-149.166 -105.333 -194.499 -196s-68 -212.334 -68 -365.001c0 -144.667 21.667 -261.834 65 -351.501s108 -155.167 194 -196.5s193 -62 321 -62c48 0 92.833 2 134.5 6
s80.5 9.33301 116.5 16l-64 -67v638h154v-704c-62.667 -10 -120 -17.333 -172 -22s-105 -7 -159 -7zM744.999 1617c-66.667 0 -122.832 10.5 -168.499 31.5s-81 50.5 -106 88.5s-40.167 82.667 -45.5 134h108c8 -52 28.167 -91.5 60.5 -118.5s82.833 -40.5 151.5 -40.5
c70 0 120.667 13.5 152 40.5s50.666 66.5 57.999 118.5h108c-5.33301 -52 -20.333 -97 -45 -135s-59.5 -67.333 -104.5 -88s-101.167 -31 -168.5 -31z" />
    <glyph glyph-name="gbreve" unicode="&#x11f;" horiz-adv-x="1129" 
d="M483 -460c-50 0 -103.5 4.16602 -160.5 12.499s-110.167 20.5 -159.5 36.5v134c56.667 -17.333 110.834 -30.166 162.501 -38.499s101.167 -12.5 148.5 -12.5c117.333 0 204 25.167 260 75.5s84 137.5 84 261.5v106h-9c-32.667 -38 -74.5 -69 -125.5 -93
s-109.167 -36 -174.5 -36c-75.333 0 -144.333 17.5 -207 52.5s-113 91.667 -151 170s-57 182.5 -57 312.5c0 194.667 46.5 340.167 139.5 436.5s229.833 144.5 410.5 144.5c37.333 0 75.5 -2 114.5 -6s77.167 -9.66699 114.5 -17s72.333 -16 105 -26v-1020
c0 -176 -41.333 -302.167 -124 -378.5s-206.334 -114.5 -371.001 -114.5zM556 122.999c48.667 0 96.5 10.333 143.5 31s86.5 52.334 118.5 95.001v700c-24 6 -52.333 11.167 -85 15.5s-66.667 6.5 -102 6.5c-121.333 0 -214 -33.833 -278 -101.5s-96 -178.834 -96 -333.501
c0 -107.333 13 -191 39 -251s61.5 -102 106.5 -126s96.167 -36 153.5 -36zM586 1264c-91.333 0 -163 28.333 -215 85s-80.333 137 -85 241h107c5.33301 -75.333 23.5 -132.666 54.5 -171.999s77.167 -59 138.5 -59c62 0 108.333 19.667 139 59s48 96.666 52 171.999h107
c-4 -104.667 -31.667 -185.167 -83 -241.5s-123 -84.5 -215 -84.5z" />
    <glyph glyph-name="Gdotaccent" unicode="&#x120;" horiz-adv-x="1347" 
d="M865 -13c-166.667 0 -306.335 26.335 -419.002 79.002s-197.667 134.167 -255 244.5s-86 252.5 -86 426.5c0 179.333 29.667 325 89 437s143.333 194.167 252 246.5s237 78.5 385 78.5c56 0 111.5 -3.66699 166.5 -11s109.833 -18.333 164.5 -33v-141
c-60 16.667 -116 28.167 -168 34.5s-103.333 9.5 -154 9.5c-117.333 0 -218.166 -20 -302.499 -60s-149.166 -105.333 -194.499 -196s-68 -212.334 -68 -365.001c0 -144.667 21.667 -261.834 65 -351.501s108 -155.167 194 -196.5s193 -62 321 -62c48 0 92.833 2 134.5 6
s80.5 9.33301 116.5 16l-64 -67v638h154v-704c-62.667 -10 -120 -17.333 -172 -22s-105 -7 -159 -7zM743.999 1659c-35.333 0 -62.666 8.33301 -81.999 25s-29 39 -29 67c0 29.333 9.66699 52.333 29 69s46.666 25 81.999 25s62.666 -8.33301 81.999 -25s29 -39.667 29 -69
c0 -28 -9.66699 -50.333 -29 -67s-46.666 -25 -81.999 -25z" />
    <glyph glyph-name="gdotaccent" unicode="&#x121;" horiz-adv-x="1129" 
d="M483 -460c-50 0 -103.5 4.16602 -160.5 12.499s-110.167 20.5 -159.5 36.5v134c56.667 -17.333 110.834 -30.166 162.501 -38.499s101.167 -12.5 148.5 -12.5c117.333 0 204 25.167 260 75.5s84 137.5 84 261.5v106h-9c-32.667 -38 -74.5 -69 -125.5 -93
s-109.167 -36 -174.5 -36c-75.333 0 -144.333 17.5 -207 52.5s-113 91.667 -151 170s-57 182.5 -57 312.5c0 194.667 46.5 340.167 139.5 436.5s229.833 144.5 410.5 144.5c37.333 0 75.5 -2 114.5 -6s77.167 -9.66699 114.5 -17s72.333 -16 105 -26v-1020
c0 -176 -41.333 -302.167 -124 -378.5s-206.334 -114.5 -371.001 -114.5zM556 122.999c48.667 0 96.5 10.333 143.5 31s86.5 52.334 118.5 95.001v700c-24 6 -52.333 11.167 -85 15.5s-66.667 6.5 -102 6.5c-121.333 0 -214 -33.833 -278 -101.5s-96 -178.834 -96 -333.501
c0 -107.333 13 -191 39 -251s61.5 -102 106.5 -126s96.167 -36 153.5 -36zM585 1321c-36 0 -63.5 8.83301 -82.5 26.5s-28.5 42.167 -28.5 73.5c0 32 9.5 57 28.5 75s46.5 27 82.5 27s63.5 -9 82.5 -27s28.5 -43 28.5 -75c0 -31.333 -9.5 -55.833 -28.5 -73.5
s-46.5 -26.5 -82.5 -26.5z" />
    <glyph glyph-name="uni0122" unicode="&#x122;" horiz-adv-x="1347" 
d="M865 -13c-166.667 0 -306.335 26.335 -419.002 79.002s-197.667 134.167 -255 244.5s-86 252.5 -86 426.5c0 179.333 29.667 325 89 437s143.333 194.167 252 246.5s237 78.5 385 78.5c56 0 111.5 -3.66699 166.5 -11s109.833 -18.333 164.5 -33v-141
c-60 16.667 -116 28.167 -168 34.5s-103.333 9.5 -154 9.5c-117.333 0 -218.166 -20 -302.499 -60s-149.166 -105.333 -194.499 -196s-68 -212.334 -68 -365.001c0 -144.667 21.667 -261.834 65 -351.501s108 -155.167 194 -196.5s193 -62 321 -62c48 0 92.833 2 134.5 6
s80.5 9.33301 116.5 16l-64 -67v638h154v-704c-62.667 -10 -120 -17.333 -172 -22s-105 -7 -159 -7zM691.999 -465.998c17.333 38.667 29.0039 72.168 35.0039 100.501s9 56.166 9 83.499l24 -44h-16c-34.667 0 -60.834 7.66699 -78.501 23s-26.5 35 -26.5 59
s8.66699 43.5 26 58.5s42.666 22.5 75.999 22.5c35.333 0 62.166 -9.16699 80.499 -27.5s27.5 -45.833 27.5 -82.5c0 -28 -4.83301 -59.5 -14.5 -94.5s-23.834 -67.833 -42.501 -98.5h-100z" />
    <glyph glyph-name="uni0123" unicode="&#x123;" horiz-adv-x="1129" 
d="M483 -460c-50 0 -103.5 4.16602 -160.5 12.499s-110.167 20.5 -159.5 36.5v134c56.667 -17.333 110.834 -30.166 162.501 -38.499s101.167 -12.5 148.5 -12.5c117.333 0 204 25.167 260 75.5s84 137.5 84 261.5v106h-9c-32.667 -38 -74.5 -69 -125.5 -93
s-109.167 -36 -174.5 -36c-75.333 0 -144.333 17.5 -207 52.5s-113 91.667 -151 170s-57 182.5 -57 312.5c0 194.667 46.5 340.167 139.5 436.5s229.833 144.5 410.5 144.5c37.333 0 75.5 -2 114.5 -6s77.167 -9.66699 114.5 -17s72.333 -16 105 -26v-1020
c0 -176 -41.333 -302.167 -124 -378.5s-206.334 -114.5 -371.001 -114.5zM556 122.999c48.667 0 96.5 10.333 143.5 31s86.5 52.334 118.5 95.001v700c-24 6 -52.333 11.167 -85 15.5s-66.667 6.5 -102 6.5c-121.333 0 -214 -33.833 -278 -101.5s-96 -178.834 -96 -333.501
c0 -107.333 13 -191 39 -251s61.5 -102 106.5 -126s96.167 -36 153.5 -36zM588 1322c-35.333 0 -62.1689 9.33301 -80.502 28s-27.5 45.667 -27.5 81c0 28.667 5 60.5 15 95.5s24 67.833 42 98.5h100c-17.333 -39.333 -29 -73 -35 -101s-9 -55.667 -9 -83l-24 43h16
c34.667 0 60.834 -7.33301 78.501 -22s26.5 -34.667 26.5 -60c0 -24 -8.66699 -43.333 -26 -58s-42.666 -22 -75.999 -22z" />
    <glyph glyph-name="Hcircumflex" unicode="&#x124;" horiz-adv-x="1445" 
d="M169 0v1480h162v-647h782v647h163v-1480h-163v686h-782v-686h-162zM404 1608l245 284h148l245 -284h-140l-196 233h34l-196 -233h-140z" />
    <glyph glyph-name="hcircumflex" unicode="&#x125;" horiz-adv-x="1137" 
d="M151 0l0.000976562 1616h160v-652h9c44 46 94.667 80.5 152 103.5s118.333 34.5 183 34.5c66 0 124.833 -12.5 176.5 -37.5s92.167 -65.5 121.5 -121.5s44 -131 44 -225v-718h-159v711c0 93.333 -20.833 157.833 -62.5 193.5s-96.834 53.5 -165.501 53.5
c-33.333 0 -68 -4.83301 -104 -14.5s-71 -25 -105 -46s-64 -48.833 -90 -83.5v-814h-160zM256.001 1704l245 284h148l245 -284h-140l-196 233h34l-196 -233h-140z" />
    <glyph glyph-name="Hbar" unicode="&#x126;" horiz-adv-x="1445" 
d="M3 1103v111h1439v-111h-1439zM169 0v1480h162v-647h782v647h163v-1480h-163v686h-782v-686h-162z" />
    <glyph glyph-name="hbar" unicode="&#x127;" horiz-adv-x="1137" 
d="M8 1299v111h657v-111h-657zM151 0l0.000976562 1616h160v-652h9c44 46 94.667 80.5 152 103.5s118.333 34.5 183 34.5c66 0 124.833 -12.5 176.5 -37.5s92.167 -65.5 121.5 -121.5s44 -131 44 -225v-718h-159v711c0 93.333 -20.833 157.833 -62.5 193.5
s-96.834 53.5 -165.501 53.5c-33.333 0 -68 -4.83301 -104 -14.5s-71 -25 -105 -46s-64 -48.833 -90 -83.5v-814h-160z" />
    <glyph glyph-name="Itilde" unicode="&#x128;" horiz-adv-x="501" 
d="M169 0v1480h162v-1480h-162zM404 1668c-31.333 0 -60.833 4.33203 -88.5 12.999s-54.5 18 -80.5 28c-24 9.33301 -47.5 17.5 -70.5 24.5s-46.5 10.5 -70.5 10.5c-36 0 -67.333 -5.66699 -94 -17s-52.667 -29 -78 -53v109c21.333 22 46 38.5 74 49.5s61.333 16.5 100 16.5
c31.333 0 61 -4.33301 89 -13s54.667 -18 80 -28c24 -9.33301 47.5 -17.666 70.5 -24.999s46.5 -11 70.5 -11c36 0 67.5 5.83301 94.5 17.5s52.833 29.5 77.5 53.5v-110c-20.667 -21.333 -45.167 -37.5 -73.5 -48.5s-61.833 -16.5 -100.5 -16.5z" />
    <glyph glyph-name="itilde" unicode="&#x129;" horiz-adv-x="463" 
d="M151 0v1085h160v-1085h-160zM374 1345c-29.333 0 -57 4.83301 -83 14.5s-51 19.5 -75 29.5c-22.667 10 -44.5 18.833 -65.5 26.5s-42.5 11.5 -64.5 11.5c-32 0 -61.167 -6.16699 -87.5 -18.5s-52.166 -31.5 -77.499 -57.5v116c42 44.667 97.667 67 167 67
c29.333 0 57 -4.83301 83 -14.5s51 -19.5 75 -29.5c22.667 -10 44.667 -18.833 66 -26.5s42.666 -11.5 63.999 -11.5c32.667 0 62.167 6.16699 88.5 18.5s51.833 31.5 76.5 57.5v-116c-42 -44.667 -97.667 -67 -167 -67z" />
    <glyph glyph-name="Imacron" unicode="&#x12a;" horiz-adv-x="501" 
d="M169 0v1480h162v-1480h-162zM-56 1694v108h612v-108h-612z" />
    <glyph glyph-name="imacron" unicode="&#x12b;" horiz-adv-x="463" 
d="M151 0v1085h160v-1085h-160zM-79 1369v107h620v-107h-620z" />
    <glyph glyph-name="Ibreve" unicode="&#x12c;" horiz-adv-x="501" 
d="M169 0v1480h162v-1480h-162zM251 1617c-66.667 0 -122.832 10.5 -168.499 31.5s-81 50.5 -106 88.5s-40.167 82.667 -45.5 134h108c8 -52 28.167 -91.5 60.5 -118.5s82.833 -40.5 151.5 -40.5c70 0 120.667 13.5 152 40.5s50.666 66.5 57.999 118.5h108
c-5.33301 -52 -20.333 -97 -45 -135s-59.5 -67.333 -104.5 -88s-101.167 -31 -168.5 -31z" />
    <glyph glyph-name="ibreve" unicode="&#x12d;" horiz-adv-x="463" 
d="M151 0v1085h160v-1085h-160zM232 1264c-91.333 0 -163 28.333 -215 85s-80.333 137 -85 241h107c5.33301 -75.333 23.5 -132.666 54.5 -171.999s77.167 -59 138.5 -59c62 0 108.333 19.667 139 59s48 96.666 52 171.999h107c-4 -104.667 -31.667 -185.167 -83 -241.5
s-123 -84.5 -215 -84.5z" />
    <glyph glyph-name="Iogonek" unicode="&#x12e;" horiz-adv-x="501" 
d="M169 0v1480h162v-1480h-162zM256 -415c-76.667 0 -134.998 16.168 -174.998 48.501s-60 77.166 -60 134.499c0 36.667 8.33301 71.5 25 104.5s44.167 64.667 82.5 95s89.833 59.833 154.5 88.5l48 -56c-54 -25.333 -96.167 -50 -126.5 -74s-51.5 -48.167 -63.5 -72.5
s-18 -49.5 -18 -75.5c0 -36.667 12.167 -64.834 36.5 -84.501s61.166 -29.5 110.499 -29.5c24 0 48.5 3 73.5 9s53.833 15.333 86.5 28v-80c-28 -11.333 -56.333 -20.166 -85 -26.499s-58.334 -9.5 -89.001 -9.5z" />
    <glyph glyph-name="iogonek" unicode="&#x12f;" horiz-adv-x="463" 
d="M151 0v1085h160v-1085h-160zM231 1321c-36 0 -63.5 8.83301 -82.5 26.5s-28.5 42.167 -28.5 73.5c0 32 9.5 57 28.5 75s46.5 27 82.5 27s63.5 -9 82.5 -27s28.5 -43 28.5 -75c0 -31.333 -9.5 -55.833 -28.5 -73.5s-46.5 -26.5 -82.5 -26.5zM236 -415
c-68.667 0 -121.667 16.334 -159 49.001s-56 77.334 -56 134.001c0 37.333 8 72.5 24 105.5s41.667 64.667 77 95s82.333 59.5 141 87.5l48 -56c-46 -24.667 -82.833 -48.834 -110.5 -72.501s-47.5 -47.834 -59.5 -72.501s-18 -50.667 -18 -78
c0 -35.333 11.167 -63 33.5 -83s53.5 -30 93.5 -30c23.333 0 47 3.33301 71 10s48.333 16.667 73 30v-81c-22.667 -12 -47.5 -21.333 -74.5 -28s-54.833 -10 -83.5 -10z" />
    <glyph glyph-name="Idotaccent" unicode="&#x130;" horiz-adv-x="501" 
d="M169 0v1480h162v-1480h-162zM250 1659c-35.333 0 -62.666 8.33301 -81.999 25s-29 39 -29 67c0 29.333 9.66699 52.333 29 69s46.666 25 81.999 25s62.666 -8.33301 81.999 -25s29 -39.667 29 -69c0 -28 -9.66699 -50.333 -29 -67s-46.666 -25 -81.999 -25z" />
    <glyph glyph-name="dotlessi" unicode="&#x131;" horiz-adv-x="463" 
d="M151 0v1085h160v-1085h-160z" />
    <glyph glyph-name="Jcircumflex" unicode="&#x134;" horiz-adv-x="501" 
d="M98 -344l-107 73c42 58 76.167 114.5 102.5 169.5s45.666 113.833 57.999 176.5s18.5 134.667 18.5 216v1189h161v-1210c0 -81.333 -7.83301 -155.5 -23.5 -222.5s-40.667 -132 -75 -195s-79.166 -128.5 -134.499 -196.5zM-68 1608l245 284h148l245 -284h-140l-196 233
h34l-196 -233h-140z" />
    <glyph glyph-name="jcircumflex" unicode="&#x135;" horiz-adv-x="463" 
d="M79 -464l-106 72c42 58 76.167 115.333 102.5 172s45.5 116.5 57.5 179.5s18 133.167 18 210.5v915h160v-906c0 -86 -7.83301 -164.833 -23.5 -236.5s-40.5 -140.5 -74.5 -206.5s-78.667 -132.667 -134 -200zM-65 1257l223 363h144l223 -363h-128l-184 308h34l-184 -308
h-128z" />
    <glyph glyph-name="uni0136" unicode="&#x136;" horiz-adv-x="1237" 
d="M1077 0l-583 756l546 724h178l-561 -742l2 46l601 -784h-183zM169 0v1480h162v-1480h-162zM305 686v146h264v-146h-264zM594 -466c17.333 38.667 29.0039 72.168 35.0039 100.501s9 56.166 9 83.499l24 -44h-16c-34.667 0 -60.834 7.66699 -78.501 23s-26.5 35 -26.5 59
s8.66699 43.5 26 58.5s42.666 22.5 75.999 22.5c35.333 0 62.166 -9.16699 80.499 -27.5s27.5 -45.833 27.5 -82.5c0 -28 -4.83301 -59.5 -14.5 -94.5s-23.834 -67.833 -42.501 -98.5h-100z" />
    <glyph glyph-name="uni0137" unicode="&#x137;" horiz-adv-x="1038" 
d="M879 0l-436 556l406 529h178l-417 -549v44l450 -580h-181zM291 489v134h221v-134h-221zM151 0v1616h160v-1616h-160zM505 -466c17.333 38.667 29.0039 72.168 35.0039 100.501s9 56.166 9 83.499l24 -44h-16c-34.667 0 -60.834 7.66699 -78.501 23s-26.5 35 -26.5 59
s8.66699 43.5 26 58.5s42.666 22.5 75.999 22.5c35.333 0 62.166 -9.16699 80.499 -27.5s27.5 -45.833 27.5 -82.5c0 -28 -4.83301 -59.5 -14.5 -94.5s-23.834 -67.833 -42.501 -98.5h-100z" />
    <glyph glyph-name="kgreenlandic" unicode="&#x138;" horiz-adv-x="1038" 
d="M879 0l-436 556l406 529h178l-417 -549v44l450 -580h-181zM151 0v1085h160v-1085h-160zM291 489v134h221v-134h-221z" />
    <glyph glyph-name="Lacute" unicode="&#x139;" horiz-adv-x="1071" 
d="M169 0v1480h162v-1339h729v-141h-891zM178 1608l177 284h173l-205 -284h-145z" />
    <glyph glyph-name="lacute" unicode="&#x13a;" horiz-adv-x="462" 
d="M151 0v1616h160v-1616h-160zM158 1704l177 284h173l-205 -284h-145z" />
    <glyph glyph-name="uni013B" unicode="&#x13b;" horiz-adv-x="1071" 
d="M169 0v1480h162v-1339h729v-141h-891zM563 -466c17.333 38.667 29.0039 72.168 35.0039 100.501s9 56.166 9 83.499l24 -44h-16c-34.667 0 -60.834 7.66699 -78.501 23s-26.5 35 -26.5 59s8.66699 43.5 26 58.5s42.666 22.5 75.999 22.5
c35.333 0 62.166 -9.16699 80.499 -27.5s27.5 -45.833 27.5 -82.5c0 -28 -4.83301 -59.5 -14.5 -94.5s-23.834 -67.833 -42.501 -98.5h-100z" />
    <glyph glyph-name="uni013C" unicode="&#x13c;" horiz-adv-x="462" 
d="M151 0v1616h160v-1616h-160zM179 -466c17.333 38.667 29.0039 72.168 35.0039 100.501s9 56.166 9 83.499l24 -44h-16c-34.667 0 -60.834 7.66699 -78.501 23s-26.5 35 -26.5 59s8.66699 43.5 26 58.5s42.666 22.5 75.999 22.5c35.333 0 62.166 -9.16699 80.499 -27.5
s27.5 -45.833 27.5 -82.5c0 -28 -4.83301 -59.5 -14.5 -94.5s-23.834 -67.833 -42.501 -98.5h-100z" />
    <glyph glyph-name="Lcaron" unicode="&#x13d;" horiz-adv-x="1071" 
d="M169 0v1480h162v-1339h729v-141h-891zM677 1140c6 48 10.668 97.5 14.001 148.5s5.5 103.833 6.5 158.5s1.5 111 1.5 169h119c0 -90 -3.83301 -175 -11.5 -255s-19.834 -153.667 -36.501 -221h-93z" />
    <glyph glyph-name="lcaron" unicode="&#x13e;" horiz-adv-x="462" 
d="M151 0v1616h160v-1616h-160zM401 1180c9.33301 72 15.333 145.833 18 221.5s4 147.167 4 214.5h119c0 -70 -3.83301 -143.333 -11.5 -220s-20.167 -148.667 -37.5 -216h-92z" />
    <glyph glyph-name="Ldot" unicode="&#x13f;" horiz-adv-x="1071" 
d="M169 0v1480h162v-1339h729v-141h-891zM776 708c-36 0 -63.5 8.83301 -82.5 26.5s-28.5 42.167 -28.5 73.5s9.5 56 28.5 74s46.5 27 82.5 27c36.667 0 64.5 -9 83.5 -27s28.5 -42.667 28.5 -74s-9.5 -55.833 -28.5 -73.5s-46.833 -26.5 -83.5 -26.5z" />
    <glyph glyph-name="ldot" unicode="&#x140;" horiz-adv-x="575" 
d="M151 0v1616h160v-1616h-160zM510 692c-36 0 -63.5 9 -82.5 27s-28.5 42.667 -28.5 74s9.5 56 28.5 74s46.5 27 82.5 27s63.667 -9 83 -27s29 -42.667 29 -74s-9.66699 -56 -29 -74s-47 -27 -83 -27z" />
    <glyph glyph-name="Lslash" unicode="&#x141;" horiz-adv-x="1076" 
d="M7 539v138l622 455v-138zM174 0v1480h162v-1339h728v-141h-890z" />
    <glyph glyph-name="lslash" unicode="&#x142;" horiz-adv-x="486" 
d="M24 492v133l433 310v-133zM163 0v1616h160v-1616h-160z" />
    <glyph glyph-name="Nacute" unicode="&#x143;" horiz-adv-x="1469" 
d="M169 0v1480h167l851 -1294h-40v1294h153v-1480h-167l-850 1294h40v-1294h-154zM662 1608l177 284h173l-205 -284h-145z" />
    <glyph glyph-name="nacute" unicode="&#x144;" horiz-adv-x="1137" 
d="M151 0v1085h135l11 -122h11c44 44.667 95.333 79 154 103s121 36 187 36c68 0 128.167 -12.5 180.5 -37.5s93.333 -65.667 123 -122s44.5 -131.5 44.5 -225.5v-717h-159v710c0 93.333 -20.5 158.166 -61.5 194.499s-96.5 54.5 -166.5 54.5c-32 0 -66 -4.66699 -102 -14
s-71.167 -24.666 -105.5 -45.999s-64.833 -49.666 -91.5 -84.999v-814h-160zM501 1253l215 363h173l-240 -363h-148z" />
    <glyph glyph-name="uni0145" unicode="&#x145;" horiz-adv-x="1469" 
d="M169 0v1480h167l851 -1294h-40v1294h153v-1480h-167l-850 1294h40v-1294h-154zM683 -466c17.333 38.667 29.0039 72.168 35.0039 100.501s9 56.166 9 83.499l24 -44h-16c-34.667 0 -60.834 7.66699 -78.501 23s-26.5 35 -26.5 59s8.66699 43.5 26 58.5
s42.666 22.5 75.999 22.5c35.333 0 62.166 -9.16699 80.499 -27.5s27.5 -45.833 27.5 -82.5c0 -28 -4.83301 -59.5 -14.5 -94.5s-23.834 -67.833 -42.501 -98.5h-100z" />
    <glyph glyph-name="uni0146" unicode="&#x146;" horiz-adv-x="1137" 
d="M151 0v1085h135l11 -122h11c44 44.667 95.333 79 154 103s121 36 187 36c68 0 128.167 -12.5 180.5 -37.5s93.333 -65.667 123 -122s44.5 -131.5 44.5 -225.5v-717h-159v710c0 93.333 -20.5 158.166 -61.5 194.499s-96.5 54.5 -166.5 54.5c-32 0 -66 -4.66699 -102 -14
s-71.167 -24.666 -105.5 -45.999s-64.833 -49.666 -91.5 -84.999v-814h-160zM523 -466.001c17.333 38.667 29.0039 72.168 35.0039 100.501s9 56.166 9 83.499l24 -44h-16c-34.667 0 -60.834 7.66699 -78.501 23s-26.5 35 -26.5 59s8.66699 43.5 26 58.5
s42.666 22.5 75.999 22.5c35.333 0 62.166 -9.16699 80.499 -27.5s27.5 -45.833 27.5 -82.5c0 -28 -4.83301 -59.5 -14.5 -94.5s-23.834 -67.833 -42.501 -98.5h-100z" />
    <glyph glyph-name="Ncaron" unicode="&#x147;" horiz-adv-x="1469" 
d="M169 0v1480h167l851 -1294h-40v1294h153v-1480h-167l-850 1294h40v-1294h-154zM661 1608l-245 284h140l196 -234h-34l196 234h140l-245 -284h-148z" />
    <glyph glyph-name="ncaron" unicode="&#x148;" horiz-adv-x="1137" 
d="M151 0v1085h135l11 -122h11c44 44.667 95.333 79 154 103s121 36 187 36c68 0 128.167 -12.5 180.5 -37.5s93.333 -65.667 123 -122s44.5 -131.5 44.5 -225.5v-717h-159v710c0 93.333 -20.5 158.166 -61.5 194.499s-96.5 54.5 -166.5 54.5c-32 0 -66 -4.66699 -102 -14
s-71.167 -24.666 -105.5 -45.999s-64.833 -49.666 -91.5 -84.999v-814h-160zM503 1253l-226 363h128l187 -309h-34l187 309h128l-226 -363h-144z" />
    <glyph glyph-name="napostrophe" unicode="&#x149;" horiz-adv-x="1137" 
d="M151 0v1085h135l11 -122h11c44 44.667 95.333 79 154 103s121 36 187 36c68 0 128.167 -12.5 180.5 -37.5s93.333 -65.667 123 -122s44.5 -131.5 44.5 -225.5v-717h-159v710c0 93.333 -20.5 158.166 -61.5 194.499s-96.5 54.5 -166.5 54.5c-32 0 -66 -4.66699 -102 -14
s-71.167 -24.666 -105.5 -45.999s-64.833 -49.666 -91.5 -84.999v-814h-160zM66 1322c17.333 38.667 28.835 72.168 34.502 100.501s8.5 56.166 8.5 83.499l25 -44h-16c-34.667 0 -60.834 7.5 -78.501 22.5s-26.5 34.833 -26.5 59.5c0 24 8.66699 43.5 26 58.5
s42.666 22.5 75.999 22.5c35.333 0 62 -9.16699 80 -27.5s27 -45.833 27 -82.5c0 -28 -4.83301 -59.5 -14.5 -94.5s-23.5 -67.833 -41.5 -98.5h-100z" />
    <glyph glyph-name="Eng" unicode="&#x14a;" horiz-adv-x="1469" 
d="M1163 -48l-881 1342h41v-1294h-154v1480h167l870 -1321zM1068 -464l-106 71.999c42.667 58 77.667 115.333 105 172s47.5 116.5 60.5 179.5s19.5 133.167 19.5 210.5v1310h153v-1291c0 -89.333 -7.83301 -170.5 -23.5 -243.5s-40.667 -142.667 -75 -209
s-78.833 -133.166 -133.5 -200.499z" />
    <glyph glyph-name="eng" unicode="&#x14b;" horiz-adv-x="1137" 
d="M766 -464l-106.997 72c42.667 58 77 115.333 103 172s45.167 116.5 57.5 179.5s18.5 133.167 18.5 210.5v542c0 93.333 -20.833 158 -62.5 194s-96.834 54 -165.501 54c-33.333 0 -68 -4.83301 -104 -14.5s-71 -25.167 -105 -46.5s-64 -49.333 -90 -84v-815h-160v1085
h135l11 -122h11c45.333 46 97.166 80.667 155.499 104s120.166 35 185.499 35c68 0 128.167 -12.5 180.5 -37.5s93.333 -65.5 123 -121.5s44.5 -131 44.5 -225v-569c0 -78.667 -7.83301 -151.667 -23.5 -219s-40.5 -133 -74.5 -197s-78.333 -129.667 -133 -197z" />
    <glyph glyph-name="Omacron" unicode="&#x14c;" horiz-adv-x="1439" 
d="M720 -19c-123.333 0 -231 26.167 -323 78.5s-163.667 134.333 -215 246s-77 256.5 -77 434.5s25.667 322.833 77 434.5s123.166 193.667 215.499 246s199.833 78.5 322.5 78.5s230 -26.167 322 -78.5s163.667 -134.333 215 -246s77 -256.5 77 -434.5
s-25.667 -322.833 -77 -434.5s-123.166 -193.667 -215.499 -246s-199.5 -78.5 -321.5 -78.5zM720 120c89.333 0 167.5 19.833 234.5 59.5s119 104.5 156 194.5s55.5 210.333 55.5 361c0 154 -18.5 276.667 -55.5 368s-89 157 -156 197s-145.167 60 -234.5 60
c-90 0 -168.5 -19.667 -235.5 -59s-119 -104 -156 -194s-55.5 -210.667 -55.5 -362c0 -154.667 18.5 -277.5 55.5 -368.5s89 -156.5 156 -196.5s145.5 -60 235.5 -60zM414 1694v108h612v-108h-612z" />
    <glyph glyph-name="omacron" unicode="&#x14d;" horiz-adv-x="1112" 
d="M556 -19c-93.333 0 -174.667 19.501 -244 58.501s-123 99.667 -161 182s-57 189.166 -57 320.499c0 130 18.833 236.333 56.5 319s91.167 143.5 160.5 182.5s151 58.5 245 58.5s175.667 -19.5 245 -58.5s122.833 -99.667 160.5 -182s56.5 -188.833 56.5 -319.5
c0 -130 -19.167 -236.333 -57.5 -319s-92 -143.667 -161 -183s-150.167 -59 -243.5 -59zM555.999 111.001c61.333 0 114.333 13.332 159 39.999s79.167 71.167 103.5 133.5s36.5 147.166 36.5 254.499c0 109.333 -12.167 195.5 -36.5 258.5s-59 107.667 -104 134
s-97.833 39.5 -158.5 39.5c-61.333 0 -114.333 -13.167 -159 -39.5s-79.167 -70.666 -103.5 -132.999s-36.5 -147.166 -36.5 -254.499c0 -108.667 12.167 -194.5 36.5 -257.5s58.833 -108 103.5 -135s97.667 -40.5 159 -40.5zM245.999 1369v107h620v-107h-620z" />
    <glyph glyph-name="Obreve" unicode="&#x14e;" horiz-adv-x="1439" 
d="M720 -19c-123.333 0 -231 26.167 -323 78.5s-163.667 134.333 -215 246s-77 256.5 -77 434.5s25.667 322.833 77 434.5s123.166 193.667 215.499 246s199.833 78.5 322.5 78.5s230 -26.167 322 -78.5s163.667 -134.333 215 -246s77 -256.5 77 -434.5
s-25.667 -322.833 -77 -434.5s-123.166 -193.667 -215.499 -246s-199.5 -78.5 -321.5 -78.5zM720 120c89.333 0 167.5 19.833 234.5 59.5s119 104.5 156 194.5s55.5 210.333 55.5 361c0 154 -18.5 276.667 -55.5 368s-89 157 -156 197s-145.167 60 -234.5 60
c-90 0 -168.5 -19.667 -235.5 -59s-119 -104 -156 -194s-55.5 -210.667 -55.5 -362c0 -154.667 18.5 -277.5 55.5 -368.5s89 -156.5 156 -196.5s145.5 -60 235.5 -60zM721 1617c-66.667 0 -122.832 10.5 -168.499 31.5s-81 50.5 -106 88.5s-40.167 82.667 -45.5 134h108
c8 -52 28.167 -91.5 60.5 -118.5s82.833 -40.5 151.5 -40.5c70 0 120.667 13.5 152 40.5s50.666 66.5 57.999 118.5h108c-5.33301 -52 -20.333 -97 -45 -135s-59.5 -67.333 -104.5 -88s-101.167 -31 -168.5 -31z" />
    <glyph glyph-name="obreve" unicode="&#x14f;" horiz-adv-x="1112" 
d="M556 -19c-93.333 0 -174.667 19.501 -244 58.501s-123 99.667 -161 182s-57 189.166 -57 320.499c0 130 18.833 236.333 56.5 319s91.167 143.5 160.5 182.5s151 58.5 245 58.5s175.667 -19.5 245 -58.5s122.833 -99.667 160.5 -182s56.5 -188.833 56.5 -319.5
c0 -130 -19.167 -236.333 -57.5 -319s-92 -143.667 -161 -183s-150.167 -59 -243.5 -59zM555.999 111.001c61.333 0 114.333 13.332 159 39.999s79.167 71.167 103.5 133.5s36.5 147.166 36.5 254.499c0 109.333 -12.167 195.5 -36.5 258.5s-59 107.667 -104 134
s-97.833 39.5 -158.5 39.5c-61.333 0 -114.333 -13.167 -159 -39.5s-79.167 -70.666 -103.5 -132.999s-36.5 -147.166 -36.5 -254.499c0 -108.667 12.167 -194.5 36.5 -257.5s58.833 -108 103.5 -135s97.667 -40.5 159 -40.5zM556.999 1264c-91.333 0 -163 28.333 -215 85
s-80.333 137 -85 241h107c5.33301 -75.333 23.5 -132.666 54.5 -171.999s77.167 -59 138.5 -59c62 0 108.333 19.667 139 59s48 96.666 52 171.999h107c-4 -104.667 -31.667 -185.167 -83 -241.5s-123 -84.5 -215 -84.5z" />
    <glyph glyph-name="Ohungarumlaut" unicode="&#x150;" horiz-adv-x="1439" 
d="M720 -19c-123.333 0 -231 26.167 -323 78.5s-163.667 134.333 -215 246s-77 256.5 -77 434.5s25.667 322.833 77 434.5s123.166 193.667 215.499 246s199.833 78.5 322.5 78.5s230 -26.167 322 -78.5s163.667 -134.333 215 -246s77 -256.5 77 -434.5
s-25.667 -322.833 -77 -434.5s-123.166 -193.667 -215.499 -246s-199.5 -78.5 -321.5 -78.5zM720 120c89.333 0 167.5 19.833 234.5 59.5s119 104.5 156 194.5s55.5 210.333 55.5 361c0 154 -18.5 276.667 -55.5 368s-89 157 -156 197s-145.167 60 -234.5 60
c-90 0 -168.5 -19.667 -235.5 -59s-119 -104 -156 -194s-55.5 -210.667 -55.5 -362c0 -154.667 18.5 -277.5 55.5 -368.5s89 -156.5 156 -196.5s145.5 -60 235.5 -60zM825 1608l128 284h136l-139 -284h-125zM490 1608l128 284h135l-138 -284h-125z" />
    <glyph glyph-name="ohungarumlaut" unicode="&#x151;" horiz-adv-x="1112" 
d="M556 -19c-93.333 0 -174.667 19.501 -244 58.501s-123 99.667 -161 182s-57 189.166 -57 320.499c0 130 18.833 236.333 56.5 319s91.167 143.5 160.5 182.5s151 58.5 245 58.5s175.667 -19.5 245 -58.5s122.833 -99.667 160.5 -182s56.5 -188.833 56.5 -319.5
c0 -130 -19.167 -236.333 -57.5 -319s-92 -143.667 -161 -183s-150.167 -59 -243.5 -59zM555.999 111.001c61.333 0 114.333 13.332 159 39.999s79.167 71.167 103.5 133.5s36.5 147.166 36.5 254.499c0 109.333 -12.167 195.5 -36.5 258.5s-59 107.667 -104 134
s-97.833 39.5 -158.5 39.5c-61.333 0 -114.333 -13.167 -159 -39.5s-79.167 -70.666 -103.5 -132.999s-36.5 -147.166 -36.5 -254.499c0 -108.667 12.167 -194.5 36.5 -257.5s58.833 -108 103.5 -135s97.667 -40.5 159 -40.5zM660.999 1253l139 363h134l-150 -363h-123z
M327.999 1253l139 363h134l-150 -363h-123z" />
    <glyph glyph-name="OE" unicode="&#x152;" horiz-adv-x="2008" 
d="M859 -11c-165.333 0 -303.832 26.501 -415.499 79.501s-196 134.833 -253 245.5s-85.5 252.667 -85.5 426c0 170.667 28.333 311.667 85 423s140 194.166 250 248.499s245.333 81.5 406 81.5c54.667 0 108.5 -2.16699 161.5 -6.5s102.167 -6.5 147.5 -6.5h771v-137h-723
v-1206h733v-137h-772c-28.667 0 -59.834 -0.833008 -93.501 -2.5s-68.5 -3.5 -104.5 -5.5s-71.667 -3 -107 -3zM834.001 128.001c42 0 80.167 0.667969 114.5 2.00098s65.833 3.66602 94.5 6.99902v1206c-36 4 -71.5 7 -106.5 9s-71.833 3 -110.5 3
c-122.667 0 -225 -21.5 -307 -64.5s-143.5 -109.667 -184.5 -200s-61.5 -207.5 -61.5 -351.5s21.167 -261 63.5 -351s105 -155.833 188 -197.5s186.167 -62.5 309.5 -62.5zM1152 691.002v137h677v-137h-677z" />
    <glyph glyph-name="oe" unicode="&#x153;" horiz-adv-x="1777" 
d="M548 -19c-90.667 0 -169.997 19.501 -237.997 58.501s-121 99.667 -159 182s-57 189.166 -57 320.499c0 130 18.667 236.333 56 319s90.166 143.5 158.499 182.5s148.166 58.5 239.499 58.5c92 0 170.667 -20 236 -60s115.333 -101.333 150 -184s52 -188 52 -316
s-17.5 -233.333 -52.5 -316s-85.333 -144.167 -151 -184.5s-143.834 -60.5 -234.501 -60.5zM553.003 111.001c60 0 112.166 13.332 156.499 39.999s78.666 71.167 102.999 133.5s36.5 147.166 36.5 254.499c0 109.333 -12.167 195.5 -36.5 258.5
s-58.666 107.667 -102.999 134s-96.5 39.5 -156.5 39.5s-112.167 -13.167 -156.5 -39.5s-78.666 -70.666 -102.999 -132.999s-36.5 -147.166 -36.5 -254.499c0 -108.667 12.167 -194.5 36.5 -257.5s58.5 -108 102.5 -135s96.333 -40.5 157 -40.5zM1359 -19
c-111.333 0 -203.667 19.501 -277 58.501s-128.166 99.833 -164.499 182.5s-54.5 190 -54.5 322l14 15c0 122 16.5 223.167 49.5 303.5s80.333 140.333 142 180s134.834 59.5 219.501 59.5c85.333 0 158.666 -19.833 219.999 -59.5s108.5 -100.834 141.5 -183.501
s49.5 -188.667 49.5 -318v-51h-725v109h607l-36 -28c0 103.333 -10.5 185.333 -31.5 246s-51 104 -90 130s-86.167 39 -141.5 39c-56 0 -104.167 -13 -144.5 -39s-71.333 -69 -93 -129s-32.5 -141 -32.5 -243v-56c0 -100 13.167 -179.833 39.5 -239.5
s66.666 -102.667 120.999 -129s122.833 -39.5 205.5 -39.5c40.667 0 83 3.83301 127 11.5s90.667 18.5 140 32.5v-131c-51.333 -14.667 -100.5 -25.5 -147.5 -32.5s-93.167 -10.5 -138.5 -10.5z" />
    <glyph glyph-name="Racute" unicode="&#x154;" horiz-adv-x="1307" 
d="M169 0l-0.000976562 1456c38 7.33301 77.5 14 118.5 20s84.5 10.833 130.5 14.5s94.667 5.5 146 5.5c194.667 0 339.667 -35.5 435 -106.5s143 -181.833 143 -332.5c0 -98.667 -23.167 -181 -69.5 -247s-114.5 -115.667 -204.5 -149s-201.333 -50 -334 -50
c-40.667 0 -76.667 0.833008 -108 2.5s-63.666 3.83398 -96.999 6.50098v-620h-160zM1071 -0.000976562l-522 696h181l526 -696h-185zM534.999 740.999c158.667 0 273.668 25.668 345.001 77.001s107 130.333 107 237c0 74 -14.333 133.833 -43 179.5s-73.5 79 -134.5 100
s-139.833 31.5 -236.5 31.5c-50 0 -93.667 -1.83301 -131 -5.5s-75 -8.83398 -113 -15.501v-594c26 -2.66699 49.333 -4.66699 70 -6s41.667 -2.33301 63 -3s45.666 -1 72.999 -1zM557 1608l177 284h173l-205 -284h-145z" />
    <glyph glyph-name="racute" unicode="&#x155;" horiz-adv-x="723" 
d="M151 0v1085h134l13 -145h10c37.333 51.333 84.166 90.166 140.499 116.499s115.166 39.5 176.499 39.5c16.667 0 31.834 -0.666992 45.501 -2s27.167 -3.33301 40.5 -6v-148c-15.333 2.66699 -30.5 4.33398 -45.5 5.00098s-31.167 1 -48.5 1
c-35.333 0 -72.166 -5.5 -110.499 -16.5s-74.5 -28 -108.5 -51s-63 -51.833 -87 -86.5v-792h-160zM348 1253l215 363h173l-240 -363h-148z" />
    <glyph glyph-name="uni0156" unicode="&#x156;" horiz-adv-x="1307" 
d="M169 0l-0.000976562 1456c38 7.33301 77.5 14 118.5 20s84.5 10.833 130.5 14.5s94.667 5.5 146 5.5c194.667 0 339.667 -35.5 435 -106.5s143 -181.833 143 -332.5c0 -98.667 -23.167 -181 -69.5 -247s-114.5 -115.667 -204.5 -149s-201.333 -50 -334 -50
c-40.667 0 -76.667 0.833008 -108 2.5s-63.666 3.83398 -96.999 6.50098v-620h-160zM1071 -0.000976562l-522 696h181l526 -696h-185zM534.999 740.999c158.667 0 273.668 25.668 345.001 77.001s107 130.333 107 237c0 74 -14.333 133.833 -43 179.5s-73.5 79 -134.5 100
s-139.833 31.5 -236.5 31.5c-50 0 -93.667 -1.83301 -131 -5.5s-75 -8.83398 -113 -15.501v-594c26 -2.66699 49.333 -4.66699 70 -6s41.667 -2.33301 63 -3s45.666 -1 72.999 -1zM631 -466c17.333 38.667 29.0039 72.168 35.0039 100.501s9 56.166 9 83.499l24 -44h-16
c-34.667 0 -60.834 7.66699 -78.501 23s-26.5 35 -26.5 59s8.66699 43.5 26 58.5s42.666 22.5 75.999 22.5c35.333 0 62.166 -9.16699 80.499 -27.5s27.5 -45.833 27.5 -82.5c0 -28 -4.83301 -59.5 -14.5 -94.5s-23.834 -67.833 -42.501 -98.5h-100z" />
    <glyph glyph-name="uni0157" unicode="&#x157;" horiz-adv-x="723" 
d="M151 0v1085h134l13 -145h10c37.333 51.333 84.166 90.166 140.499 116.499s115.166 39.5 176.499 39.5c16.667 0 31.834 -0.666992 45.501 -2s27.167 -3.33301 40.5 -6v-148c-15.333 2.66699 -30.5 4.33398 -45.5 5.00098s-31.167 1 -48.5 1
c-35.333 0 -72.166 -5.5 -110.499 -16.5s-74.5 -28 -108.5 -51s-63 -51.833 -87 -86.5v-792h-160zM179 -466c17.333 38.667 29.0039 72.168 35.0039 100.501s9 56.166 9 83.499l24 -44h-16c-34.667 0 -60.834 7.66699 -78.501 23s-26.5 35 -26.5 59s8.66699 43.5 26 58.5
s42.666 22.5 75.999 22.5c35.333 0 62.166 -9.16699 80.499 -27.5s27.5 -45.833 27.5 -82.5c0 -28 -4.83301 -59.5 -14.5 -94.5s-23.834 -67.833 -42.501 -98.5h-100z" />
    <glyph glyph-name="Rcaron" unicode="&#x158;" horiz-adv-x="1307" 
d="M169 0l-0.000976562 1456c38 7.33301 77.5 14 118.5 20s84.5 10.833 130.5 14.5s94.667 5.5 146 5.5c194.667 0 339.667 -35.5 435 -106.5s143 -181.833 143 -332.5c0 -98.667 -23.167 -181 -69.5 -247s-114.5 -115.667 -204.5 -149s-201.333 -50 -334 -50
c-40.667 0 -76.667 0.833008 -108 2.5s-63.666 3.83398 -96.999 6.50098v-620h-160zM1071 -0.000976562l-522 696h181l526 -696h-185zM534.999 740.999c158.667 0 273.668 25.668 345.001 77.001s107 130.333 107 237c0 74 -14.333 133.833 -43 179.5s-73.5 79 -134.5 100
s-139.833 31.5 -236.5 31.5c-50 0 -93.667 -1.83301 -131 -5.5s-75 -8.83398 -113 -15.501v-594c26 -2.66699 49.333 -4.66699 70 -6s41.667 -2.33301 63 -3s45.666 -1 72.999 -1zM556 1608l-245 284h140l196 -234h-34l196 234h140l-245 -284h-148z" />
    <glyph glyph-name="rcaron" unicode="&#x159;" horiz-adv-x="723" 
d="M151 0v1085h134l13 -145h10c37.333 51.333 84.166 90.166 140.499 116.499s115.166 39.5 176.499 39.5c16.667 0 31.834 -0.666992 45.501 -2s27.167 -3.33301 40.5 -6v-148c-15.333 2.66699 -30.5 4.33398 -45.5 5.00098s-31.167 1 -48.5 1
c-35.333 0 -72.166 -5.5 -110.499 -16.5s-74.5 -28 -108.5 -51s-63 -51.833 -87 -86.5v-792h-160zM350 1253l-226 363h128l187 -309h-34l187 309h128l-226 -363h-144z" />
    <glyph glyph-name="Sacute" unicode="&#x15a;" horiz-adv-x="1063" 
d="M462 -19c-58.667 0 -119.833 4.99609 -183.5 14.9961s-124.167 25 -181.5 45v140c41.333 -14 83.166 -25.5 125.499 -34.5s83.833 -15.833 124.5 -20.5s79.667 -7 117 -7c122.667 0 213.334 23.167 272.001 69.5s88 113.833 88 202.5
c0 75.333 -22.167 132.833 -66.5 172.5s-119.833 73.5 -226.5 101.5l-80 21c-126 32 -220.333 80.5 -283 145.5s-94 150.833 -94 257.5c0 127.333 44.167 227.5 132.5 300.5s219.833 109.5 394.5 109.5c57.333 0 114 -3.83301 170 -11.5s107 -18.834 153 -33.501v-140
c-50.667 16 -102.834 27.833 -156.501 35.5s-107.834 11.5 -162.501 11.5c-84.667 0 -154 -10.333 -208 -31s-94 -50.667 -120 -90s-39 -86.666 -39 -141.999c0 -72.667 20.333 -129 61 -169s111 -73.333 211 -100l81 -20c90.667 -23.333 165.334 -53.166 224.001 -89.499
s102.334 -80.666 131.001 -132.999s43 -114.166 43 -185.499c0 -89.333 -20.667 -165.166 -62 -227.499s-101.333 -110 -180 -143s-173.667 -49.5 -285 -49.5zM467.001 1608l177 284h173l-205 -284h-145z" />
    <glyph glyph-name="sacute" unicode="&#x15b;" horiz-adv-x="901" 
d="M410 -19c-54.667 0 -106.831 3.66699 -156.498 11s-97.834 18.333 -144.501 33v128c53.333 -16 104.333 -27.5 153 -34.5s98 -10.5 148 -10.5c94 0 162.167 16 204.5 48s63.5 77 63.5 135c0 49.333 -12.667 87.166 -38 113.499s-68.333 45.833 -129 58.5l-147 30
c-98.667 21.333 -169.167 56.5 -211.5 105.5s-63.5 112.167 -63.5 189.5c0 91.333 35.167 166.5 105.5 225.5s178.5 88.5 324.5 88.5c46.667 0 91.167 -2.66699 133.5 -8s83.166 -13.333 122.499 -24v-129c-44 12 -86.167 20.667 -126.5 26s-82.5 8 -126.5 8
c-68.667 0 -123.5 -8.16699 -164.5 -24.5s-70.5 -38.333 -88.5 -66s-27 -58.5 -27 -92.5c0 -42.667 12 -78 36 -106s66 -48.667 126 -62l147 -30c100 -20.667 171.833 -54.667 215.5 -102s65.5 -111.666 65.5 -192.999c0 -98 -35.833 -175.5 -107.5 -232.5
s-176.5 -85.5 -314.5 -85.5zM382.003 1253l215 363h173l-240 -363h-148z" />
    <glyph glyph-name="Scircumflex" unicode="&#x15c;" horiz-adv-x="1063" 
d="M462 -19c-58.667 0 -119.833 4.99609 -183.5 14.9961s-124.167 25 -181.5 45v140c41.333 -14 83.166 -25.5 125.499 -34.5s83.833 -15.833 124.5 -20.5s79.667 -7 117 -7c122.667 0 213.334 23.167 272.001 69.5s88 113.833 88 202.5
c0 75.333 -22.167 132.833 -66.5 172.5s-119.833 73.5 -226.5 101.5l-80 21c-126 32 -220.333 80.5 -283 145.5s-94 150.833 -94 257.5c0 127.333 44.167 227.5 132.5 300.5s219.833 109.5 394.5 109.5c57.333 0 114 -3.83301 170 -11.5s107 -18.834 153 -33.501v-140
c-50.667 16 -102.834 27.833 -156.501 35.5s-107.834 11.5 -162.501 11.5c-84.667 0 -154 -10.333 -208 -31s-94 -50.667 -120 -90s-39 -86.666 -39 -141.999c0 -72.667 20.333 -129 61 -169s111 -73.333 211 -100l81 -20c90.667 -23.333 165.334 -53.166 224.001 -89.499
s102.334 -80.666 131.001 -132.999s43 -114.166 43 -185.499c0 -89.333 -20.667 -165.166 -62 -227.499s-101.333 -110 -180 -143s-173.667 -49.5 -285 -49.5zM221.001 1608l245 284h148l245 -284h-140l-196 233h34l-196 -233h-140z" />
    <glyph glyph-name="scircumflex" unicode="&#x15d;" horiz-adv-x="901" 
d="M410 -19c-54.667 0 -106.831 3.66699 -156.498 11s-97.834 18.333 -144.501 33v128c53.333 -16 104.333 -27.5 153 -34.5s98 -10.5 148 -10.5c94 0 162.167 16 204.5 48s63.5 77 63.5 135c0 49.333 -12.667 87.166 -38 113.499s-68.333 45.833 -129 58.5l-147 30
c-98.667 21.333 -169.167 56.5 -211.5 105.5s-63.5 112.167 -63.5 189.5c0 91.333 35.167 166.5 105.5 225.5s178.5 88.5 324.5 88.5c46.667 0 91.167 -2.66699 133.5 -8s83.166 -13.333 122.499 -24v-129c-44 12 -86.167 20.667 -126.5 26s-82.5 8 -126.5 8
c-68.667 0 -123.5 -8.16699 -164.5 -24.5s-70.5 -38.333 -88.5 -66s-27 -58.5 -27 -92.5c0 -42.667 12 -78 36 -106s66 -48.667 126 -62l147 -30c100 -20.667 171.833 -54.667 215.5 -102s65.5 -111.666 65.5 -192.999c0 -98 -35.833 -175.5 -107.5 -232.5
s-176.5 -85.5 -314.5 -85.5zM161.003 1253l223 363h144l223 -363h-128l-184 308h34l-184 -308h-128z" />
    <glyph glyph-name="Scedilla" unicode="&#x15e;" horiz-adv-x="1063" 
d="M462 -19c-58.667 0 -119.833 4.99609 -183.5 14.9961s-124.167 25 -181.5 45v140c41.333 -14 83.166 -25.5 125.499 -34.5s83.833 -15.833 124.5 -20.5s79.667 -7 117 -7c122.667 0 213.334 23.167 272.001 69.5s88 113.833 88 202.5
c0 75.333 -22.167 132.833 -66.5 172.5s-119.833 73.5 -226.5 101.5l-80 21c-126 32 -220.333 80.5 -283 145.5s-94 150.833 -94 257.5c0 127.333 44.167 227.5 132.5 300.5s219.833 109.5 394.5 109.5c57.333 0 114 -3.83301 170 -11.5s107 -18.834 153 -33.501v-140
c-50.667 16 -102.834 27.833 -156.501 35.5s-107.834 11.5 -162.501 11.5c-84.667 0 -154 -10.333 -208 -31s-94 -50.667 -120 -90s-39 -86.666 -39 -141.999c0 -72.667 20.333 -129 61 -169s111 -73.333 211 -100l81 -20c90.667 -23.333 165.334 -53.166 224.001 -89.499
s102.334 -80.666 131.001 -132.999s43 -114.166 43 -185.499c0 -89.333 -20.667 -165.166 -62 -227.499s-101.333 -110 -180 -143s-173.667 -49.5 -285 -49.5zM541.001 -415.004c-33.333 0 -66.666 3 -99.999 9s-64.333 15 -93 27v81
c35.333 -14.667 68.166 -24.834 98.499 -30.501s59.833 -8.5 88.5 -8.5c41.333 0 73.333 6.5 96 19.5s34 34.5 34 64.5c0 29.333 -11.5 50.833 -34.5 64.5s-55.5 20.5 -97.5 20.5h-41v188h91v-157l-33 36c65.333 0 117 -13.167 155 -39.5s57 -65.166 57 -116.499
s-19.333 -90.5 -58 -117.5s-93 -40.5 -163 -40.5z" />
    <glyph glyph-name="scedilla" unicode="&#x15f;" horiz-adv-x="901" 
d="M410 -19c-54.667 0 -106.831 3.66699 -156.498 11s-97.834 18.333 -144.501 33v128c53.333 -16 104.333 -27.5 153 -34.5s98 -10.5 148 -10.5c94 0 162.167 16 204.5 48s63.5 77 63.5 135c0 49.333 -12.667 87.166 -38 113.499s-68.333 45.833 -129 58.5l-147 30
c-98.667 21.333 -169.167 56.5 -211.5 105.5s-63.5 112.167 -63.5 189.5c0 91.333 35.167 166.5 105.5 225.5s178.5 88.5 324.5 88.5c46.667 0 91.167 -2.66699 133.5 -8s83.166 -13.333 122.499 -24v-129c-44 12 -86.167 20.667 -126.5 26s-82.5 8 -126.5 8
c-68.667 0 -123.5 -8.16699 -164.5 -24.5s-70.5 -38.333 -88.5 -66s-27 -58.5 -27 -92.5c0 -42.667 12 -78 36 -106s66 -48.667 126 -62l147 -30c100 -20.667 171.833 -54.667 215.5 -102s65.5 -111.666 65.5 -192.999c0 -98 -35.833 -175.5 -107.5 -232.5
s-176.5 -85.5 -314.5 -85.5zM460.003 -415c-30 0 -60.1689 3 -90.502 9s-56.833 14.333 -79.5 25v81c28.667 -13.333 57.334 -22.833 86.001 -28.5s55.334 -8.5 80.001 -8.5c37.333 0 65.333 6.66699 84 20s28 34.333 28 63c0 57.333 -38 86 -114 86h-37v188h92v-157l-41 35
c64 0 112.667 -13.667 146 -41s50 -66 50 -116c0 -48 -17.5 -86 -52.5 -114s-85.5 -42 -151.5 -42z" />
    <glyph glyph-name="Scaron" unicode="&#x160;" horiz-adv-x="1063" 
d="M462 -19c-58.667 0 -119.833 4.99609 -183.5 14.9961s-124.167 25 -181.5 45v140c41.333 -14 83.166 -25.5 125.499 -34.5s83.833 -15.833 124.5 -20.5s79.667 -7 117 -7c122.667 0 213.334 23.167 272.001 69.5s88 113.833 88 202.5
c0 75.333 -22.167 132.833 -66.5 172.5s-119.833 73.5 -226.5 101.5l-80 21c-126 32 -220.333 80.5 -283 145.5s-94 150.833 -94 257.5c0 127.333 44.167 227.5 132.5 300.5s219.833 109.5 394.5 109.5c57.333 0 114 -3.83301 170 -11.5s107 -18.834 153 -33.501v-140
c-50.667 16 -102.834 27.833 -156.501 35.5s-107.834 11.5 -162.501 11.5c-84.667 0 -154 -10.333 -208 -31s-94 -50.667 -120 -90s-39 -86.666 -39 -141.999c0 -72.667 20.333 -129 61 -169s111 -73.333 211 -100l81 -20c90.667 -23.333 165.334 -53.166 224.001 -89.499
s102.334 -80.666 131.001 -132.999s43 -114.166 43 -185.499c0 -89.333 -20.667 -165.166 -62 -227.499s-101.333 -110 -180 -143s-173.667 -49.5 -285 -49.5zM466.001 1608l-245 284h140l196 -234h-34l196 234h140l-245 -284h-148z" />
    <glyph glyph-name="scaron" unicode="&#x161;" horiz-adv-x="901" 
d="M410 -19c-54.667 0 -106.831 3.66699 -156.498 11s-97.834 18.333 -144.501 33v128c53.333 -16 104.333 -27.5 153 -34.5s98 -10.5 148 -10.5c94 0 162.167 16 204.5 48s63.5 77 63.5 135c0 49.333 -12.667 87.166 -38 113.499s-68.333 45.833 -129 58.5l-147 30
c-98.667 21.333 -169.167 56.5 -211.5 105.5s-63.5 112.167 -63.5 189.5c0 91.333 35.167 166.5 105.5 225.5s178.5 88.5 324.5 88.5c46.667 0 91.167 -2.66699 133.5 -8s83.166 -13.333 122.499 -24v-129c-44 12 -86.167 20.667 -126.5 26s-82.5 8 -126.5 8
c-68.667 0 -123.5 -8.16699 -164.5 -24.5s-70.5 -38.333 -88.5 -66s-27 -58.5 -27 -92.5c0 -42.667 12 -78 36 -106s66 -48.667 126 -62l147 -30c100 -20.667 171.833 -54.667 215.5 -102s65.5 -111.666 65.5 -192.999c0 -98 -35.833 -175.5 -107.5 -232.5
s-176.5 -85.5 -314.5 -85.5zM384.003 1253l-226 363h128l187 -309h-34l187 309h128l-226 -363h-144z" />
    <glyph glyph-name="uni0162" unicode="&#x162;" horiz-adv-x="1176" 
d="M507 0v1339h-493v141h1148v-141h-493v-1339h-162zM589 -415c-33.333 0 -66.666 3 -99.999 9s-64.333 15 -93 27v81c35.333 -14.667 68.166 -24.834 98.499 -30.501s59.833 -8.5 88.5 -8.5c41.333 0 73.333 6.5 96 19.5s34 34.5 34 64.5c0 29.333 -11.5 50.833 -34.5 64.5
s-55.5 20.5 -97.5 20.5h-41v188h91v-157l-33 36c65.333 0 117 -13.167 155 -39.5s57 -65.166 57 -116.499s-19.333 -90.5 -58 -117.5s-93 -40.5 -163 -40.5z" />
    <glyph glyph-name="uni0163" unicode="&#x163;" horiz-adv-x="749" 
d="M565 -19c-110.667 0 -196.667 28.5 -258 85.5s-92 148.167 -92 273.5v745l26 395h134v-1114c0 -91.333 18.833 -155.333 56.5 -192s93.834 -55 168.501 -55c20 0 40.667 1.5 62 4.5s44.666 7.16699 69.999 12.5v-135c-26.667 -6.66699 -54 -11.667 -82 -15
s-56.333 -5 -85 -5zM11 953v132h705v-132h-705zM478 -415c-30 0 -60.1689 3 -90.502 9s-56.833 14.333 -79.5 25v81c28.667 -13.333 57.334 -22.833 86.001 -28.5s55.334 -8.5 80.001 -8.5c37.333 0 65.333 6.66699 84 20s28 34.333 28 63c0 57.333 -38 86 -114 86h-37v188
h92v-157l-41 35c64 0 112.667 -13.667 146 -41s50 -66 50 -116c0 -48 -17.5 -86 -52.5 -114s-85.5 -42 -151.5 -42z" />
    <glyph glyph-name="Tcaron" unicode="&#x164;" horiz-adv-x="1176" 
d="M507 0v1339h-493v141h1148v-141h-493v-1339h-162zM514 1608l-245 284h140l196 -234h-34l196 234h140l-245 -284h-148z" />
    <glyph glyph-name="tcaron" unicode="&#x165;" horiz-adv-x="749" 
d="M565 -19c-110.667 0 -196.667 28.5 -258 85.5s-92 148.167 -92 273.5v745l26 395h134v-1114c0 -91.333 18.833 -155.333 56.5 -192s93.834 -55 168.501 -55c20 0 40.667 1.5 62 4.5s44.666 7.16699 69.999 12.5v-135c-26.667 -6.66699 -54 -11.667 -82 -15
s-56.333 -5 -85 -5zM11 953v132h705v-132h-705zM529 1180c9.33301 72 15.333 145.833 18 221.5s4 147.167 4 214.5h119c0 -70 -3.83301 -143.333 -11.5 -220s-20.167 -148.667 -37.5 -216h-92z" />
    <glyph glyph-name="Tbar" unicode="&#x166;" horiz-adv-x="1176" 
d="M182 717v114h811v-114h-811zM507 0v1339h-493v141h1148v-141h-493v-1339h-162z" />
    <glyph glyph-name="tbar" unicode="&#x167;" horiz-adv-x="749" 
d="M70 579v109h597v-109h-597zM565 -19c-110.667 0 -196.667 28.5 -258 85.5s-92 148.167 -92 273.5v745l26 395h134v-1114c0 -91.333 18.833 -155.333 56.5 -192s93.834 -55 168.501 -55c20 0 40.667 1.5 62 4.5s44.666 7.16699 69.999 12.5v-135
c-26.667 -6.66699 -54 -11.667 -82 -15s-56.333 -5 -85 -5zM11 953v132h705v-132h-705z" />
    <glyph glyph-name="Utilde" unicode="&#x168;" horiz-adv-x="1417" 
d="M710 -19c-126 0 -229.334 20.667 -310.001 62s-140.5 104.833 -179.5 190.5s-58.5 194.5 -58.5 326.5v920h162v-938c0 -146 31.167 -252.667 93.5 -320s159.833 -101 292.5 -101c134 0 232 33.667 294 101s93 174 93 320v938h158v-920
c0 -132 -19.167 -240.833 -57.5 -326.5s-97.666 -149.167 -177.999 -190.5s-183.5 -62 -309.5 -62zM863.999 1668c-31.333 0 -60.833 4.33203 -88.5 12.999s-54.5 18 -80.5 28c-24 9.33301 -47.5 17.5 -70.5 24.5s-46.5 10.5 -70.5 10.5c-36 0 -67.333 -5.66699 -94 -17
s-52.667 -29 -78 -53v109c21.333 22 46 38.5 74 49.5s61.333 16.5 100 16.5c31.333 0 61 -4.33301 89 -13s54.667 -18 80 -28c24 -9.33301 47.5 -17.666 70.5 -24.999s46.5 -11 70.5 -11c36 0 67.5 5.83301 94.5 17.5s52.833 29.5 77.5 53.5v-110
c-20.667 -21.333 -45.167 -37.5 -73.5 -48.5s-61.833 -16.5 -100.5 -16.5z" />
    <glyph glyph-name="utilde" unicode="&#x169;" horiz-adv-x="1127" 
d="M486 -18c-67.333 0 -127.001 12.333 -179.001 37s-93 65 -123 121s-45 131 -45 225v720h160v-713c0 -92.667 20.667 -157.167 62 -193.5s94.666 -54.5 159.999 -54.5c32.667 0 66.834 5 102.501 15s70.167 25.667 103.5 47s63 49 89 83v816h160v-1085h-135l-11 119h-10
c-45.333 -45.333 -96.666 -79.5 -153.999 -102.5s-117.333 -34.5 -180 -34.5zM700.999 1345c-29.333 0 -57 4.83301 -83 14.5s-51 19.5 -75 29.5c-22.667 10 -44.5 18.833 -65.5 26.5s-42.5 11.5 -64.5 11.5c-32 0 -61.167 -6.16699 -87.5 -18.5
s-52.166 -31.5 -77.499 -57.5v116c42 44.667 97.667 67 167 67c29.333 0 57 -4.83301 83 -14.5s51 -19.5 75 -29.5c22.667 -10 44.667 -18.833 66 -26.5s42.666 -11.5 63.999 -11.5c32.667 0 62.167 6.16699 88.5 18.5s51.833 31.5 76.5 57.5v-116
c-42 -44.667 -97.667 -67 -167 -67z" />
    <glyph glyph-name="Umacron" unicode="&#x16a;" horiz-adv-x="1417" 
d="M710 -19c-126 0 -229.334 20.667 -310.001 62s-140.5 104.833 -179.5 190.5s-58.5 194.5 -58.5 326.5v920h162v-938c0 -146 31.167 -252.667 93.5 -320s159.833 -101 292.5 -101c134 0 232 33.667 294 101s93 174 93 320v938h158v-920
c0 -132 -19.167 -240.833 -57.5 -326.5s-97.666 -149.167 -177.999 -190.5s-183.5 -62 -309.5 -62zM403.999 1694v108h612v-108h-612z" />
    <glyph glyph-name="umacron" unicode="&#x16b;" horiz-adv-x="1127" 
d="M486 -18c-67.333 0 -127.001 12.333 -179.001 37s-93 65 -123 121s-45 131 -45 225v720h160v-713c0 -92.667 20.667 -157.167 62 -193.5s94.666 -54.5 159.999 -54.5c32.667 0 66.834 5 102.501 15s70.167 25.667 103.5 47s63 49 89 83v816h160v-1085h-135l-11 119h-10
c-45.333 -45.333 -96.666 -79.5 -153.999 -102.5s-117.333 -34.5 -180 -34.5zM247.999 1369v107h620v-107h-620z" />
    <glyph glyph-name="Ubreve" unicode="&#x16c;" horiz-adv-x="1417" 
d="M710 -19c-126 0 -229.334 20.667 -310.001 62s-140.5 104.833 -179.5 190.5s-58.5 194.5 -58.5 326.5v920h162v-938c0 -146 31.167 -252.667 93.5 -320s159.833 -101 292.5 -101c134 0 232 33.667 294 101s93 174 93 320v938h158v-920
c0 -132 -19.167 -240.833 -57.5 -326.5s-97.666 -149.167 -177.999 -190.5s-183.5 -62 -309.5 -62zM710.999 1617c-66.667 0 -122.832 10.5 -168.499 31.5s-81 50.5 -106 88.5s-40.167 82.667 -45.5 134h108c8 -52 28.167 -91.5 60.5 -118.5s82.833 -40.5 151.5 -40.5
c70 0 120.667 13.5 152 40.5s50.666 66.5 57.999 118.5h108c-5.33301 -52 -20.333 -97 -45 -135s-59.5 -67.333 -104.5 -88s-101.167 -31 -168.5 -31z" />
    <glyph glyph-name="ubreve" unicode="&#x16d;" horiz-adv-x="1127" 
d="M486 -18c-67.333 0 -127.001 12.333 -179.001 37s-93 65 -123 121s-45 131 -45 225v720h160v-713c0 -92.667 20.667 -157.167 62 -193.5s94.666 -54.5 159.999 -54.5c32.667 0 66.834 5 102.501 15s70.167 25.667 103.5 47s63 49 89 83v816h160v-1085h-135l-11 119h-10
c-45.333 -45.333 -96.666 -79.5 -153.999 -102.5s-117.333 -34.5 -180 -34.5zM558.999 1264c-91.333 0 -163 28.333 -215 85s-80.333 137 -85 241h107c5.33301 -75.333 23.5 -132.666 54.5 -171.999s77.167 -59 138.5 -59c62 0 108.333 19.667 139 59s48 96.666 52 171.999
h107c-4 -104.667 -31.667 -185.167 -83 -241.5s-123 -84.5 -215 -84.5z" />
    <glyph glyph-name="Uring" unicode="&#x16e;" horiz-adv-x="1417" 
d="M710 -19c-126 0 -229.334 20.667 -310.001 62s-140.5 104.833 -179.5 190.5s-58.5 194.5 -58.5 326.5v920h162v-938c0 -146 31.167 -252.667 93.5 -320s159.833 -101 292.5 -101c134 0 232 33.667 294 101s93 174 93 320v938h158v-920
c0 -132 -19.167 -240.833 -57.5 -326.5s-97.666 -149.167 -177.999 -190.5s-183.5 -62 -309.5 -62zM709.999 1600c-56 0 -102.5 18.333 -139.5 55s-55.5 83 -55.5 139s18.5 102.167 55.5 138.5s83.5 54.5 139.5 54.5c56.667 0 103.334 -18.167 140.001 -54.5
s55 -82.5 55 -138.5s-18.333 -102.333 -55 -139s-83.334 -55 -140.001 -55zM709.999 1675c34 0 62 10.667 84 32s33 50.333 33 87c0 37.333 -11 66.5 -33 87.5s-50 31.5 -84 31.5s-62 -10.5 -84 -31.5s-33 -50.167 -33 -87.5c0 -36.667 11 -65.667 33 -87s50 -32 84 -32z
" />
    <glyph glyph-name="uring" unicode="&#x16f;" horiz-adv-x="1127" 
d="M486 -18c-67.333 0 -127.001 12.333 -179.001 37s-93 65 -123 121s-45 131 -45 225v720h160v-713c0 -92.667 20.667 -157.167 62 -193.5s94.666 -54.5 159.999 -54.5c32.667 0 66.834 5 102.501 15s70.167 25.667 103.5 47s63 49 89 83v816h160v-1085h-135l-11 119h-10
c-45.333 -45.333 -96.666 -79.5 -153.999 -102.5s-117.333 -34.5 -180 -34.5zM557.999 1248c-56 0 -102.5 18.333 -139.5 55s-55.5 82.667 -55.5 138c0 56 18.5 102.333 55.5 139s83.5 55 139.5 55c56.667 0 103.334 -18.333 140.001 -55s55 -83 55 -139
c0 -55.333 -18.333 -101.333 -55 -138s-83.334 -55 -140.001 -55zM557.999 1322c34 0 62 10.833 84 32.5s33 50.5 33 86.5c0 37.333 -11 66.666 -33 87.999s-50 32 -84 32s-62 -10.667 -84 -32s-33 -50.666 -33 -87.999c0 -36 11 -64.833 33 -86.5s50 -32.5 84 -32.5z" />
    <glyph glyph-name="Uhungarumlaut" unicode="&#x170;" horiz-adv-x="1417" 
d="M710 -19c-126 0 -229.334 20.667 -310.001 62s-140.5 104.833 -179.5 190.5s-58.5 194.5 -58.5 326.5v920h162v-938c0 -146 31.167 -252.667 93.5 -320s159.833 -101 292.5 -101c134 0 232 33.667 294 101s93 174 93 320v938h158v-920
c0 -132 -19.167 -240.833 -57.5 -326.5s-97.666 -149.167 -177.999 -190.5s-183.5 -62 -309.5 -62zM814.999 1608l128 284h136l-139 -284h-125zM479.999 1608l128 284h135l-138 -284h-125z" />
    <glyph glyph-name="uhungarumlaut" unicode="&#x171;" horiz-adv-x="1127" 
d="M486 -18c-67.333 0 -127.001 12.333 -179.001 37s-93 65 -123 121s-45 131 -45 225v720h160v-713c0 -92.667 20.667 -157.167 62 -193.5s94.666 -54.5 159.999 -54.5c32.667 0 66.834 5 102.501 15s70.167 25.667 103.5 47s63 49 89 83v816h160v-1085h-135l-11 119h-10
c-45.333 -45.333 -96.666 -79.5 -153.999 -102.5s-117.333 -34.5 -180 -34.5zM662.999 1253l139 363h134l-150 -363h-123zM329.999 1253l139 363h134l-150 -363h-123z" />
    <glyph glyph-name="Uogonek" unicode="&#x172;" horiz-adv-x="1417" 
d="M801 -414c-77.333 0 -135.834 16.334 -175.501 49.001s-59.5 78.334 -59.5 137.001c0 46.667 14.5 90.667 43.5 132s79.167 77.666 150.5 108.999l-4 -32h-46c-126 0 -229.333 20.667 -310 62s-140.5 104.833 -179.5 190.5s-58.5 194.5 -58.5 326.5v920h162v-938
c0 -146 31.167 -252.667 93.5 -320s159.833 -101 292.5 -101c134 0 232 33.667 294 101s93 174 93 320v938h158v-920c0 -148.667 -25.167 -269.167 -75.5 -361.5s-132.833 -155.5 -247.5 -189.5c-68.667 -20.667 -122 -43.334 -160 -68.001s-64.833 -50.5 -80.5 -77.5
s-23.5 -54.5 -23.5 -82.5c0 -37.333 12.333 -65.833 37 -85.5s61.334 -29.5 110.001 -29.5c24 0 48.5 2.83301 73.5 8.5s53.833 15.167 86.5 28.5v-80c-27.333 -12 -55.333 -21.167 -84 -27.5s-58.667 -9.5 -90 -9.5z" />
    <glyph glyph-name="uogonek" unicode="&#x173;" horiz-adv-x="1127" 
d="M486 -18c-67.333 0 -127.001 12.333 -179.001 37s-93 65 -123 121s-45 131 -45 225v720h160v-713c0 -92.667 20.667 -157.167 62 -193.5s94.666 -54.5 159.999 -54.5c32.667 0 66.834 5 102.501 15s70.167 25.667 103.5 47s63 49 89 83v816h160v-1085l-130 -5l-16 124
h-10c-45.333 -45.333 -96.666 -79.5 -153.999 -102.5s-117.333 -34.5 -180 -34.5zM900.999 -415c-69.333 0 -122.666 16.334 -159.999 49.001s-56 77.334 -56 134.001c0 37.333 8.16699 72.5 24.5 105.5s42.166 64.667 77.499 95s82.333 59.5 141 87.5l48 -56
c-46.667 -24.667 -83.667 -48.834 -111 -72.501s-47 -47.834 -59 -72.501s-18 -50.667 -18 -78c0 -35.333 11 -63 33 -83s53.333 -30 94 -30c23.333 0 47 3.33301 71 10s48.333 16.667 73 30v-81c-22.667 -12 -47.5 -21.333 -74.5 -28s-54.833 -10 -83.5 -10z" />
    <glyph glyph-name="Wcircumflex" unicode="&#x174;" horiz-adv-x="2116" 
d="M472 0l-417 1480h167l386 -1402h-41l399 1402h191l394 -1402h-37l389 1402h157l-417 -1480h-212l-392 1377h42l-396 -1377h-213zM740 1608l245 284h148l245 -284h-140l-196 233h34l-196 -233h-140z" />
    <glyph glyph-name="wcircumflex" unicode="&#x175;" horiz-adv-x="1693" 
d="M378 0l-318 1085h157l271 -946h-16l283 946h189l283 -946h-18l272 946h151l-316 -1085h-189l-288 957h18l-290 -957h-189zM553 1253l223 363h144l223 -363h-128l-184 308h34l-184 -308h-128z" />
    <glyph glyph-name="Ycircumflex" unicode="&#x176;" horiz-adv-x="1176" 
d="M507 0v726l36 -123l-574 877h179l471 -721h-55l465 721h168l-563 -877l36 121v-724h-163zM269 1608l245 284h148l245 -284h-140l-196 233h34l-196 -233h-140z" />
    <glyph glyph-name="ycircumflex" unicode="&#x177;" horiz-adv-x="1058" 
d="M305 -440l167 440l51 115l358 970h161l-577 -1525h-160zM426 0l-411 1085h171l393 -1085h-153zM235 1253l223 363h144l223 -363h-128l-184 308h34l-184 -308h-128z" />
    <glyph glyph-name="Ydieresis" unicode="&#x178;" horiz-adv-x="1176" 
d="M507 0v726l36 -123l-574 877h179l471 -721h-55l465 721h168l-563 -877l36 121v-724h-163zM822 1659c-32.667 0 -58 8.33301 -76 25s-27 39 -27 67c0 29.333 9 52.333 27 69s43.333 25 76 25c32 0 57 -8.33301 75 -25s27 -39.667 27 -69c0 -28 -9 -50.333 -27 -67
s-43 -25 -75 -25zM354 1659c-32 0 -57 8.33301 -75 25s-27 39 -27 67c0 29.333 9 52.333 27 69s43 25 75 25c32.667 0 58 -8.33301 76 -25s27 -39.667 27 -69c0 -28 -9 -50.333 -27 -67s-43.333 -25 -76 -25z" />
    <glyph glyph-name="Zacute" unicode="&#x179;" horiz-adv-x="1153" 
d="M62 0v91l829 1288l11 -38h-829v139h1007v-91l-830 -1288l-10 38h851v-139h-1029zM504 1608l177 284h173l-205 -284h-145z" />
    <glyph glyph-name="zacute" unicode="&#x17a;" horiz-adv-x="919" 
d="M63 0v99l614 891v-37h-603v132h779v-99l-614 -891v38h626v-133h-802zM390 1253l215 363h173l-240 -363h-148z" />
    <glyph glyph-name="Zdotaccent" unicode="&#x17b;" horiz-adv-x="1153" 
d="M62 0v91l829 1288l11 -38h-829v139h1007v-91l-830 -1288l-10 38h851v-139h-1029zM577 1659c-35.333 0 -62.666 8.33301 -81.999 25s-29 39 -29 67c0 29.333 9.66699 52.333 29 69s46.666 25 81.999 25s62.666 -8.33301 81.999 -25s29 -39.667 29 -69
c0 -28 -9.66699 -50.333 -29 -67s-46.666 -25 -81.999 -25z" />
    <glyph glyph-name="zdotaccent" unicode="&#x17c;" horiz-adv-x="919" 
d="M63 0v99l614 891v-37h-603v132h779v-99l-614 -891v38h626v-133h-802zM464 1321c-36 0 -63.5 8.83301 -82.5 26.5s-28.5 42.167 -28.5 73.5c0 32 9.5 57 28.5 75s46.5 27 82.5 27s63.5 -9 82.5 -27s28.5 -43 28.5 -75c0 -31.333 -9.5 -55.833 -28.5 -73.5
s-46.5 -26.5 -82.5 -26.5z" />
    <glyph glyph-name="Zcaron" unicode="&#x17d;" horiz-adv-x="1153" 
d="M62 0v91l829 1288l11 -38h-829v139h1007v-91l-830 -1288l-10 38h851v-139h-1029zM503 1608l-245 284h140l196 -234h-34l196 234h140l-245 -284h-148z" />
    <glyph glyph-name="zcaron" unicode="&#x17e;" horiz-adv-x="919" 
d="M63 0v99l614 891v-37h-603v132h779v-99l-614 -891v38h626v-133h-802zM392 1253l-226 363h128l187 -309h-34l187 309h128l-226 -363h-144z" />
    <glyph glyph-name="uni018F" unicode="&#x18f;" horiz-adv-x="1433" 
d="M717 -19c-125.333 0 -234.669 25.833 -328.002 77.5s-165.666 132.5 -216.999 242.5s-77 253 -77 429v72h1125v-128h-1019l62 57c0 -152.667 17.833 -273.834 53.5 -363.501s87.5 -154 155.5 -193s150 -58.5 246 -58.5c91.333 0 170.333 19.167 237 57.5
s118.167 102.333 154.5 192s54.5 211.5 54.5 365.5c0 157.333 -22.667 282 -68 374s-112.5 157.667 -201.5 197s-198.833 59 -329.5 59c-58.667 0 -122.167 -3.66699 -190.5 -11s-134.166 -19.666 -197.499 -36.999v140c66 16 132.333 27.667 199 35s133.334 11 200.001 11
c160 0 296 -26 408 -78s197.167 -134.167 255.5 -246.5s87.5 -259.166 87.5 -440.499c0 -176.667 -25.333 -320.334 -76 -431.001s-121.834 -192 -213.501 -244s-198.5 -78 -320.5 -78z" />
    <glyph glyph-name="florin" unicode="&#x192;" horiz-adv-x="717" 
d="M-10 -460c-23.333 0 -47.6689 1.00098 -73.002 3.00098s-50.666 5 -75.999 9v134c26.667 -3.33301 50 -6 70 -8s41 -3 63 -3c84 0 146.5 18 187.5 54s61.5 94.333 61.5 175v1357c0 82 15 150.667 45 206s74 97.333 132 126s130 43 216 43c24 0 48.5 -0.833008 73.5 -2.5
s50.167 -4.83398 75.5 -9.50098v-134c-26 4 -49.167 6.83301 -69.5 8.5s-41.833 2.5 -64.5 2.5c-83.333 0 -145.666 -17.833 -186.999 -53.5s-62 -94.167 -62 -175.5v-1357c0 -82 -14.667 -150.667 -44 -206s-73.333 -97.333 -132 -126s-130.667 -43 -216 -43z
M18.9971 951.001v134h704v-134h-704z" />
    <glyph glyph-name="Ohorn" unicode="&#x1a0;" horiz-adv-x="1439" 
d="M720 -19c-123.333 0 -231 26.168 -323 78.501s-163.667 134.333 -215 246s-77 256.5 -77 434.5s25.667 322.833 77 434.5s123.166 193.667 215.499 246s199.833 78.5 322.5 78.5c37.333 0 72 -2 104 -6l95.5 -11.5c31.667 -3.66699 65.834 -5.5 102.501 -5.5
c60.667 0 108.167 12.5 142.5 37.5s51.5 65.5 51.5 121.5c0 25.333 -1.83301 49 -5.5 71s-9.16699 45.333 -16.5 70h121c8.66699 -24 14.667 -47.333 18 -70s5 -48.667 5 -78c0 -54 -11.667 -99.667 -35 -137s-56.5 -65.5 -99.5 -84.5s-94.167 -28.5 -153.5 -28.5l10 32
c86 -53.333 153.167 -134.833 201.5 -244.5s72.5 -251.5 72.5 -425.5c0 -179.333 -25.667 -324.833 -77 -436.5s-123 -193.334 -215 -245.001s-199.333 -77.5 -322 -77.5zM720 120.001c89.333 0 167.5 19.833 234.5 59.5s119 104.5 156 194.5s55.5 210.333 55.5 361
c0 154 -18.5 276.667 -55.5 368s-89 157 -156 197s-145.167 60 -234.5 60c-90 0 -168.5 -19.667 -235.5 -59s-119 -104 -156 -194s-55.5 -210.667 -55.5 -362c0 -154.667 18.5 -277.5 55.5 -368.5s89 -156.5 156 -196.5s145.5 -60 235.5 -60z" />
    <glyph glyph-name="ohorn" unicode="&#x1a1;" horiz-adv-x="1112" 
d="M556 -19c-93.333 0 -174.667 19.502 -244 58.502s-123 99.667 -161 182s-57 189.166 -57 320.499c0 130 18.833 236.333 56.5 319s91.334 143.5 161.001 182.5s151.834 58.5 246.501 58.5c37.333 0 71.166 -1.66699 101.499 -5s56.5 -5 78.5 -5
c59.333 0 106.166 12.833 140.499 38.5s51.5 67.167 51.5 124.5c0 25.333 -1.83301 49 -5.5 71s-9.16699 45.333 -16.5 70h116c8.66699 -24 14.667 -47.333 18 -70s5 -48.334 5 -77.001c0 -56 -11.5 -102.833 -34.5 -140.5s-55.5 -66.167 -97.5 -85.5s-91.333 -29 -148 -29
l35 48c144 -84 216 -250.667 216 -500c0 -130 -19.167 -236.333 -57.5 -319s-92 -143.667 -161 -183s-150.167 -59 -243.5 -59zM555.999 111.002c61.333 0 114.333 13.332 159 39.999s79.167 71.167 103.5 133.5s36.5 147.166 36.5 254.499
c0 109.333 -12.167 195.5 -36.5 258.5s-59 107.667 -104 134s-97.833 39.5 -158.5 39.5c-61.333 0 -114.333 -13.167 -159 -39.5s-79.167 -70.666 -103.5 -132.999s-36.5 -147.166 -36.5 -254.499c0 -108.667 12.167 -194.5 36.5 -257.5s58.833 -108 103.5 -135
s97.667 -40.5 159 -40.5z" />
    <glyph glyph-name="Uhorn" unicode="&#x1af;" horiz-adv-x="1418" 
d="M710 -19c-126 0 -229.335 20.667 -310.002 62s-140.5 104.833 -179.5 190.5s-58.5 194.5 -58.5 326.5v920h162v-938c0 -146 31.167 -252.667 93.5 -320s159.833 -101 292.5 -101c134 0 232 33.667 294 101s93 174 93 320v938h59c60.667 0 108.334 11.833 143.001 35.5
s52 63.5 52 119.5c0 25.333 -2 49 -6 71s-9.66699 45.333 -17 70h121c8.66699 -24 14.667 -47.333 18 -70s5 -48.667 5 -78c0 -69.333 -19.5 -123.833 -58.5 -163.5s-91.833 -63.5 -158.5 -71.5v-833c0 -132 -19.167 -240.833 -57.5 -326.5
s-97.666 -149.167 -177.999 -190.5s-183.5 -62 -309.5 -62z" />
    <glyph glyph-name="uhorn" unicode="&#x1b0;" horiz-adv-x="1152" 
d="M486 -18c-67.333 0 -127 12.334 -179 37.001s-93 65 -123 121s-45 131 -45 225v720h160v-713c0 -92.667 20.667 -157.167 62 -193.5s94.666 -54.5 159.999 -54.5c32.667 0 66.834 5 102.501 15s70.167 25.667 103.5 47s63 49 89 83v816h66
c59.333 0 106.166 12.833 140.499 38.5s51.5 67.167 51.5 124.5c0 25.333 -1.83301 49 -5.5 71s-9.16699 45.333 -16.5 70h116c8 -24 13.833 -47.333 17.5 -70s5.5 -48.334 5.5 -77.001c0 -56 -11.5 -102.833 -34.5 -140.5s-55.5 -66.167 -97.5 -85.5s-91.667 -29 -149 -29
l66 66v-1053h-135l-11 119h-10c-45.333 -45.333 -96.666 -79.5 -153.999 -102.5s-117.333 -34.5 -180 -34.5z" />
    <glyph glyph-name="uni01C4" unicode="&#x1c4;" horiz-adv-x="2504" 
d="M519 -12c-37.333 0 -74.333 0.833008 -111 2.5s-74.667 4 -114 7s-81 6.83301 -125 11.5v1447c40 8 81.833 15 125.5 21s87.667 10.5 132 13.5s87.5 4.5 129.5 4.5c244 0 428.167 -61.667 552.5 -185s186.5 -313.333 186.5 -570c0 -174 -29 -316.333 -87 -427
s-144.5 -192.5 -259.5 -245.5s-258.167 -79.5 -429.5 -79.5zM551 127c128.667 0 235.67 20.834 321.003 62.501s149.166 107.667 191.499 198s63.5 208.166 63.5 353.499c0 143.333 -20.833 260.333 -62.5 351s-104.334 157.5 -188.001 200.5s-188.834 64.5 -315.501 64.5
c-36 0 -73.333 -1.66699 -112 -5s-78 -8.33301 -118 -15v-1198c34.667 -4 69.5 -7 104.5 -9s73.5 -3 115.5 -3zM1413 0.000976562v91l829 1288l11 -38h-829v139h1007v-91l-830 -1288l-10 38h851v-139h-1029zM1855 1608l-245 284h140l196 -234h-34l196 234h140l-245 -284
h-148z" />
    <glyph glyph-name="uni01C5" unicode="&#x1c5;" horiz-adv-x="2320" 
d="M519 -12c-37.333 0 -74.333 0.833008 -111 2.5s-74.667 4 -114 7s-81 6.83301 -125 11.5v1447c40 8 81.833 15 125.5 21s87.667 10.5 132 13.5s87.5 4.5 129.5 4.5c244 0 428.167 -61.667 552.5 -185s186.5 -313.333 186.5 -570c0 -174 -29 -316.333 -87 -427
s-144.5 -192.5 -259.5 -245.5s-258.167 -79.5 -429.5 -79.5zM551 127c128.667 0 235.67 20.834 321.003 62.501s149.166 107.667 191.499 198s63.5 208.166 63.5 353.499c0 143.333 -20.833 260.333 -62.5 351s-104.334 157.5 -188.001 200.5s-188.834 64.5 -315.501 64.5
c-36 0 -73.333 -1.66699 -112 -5s-78 -8.33301 -118 -15v-1198c34.667 -4 69.5 -7 104.5 -9s73.5 -3 115.5 -3zM1463 0.000976562v99l614 891v-37h-603v132h779v-99l-614 -891v38h626v-133h-802zM1791 1288l-245 284h140l196 -234h-34l196 234h140l-245 -284h-148z" />
    <glyph glyph-name="uni01C6" unicode="&#x1c6;" horiz-adv-x="2048" 
d="M521 -19c-78.667 0 -150.334 17.8311 -215.001 53.498s-116.167 92.834 -154.5 171.501s-57.5 183.334 -57.5 314.001s20.833 239 62.5 325s103.167 150.333 184.5 193s181.333 64 300 64c30.667 0 61.334 -1.33301 92.001 -4s59 -6 85 -10v528h160v-1616h-136l-11 117
h-11c-32 -39.333 -73.5 -71.833 -124.5 -97.5s-109.167 -38.5 -174.5 -38.5zM557 118.998c48.667 0 96.333 10.667 143 32s86 55.333 118 102v699c-24 6 -52 10.667 -84 14s-63.667 5 -95 5c-126 0 -221.167 -34 -285.5 -102s-96.5 -179.667 -96.5 -335
c0 -106.667 12.833 -190.167 38.5 -250.5s61 -102.833 106 -127.5s96.833 -37 155.5 -37zM1192 -0.00195312v99l614 891v-37h-603v132h779v-99l-614 -891v38h626v-133h-802zM1521 1253l-226 363h128l187 -309h-34l187 309h128l-226 -363h-144z" />
    <glyph glyph-name="uni01C7" unicode="&#x1c7;" horiz-adv-x="1572" 
d="M169 0v1480h162v-1339h729v-141h-891zM1169 -344l-107 73c42 58 76.167 114.5 102.5 169.5s45.666 113.833 57.999 176.5s18.5 134.667 18.5 216v1189h161v-1210c0 -81.333 -7.83301 -155.5 -23.5 -222.5s-40.667 -132 -75 -195s-79.166 -128.5 -134.499 -196.5z" />
    <glyph glyph-name="uni01C8" unicode="&#x1c8;" horiz-adv-x="1534" 
d="M169 0v1480h162v-1339h729v-141h-891zM1150 -464l-106 72c42 58 76.167 115.333 102.5 172s45.5 116.5 57.5 179.5s18 133.167 18 210.5v915h160v-906c0 -86 -7.83301 -164.833 -23.5 -236.5s-40.5 -140.5 -74.5 -206.5s-78.667 -132.667 -134 -200zM1301 1325
c-36 0 -63.5 8.83301 -82.5 26.5s-28.5 42.167 -28.5 73.5c0 32 9.5 57 28.5 75s46.5 27 82.5 27s63.5 -9 82.5 -27s28.5 -43 28.5 -75c0 -31.333 -9.5 -55.833 -28.5 -73.5s-46.5 -26.5 -82.5 -26.5z" />
    <glyph glyph-name="uni01C9" unicode="&#x1c9;" horiz-adv-x="925" 
d="M151 0v1616h160v-1616h-160zM541 -464l-106 72c42 58 76.167 115.333 102.5 172s45.5 116.5 57.5 179.5s18 133.167 18 210.5v915h160v-906c0 -86 -7.83301 -164.833 -23.5 -236.5s-40.5 -140.5 -74.5 -206.5s-78.667 -132.667 -134 -200zM692 1325
c-36 0 -63.5 8.83301 -82.5 26.5s-28.5 42.167 -28.5 73.5c0 32 9.5 57 28.5 75s46.5 27 82.5 27s63.5 -9 82.5 -27s28.5 -43 28.5 -75c0 -31.333 -9.5 -55.833 -28.5 -73.5s-46.5 -26.5 -82.5 -26.5z" />
    <glyph glyph-name="uni01CA" unicode="&#x1ca;" horiz-adv-x="1970" 
d="M169 0v1480h167l851 -1294h-40v1294h153v-1480h-167l-850 1294h40v-1294h-154zM1567 -344l-107 73c42 58 76.167 114.5 102.5 169.5s45.666 113.833 57.999 176.5s18.5 134.667 18.5 216v1189h161v-1210c0 -81.333 -7.83301 -155.5 -23.5 -222.5s-40.667 -132 -75 -195
s-79.166 -128.5 -134.499 -196.5z" />
    <glyph glyph-name="uni01CB" unicode="&#x1cb;" horiz-adv-x="1932" 
d="M169 0v1480h167l851 -1294h-40v1294h153v-1480h-167l-850 1294h40v-1294h-154zM1548 -464l-106 72c42 58 76.167 115.333 102.5 172s45.5 116.5 57.5 179.5s18 133.167 18 210.5v915h160v-906c0 -86 -7.83301 -164.833 -23.5 -236.5s-40.5 -140.5 -74.5 -206.5
s-78.667 -132.667 -134 -200zM1699 1325c-36 0 -63.5 8.83301 -82.5 26.5s-28.5 42.167 -28.5 73.5c0 32 9.5 57 28.5 75s46.5 27 82.5 27s63.5 -9 82.5 -27s28.5 -43 28.5 -75c0 -31.333 -9.5 -55.833 -28.5 -73.5s-46.5 -26.5 -82.5 -26.5z" />
    <glyph glyph-name="uni01CC" unicode="&#x1cc;" horiz-adv-x="1599" 
d="M151 0v1085h135l11 -122h11c44 44.667 95.333 79 154 103s121 36 187 36c68 0 128.167 -12.5 180.5 -37.5s93.333 -65.667 123 -122s44.5 -131.5 44.5 -225.5v-717h-159v710c0 93.333 -20.5 158.166 -61.5 194.499s-96.5 54.5 -166.5 54.5c-32 0 -66 -4.66699 -102 -14
s-71.167 -24.666 -105.5 -45.999s-64.833 -49.666 -91.5 -84.999v-814h-160zM1216 -464.001l-106 72c42 58 76.167 115.333 102.5 172s45.5 116.5 57.5 179.5s18 133.167 18 210.5v915h160v-906c0 -86 -7.83301 -164.833 -23.5 -236.5s-40.5 -140.5 -74.5 -206.5
s-78.667 -132.667 -134 -200zM1367 1325c-36 0 -63.5 8.83301 -82.5 26.5s-28.5 42.167 -28.5 73.5c0 32 9.5 57 28.5 75s46.5 27 82.5 27s63.5 -9 82.5 -27s28.5 -43 28.5 -75c0 -31.333 -9.5 -55.833 -28.5 -73.5s-46.5 -26.5 -82.5 -26.5z" />
    <glyph glyph-name="Gcaron" unicode="&#x1e6;" horiz-adv-x="1347" 
d="M865 -13c-166.667 0 -306.335 26.335 -419.002 79.002s-197.667 134.167 -255 244.5s-86 252.5 -86 426.5c0 179.333 29.667 325 89 437s143.333 194.167 252 246.5s237 78.5 385 78.5c56 0 111.5 -3.66699 166.5 -11s109.833 -18.333 164.5 -33v-141
c-60 16.667 -116 28.167 -168 34.5s-103.333 9.5 -154 9.5c-117.333 0 -218.166 -20 -302.499 -60s-149.166 -105.333 -194.499 -196s-68 -212.334 -68 -365.001c0 -144.667 21.667 -261.834 65 -351.501s108 -155.167 194 -196.5s193 -62 321 -62c48 0 92.833 2 134.5 6
s80.5 9.33301 116.5 16l-64 -67v638h154v-704c-62.667 -10 -120 -17.333 -172 -22s-105 -7 -159 -7zM669.999 1608l-245 284h140l196 -234h-34l196 234h140l-245 -284h-148z" />
    <glyph glyph-name="gcaron" unicode="&#x1e7;" horiz-adv-x="1129" 
d="M483 -460c-50 0 -103.5 4.16602 -160.5 12.499s-110.167 20.5 -159.5 36.5v134c56.667 -17.333 110.834 -30.166 162.501 -38.499s101.167 -12.5 148.5 -12.5c117.333 0 204 25.167 260 75.5s84 137.5 84 261.5v106h-9c-32.667 -38 -74.5 -69 -125.5 -93
s-109.167 -36 -174.5 -36c-75.333 0 -144.333 17.5 -207 52.5s-113 91.667 -151 170s-57 182.5 -57 312.5c0 194.667 46.5 340.167 139.5 436.5s229.833 144.5 410.5 144.5c37.333 0 75.5 -2 114.5 -6s77.167 -9.66699 114.5 -17s72.333 -16 105 -26v-1020
c0 -176 -41.333 -302.167 -124 -378.5s-206.334 -114.5 -371.001 -114.5zM556 122.999c48.667 0 96.5 10.333 143.5 31s86.5 52.334 118.5 95.001v700c-24 6 -52.333 11.167 -85 15.5s-66.667 6.5 -102 6.5c-121.333 0 -214 -33.833 -278 -101.5s-96 -178.834 -96 -333.501
c0 -107.333 13 -191 39 -251s61.5 -102 106.5 -126s96.167 -36 153.5 -36zM513 1253l-226 363h128l187 -309h-34l187 309h128l-226 -363h-144z" />
    <glyph glyph-name="uni01EA" unicode="&#x1ea;" horiz-adv-x="1439" 
d="M822 -415c-77.333 0 -136.164 16.1699 -176.497 48.5029s-60.5 77.166 -60.5 134.499c0 48 14.5 92.833 43.5 134.5s79.833 78.834 152.5 111.501l-8 -33h-54c-123.333 0 -231 26.167 -323 78.5s-163.5 134.333 -214.5 246s-76.5 256.5 -76.5 434.5
s25.667 322.833 77 434.5s123.166 193.667 215.499 246s199.833 78.5 322.5 78.5c122 0 229.167 -25.833 321.5 -77.5s164.166 -133.334 215.499 -245.001s77 -257.167 77 -436.5c0 -145.333 -17 -267 -51 -365s-80.333 -176 -139 -234s-125.334 -100.333 -200.001 -127
c-66 -22.667 -117.5 -46.834 -154.5 -72.501s-63.167 -52.334 -78.5 -80.001s-23 -55.5 -23 -83.5c0 -36.667 12.333 -64.834 37 -84.501s61.334 -29.5 110.001 -29.5c24 0 48.667 3 74 9s54 15.333 86 28v-80c-27.333 -11.333 -55.333 -20.166 -84 -26.499
s-58.334 -9.5 -89.001 -9.5zM720.002 120.003c89.333 0 167.5 19.833 234.5 59.5s119 104.5 156 194.5s55.5 210.333 55.5 361c0 154 -18.5 276.667 -55.5 368s-89 157 -156 197s-145.167 60 -234.5 60c-90 0 -168.5 -19.667 -235.5 -59s-119 -104 -156 -194
s-55.5 -210.667 -55.5 -362c0 -154.667 18.5 -277.5 55.5 -368.5s89 -156.5 156 -196.5s145.5 -60 235.5 -60z" />
    <glyph glyph-name="uni01EB" unicode="&#x1eb;" horiz-adv-x="1112" 
d="M605 -415c-66.667 0 -119.17 16.6709 -157.503 50.0039s-57.5 78.666 -57.5 135.999c0 49.333 14.333 94.5 43 135.5s72.667 75.5 132 103.5l-7 -29c-94 0 -175.667 19.5 -245 58.5s-123.166 99.667 -161.499 182s-57.5 189.166 -57.5 320.499
c0 130 18.833 236.333 56.5 319s91.167 143.5 160.5 182.5s151 58.5 245 58.5s175.667 -19.5 245 -58.5s122.833 -99.667 160.5 -182s56.5 -188.833 56.5 -319.5c0 -154.667 -26.333 -275.334 -79 -362.001s-125.667 -145.334 -219 -176.001
c-58 -18.667 -103.5 -40.334 -136.5 -65.001s-56.5 -50.5 -70.5 -77.5s-21 -53.5 -21 -79.5c0 -37.333 11.333 -66.333 34 -87s53.667 -31 93 -31c22 0 43.667 2.66699 65 8s43 13.333 65 24l14 -75c-23.333 -11.333 -48.166 -20.166 -74.499 -26.499
s-54.166 -9.5 -83.499 -9.5zM555.997 111.004c61.333 0 114.333 13.332 159 39.999s79.167 71.167 103.5 133.5s36.5 147.166 36.5 254.499c0 109.333 -12.167 195.5 -36.5 258.5s-59 107.667 -104 134s-97.833 39.5 -158.5 39.5c-61.333 0 -114.333 -13.167 -159 -39.5
s-79.167 -70.666 -103.5 -132.999s-36.5 -147.166 -36.5 -254.499c0 -108.667 12.167 -194.5 36.5 -257.5s58.833 -108 103.5 -135s97.667 -40.5 159 -40.5z" />
    <glyph glyph-name="uni01F1" unicode="&#x1f1;" horiz-adv-x="2504" 
d="M519 -12c-37.333 0 -74.333 0.833008 -111 2.5s-74.667 4 -114 7s-81 6.83301 -125 11.5v1447c40 8 81.833 15 125.5 21s87.667 10.5 132 13.5s87.5 4.5 129.5 4.5c244 0 428.167 -61.667 552.5 -185s186.5 -313.333 186.5 -570c0 -174 -29 -316.333 -87 -427
s-144.5 -192.5 -259.5 -245.5s-258.167 -79.5 -429.5 -79.5zM551 127c128.667 0 235.67 20.834 321.003 62.501s149.166 107.667 191.499 198s63.5 208.166 63.5 353.499c0 143.333 -20.833 260.333 -62.5 351s-104.334 157.5 -188.001 200.5s-188.834 64.5 -315.501 64.5
c-36 0 -73.333 -1.66699 -112 -5s-78 -8.33301 -118 -15v-1198c34.667 -4 69.5 -7 104.5 -9s73.5 -3 115.5 -3zM1413 0.000976562v91l829 1288l11 -38h-829v139h1007v-91l-830 -1288l-10 38h851v-139h-1029z" />
    <glyph glyph-name="uni01F2" unicode="&#x1f2;" horiz-adv-x="2320" 
d="M519 -12c-37.333 0 -74.333 0.833008 -111 2.5s-74.667 4 -114 7s-81 6.83301 -125 11.5v1447c40 8 81.833 15 125.5 21s87.667 10.5 132 13.5s87.5 4.5 129.5 4.5c244 0 428.167 -61.667 552.5 -185s186.5 -313.333 186.5 -570c0 -174 -29 -316.333 -87 -427
s-144.5 -192.5 -259.5 -245.5s-258.167 -79.5 -429.5 -79.5zM551 127c128.667 0 235.67 20.834 321.003 62.501s149.166 107.667 191.499 198s63.5 208.166 63.5 353.499c0 143.333 -20.833 260.333 -62.5 351s-104.334 157.5 -188.001 200.5s-188.834 64.5 -315.501 64.5
c-36 0 -73.333 -1.66699 -112 -5s-78 -8.33301 -118 -15v-1198c34.667 -4 69.5 -7 104.5 -9s73.5 -3 115.5 -3zM1463 0.000976562v99l614 891v-37h-603v132h779v-99l-614 -891v38h626v-133h-802z" />
    <glyph glyph-name="uni01F3" unicode="&#x1f3;" horiz-adv-x="2048" 
d="M521 -19c-78.667 0 -150.334 17.8311 -215.001 53.498s-116.167 92.834 -154.5 171.501s-57.5 183.334 -57.5 314.001s20.833 239 62.5 325s103.167 150.333 184.5 193s181.333 64 300 64c30.667 0 61.334 -1.33301 92.001 -4s59 -6 85 -10v528h160v-1616h-136l-11 117
h-11c-32 -39.333 -73.5 -71.833 -124.5 -97.5s-109.167 -38.5 -174.5 -38.5zM557 118.998c48.667 0 96.333 10.667 143 32s86 55.333 118 102v699c-24 6 -52 10.667 -84 14s-63.667 5 -95 5c-126 0 -221.167 -34 -285.5 -102s-96.5 -179.667 -96.5 -335
c0 -106.667 12.833 -190.167 38.5 -250.5s61 -102.833 106 -127.5s96.833 -37 155.5 -37zM1192 -0.00195312v99l614 891v-37h-603v132h779v-99l-614 -891v38h626v-133h-802z" />
    <glyph glyph-name="uni01F4" unicode="&#x1f4;" horiz-adv-x="1347" 
d="M865 -13c-166.667 0 -306.335 26.335 -419.002 79.002s-197.667 134.167 -255 244.5s-86 252.5 -86 426.5c0 179.333 29.667 325 89 437s143.333 194.167 252 246.5s237 78.5 385 78.5c56 0 111.5 -3.66699 166.5 -11s109.833 -18.333 164.5 -33v-141
c-60 16.667 -116 28.167 -168 34.5s-103.333 9.5 -154 9.5c-117.333 0 -218.166 -20 -302.499 -60s-149.166 -105.333 -194.499 -196s-68 -212.334 -68 -365.001c0 -144.667 21.667 -261.834 65 -351.501s108 -155.167 194 -196.5s193 -62 321 -62c48 0 92.833 2 134.5 6
s80.5 9.33301 116.5 16l-64 -67v638h154v-704c-62.667 -10 -120 -17.333 -172 -22s-105 -7 -159 -7zM670.999 1608l177 284h173l-205 -284h-145z" />
    <glyph glyph-name="uni01F5" unicode="&#x1f5;" horiz-adv-x="1129" 
d="M483 -460c-50 0 -103.5 4.16602 -160.5 12.499s-110.167 20.5 -159.5 36.5v134c56.667 -17.333 110.834 -30.166 162.501 -38.499s101.167 -12.5 148.5 -12.5c117.333 0 204 25.167 260 75.5s84 137.5 84 261.5v106h-9c-32.667 -38 -74.5 -69 -125.5 -93
s-109.167 -36 -174.5 -36c-75.333 0 -144.333 17.5 -207 52.5s-113 91.667 -151 170s-57 182.5 -57 312.5c0 194.667 46.5 340.167 139.5 436.5s229.833 144.5 410.5 144.5c37.333 0 75.5 -2 114.5 -6s77.167 -9.66699 114.5 -17s72.333 -16 105 -26v-1020
c0 -176 -41.333 -302.167 -124 -378.5s-206.334 -114.5 -371.001 -114.5zM556 122.999c48.667 0 96.5 10.333 143.5 31s86.5 52.334 118.5 95.001v700c-24 6 -52.333 11.167 -85 15.5s-66.667 6.5 -102 6.5c-121.333 0 -214 -33.833 -278 -101.5s-96 -178.834 -96 -333.501
c0 -107.333 13 -191 39 -251s61.5 -102 106.5 -126s96.167 -36 153.5 -36zM511 1253l215 363h173l-240 -363h-148z" />
    <glyph glyph-name="Aringacute" unicode="&#x1fa;" horiz-adv-x="1349" 
d="M29 0l531 1480h229l531 -1480h-165l-496 1403h28l-496 -1403h-162zM307 479l38 137h658l38 -137h-734zM675 1601c-56 0 -102.5 18.333 -139.5 55s-55.5 82.667 -55.5 138c0 56.667 18.5 103.167 55.5 139.5s83.5 54.5 139.5 54.5c56.667 0 103.334 -18.167 140.001 -54.5
s55 -82.833 55 -139.5c0 -55.333 -18.333 -101.333 -55 -138s-83.334 -55 -140.001 -55zM675 1675c34 0 62 10.833 84 32.5s33 50.5 33 86.5c0 37.333 -11 66.666 -33 87.999s-50 32 -84 32s-62 -10.667 -84 -32s-33 -50.666 -33 -87.999c0 -36 11 -64.833 33 -86.5
s50 -32.5 84 -32.5zM818 1892l-82 50l149 158h136z" />
    <glyph glyph-name="aringacute" unicode="&#x1fb;" horiz-adv-x="1030" 
d="M420 -18c-102 0 -182.167 26.333 -240.5 79s-87.5 125 -87.5 217c0 94.667 31.167 168.5 93.5 221.5s162.5 86.167 300.5 99.5l291 31l15 -106l-296 -32c-86 -8.66699 -147.833 -29.5 -185.5 -62.5s-56.5 -78.5 -56.5 -136.5c0 -60.667 17.333 -107 52 -139
s86.334 -48 155.001 -48c47.333 0 95 10.167 143 30.5s91 54.5 129 102.5v479c0 66.667 -10.333 118.167 -31 154.5s-51.667 61.833 -93 76.5s-93.333 22 -156 22c-40.667 0 -86.834 -3.66699 -138.501 -11s-103.167 -19.666 -154.5 -36.999v131
c46.667 15.333 98.167 27.166 154.5 35.499s109.5 12.5 159.5 12.5c92 0 168.833 -12 230.5 -36s108 -64.5 139 -121.5s46.5 -134.833 46.5 -233.5v-711h-134l-12 121h-10c-35.333 -44.667 -80.5 -79 -135.5 -103s-114.5 -36 -178.5 -36zM511 1248
c-56 0 -102.5 18.333 -139.5 55s-55.5 82.667 -55.5 138c0 56.667 18.5 103.167 55.5 139.5s83.5 54.5 139.5 54.5c56.667 0 103.5 -18.167 140.5 -54.5s55.5 -82.833 55.5 -139.5c0 -55.333 -18.5 -101.333 -55.5 -138s-83.833 -55 -140.5 -55zM511 1322
c34.667 0 62.834 10.833 84.501 32.5s32.5 50.5 32.5 86.5c0 37.333 -10.833 66.666 -32.5 87.999s-49.834 32 -84.501 32c-34 0 -61.833 -10.667 -83.5 -32s-32.5 -50.666 -32.5 -87.999c0 -36 10.833 -64.833 32.5 -86.5s49.5 -32.5 83.5 -32.5zM647 1540l-82 47l159 193
h134z" />
    <glyph glyph-name="AEacute" unicode="&#x1fc;" horiz-adv-x="1847" 
d="M29 0l540 1480h348l-1 -137h-239l-485 -1343h-163zM311 479l39 137h609v-137h-648zM940 0l-100 1480h926v-137h-759l84 -1206h685v-137h-836zM983 691v137h685v-137h-685zM848 1608l177 284h173l-205 -284h-145z" />
    <glyph glyph-name="aeacute" unicode="&#x1fd;" horiz-adv-x="1656" 
d="M1238 -19c-110.667 0 -203.333 19.1689 -278 57.502s-131 98.833 -169 181.5s-57 190.667 -57 324l22 15c0 122.667 16.5 224.167 49.5 304.5s80.333 140.166 142 179.499s134.834 59 219.501 59c85.333 0 158.666 -19.833 219.999 -59.5s108.5 -100.834 141.5 -183.501
s49.5 -188.667 49.5 -318v-51h-725v109h607l-36 -28c0 103.333 -10.5 185.333 -31.5 246s-51 104 -90 130s-86.5 39 -142.5 39c-55.333 0 -103.166 -13 -143.499 -39s-71.5 -69 -93.5 -129s-33 -141 -33 -243v-56c0 -100 13.333 -179.833 40 -239.5
s67.167 -102.667 121.5 -129s122.5 -39.5 204.5 -39.5c40.667 0 83.167 3.83301 127.5 11.5s91.166 18.5 140.499 32.5v-131c-51.333 -14.667 -100.5 -25.5 -147.5 -32.5s-93.167 -10.5 -138.5 -10.5zM432.001 -17.998c-70.667 0 -131.499 11.833 -182.499 35.5
s-90 57.5 -117 101.5s-40.5 97 -40.5 159c0 62.667 14 118.167 42 166.5s72.667 86.166 134 113.499s142 41 242 41h265v-107h-257c-65.333 0 -117.333 -8.66699 -156 -26s-66.334 -41.166 -83.001 -71.499s-25 -64.833 -25 -103.5c0 -60 17.833 -105.833 53.5 -137.5
s87.5 -47.5 155.5 -47.5c55.333 0 110.833 13.5 166.5 40.5s105.5 76.167 149.5 147.5l58 -94c-60.667 -84 -125.5 -141.333 -194.5 -172s-139.167 -46 -210.5 -46zM734.002 544.002l0.00390625 175.998c0 65.333 -10.5 116.333 -31.5 153s-52.333 62.167 -94 76.5
s-93.5 21.5 -155.5 21.5c-40.667 0 -86.834 -3.66699 -138.501 -11s-102.834 -19.666 -153.501 -36.999v131c47.333 16 98.166 28 152.499 36s106.166 12 155.499 12c88.667 0 162.5 -12.333 221.5 -37s103.5 -65.167 133.5 -121.5s45 -132.166 45 -227.499v-187z
M740.006 1253l215 363h173l-240 -363h-148z" />
    <glyph glyph-name="Oslashacute" unicode="&#x1fe;" horiz-adv-x="1439" 
d="M233 -1h-129l1098 1481h130zM720 -19c-123.333 0 -231 26.167 -323 78.5s-163.667 134.333 -215 246s-77 256.5 -77 434.5s25.667 322.833 77 434.5s123.166 193.667 215.499 246s199.833 78.5 322.5 78.5s230 -26.167 322 -78.5s163.667 -134.333 215 -246
s77 -256.5 77 -434.5s-25.667 -322.833 -77 -434.5s-123.166 -193.667 -215.499 -246s-199.5 -78.5 -321.5 -78.5zM720 120c89.333 0 167.5 19.833 234.5 59.5s119 104.5 156 194.5s55.5 210.333 55.5 361c0 154 -18.5 276.667 -55.5 368s-89 157 -156 197
s-145.167 60 -234.5 60c-90 0 -168.5 -19.667 -235.5 -59s-119 -104 -156 -194s-55.5 -210.667 -55.5 -362c0 -154.667 18.5 -277.5 55.5 -368.5s89 -156.5 156 -196.5s145.5 -60 235.5 -60zM643 1608l177 284h173l-205 -284h-145z" />
    <glyph glyph-name="oslashacute" unicode="&#x1ff;" horiz-adv-x="1112" 
d="M906 949c36 -45.333 63.668 -101.668 83.001 -169.001s29 -146.666 29 -237.999c0 -130 -19.167 -236.333 -57.5 -319s-92 -143.667 -161 -183s-150.167 -59 -243.5 -59c-54.667 0 -105.334 7.16699 -152.001 21.5s-88.334 36.5 -125.001 66.5l-53 -75h-123l102 142
c-35.333 46 -62.666 102.5 -81.999 169.5s-29 145.833 -29 236.5c0 130 18.833 236.333 56.5 319s91.167 143.5 160.5 182.5s151 58.5 245 58.5c54 0 104.333 -7 151 -21s88 -36 124 -66l54 76h122zM556.001 972.998c-62 0 -115.668 -13.1689 -161.001 -39.502
s-80.166 -70.833 -104.499 -133.5s-36.5 -148 -36.5 -256c0 -60 4.5 -112.667 13.5 -158s21.833 -83.666 38.5 -114.999l447 627c-24.667 26.667 -53.667 45.834 -87 57.501s-70 17.5 -110 17.5zM556 109.996c62 0 115.501 13.332 160.501 39.999
s79.833 71.334 104.5 134.001s37 147.667 37 255c0 62 -4.5 115.833 -13.5 161.5s-22.167 84.167 -39.5 115.5l-448 -630c25.333 -27.333 54.666 -46.833 87.999 -58.5s70.333 -17.5 111 -17.5zM477.001 1253l215 363h173l-240 -363h-148z" />
    <glyph glyph-name="uni0200" unicode="&#x200;" horiz-adv-x="1349" 
d="M29 0l531 1480h229l531 -1480h-165l-496 1403h28l-496 -1403h-162zM307 479l38 137h658l38 -137h-734zM780 1608l-138 284h135l128 -284h-125zM445 1608l-139 284h136l128 -284h-125z" />
    <glyph glyph-name="uni0201" unicode="&#x201;" horiz-adv-x="1030" 
d="M420 -18c-102 0 -182.167 26.333 -240.5 79s-87.5 125 -87.5 217c0 94.667 31.167 168.5 93.5 221.5s162.5 86.167 300.5 99.5l291 31l15 -106l-296 -32c-86 -8.66699 -147.833 -29.5 -185.5 -62.5s-56.5 -78.5 -56.5 -136.5c0 -60.667 17.333 -107 52 -139
s86.334 -48 155.001 -48c47.333 0 95 10.167 143 30.5s91 54.5 129 102.5v479c0 66.667 -10.333 118.167 -31 154.5s-51.667 61.833 -93 76.5s-93.333 22 -156 22c-40.667 0 -86.834 -3.66699 -138.501 -11s-103.167 -19.666 -154.5 -36.999v131
c46.667 15.333 98.167 27.166 154.5 35.499s109.5 12.5 159.5 12.5c92 0 168.833 -12 230.5 -36s108 -64.5 139 -121.5s46.5 -134.833 46.5 -233.5v-711h-134l-12 121h-10c-35.333 -44.667 -80.5 -79 -135.5 -103s-114.5 -36 -178.5 -36zM616 1253l-150 363h137l138 -363
h-125zM281 1253l-150 363h137l138 -363h-125z" />
    <glyph glyph-name="uni0202" unicode="&#x202;" horiz-adv-x="1349" 
d="M29 0l531 1480h229l531 -1480h-165l-496 1403h28l-496 -1403h-162zM307 479l38 137h658l38 -137h-734zM356 1629c5.33301 52 20.332 96.833 44.999 134.5s59.5 67 104.5 88s101.167 31.5 168.5 31.5c66.667 0 122.834 -10.5 168.501 -31.5s81 -50.5 106 -88.5
s40.167 -82.667 45.5 -134h-108c-8 52 -28 91.5 -60 118.5s-82.667 40.5 -152 40.5s-119.833 -13.5 -151.5 -40.5s-51.167 -66.5 -58.5 -118.5h-108z" />
    </font>
</defs>
</svg>
