<?xml version="1.0" encoding="utf-8"?>
<!-- Generator: Adobe Illustrator 22.0.1, SVG Export Plug-In . SVG Version: 6.00 Build 0)  -->
<svg version="1.1" id="Layer_1" xmlns="http://www.w3.org/2000/svg" xmlns:xlink="http://www.w3.org/1999/xlink" x="0px" y="0px"
	 viewBox="0 0 282 167" style="enable-background:new 0 0 282 167;" xml:space="preserve">
<style type="text/css">
	.st0{fill:#8CC63F;}
</style>
<path class="st0" d="M276.7,10.4c-0.1,0.6,0.4,1.2,1.2,1.4c0.8,0.1,1.5-0.2,1.7-0.9l2.1-8.9c0.1-0.6-0.4-1.2-1.2-1.4
	s-1.5,0.2-1.7,0.9L276.7,10.4z"/>
<path class="st0" d="M270,27.4c-0.3,0.6,0.1,1.3,0.8,1.6s1.6,0.1,1.8-0.5l4-8.2c0.3-0.6-0.1-1.3-0.8-1.6c-0.7-0.3-1.6-0.1-1.8,0.5
	L270,27.4z"/>
<path class="st0" d="M262,44.4c-0.3,0.6,0.1,1.3,0.8,1.6s1.6,0.1,1.8-0.5l4-8.2c0.3-0.6-0.1-1.3-0.8-1.6c-0.7-0.3-1.6-0.1-1.8,0.5
	L262,44.4z"/>
<path class="st0" d="M252.7,60.2c-0.3,0.5,0,1.3,0.7,1.6c0.7,0.4,1.5,0.2,1.9-0.3l4.6-7.8c0.3-0.5,0-1.3-0.7-1.6
	c-0.7-0.4-1.5-0.2-1.9,0.3L252.7,60.2z"/>
<path class="st0" d="M243.7,76c-0.3,0.5,0,1.3,0.7,1.6s1.5,0.2,1.9-0.3l4.6-7.8c0.3-0.5,0-1.3-0.7-1.6c-0.7-0.4-1.5-0.2-1.9,0.3
	L243.7,76z"/>
<path class="st0" d="M233.7,92c-0.3,0.5,0,1.3,0.7,1.6c0.7,0.4,1.5,0.2,1.9-0.3l4.6-7.8c0.3-0.5,0-1.3-0.7-1.6
	c-0.7-0.4-1.5-0.2-1.9,0.3L233.7,92z"/>
<path class="st0" d="M221.5,104.8c-0.5,0.4-0.4,1.2,0.1,1.8c0.6,0.6,1.4,0.7,1.9,0.3l6.9-6c0.5-0.4,0.4-1.2-0.1-1.8
	c-0.6-0.6-1.4-0.7-1.9-0.3L221.5,104.8z"/>
<path class="st0" d="M205.1,110.7c-0.6,0.2-0.9,0.9-0.6,1.7c0.3,0.8,1,1.2,1.6,1l8.7-2.5c0.6-0.2,0.9-0.9,0.6-1.7
	c-0.3-0.8-1-1.2-1.6-1L205.1,110.7z"/>
<path class="st0" d="M186.8,111.2c-0.6,0-1.1,0.6-1.1,1.4c0,0.8,0.5,1.5,1.1,1.5l9.1,0.4c0.6,0,1.1-0.6,1.1-1.4
	c0-0.8-0.5-1.5-1.1-1.5L186.8,111.2z"/>
<path class="st0" d="M169.3,106.4c-0.6-0.2-1.3,0.2-1.5,1c-0.2,0.8,0.1,1.6,0.6,1.8l8.5,3.1c0.6,0.2,1.3-0.2,1.5-1
	c0.2-0.8-0.1-1.6-0.6-1.8L169.3,106.4z"/>
<path class="st0" d="M154.3,97.4c-0.5-0.4-1.3-0.1-1.7,0.5c-0.4,0.7-0.4,1.5,0.1,1.9l7.3,5.4c0.5,0.4,1.3,0.1,1.7-0.5
	c0.4-0.7,0.4-1.5-0.1-1.9L154.3,97.4z"/>
<path class="st0" d="M137.4,90.5c-0.6-0.2-1.2,0.3-1.4,1.1s0.1,1.6,0.7,1.7l8.7,2.7c0.6,0.2,1.2-0.3,1.4-1.1s-0.1-1.6-0.7-1.7
	L137.4,90.5z"/>
<path class="st0" d="M118.5,90.4c-0.6,0-1,0.7-0.9,1.5c0.1,0.8,0.7,1.4,1.3,1.3l9.1-0.7c0.6,0,1-0.7,0.9-1.5
	c-0.1-0.8-0.7-1.4-1.3-1.3L118.5,90.4z"/>
<path class="st0" d="M99.8,95.7c-0.6,0.2-0.8,1-0.4,1.7c0.3,0.7,1.1,1.1,1.7,0.9l8.4-3.4c0.6-0.2,0.8-1,0.4-1.7
	c-0.3-0.7-1.1-1.1-1.7-0.9L99.8,95.7z"/>
<path class="st0" d="M82.8,102.7c-0.6,0.2-0.8,1-0.4,1.7c0.3,0.7,1.1,1.1,1.7,0.9l8.4-3.4c0.6-0.2,0.8-1,0.4-1.7
	c-0.3-0.7-1.1-1.1-1.7-0.9L82.8,102.7z"/>
<path class="st0" d="M65.8,109.7c-0.6,0.2-0.8,1-0.4,1.7c0.3,0.7,1.1,1.1,1.7,0.9l8.4-3.4c0.6-0.2,0.8-1,0.4-1.7
	c-0.3-0.7-1.1-1.1-1.7-0.9L65.8,109.7z"/>
<path class="st0" d="M48.9,118.2c-0.6,0.3-0.7,1.1-0.3,1.8c0.4,0.7,1.2,1,1.7,0.7l8-4.3c0.6-0.3,0.7-1.1,0.3-1.8
	c-0.4-0.7-1.2-1-1.7-0.7L48.9,118.2z"/>
<path class="st0" d="M33.7,128.4c-0.5,0.4-0.5,1.2,0,1.8c0.5,0.6,1.3,0.8,1.8,0.4l7.3-5.4c0.5-0.4,0.5-1.2,0-1.8
	c-0.5-0.6-1.3-0.8-1.8-0.4L33.7,128.4z"/>
<path class="st0" d="M21.2,140.3c-0.5,0.4-0.3,1.2,0.2,1.8c0.6,0.5,1.4,0.6,1.9,0.2l6.5-6.3c0.4-0.4,0.3-1.2-0.2-1.8
	c-0.6-0.5-1.4-0.6-1.9-0.2L21.2,140.3z"/>
<path class="st0" d="M10,153.6c-0.4,0.5-0.1,1.3,0.5,1.7c0.7,0.4,1.5,0.4,1.9-0.1l5.4-7.3c0.4-0.5,0.1-1.3-0.5-1.7
	c-0.7-0.4-1.5-0.4-1.9,0.1L10,153.6z"/>
<path class="st0" d="M4.2,165.7c0.3,0.8,1.1,1.2,1.8,0.9l8-2.7c0.7-0.2,1.1-1.1,0.8-1.8s-1.1-1.2-1.8-0.9l-6.6,2.2l-2.6-6.9
	c-0.3-0.8-1.1-1.2-1.8-0.9c-0.7,0.2-1.1,1.1-0.8,1.8L4.2,165.7z"/>
</svg>
