<?xml version="1.0" encoding="utf-8"?>
<!-- Generator: Adobe Illustrator 16.0.0, SVG Export Plug-In . SVG Version: 6.00 Build 0)  -->
<!DOCTYPE svg PUBLIC "-//W3C//DTD SVG 1.1//EN" "http://www.w3.org/Graphics/SVG/1.1/DTD/svg11.dtd">
<svg version="1.1" id="Layer_1" xmlns="http://www.w3.org/2000/svg" xmlns:xlink="http://www.w3.org/1999/xlink" x="0px" y="0px"
	 width="293px" height="151px" viewBox="0 0 293 151" enable-background="new 0 0 293 151" xml:space="preserve">
<path fill="#F0385D" d="M10.661,26.719c0.275,0.564-0.097,1.274-0.831,1.586c-0.733,0.312-1.551,0.108-1.826-0.456l-3.984-8.17
	c-0.275-0.564,0.097-1.274,0.831-1.586s1.551-0.108,1.827,0.456L10.661,26.719z"/>
<path fill="#F0385D" d="M19.922,42.453c0.318,0.541,0.001,1.278-0.706,1.646s-1.539,0.227-1.856-0.314l-4.601-7.839
	c-0.318-0.541-0.001-1.278,0.706-1.646c0.708-0.368,1.539-0.227,1.856,0.314L19.922,42.453z"/>
<path fill="#F0385D" d="M28.95,58.259c0.318,0.542,0.002,1.278-0.706,1.646s-1.539,0.227-1.856-0.314l-4.601-7.839
	c-0.318-0.541-0.001-1.278,0.706-1.646s1.539-0.227,1.856,0.314L28.95,58.259z"/>
<path fill="#F0385D" d="M38.95,74.259c0.318,0.542,0.002,1.278-0.706,1.646s-1.539,0.226-1.856-0.314l-4.601-7.839
	c-0.318-0.541-0.001-1.278,0.706-1.646s1.539-0.227,1.856,0.314L38.95,74.259z"/>
<path fill="#F0385D" d="M51.149,87.088c0.474,0.412,0.409,1.211-0.145,1.785s-1.386,0.705-1.86,0.293L42.287,83.2
	c-0.473-0.412-0.408-1.211,0.146-1.784c0.554-0.574,1.386-0.705,1.86-0.294L51.149,87.088z"/>
<path fill="#F0385D" d="M67.592,92.976c0.603,0.175,0.88,0.927,0.619,1.681s-0.96,1.223-1.563,1.049l-8.731-2.527
	c-0.603-0.174-0.88-0.927-0.62-1.68c0.261-0.754,0.961-1.223,1.564-1.049L67.592,92.976z"/>
<path fill="#F0385D" d="M85.889,93.503c0.626-0.03,1.132,0.593,1.129,1.39c-0.003,0.797-0.514,1.468-1.14,1.498l-9.08,0.433
	c-0.626,0.03-1.132-0.593-1.129-1.39c0.003-0.797,0.514-1.468,1.141-1.498L85.889,93.503z"/>
<path fill="#F0385D" d="M103.41,88.674c0.59-0.215,1.258,0.229,1.491,0.992c0.234,0.762-0.055,1.554-0.645,1.768l-8.542,3.107
	c-0.59,0.214-1.257-0.23-1.491-0.992c-0.233-0.764,0.056-1.555,0.645-1.77L103.41,88.674z"/>
<path fill="#F0385D" d="M118.395,79.684c0.502-0.376,1.27-0.145,1.714,0.518c0.445,0.662,0.398,1.504-0.104,1.88l-7.276,5.449
	c-0.502,0.376-1.27,0.144-1.714-0.518c-0.445-0.662-0.398-1.504,0.104-1.88L118.395,79.684z"/>
<path fill="#F0385D" d="M3.924,10.515c0.071,0.623-0.516,1.169-1.312,1.219c-0.796,0.05-1.499-0.415-1.57-1.039L0.008,1.664
	C-0.063,1.041,0.524,0.495,1.32,0.445S2.819,0.86,2.89,1.483L3.924,10.515z"/>
<path fill="#F0385D" d="M131.943,68.539c0.503-0.375,1.27-0.141,1.713,0.522c0.443,0.663,0.394,1.504-0.11,1.879l-7.29,5.43
	c-0.503,0.375-1.27,0.142-1.712-0.522c-0.443-0.663-0.394-1.504,0.109-1.879L131.943,68.539z"/>
<path fill="#F0385D" d="M145.943,57.539c0.503-0.375,1.27-0.141,1.713,0.522s0.394,1.504-0.11,1.879l-7.29,5.43
	c-0.503,0.375-1.27,0.141-1.712-0.522c-0.443-0.663-0.394-1.504,0.109-1.879L145.943,57.539z"/>
<path fill="#F0385D" d="M161.555,48.066c0.559-0.286,1.276,0.072,1.603,0.8c0.325,0.728,0.138,1.549-0.421,1.835l-8.092,4.142
	c-0.559,0.286-1.275-0.072-1.603-0.8c-0.326-0.728-0.138-1.549,0.421-1.835L161.555,48.066z"/>
<path fill="#F0385D" d="M180.26,43.615c0.621-0.087,1.182,0.485,1.254,1.279c0.069,0.794-0.377,1.509-0.998,1.597l-9,1.27
	c-0.623,0.088-1.184-0.485-1.254-1.279c-0.07-0.794,0.377-1.509,0.997-1.597L180.26,43.615z"/>
<path fill="#F0385D" d="M199.689,42.86c0.627,0.003,1.101,0.651,1.056,1.447c-0.045,0.796-0.591,1.439-1.218,1.436l-9.09-0.044
	c-0.627-0.003-1.1-0.651-1.055-1.447c0.045-0.796,0.59-1.439,1.217-1.436L199.689,42.86z"/>
<path fill="#F0385D" d="M218.822,47.041c0.58,0.238,0.775,1.016,0.436,1.737s-1.087,1.113-1.667,0.875l-8.411-3.448
	c-0.58-0.238-0.775-1.016-0.435-1.737c0.34-0.721,1.086-1.113,1.667-0.875L218.822,47.041z"/>
<path fill="#F0385D" d="M233.508,57.385c0.49,0.393,0.457,1.193-0.072,1.789c-0.531,0.596-1.356,0.761-1.847,0.369l-7.094-5.683
	c-0.49-0.393-0.458-1.193,0.071-1.789c0.531-0.596,1.357-0.761,1.847-0.369L233.508,57.385z"/>
<path fill="#F0385D" d="M246.479,70.668c0.408,0.477,0.228,1.257-0.404,1.744c-0.633,0.486-1.475,0.494-1.883,0.018l-5.91-6.906
	c-0.408-0.477-0.227-1.258,0.404-1.744c0.633-0.486,1.476-0.495,1.883-0.018L246.479,70.668z"/>
<path fill="#F0385D" d="M256.408,85.284c0.333,0.531,0.039,1.277-0.657,1.665c-0.696,0.389-1.53,0.273-1.864-0.258l-4.832-7.7
	c-0.334-0.531-0.039-1.277,0.656-1.665c0.697-0.389,1.531-0.273,1.865,0.258L256.408,85.284z"/>
<path fill="#F0385D" d="M265.779,101.166c0.334,0.531,0.039,1.277-0.656,1.665c-0.697,0.389-1.532,0.272-1.865-0.259l-4.832-7.699
	c-0.333-0.531-0.039-1.277,0.657-1.666s1.53-0.272,1.864,0.26L265.779,101.166z"/>
<path fill="#F0385D" d="M274.559,117.407c0.297,0.553-0.047,1.278-0.769,1.618s-1.546,0.168-1.843-0.385l-4.299-8.01
	c-0.297-0.553,0.047-1.277,0.768-1.617c0.721-0.341,1.546-0.168,1.843,0.385L274.559,117.407z"/>
<path fill="#F0385D" d="M282.559,133.408c0.297,0.552-0.047,1.277-0.769,1.617s-1.546,0.168-1.843-0.385l-4.299-8.01
	c-0.297-0.553,0.047-1.277,0.768-1.617c0.721-0.341,1.546-0.168,1.843,0.385L282.559,133.408z"/>
<path fill="#F0385D" d="M288.962,149.359c-0.351,0.74-1.21,1.086-1.92,0.775l-7.714-3.376c-0.71-0.311-1.001-1.161-0.65-1.901
	c0.35-0.738,1.209-1.086,1.92-0.774l6.428,2.813l3.172-6.688c0.351-0.739,1.211-1.086,1.921-0.774
	c0.71,0.31,1.001,1.161,0.651,1.899L288.962,149.359z"/>
</svg>
