<?xml version="1.0" encoding="utf-8"?>
<!-- Generator: Adobe Illustrator 22.0.1, SVG Export Plug-In . SVG Version: 6.00 Build 0)  -->
<svg version="1.1" id="Layer_1" xmlns="http://www.w3.org/2000/svg" xmlns:xlink="http://www.w3.org/1999/xlink" x="0px" y="0px"
	 viewBox="0 0 237 151" style="enable-background:new 0 0 237 151;" xml:space="preserve">
<style type="text/css">
	.st0{fill:#8CC63F;}
</style>
<path class="st0" d="M1.6,10.4c0.1,0.6,0.8,1,1.6,0.8s1.3-0.8,1.2-1.4l-1.6-9C2.7,0.2,2-0.1,1.2,0S-0.1,0.9,0,1.5L1.6,10.4z"/>
<path class="st0" d="M8.5,27.8c0.3,0.6,1.1,0.7,1.8,0.3s1-1.2,0.7-1.7L7,18.3c-0.3-0.6-1.1-0.7-1.8-0.3s-1,1.2-0.7,1.7L8.5,27.8z"/>
<path class="st0" d="M22.5,41c0.5,0.4,1.3,0.2,1.7-0.5c0.5-0.7,0.4-1.5-0.1-1.9L17,33.1c-0.5-0.4-1.3-0.2-1.7,0.5s-0.4,1.5,0.1,1.9
	L22.5,41z"/>
<path class="st0" d="M40,48.4c0.6,0.2,1.2-0.3,1.5-1s-0.1-1.6-0.7-1.7l-8.6-2.8c-0.6-0.2-1.2,0.3-1.5,1c-0.2,0.8,0.1,1.6,0.7,1.7
	L40,48.4z"/>
<path class="st0" d="M59.1,53.1c0.6,0.2,1.2-0.4,1.4-1.1c0.2-0.8-0.2-1.5-0.8-1.7l-8.8-2.2c-0.6-0.2-1.2,0.4-1.4,1.1
	c-0.2,0.8,0.2,1.5,0.8,1.7L59.1,53.1z"/>
<path class="st0" d="M78.2,57.8c0.6,0.2,1.2-0.4,1.4-1.1s-0.2-1.5-0.8-1.7l-8.8-2.2c-0.6-0.2-1.2,0.4-1.4,1.1
	c-0.2,0.8,0.2,1.5,0.8,1.7L78.2,57.8z"/>
<path class="st0" d="M98.4,61c0.6,0.1,1.2-0.5,1.3-1.3c0.1-0.8-0.4-1.5-1-1.6l-9-1.4c-0.6-0.1-1.2,0.5-1.3,1.3
	c-0.1,0.8,0.4,1.5,1,1.6L98.4,61z"/>
<path class="st0" d="M118.6,62.5c0.6,0,1.1-0.6,1.1-1.4s-0.5-1.5-1.2-1.5l-9.1-0.3c-0.6,0-1.1,0.6-1.1,1.4s0.5,1.5,1.2,1.5
	L118.6,62.5z"/>
<path class="st0" d="M140.5,63.9c0.6,0,1.1-0.6,1.1-1.4c0-0.8-0.5-1.5-1.2-1.5l-9.1-0.3c-0.6,0-1.1,0.6-1.1,1.4
	c0,0.8,0.5,1.5,1.2,1.5L140.5,63.9z"/>
<path class="st0" d="M160.8,69.2c0.6,0.2,1.3-0.2,1.5-1c0.2-0.8-0.1-1.6-0.6-1.8l-8.6-3.1c-0.6-0.2-1.3,0.2-1.5,1s0.1,1.6,0.7,1.8
	L160.8,69.2z"/>
<path class="st0" d="M175.5,79.9c0.5,0.4,1.3,0.3,1.8-0.4s0.5-1.5,0.1-1.9l-6.8-6.1c-0.5-0.4-1.3-0.3-1.8,0.4s-0.5,1.5-0.1,1.9
	L175.5,79.9z"/>
<path class="st0" d="M186.3,94.5c0.3,0.5,1.1,0.6,1.8,0.2c0.7-0.4,0.9-1.2,0.6-1.8l-4.6-7.8c-0.3-0.5-1.1-0.6-1.8-0.2
	c-0.7,0.4-0.9,1.2-0.6,1.8L186.3,94.5z"/>
<path class="st0" d="M198.3,109.3c0.4,0.4,1.2,0.3,1.8-0.3c0.5-0.6,0.6-1.4,0.2-1.9l-6.5-6.4c-0.4-0.4-1.2-0.3-1.8,0.3
	c-0.5,0.6-0.6,1.4-0.2,1.9L198.3,109.3z"/>
<path class="st0" d="M213.7,121.9c0.5,0.4,1.3,0.2,1.7-0.4c0.5-0.6,0.5-1.5,0-1.9l-7-5.8c-0.5-0.4-1.3-0.2-1.7,0.4
	c-0.5,0.6-0.5,1.5,0,1.9L213.7,121.9z"/>
<path class="st0" d="M225.1,136.8c0.3,0.5,1.1,0.6,1.8,0.2c0.7-0.4,1-1.2,0.6-1.8l-4.6-7.9c-0.3-0.5-1.1-0.6-1.8-0.2
	c-0.7,0.4-1,1.2-0.6,1.8L225.1,136.8z"/>
<path class="st0" d="M230.5,149.9c0.7,0.3,1.6,0,2-0.7l3.7-7.6c0.3-0.7,0-1.5-0.7-1.9c-0.7-0.3-1.6,0-2,0.7l-3.1,6.3l-6.8-3
	c-0.7-0.3-1.6,0-2,0.7c-0.3,0.7,0,1.5,0.7,1.9L230.5,149.9z"/>
</svg>
