<?xml version="1.0" encoding="utf-8"?>
<!-- Generator: Adobe Illustrator 22.0.1, SVG Export Plug-In . SVG Version: 6.00 Build 0)  -->
<svg version="1.1" id="Layer_1" xmlns="http://www.w3.org/2000/svg" xmlns:xlink="http://www.w3.org/1999/xlink" x="0px" y="0px"
	 viewBox="0 0 153 146" style="enable-background:new 0 0 153 146;" xml:space="preserve">
<style type="text/css">
	.st0{fill:#8CC63F;}
</style>
<path class="st0" d="M136.6,25.2c-0.2,0.6,0.3,1.3,1,1.5c0.8,0.2,1.6-0.1,1.8-0.7l2.9-8.6c0.2-0.6-0.3-1.3-1-1.5
	c-0.8-0.2-1.6,0.1-1.8,0.7L136.6,25.2z"/>
<path class="st0" d="M137.2,44.1c0.1,0.6,0.8,1,1.6,0.8c0.8-0.2,1.3-0.8,1.2-1.4l-1.3-9c-0.1-0.6-0.8-1-1.6-0.8
	c-0.8,0.2-1.3,0.8-1.2,1.4L137.2,44.1z"/>
<path class="st0" d="M142.7,61.8c0.2,0.6,1,0.8,1.7,0.4s1.1-1.1,0.9-1.7l-3.6-8.4c-0.2-0.6-1-0.8-1.7-0.4c-0.7,0.4-1.1,1.1-0.9,1.7
	L142.7,61.8z"/>
<path class="st0" d="M146,78.7c0,0.6,0.7,1.1,1.5,1c0.8-0.1,1.4-0.7,1.4-1.3l-0.4-9.1c0-0.6-0.7-1.1-1.5-1s-1.4,0.7-1.4,1.3
	L146,78.7z"/>
<path class="st0" d="M139.2,94.7c-0.3,0.6,0.1,1.3,0.8,1.6s1.5,0.2,1.8-0.4l4.3-8c0.3-0.6-0.1-1.3-0.8-1.6c-0.7-0.3-1.5-0.2-1.8,0.4
	L139.2,94.7z"/>
<path class="st0" d="M126,105.4c-0.5,0.3-0.6,1.1-0.2,1.8c0.4,0.7,1.2,0.9,1.8,0.6l7.8-4.7c0.5-0.3,0.6-1.1,0.2-1.8
	c-0.4-0.7-1.2-0.9-1.8-0.6L126,105.4z"/>
<path class="st0" d="M109.4,109.5c-0.6,0.1-1,0.8-0.8,1.6c0.2,0.8,0.9,1.3,1.5,1.2l8.9-1.8c0.6-0.1,1-0.8,0.8-1.6
	c-0.2-0.8-0.9-1.3-1.5-1.2L109.4,109.5z"/>
<path class="st0" d="M91,106.7c-0.6-0.1-1.2,0.4-1.3,1.2c-0.1,0.8,0.3,1.5,0.9,1.6l8.9,1.7c0.6,0.1,1.2-0.4,1.3-1.2
	c0.1-0.8-0.3-1.5-0.9-1.6L91,106.7z"/>
<path class="st0" d="M73.1,101c-0.6-0.2-1.3,0.3-1.5,1s0.1,1.6,0.7,1.8l8.6,3c0.6,0.2,1.3-0.3,1.5-1s-0.1-1.6-0.7-1.8L73.1,101z"/>
<path class="st0" d="M53.7,97.7c-0.6,0-1.1,0.6-1.1,1.4c0,0.8,0.5,1.5,1.1,1.5l9.1,0.5c0.6,0,1.1-0.6,1.1-1.4s-0.5-1.5-1.1-1.5
	L53.7,97.7z"/>
<path class="st0" d="M34.3,101.3c-0.6,0.2-0.8,1-0.5,1.7s1,1.2,1.6,1l8.6-2.9c0.6-0.2,0.8-1,0.5-1.7c-0.3-0.7-1-1.2-1.6-1
	L34.3,101.3z"/>
<path class="st0" d="M19.6,113.3c-0.4,0.4-0.3,1.2,0.3,1.8s1.4,0.6,1.9,0.1l6.3-6.5c0.4-0.4,0.3-1.2-0.3-1.8s-1.4-0.6-1.9-0.1
	L19.6,113.3z"/>
<path class="st0" d="M10.4,129.8c-0.3,0.6,0.1,1.3,0.8,1.6c0.7,0.3,1.6,0.1,1.8-0.4l4-8.2c0.3-0.6-0.1-1.3-0.8-1.6
	c-0.7-0.3-1.6-0.1-1.8,0.4L10.4,129.8z"/>
<path class="st0" d="M3.5,144.6c0.3,0.8,1.1,1.2,1.8,1l8-2.5c0.7-0.2,1.1-1,0.9-1.8c-0.3-0.8-1.1-1.2-1.8-1l-6.7,2.1l-2.4-7
	c-0.3-0.8-1.1-1.2-1.8-1s-1.1,1-0.9,1.8L3.5,144.6z"/>
<path class="st0" d="M144.5,8c-0.4,0.5-0.1,1.3,0.6,1.7s1.5,0.3,1.9-0.2l5.2-7.5c0.4-0.5,0.1-1.3-0.6-1.7c-0.7-0.4-1.5-0.3-1.9,0.2
	L144.5,8z"/>
</svg>
